<svg width="48" height="48" viewBox="0 0 48 48" fill="none" xmlns="http://www.w3.org/2000/svg">
<g clip-path="url(#clip0_1299_27772)">
<mask id="mask0_1299_27772" style="mask-type:luminance" maskUnits="userSpaceOnUse" x="7" y="14" width="34" height="20">
<path d="M40.56 14H7V33.58H40.56V14Z" fill="white"/>
</mask>
<g mask="url(#mask0_1299_27772)">
<path d="M40.56 14H7V27.05H40.56V14Z" fill="#BA0019"/>
<path d="M40.56 27.0498H7V33.5798H40.56V27.0498Z" fill="#3E9A13"/>
<path d="M11.31 14H7V33.58H11.31V14Z" fill="white"/>
<path d="M7.51977 33.22H7.70977V32.68H7.51977V33.22ZM9.05977 33.22H9.24977V32.68H9.05977V33.22ZM10.5998 33.22H10.7898V32.68H10.5998V33.22ZM8.29977 31.77H8.48977V31.32H8.29977V31.77ZM9.83977 31.77H10.0298V31.32H9.83977V31.77ZM7.53977 30.6H7.72977V30.06H7.53977V30.6ZM9.07977 30.6H9.26977V30.06H9.07977V30.6ZM10.6198 30.6H10.8098V30.06H10.6198V30.6ZM7.92977 31.32H8.11977V30.87H8.30977V30.42H8.49977V30.87H8.68977V31.32H8.87977V31.77H8.68977V32.22H8.49977V32.67H8.30977V32.22H8.11977V31.77H7.92977V31.32ZM9.46977 31.32H9.65977V30.87H9.84977V30.42H10.0398V30.87H10.2298V31.32H10.4198V31.77H10.2298V32.22H10.0398V32.67H9.84977V32.22H9.65977V31.77H9.46977V31.32ZM9.84977 29.52V29.97H9.65977V30.42H9.46977V30.87H9.27977V31.32H9.08977V30.87H8.89977V30.42H8.70977V29.97H8.51977V29.52H8.32977V29.97H8.13977V30.42H7.94977V30.87H7.75977V31.32H7.56977V31.77H7.75977V32.22H7.94977V32.67H8.13977V33.12H8.32977V33.57H8.51977V33.12H8.70977V32.67H8.89977V32.22H9.08977V31.77H9.27977V32.22H9.46977V32.67H9.65977V33.12H9.84977V33.57H10.0398V33.12H10.2298V32.67H10.4198V32.22H10.6098V31.77H10.7998V31.32H10.6098V30.87H10.4198V30.42H10.2298V29.97H10.0398V29.52H9.84977ZM10.3298 29.07H10.4298V28.89H10.5298V29.07H10.6298V29.25H10.5298V29.43H10.4298V29.25H10.3298V29.07ZM10.3298 28.44V28.71H10.2398V28.98H10.1398V29.34H10.2398V29.61H10.3298V29.88H10.6198V29.61H10.7198V29.34H10.8098V28.98H10.7198V28.71H10.6198V28.44H10.3298ZM7.73977 29.06H7.83977V28.88H7.93977V29.06H8.02977V29.24H7.93977V29.42H7.83977V29.24H7.73977V29.06ZM7.73977 28.43V28.7H7.63977V28.97H7.53977V29.33H7.63977V29.6H7.73977V29.87H8.02977V29.6H8.12977V29.33H8.21977V28.97H8.12977V28.7H8.02977V28.43H7.73977ZM8.79977 29.06H8.88977V28.88H8.98977V29.06H9.07977V29.24H8.98977V29.42H8.88977V29.24H8.79977V29.06ZM9.27977 29.06H9.37977V28.88H9.47977V29.06H9.56977V29.24H9.47977V29.42H9.37977V29.24H9.27977V29.06ZM9.27977 28.43V28.7H9.08977V28.43H8.79977V28.7H8.69977V28.97H8.59977V29.33H8.69977V29.6H8.79977V29.87H9.08977V29.6H9.27977V29.87H9.56977V29.6H9.66977V29.33H9.75977V28.97H9.66977V28.7H9.56977V28.43H9.27977ZM7.54977 28.25H7.73977V27.71H7.54977V28.25ZM9.08977 28.25H9.27977V27.71H9.08977V28.25ZM10.6298 28.25H10.8198V27.71H10.6298V28.25ZM7.51977 26H7.70977V25.64H7.51977V26ZM10.5898 26H10.7798V25.64H10.5898V26ZM9.04977 24.74H9.23977V24.29H9.04977V24.74ZM7.50977 23.52V23.79H7.51977V24.06H7.70977V23.79V23.52H7.51977H7.50977ZM8.56977 23.52V23.79V24.06H8.75977V23.79V23.52H8.56977ZM9.52977 23.52V23.79V24.06H9.71977V23.79V23.52H9.52977ZM10.5898 23.52V23.79V24.06H10.7798V23.79V23.52H10.5898ZM9.33977 23.2V23.38H9.23977V23.52H9.04977V23.38H8.95977V23.2H8.76977V23.47H8.85977V23.61H8.95977V23.79V23.97H8.85977V24.11H8.76977V24.38H8.95977V24.2H9.04977V24.07H9.23977V24.2H9.33977V24.38H9.52977V24.11H9.43977V23.97H9.33977V23.79V23.61H9.43977V23.47H9.52977V23.2H9.33977ZM9.04977 23.29H9.23977V22.84H9.04977V23.29ZM7.50977 21.94H7.69977V21.58H7.50977V21.94ZM10.5798 21.94H10.7698V21.58H10.5798V21.94ZM7.51977 19.87H7.70977V19.33H7.51977V19.87ZM9.05977 19.87H9.24977V19.33H9.05977V19.87ZM10.5998 19.87H10.7898V19.33H10.5998V19.87ZM8.29977 23.8V23.61H8.48977V23.3H8.67977V22.94H8.96977V22.51H9.05977V22.3H9.24977V22.5H9.34977V22.93H9.63977V23.29H9.82977V23.6H10.0198V23.96H9.82977V24.28H9.63977V24.64H9.34977V25.07H9.24977V25.27H9.05977V25.07H8.96977V24.64H8.67977V24.28H8.48977V23.96H8.29977V23.79V23.8ZM9.83977 18.78V19.23H9.64977V19.68H9.45977V20.13H9.26977V20.58H9.07977V20.13H8.88977V19.68H8.69977V19.23H8.50977V18.78H8.31977V19.23H8.12977V19.68H7.93977V20.13H7.74977V20.58H7.55977V21.03H7.74977V21.48H7.93977V21.93H8.12977V22.38H8.31977V21.93H8.50977V21.48H8.69977V21.03H8.50977V20.49H8.69977V20.85H8.88977V21.57H8.98977V22.02H8.69977V22.38H8.50977V22.65H8.31977V23.1H8.12977V22.65H7.93977V22.38H7.74977V22.11H7.55977V22.92H7.74977V23.28H7.93977V23.59H8.12977V23.77V23.95H7.93977V24.27H7.74977V24.63H7.55977V25.44H7.74977V25.17H7.93977V24.9H8.12977V24.45H8.31977V24.9H8.50977V25.17H8.69977V25.53H8.98977V25.98H8.88977V26.7H8.69977V27.06H8.50977V26.51H8.69977V26.06H8.50977V25.61H8.31977V25.16H8.12977V25.61H7.93977V26.06H7.74977V26.51H7.55977V26.96H7.74977V27.41H7.93977V27.86H8.12977V28.31H8.31977V28.76H8.50977V28.31H8.69977V27.86H8.88977V27.41H9.07977V26.96H9.26977V27.41H9.45977V27.86H9.64977V28.31H9.83977V28.76H10.0298V28.31H10.2198V27.86H10.4098V27.41H10.5998V26.96H10.7898V26.51H10.5998V26.06H10.4098V25.61H10.2198V25.16H10.0298V25.61H9.83977V26.06H9.64977V26.51H9.83977V27.06H9.64977V26.7H9.45977V25.98H9.35977V25.53H9.64977V25.17H9.83977V24.9H10.0298V24.45H10.2198V24.9H10.4098V25.17H10.5998V25.44H10.7898V24.63H10.5998V24.27H10.4098V23.95H10.2198V23.77V23.59H10.4098V23.28H10.5998V22.92H10.7898V22.11H10.5998V22.38H10.4098V22.65H10.2198V23.1H10.0298V22.65H9.83977V22.38H9.64977V22.02H9.35977V21.57H9.45977V20.85H9.64977V20.49H9.83977V21.03H9.64977V21.48H9.83977V21.93H10.0298V22.38H10.2198V21.93H10.4098V21.48H10.5998V21.03H10.7898V20.58H10.5998V20.13H10.4098V19.68H10.2198V19.23H10.0298V18.78H9.83977ZM7.72977 18.33H7.81977V18.15H7.91977V18.33H8.00977V18.51H7.91977V18.69H7.81977V18.51H7.72977V18.33ZM7.72977 17.97H7.62977V18.24H7.52977V18.6H7.62977V18.87H7.72977V19.14H8.01977V18.87H8.11977V18.6H8.20977V18.24H8.11977V17.97H8.01977V17.7H7.72977V17.97ZM8.78977 18.33H8.87977V18.15H8.97977V18.33H9.06977V18.51H8.97977V18.69H8.87977V18.51H8.78977V18.33ZM9.26977 18.33H9.36977V18.15H9.46977V18.33H9.55977V18.51H9.46977V18.69H9.36977V18.51H9.26977V18.33ZM8.78977 17.97H8.68977V18.24H8.58977V18.6H8.68977V18.87H8.78977V19.14H9.07977V18.87H9.26977V19.14H9.55977V18.87H9.65977V18.6H9.74977V18.24H9.65977V17.97H9.55977V17.7H9.26977V17.97H9.07977V17.7H8.78977V17.97ZM10.3198 18.33H10.4198V18.15H10.5198V18.33H10.6198V18.51H10.5198V18.69H10.4198V18.51H10.3198V18.33ZM10.3198 17.7V17.97H10.2298V18.24H10.1298V18.6H10.2298V18.87H10.3198V19.14H10.6098V18.87H10.7098V18.6H10.7998V18.24H10.7098V17.97H10.6098V17.7H10.3198ZM7.53977 17.52H7.72977V16.98H7.53977V17.52ZM9.07977 17.52H9.26977V16.98H9.07977V17.52ZM10.6198 17.52H10.8098V16.98H10.6198V17.52ZM8.28977 16.26H8.47977V15.81H8.28977V16.26ZM9.82977 16.26H10.0198V15.81H9.82977V16.26ZM7.51977 14.9H7.70977V14.36H7.51977V14.9ZM9.05977 14.9H9.24977V14.36H9.05977V14.9ZM10.5998 14.9H10.7898V14.36H10.5998V14.9ZM7.90977 15.8H8.09977V15.35H8.28977V14.9H8.47977V15.35H8.66977V15.8H8.85977V16.25H8.66977V16.7H8.47977V17.15H8.28977V16.7H8.09977V16.25H7.90977V15.8ZM9.44977 15.8H9.63977V15.35H9.82977V14.9H10.0198V15.35H10.2098V15.8H10.3998V16.25H10.2098V16.7H10.0198V17.15H9.82977V16.7H9.63977V16.25H9.44977V15.8ZM9.82977 14V14.45H9.63977V14.9H9.44977V15.35H9.25977V15.8H9.06977V15.35H8.87977V14.9H8.68977V14.45H8.49977V14H8.30977V14.45H8.11977V14.9H7.92977V15.35H7.73977V15.8H7.54977V16.25H7.73977V16.7H7.92977V17.15H8.11977V17.6H8.30977V18.05H8.49977V17.6H8.68977V17.15H8.87977V16.7H9.06977V16.25H9.25977V16.7H9.44977V17.15H9.63977V17.6H9.82977V18.05H10.0198V17.6H10.2098V17.15H10.3998V16.7H10.5898V16.25H10.7798V15.8H10.5898V15.35H10.3998V14.9H10.2098V14.45H10.0198V14H9.82977Z" fill="#BA0019"/>
</g>
</g>
<defs>
<clipPath id="clip0_1299_27772">
<rect width="33.56" height="19.58" fill="white" transform="translate(7 14)"/>
</clipPath>
</defs>
</svg>
