<svg width="48" height="48" viewBox="0 0 48 48" fill="none" xmlns="http://www.w3.org/2000/svg">
<g clip-path="url(#clip0_1299_23536)">
<mask id="mask0_1299_23536" style="mask-type:luminance" maskUnits="userSpaceOnUse" x="7" y="14" width="34" height="20">
<path d="M40.56 14H7V33.58H40.56V14Z" fill="white"/>
</mask>
<g mask="url(#mask0_1299_23536)">
<path d="M40.56 14H7V33.58H40.56V14Z" fill="#3C9242"/>
<path d="M12.1802 23.7899L23.7802 31.1999L35.3902 23.7899L23.7802 16.3799L12.1802 23.7899Z" fill="#EDC226"/>
<mask id="mask1_1299_23536" style="mask-type:luminance" maskUnits="userSpaceOnUse" x="7" y="14" width="34" height="20">
<path d="M40.56 14H7V33.58H40.56V14Z" fill="white"/>
</mask>
<g mask="url(#mask1_1299_23536)">
<path d="M28.6701 23.7901C28.6701 26.4901 26.4801 28.6801 23.7801 28.6801C21.0801 28.6801 18.8901 26.4901 18.8901 23.7901C18.8901 21.0901 21.0801 18.8901 23.7801 18.8901C26.4801 18.8901 28.6701 21.0901 28.6701 23.7901Z" fill="#2D146E"/>
<path d="M20.9903 21.6899C20.4203 21.6899 19.8603 21.7299 19.3103 21.8099C19.2003 22.0499 19.1203 22.2999 19.0503 22.5599C19.6803 22.4499 20.3303 22.3899 20.9903 22.3899C23.8603 22.3899 26.4803 23.4699 28.4603 25.2499C28.5403 24.9999 28.6003 24.7399 28.6303 24.4799C26.5603 22.7399 23.9003 21.6899 20.9903 21.6899Z" fill="white"/>
<path fill-rule="evenodd" clip-rule="evenodd" d="M19.61 22.3599C19.72 22.3499 19.81 22.2299 19.79 22.0999C19.78 21.9699 19.67 21.8799 19.56 21.8899C19.44 21.8999 19.36 22.0199 19.38 22.1499C19.39 22.2799 19.5 22.3699 19.61 22.3599ZM19.61 22.2699C19.67 22.2699 19.72 22.1899 19.71 22.1099C19.71 22.0299 19.64 21.9699 19.57 21.9799C19.5 21.9799 19.45 22.0599 19.46 22.1399C19.47 22.2199 19.53 22.2799 19.6 22.2699" fill="#3C9242"/>
<path fill-rule="evenodd" clip-rule="evenodd" d="M19.9902 22.3201H20.0702V22.1401H20.2502C20.3302 22.1201 20.3902 22.0501 20.3802 21.9701C20.3802 21.8901 20.3002 21.8301 20.2202 21.8301L19.9502 21.8501L19.9802 22.3201H19.9902ZM20.0602 22.0501H20.2402C20.2402 22.0501 20.2902 22.0101 20.2902 21.9701C20.2902 21.9401 20.2602 21.9101 20.2302 21.9201H20.0502V22.0501H20.0602Z" fill="#3C9242"/>
<path d="M20.3801 22.2901C20.3801 22.2201 20.3701 22.0801 20.2701 22.0801H20.1401C20.2801 22.0801 20.3001 22.2301 20.3001 22.2901" fill="#3C9242"/>
<path fill-rule="evenodd" clip-rule="evenodd" d="M20.5803 22.2803H20.8003C20.9103 22.2803 21.0003 22.1803 21.0003 22.0703V22.0003C21.0003 21.8903 20.9003 21.8003 20.7903 21.8003H20.5703V22.2703L20.5803 22.2803ZM20.6703 22.1903H20.8003C20.8703 22.1903 20.9303 22.1303 20.9203 22.0603V22.0203C20.9203 21.9503 20.8603 21.9003 20.8003 21.9003H20.6703V22.2003V22.1903Z" fill="#3C9242"/>
<path d="M21.1699 22.2701L21.5899 22.2901V22.2001L21.2499 22.1901L21.2599 22.0701L21.5299 22.0801V22.0001L21.2599 21.9901V21.9001L21.5799 21.9101V21.8201L21.1899 21.8101L21.1699 22.2701Z" fill="#3C9242"/>
<path d="M21.7603 22.3001H21.8403L21.8703 21.9901L21.9303 22.3101L22.0103 22.3201L22.1303 22.0101L22.1003 22.3301L22.1803 22.3401L22.2203 21.8701L22.1103 21.8601L21.9803 22.1701L21.9203 21.8401L21.8003 21.8301L21.7603 22.3001Z" fill="#3C9242"/>
<path d="M22.7202 22.4102L23.0702 22.4602L23.0802 22.3902L22.8202 22.3402L22.8402 22.2402L23.0602 22.2702L23.0702 22.1902L22.8502 22.1602L22.8602 22.0902L23.1202 22.1302L23.1302 22.0502L22.8002 21.9902L22.7202 22.4102Z" fill="#3C9242"/>
<path fill-rule="evenodd" clip-rule="evenodd" d="M23.6104 22.5801L23.6904 22.6001L23.7404 22.4301L23.9204 22.4701C24.0004 22.4901 24.0804 22.4401 24.1004 22.3701C24.1204 22.2901 24.0704 22.2101 23.9904 22.1901L23.7304 22.1201L23.6104 22.5701V22.5801ZM23.7604 22.3501L23.9304 22.4001C23.9304 22.4001 23.9904 22.3901 24.0004 22.3601C24.0004 22.3301 23.9904 22.3001 23.9604 22.2901L23.7904 22.2501L23.7604 22.3701V22.3501Z" fill="#3C9242"/>
<path fill-rule="evenodd" clip-rule="evenodd" d="M24.1802 22.7301L24.2602 22.7601L24.3102 22.6001L24.4802 22.6601C24.5602 22.6801 24.6402 22.6401 24.6702 22.5701C24.7002 22.4901 24.6502 22.4101 24.5802 22.3901L24.3202 22.3101L24.1802 22.7501V22.7301ZM24.3402 22.5101L24.5102 22.5601C24.5102 22.5601 24.5702 22.5601 24.5802 22.5201C24.5902 22.4901 24.5802 22.4601 24.5402 22.4501L24.3702 22.4001L24.3302 22.5101H24.3402Z" fill="#3C9242"/>
<path d="M24.5602 22.8501C24.5802 22.7901 24.6202 22.6501 24.5302 22.6201L24.4102 22.5801C24.5502 22.6201 24.5002 22.7601 24.4802 22.8301" fill="#3C9242"/>
<path fill-rule="evenodd" clip-rule="evenodd" d="M24.9403 22.9902C25.0503 23.0302 25.1703 22.9702 25.2203 22.8502C25.2703 22.7302 25.2203 22.6002 25.1103 22.5602C25.0003 22.5202 24.8703 22.5802 24.8303 22.7002C24.7803 22.8202 24.8303 22.9502 24.9503 22.9902M24.9803 22.9102C25.0503 22.9402 25.1203 22.8902 25.1503 22.8202C25.1803 22.7402 25.1503 22.6602 25.0903 22.6402C25.0303 22.6202 24.9503 22.6602 24.9203 22.7302C24.8903 22.8102 24.9203 22.8902 24.9803 22.9102Z" fill="#3C9242"/>
<path fill-rule="evenodd" clip-rule="evenodd" d="M25.49 23.2104C25.6 23.2604 25.73 23.2004 25.78 23.0804C25.83 22.9604 25.78 22.8304 25.68 22.7804C25.57 22.7304 25.45 22.7904 25.4 22.9104C25.35 23.0304 25.4 23.1604 25.5 23.2104M25.54 23.1304C25.6 23.1604 25.68 23.1204 25.71 23.0404C25.74 22.9704 25.71 22.8804 25.66 22.8604C25.6 22.8304 25.52 22.8704 25.49 22.9504C25.46 23.0204 25.48 23.1104 25.54 23.1304Z" fill="#3C9242"/>
<path d="M25.6203 23.0103L25.7803 23.0803L25.7503 23.1403L25.5903 23.0703L25.6203 23.0103Z" fill="#3C9242"/>
<path d="M25.7204 23.0503L25.7804 23.0803L25.6804 23.2903L25.6304 23.2703L25.7204 23.0503Z" fill="#3C9242"/>
<path fill-rule="evenodd" clip-rule="evenodd" d="M25.8403 23.3702L25.9203 23.4102L26.0003 23.2502L26.1703 23.3402C26.2403 23.3802 26.3303 23.3402 26.3703 23.2702C26.4103 23.2002 26.3703 23.1102 26.3103 23.0702L26.0703 22.9502L25.8603 23.3602L25.8403 23.3702ZM26.0303 23.1802L26.1903 23.2602C26.1903 23.2602 26.2503 23.2602 26.2703 23.2302C26.2803 23.2002 26.2703 23.1602 26.2403 23.1502L26.0803 23.0702L26.0303 23.1802Z" fill="#3C9242"/>
<path d="M26.2001 23.5402C26.2301 23.4802 26.2901 23.3502 26.2001 23.3002L26.0801 23.2402C26.2101 23.3102 26.1501 23.4402 26.1201 23.5002" fill="#3C9242"/>
<path d="M26.3701 23.64L26.7401 23.84L26.7801 23.77L26.4801 23.6L26.5401 23.5L26.7701 23.63L26.8101 23.55L26.5801 23.43L26.6301 23.34L26.9001 23.5L26.9501 23.43L26.6001 23.23L26.3701 23.64Z" fill="#3C9242"/>
<path d="M27.0503 23.8602C27.0503 23.8602 27.0503 23.9402 27.1003 23.9802C27.1603 24.0202 27.1903 24.0102 27.2103 23.9802C27.2603 23.9002 26.9703 23.7802 27.0603 23.6402C27.1403 23.5202 27.2703 23.6102 27.3203 23.6402C27.3703 23.6702 27.4503 23.7602 27.3903 23.8502L27.3003 23.7902C27.3003 23.7902 27.3003 23.7102 27.2503 23.6802C27.2103 23.6502 27.1703 23.6402 27.1503 23.6802C27.1103 23.7402 27.4003 23.8602 27.3003 24.0102C27.2403 24.1102 27.1203 24.0702 27.0503 24.0102C26.9803 23.9702 26.8903 23.8702 26.9503 23.7702L27.0403 23.8302L27.0503 23.8602Z" fill="#3C9242"/>
<path d="M27.55 24.1903C27.55 24.1903 27.55 24.2703 27.6 24.3103C27.65 24.3503 27.7 24.3503 27.71 24.3303C27.76 24.2503 27.47 24.1203 27.58 23.9903C27.66 23.8703 27.79 23.9703 27.84 24.0103C27.89 24.0503 27.96 24.1303 27.89 24.2303L27.81 24.1703C27.81 24.1703 27.81 24.0903 27.76 24.0603C27.72 24.0303 27.69 24.0203 27.66 24.0603C27.61 24.1203 27.89 24.2603 27.8 24.3903C27.73 24.4903 27.61 24.4403 27.55 24.3903C27.49 24.3503 27.39 24.2403 27.46 24.1503L27.55 24.2103V24.1903Z" fill="#3C9242"/>
<path fill-rule="evenodd" clip-rule="evenodd" d="M28.02 24.7301C28.11 24.8001 28.25 24.7801 28.33 24.6801C28.41 24.5801 28.4 24.4401 28.31 24.3701C28.22 24.3001 28.08 24.3201 28 24.4201C27.92 24.5201 27.93 24.6601 28.02 24.7301ZM28.07 24.6601C28.12 24.7001 28.21 24.6901 28.26 24.6201C28.31 24.5601 28.3 24.4701 28.26 24.4301C28.21 24.3901 28.13 24.4001 28.07 24.4701C28.02 24.5301 28.02 24.6201 28.07 24.6601Z" fill="#3C9242"/>
<path d="M19.7902 22.7002L19.7202 22.9002L19.8202 22.9302L19.7902 22.7002Z" fill="white"/>
<path d="M19.79 22.7002L19.85 22.9002L19.75 22.9302L19.79 22.7002Z" fill="white"/>
<path d="M19.9803 22.8403H19.7803V22.9503L19.9803 22.8403Z" fill="white"/>
<path d="M19.98 22.8403L19.82 22.9703L19.75 22.8803L19.98 22.8403Z" fill="white"/>
<path d="M19.5903 22.8403L19.7603 22.9703L19.8203 22.8803L19.5903 22.8403Z" fill="white"/>
<path d="M19.5903 22.8403H19.8003V22.9503L19.5903 22.8403Z" fill="white"/>
<path d="M19.91 23.0804L19.84 22.8804L19.75 22.9104L19.91 23.0804Z" fill="white"/>
<path d="M19.9102 23.0801L19.7402 22.9501L19.8002 22.8701L19.9102 23.0801Z" fill="white"/>
<path d="M19.6602 23.0801L19.8302 22.9501L19.7702 22.8701L19.6602 23.0801Z" fill="white"/>
<path d="M19.6602 23.0804L19.7302 22.8804L19.8302 22.9104L19.6602 23.0804Z" fill="white"/>
<path d="M20.2199 24.7603L20.1499 24.9603L20.2599 24.9903L20.2199 24.7603Z" fill="white"/>
<path d="M20.2199 24.7603L20.2799 24.9603L20.1899 24.9903L20.2199 24.7603Z" fill="white"/>
<path d="M20.42 24.8999H20.21V25.0099L20.42 24.8999Z" fill="white"/>
<path d="M20.4199 24.8999L20.2499 25.0299L20.1899 24.9399L20.4199 24.8999Z" fill="white"/>
<path d="M20.02 24.8999L20.19 25.0299L20.25 24.9399L20.02 24.8999Z" fill="white"/>
<path d="M20.02 24.8999H20.23V25.0099L20.02 24.8999Z" fill="white"/>
<path d="M20.3402 25.1399L20.2802 24.9399L20.1802 24.9699L20.3402 25.1399Z" fill="white"/>
<path d="M20.3399 25.1402L20.1699 25.0102L20.2299 24.9302L20.3399 25.1402Z" fill="white"/>
<path d="M20.0903 25.1402L20.2703 25.0102L20.2003 24.9302L20.0903 25.1402Z" fill="white"/>
<path d="M20.0903 25.1399L20.1603 24.9399L20.2603 24.9699L20.0903 25.1399Z" fill="white"/>
<path d="M19.6201 25.2603L19.5801 25.4003L19.6401 25.4203L19.6201 25.2603Z" fill="white"/>
<path d="M19.6201 25.2603L19.6601 25.4003L19.6001 25.4203L19.6201 25.2603Z" fill="white"/>
<path d="M19.7504 25.3604H19.6104V25.4304L19.7504 25.3604Z" fill="white"/>
<path d="M19.7501 25.3604L19.6401 25.4504L19.6001 25.3904L19.7501 25.3604Z" fill="white"/>
<path d="M19.4902 25.3604L19.6002 25.4504L19.6402 25.3904L19.4902 25.3604Z" fill="white"/>
<path d="M19.4902 25.3604H19.6302V25.4304L19.4902 25.3604Z" fill="white"/>
<path d="M19.7003 25.5201L19.6603 25.3901L19.5903 25.4101L19.7003 25.5201Z" fill="white"/>
<path d="M19.7003 25.5204L19.5903 25.4404L19.6303 25.3804L19.7003 25.5204Z" fill="white"/>
<path d="M19.54 25.5204L19.65 25.4404L19.61 25.3804L19.54 25.5204Z" fill="white"/>
<path d="M19.54 25.5201L19.58 25.3901L19.64 25.4101L19.54 25.5201Z" fill="white"/>
<path d="M20.6999 24.5703L20.6699 24.6603L20.7099 24.6803L20.6999 24.5703Z" fill="white"/>
<path d="M20.7002 24.5703L20.7302 24.6603L20.6802 24.6803L20.7002 24.5703Z" fill="white"/>
<path d="M20.7902 24.6401H20.7002V24.6901L20.7902 24.6401Z" fill="white"/>
<path d="M20.7899 24.6401L20.7099 24.7001L20.6899 24.6501L20.7899 24.6401Z" fill="white"/>
<path d="M20.6001 24.6401L20.6901 24.7001L20.7101 24.6501L20.6001 24.6401Z" fill="white"/>
<path d="M20.6001 24.6401H20.7001V24.6901L20.6001 24.6401Z" fill="white"/>
<path d="M20.7602 24.7499L20.7202 24.6499L20.6802 24.6699L20.7602 24.7499Z" fill="white"/>
<path d="M20.7602 24.7499L20.6802 24.6899L20.7102 24.6499L20.7602 24.7499Z" fill="white"/>
<path d="M20.6401 24.7499L20.7201 24.6899L20.6901 24.6499L20.6401 24.7499Z" fill="white"/>
<path d="M20.6401 24.7499L20.6701 24.6499L20.7201 24.6699L20.6401 24.7499Z" fill="white"/>
<path d="M21.2399 25.2803L21.1899 25.4403L21.2599 25.4703L21.2399 25.2803Z" fill="white"/>
<path d="M21.24 25.2803L21.29 25.4403L21.21 25.4703L21.24 25.2803Z" fill="white"/>
<path d="M21.4 25.3999H21.23V25.4899L21.4 25.3999Z" fill="white"/>
<path d="M21.4 25.3999L21.26 25.4999L21.21 25.4299L21.4 25.3999Z" fill="white"/>
<path d="M21.0703 25.3999L21.2103 25.4999L21.2603 25.4299L21.0703 25.3999Z" fill="white"/>
<path d="M21.0703 25.3999H21.2503V25.4899L21.0703 25.3999Z" fill="white"/>
<path d="M21.3402 25.5902L21.2902 25.4302L21.2002 25.4602L21.3402 25.5902Z" fill="white"/>
<path d="M21.3402 25.5899L21.2002 25.4899L21.2502 25.4199L21.3402 25.5899Z" fill="white"/>
<path d="M21.1401 25.5899L21.2801 25.4899L21.2201 25.4199L21.1401 25.5899Z" fill="white"/>
<path d="M21.1401 25.5902L21.1901 25.4302L21.2701 25.4602L21.1401 25.5902Z" fill="white"/>
<path d="M21.09 25.7603L21.04 25.9303L21.12 25.9603L21.09 25.7603Z" fill="white"/>
<path d="M21.0901 25.7603L21.1401 25.9303L21.0601 25.9603L21.0901 25.7603Z" fill="white"/>
<path d="M21.2601 25.8901H21.0801V25.9701L21.2601 25.8901Z" fill="white"/>
<path d="M21.2601 25.8901L21.1201 25.9901L21.0601 25.9201L21.2601 25.8901Z" fill="white"/>
<path d="M20.9302 25.8901L21.0702 25.9901L21.1202 25.9201L20.9302 25.8901Z" fill="white"/>
<path d="M20.9302 25.8901H21.1002V25.9701L20.9302 25.8901Z" fill="white"/>
<path d="M21.1901 26.0802L21.1401 25.9102L21.0601 25.9402L21.1901 26.0802Z" fill="white"/>
<path d="M21.1903 26.0802L21.0503 25.9802L21.1103 25.9102L21.1903 26.0802Z" fill="white"/>
<path d="M20.9902 26.0802L21.1302 25.9802L21.0802 25.9102L20.9902 26.0802Z" fill="white"/>
<path d="M20.9902 26.0802L21.0402 25.9102L21.1302 25.9402L20.9902 26.0802Z" fill="white"/>
<path d="M25.3 22.0601L25.23 22.2601L25.34 22.2901L25.3 22.0601Z" fill="white"/>
<path d="M25.3003 22.0601L25.3703 22.2601L25.2603 22.2901L25.3003 22.0601Z" fill="white"/>
<path d="M25.5 22.2002H25.29V22.3102L25.5 22.2002Z" fill="white"/>
<path d="M25.5 22.2002L25.33 22.3302L25.27 22.2402L25.5 22.2002Z" fill="white"/>
<path d="M25.1001 22.2002L25.2701 22.3302L25.3301 22.2402L25.1001 22.2002Z" fill="white"/>
<path d="M25.1001 22.2002H25.3101V22.3102L25.1001 22.2002Z" fill="white"/>
<path d="M25.4203 22.4402L25.3603 22.2402L25.2603 22.2702L25.4203 22.4402Z" fill="white"/>
<path d="M25.42 22.44L25.25 22.32L25.31 22.23L25.42 22.44Z" fill="white"/>
<path d="M25.1802 22.44L25.3502 22.32L25.2902 22.23L25.1802 22.44Z" fill="white"/>
<path d="M25.1802 22.4402L25.2402 22.2402L25.3402 22.2702L25.1802 22.4402Z" fill="white"/>
<path d="M27.2101 25.3003L27.1401 25.5003L27.2501 25.5303L27.2101 25.3003Z" fill="white"/>
<path d="M27.2102 25.3003L27.2802 25.5003L27.1802 25.5303L27.2102 25.3003Z" fill="white"/>
<path d="M27.4102 25.4399H27.2002V25.5399L27.4102 25.4399Z" fill="white"/>
<path d="M27.4102 25.4399L27.2402 25.5599L27.1802 25.4799L27.4102 25.4399Z" fill="white"/>
<path d="M27.0103 25.4399L27.1803 25.5599L27.2403 25.4799L27.0103 25.4399Z" fill="white"/>
<path d="M27.0103 25.4399H27.2203V25.5399L27.0103 25.4399Z" fill="white"/>
<path d="M27.3399 25.68L27.2699 25.48L27.1699 25.51L27.3399 25.68Z" fill="white"/>
<path d="M27.3399 25.6802L27.1699 25.5502L27.2299 25.4702L27.3399 25.6802Z" fill="white"/>
<path d="M27.0903 25.6802L27.2603 25.5502L27.2003 25.4702L27.0903 25.6802Z" fill="white"/>
<path d="M27.0903 25.68L27.1503 25.48L27.2503 25.51L27.0903 25.68Z" fill="white"/>
<path d="M27.8901 25.4102L27.8501 25.5402L27.9201 25.5702L27.8901 25.4102Z" fill="white"/>
<path d="M27.8901 25.4102L27.9401 25.5402L27.8701 25.5702L27.8901 25.4102Z" fill="white"/>
<path d="M28.0204 25.5103H27.8804V25.5803L28.0204 25.5103Z" fill="white"/>
<path d="M28.0201 25.5103L27.9101 25.5903L27.8701 25.5303L28.0201 25.5103Z" fill="white"/>
<path d="M27.7603 25.5103L27.8703 25.5903L27.9103 25.5303L27.7603 25.5103Z" fill="white"/>
<path d="M27.7603 25.5103H27.9003V25.5803L27.7603 25.5103Z" fill="white"/>
<path d="M27.9704 25.6703L27.9304 25.5303L27.8604 25.5503L27.9704 25.6703Z" fill="white"/>
<path d="M27.9704 25.6703L27.8604 25.5803L27.9004 25.5303L27.9704 25.6703Z" fill="white"/>
<path d="M27.8101 25.6703L27.9201 25.5803L27.8801 25.5303L27.8101 25.6703Z" fill="white"/>
<path d="M27.8101 25.6703L27.8501 25.5303L27.9201 25.5503L27.8101 25.6703Z" fill="white"/>
<path d="M27.4104 25.7603L27.3604 25.9303L27.4404 25.9603L27.4104 25.7603Z" fill="white"/>
<path d="M27.4104 25.7603L27.4604 25.9303L27.3804 25.9603L27.4104 25.7603Z" fill="white"/>
<path d="M27.5799 25.8901H27.3999V25.9701L27.5799 25.8901Z" fill="white"/>
<path d="M27.5804 25.8901L27.4404 25.9901L27.3804 25.9201L27.5804 25.8901Z" fill="white"/>
<path d="M27.25 25.8901L27.39 25.9901L27.44 25.9201L27.25 25.8901Z" fill="white"/>
<path d="M27.25 25.8901H27.42V25.9701L27.25 25.8901Z" fill="white"/>
<path d="M27.5104 26.0802L27.4604 25.9102L27.3804 25.9402L27.5104 26.0802Z" fill="white"/>
<path d="M27.5101 26.0802L27.3701 25.9802L27.4201 25.9102L27.5101 26.0802Z" fill="white"/>
<path d="M27.3101 26.0802L27.4501 25.9802L27.4001 25.9102L27.3101 26.0802Z" fill="white"/>
<path d="M27.3101 26.0802L27.3601 25.9102L27.4501 25.9402L27.3101 26.0802Z" fill="white"/>
<path d="M26.2302 26.79L26.1802 26.95L26.2602 26.98L26.2302 26.79Z" fill="white"/>
<path d="M26.2302 26.79L26.2902 26.95L26.2002 26.98L26.2302 26.79Z" fill="white"/>
<path d="M26.4002 26.9102H26.2202V27.0002L26.4002 26.9102Z" fill="white"/>
<path d="M26.4002 26.9102L26.2602 27.0102L26.2002 26.9402L26.4002 26.9102Z" fill="white"/>
<path d="M26.0703 26.9102L26.2103 27.0102L26.2603 26.9402L26.0703 26.9102Z" fill="white"/>
<path d="M26.0703 26.9102H26.2403V27.0002L26.0703 26.9102Z" fill="white"/>
<path d="M26.3302 27.1099L26.2802 26.9399L26.2002 26.9699L26.3302 27.1099Z" fill="white"/>
<path d="M26.3299 27.1102L26.1899 27.0002L26.2399 26.9302L26.3299 27.1102Z" fill="white"/>
<path d="M26.1304 27.1102L26.2704 27.0002L26.2204 26.9302L26.1304 27.1102Z" fill="white"/>
<path d="M26.1304 27.1099L26.1804 26.9399L26.2704 26.9699L26.1304 27.1099Z" fill="white"/>
<path d="M26.2202 27.3203L26.1802 27.4503L26.2502 27.4703L26.2202 27.3203Z" fill="white"/>
<path d="M26.2202 27.3203L26.2702 27.4503L26.2002 27.4703L26.2202 27.3203Z" fill="white"/>
<path d="M26.3602 27.4199H26.2202V27.4799L26.3602 27.4199Z" fill="white"/>
<path d="M26.3602 27.4199L26.2402 27.4999L26.2002 27.4399L26.3602 27.4199Z" fill="white"/>
<path d="M26.0903 27.4199L26.2003 27.4999L26.2503 27.4399L26.0903 27.4199Z" fill="white"/>
<path d="M26.0903 27.4199H26.2303V27.4799L26.0903 27.4199Z" fill="white"/>
<path d="M26.3102 27.5699L26.2602 27.4399L26.2002 27.4599L26.3102 27.5699Z" fill="white"/>
<path d="M26.3099 27.5702L26.1899 27.4902L26.2299 27.4302L26.3099 27.5702Z" fill="white"/>
<path d="M26.1401 27.5702L26.2601 27.4902L26.2101 27.4302L26.1401 27.5702Z" fill="white"/>
<path d="M26.1401 27.5699L26.1901 27.4399L26.2501 27.4599L26.1401 27.5699Z" fill="white"/>
<path d="M26.7199 26.4399L26.6699 26.5699L26.7399 26.5899L26.7199 26.4399Z" fill="white"/>
<path d="M26.7202 26.4399L26.7602 26.5699L26.7002 26.5899L26.7202 26.4399Z" fill="white"/>
<path d="M26.85 26.5303H26.71V26.6003L26.85 26.5303Z" fill="white"/>
<path d="M26.8502 26.5303L26.7402 26.6203L26.7002 26.5603L26.8502 26.5303Z" fill="white"/>
<path d="M26.5903 26.5303L26.7003 26.6203L26.7403 26.5603L26.5903 26.5303Z" fill="white"/>
<path d="M26.5903 26.5303H26.7303V26.6003L26.5903 26.5303Z" fill="white"/>
<path d="M26.7999 26.6901L26.7599 26.5601L26.6899 26.5801L26.7999 26.6901Z" fill="white"/>
<path d="M26.7999 26.6903L26.6899 26.6103L26.7299 26.5503L26.7999 26.6903Z" fill="white"/>
<path d="M26.6401 26.6903L26.7501 26.6103L26.7101 26.5503L26.6401 26.6903Z" fill="white"/>
<path d="M26.6401 26.6901L26.6801 26.5601L26.7501 26.5801L26.6401 26.6901Z" fill="white"/>
<path d="M27.1101 26.1602L27.0601 26.3202L27.1401 26.3502L27.1101 26.1602Z" fill="white"/>
<path d="M27.1101 26.1602L27.1701 26.3202L27.0801 26.3502L27.1101 26.1602Z" fill="white"/>
<path d="M27.2801 26.2803H27.1001V26.3603L27.2801 26.2803Z" fill="white"/>
<path d="M27.2803 26.2803L27.1403 26.3803L27.0903 26.3103L27.2803 26.2803Z" fill="white"/>
<path d="M26.9502 26.2803L27.0902 26.3803L27.1402 26.3103L26.9502 26.2803Z" fill="white"/>
<path d="M26.9502 26.2803H27.1202V26.3603L26.9502 26.2803Z" fill="white"/>
<path d="M27.2101 26.4701L27.1601 26.3101L27.0801 26.3301L27.2101 26.4701Z" fill="white"/>
<path d="M27.2103 26.4703L27.0703 26.3703L27.1203 26.3003L27.2103 26.4703Z" fill="white"/>
<path d="M27.0103 26.4703L27.1503 26.3703L27.1003 26.3003L27.0103 26.4703Z" fill="white"/>
<path d="M27.0103 26.4701L27.0603 26.3101L27.1403 26.3301L27.0103 26.4701Z" fill="white"/>
<path d="M26.2099 26.3403L26.1699 26.4803L26.2299 26.5003L26.2099 26.3403Z" fill="white"/>
<path d="M26.2099 26.3403L26.2599 26.4803L26.1899 26.5003L26.2099 26.3403Z" fill="white"/>
<path d="M26.3502 26.4399H26.2002V26.5099L26.3502 26.4399Z" fill="white"/>
<path d="M26.3499 26.4399L26.2299 26.5199L26.1899 26.4699L26.3499 26.4399Z" fill="white"/>
<path d="M26.0801 26.4399L26.1901 26.5199L26.2301 26.4699L26.0801 26.4399Z" fill="white"/>
<path d="M26.0801 26.4399H26.2201V26.5099L26.0801 26.4399Z" fill="white"/>
<path d="M26.3002 26.6L26.2502 26.46L26.1802 26.49L26.3002 26.6Z" fill="white"/>
<path d="M26.3002 26.6L26.1802 26.51L26.2202 26.46L26.3002 26.6Z" fill="white"/>
<path d="M26.1304 26.6L26.2404 26.51L26.2004 26.46L26.1304 26.6Z" fill="white"/>
<path d="M26.1304 26.6L26.1704 26.46L26.2404 26.49L26.1304 26.6Z" fill="white"/>
<path d="M21.9204 23.8101L21.8604 23.9801L21.9504 24.0001L21.9204 23.8101Z" fill="white"/>
<path d="M21.9201 23.8101L21.9701 23.9801L21.8901 24.0001L21.9201 23.8101Z" fill="white"/>
<path d="M22.0802 23.9302H21.9102V24.0202L22.0802 23.9302Z" fill="white"/>
<path d="M22.0801 23.9302L21.9401 24.0402L21.8901 23.9702L22.0801 23.9302Z" fill="white"/>
<path d="M21.75 23.9302L21.89 24.0402L21.94 23.9702L21.75 23.9302Z" fill="white"/>
<path d="M21.75 23.9302H21.92V24.0202L21.75 23.9302Z" fill="white"/>
<path d="M22.0204 24.13L21.9704 23.96L21.8804 23.99L22.0204 24.13Z" fill="white"/>
<path d="M22.0204 24.13L21.8804 24.03L21.9304 23.96L22.0204 24.13Z" fill="white"/>
<path d="M21.8101 24.13L21.9601 24.03L21.9101 23.96L21.8101 24.13Z" fill="white"/>
<path d="M21.8101 24.13L21.8701 23.96L21.9501 23.99L21.8101 24.13Z" fill="white"/>
<path d="M25.1103 23.3999L25.0703 23.5299L25.1403 23.5499L25.1103 23.3999Z" fill="white"/>
<path d="M25.1103 23.3999L25.1603 23.5299L25.0903 23.5499L25.1103 23.3999Z" fill="white"/>
<path d="M25.2504 23.5H25.1104V23.57L25.2504 23.5Z" fill="white"/>
<path d="M25.2503 23.5L25.1303 23.58L25.0903 23.52L25.2503 23.5Z" fill="white"/>
<path d="M24.98 23.5L25.09 23.58L25.13 23.52L24.98 23.5Z" fill="white"/>
<path d="M24.98 23.5H25.12V23.57L24.98 23.5Z" fill="white"/>
<path d="M25.2003 23.66L25.1503 23.52L25.0903 23.54L25.2003 23.66Z" fill="white"/>
<path d="M25.2001 23.6603L25.0801 23.5703L25.1201 23.5103L25.2001 23.6603Z" fill="white"/>
<path d="M25.0303 23.6603L25.1403 23.5703L25.1003 23.5103L25.0303 23.6603Z" fill="white"/>
<path d="M25.0303 23.66L25.0703 23.52L25.1403 23.54L25.0303 23.66Z" fill="white"/>
<path d="M23.78 25.7803L23.71 25.9703L23.82 26.0103L23.78 25.7803Z" fill="white"/>
<path d="M23.78 25.7803L23.85 25.9703L23.75 26.0103L23.78 25.7803Z" fill="white"/>
<path d="M23.98 25.9199H23.77V26.0299L23.98 25.9199Z" fill="white"/>
<path d="M23.98 25.9199L23.81 26.0399L23.75 25.9599L23.98 25.9199Z" fill="white"/>
<path d="M23.5801 25.9199L23.7601 26.0399L23.8101 25.9599L23.5801 25.9199Z" fill="white"/>
<path d="M23.5801 25.9199H23.7901V26.0299L23.5801 25.9199Z" fill="white"/>
<path d="M23.9002 26.16L23.8402 25.96L23.7402 25.99L23.9002 26.16Z" fill="white"/>
<path d="M23.9002 26.1602L23.7402 26.0302L23.7902 25.9502L23.9002 26.1602Z" fill="white"/>
<path d="M23.6602 26.1602L23.8302 26.0302L23.7702 25.9502L23.6602 26.1602Z" fill="white"/>
<path d="M23.6602 26.16L23.7202 25.96L23.8202 25.99L23.6602 26.16Z" fill="white"/>
<path d="M24.35 24.8403L24.29 25.0003L24.38 25.0303L24.35 24.8403Z" fill="white"/>
<path d="M24.3503 24.8403L24.4003 25.0003L24.3203 25.0303L24.3503 24.8403Z" fill="white"/>
<path d="M24.5103 24.96H24.3403V25.04L24.5103 24.96Z" fill="white"/>
<path d="M24.5103 24.96L24.3703 25.06L24.3203 24.99L24.5103 24.96Z" fill="white"/>
<path d="M24.1802 24.96L24.3202 25.06L24.3802 24.99L24.1802 24.96Z" fill="white"/>
<path d="M24.1802 24.96H24.3602V25.04L24.1802 24.96Z" fill="white"/>
<path d="M24.4501 25.1502L24.4001 24.9902L24.3101 25.0202L24.4501 25.1502Z" fill="white"/>
<path d="M24.4501 25.15L24.3101 25.05L24.3601 24.98L24.4501 25.15Z" fill="white"/>
<path d="M24.2402 25.15L24.3902 25.05L24.3402 24.98L24.2402 25.15Z" fill="white"/>
<path d="M24.2402 25.1502L24.3002 24.9902L24.3802 25.0202L24.2402 25.1502Z" fill="white"/>
<path d="M23.78 24.3999L23.73 24.5599L23.81 24.5899L23.78 24.3999Z" fill="white"/>
<path d="M23.7803 24.3999L23.8303 24.5599L23.7603 24.5899L23.7803 24.3999Z" fill="white"/>
<path d="M23.95 24.52H23.77V24.61L23.95 24.52Z" fill="white"/>
<path d="M23.9503 24.52L23.8103 24.62L23.7603 24.55L23.9503 24.52Z" fill="white"/>
<path d="M23.6201 24.52L23.7601 24.62L23.8101 24.55L23.6201 24.52Z" fill="white"/>
<path d="M23.6201 24.52H23.7901V24.61L23.6201 24.52Z" fill="white"/>
<path d="M23.88 24.7103L23.83 24.5503L23.75 24.5703L23.88 24.7103Z" fill="white"/>
<path d="M23.8802 24.71L23.7402 24.61L23.7902 24.54L23.8802 24.71Z" fill="white"/>
<path d="M23.6802 24.71L23.8202 24.61L23.7702 24.54L23.6802 24.71Z" fill="white"/>
<path d="M23.6802 24.7103L23.7302 24.5503L23.8202 24.5703L23.6802 24.7103Z" fill="white"/>
<path d="M23.2902 24.8701L23.2402 25.0101L23.3102 25.0301L23.2902 24.8701Z" fill="white"/>
<path d="M23.29 24.8701L23.33 25.0101L23.27 25.0301L23.29 24.8701Z" fill="white"/>
<path d="M23.4203 24.9702H23.2803V25.0402L23.4203 24.9702Z" fill="white"/>
<path d="M23.42 24.9702L23.31 25.0502L23.27 24.9902L23.42 24.9702Z" fill="white"/>
<path d="M23.1602 24.9702L23.2702 25.0502L23.3102 24.9902L23.1602 24.9702Z" fill="white"/>
<path d="M23.1602 24.9702H23.2902V25.0402L23.1602 24.9702Z" fill="white"/>
<path d="M23.3703 25.1302L23.3303 24.9902L23.2603 25.0102L23.3703 25.1302Z" fill="white"/>
<path d="M23.3703 25.1302L23.2603 25.0402L23.3003 24.9902L23.3703 25.1302Z" fill="white"/>
<path d="M23.21 25.1302L23.32 25.0402L23.28 24.9902L23.21 25.1302Z" fill="white"/>
<path d="M23.21 25.1302L23.25 24.9902L23.32 25.0102L23.21 25.1302Z" fill="white"/>
<path d="M23.5403 25.25L23.5103 25.35L23.5503 25.36L23.5403 25.25Z" fill="white"/>
<path d="M23.54 25.25L23.57 25.35L23.52 25.36L23.54 25.25Z" fill="white"/>
<path d="M23.6303 25.3203H23.5303V25.3703L23.6303 25.3203Z" fill="white"/>
<path d="M23.63 25.3203L23.55 25.3803L23.52 25.3403L23.63 25.3203Z" fill="white"/>
<path d="M23.4399 25.3203L23.5199 25.3803L23.5499 25.3403L23.4399 25.3203Z" fill="white"/>
<path d="M23.4399 25.3203H23.5399V25.3703L23.4399 25.3203Z" fill="white"/>
<path d="M23.59 25.4303L23.56 25.3403L23.52 25.3503L23.59 25.4303Z" fill="white"/>
<path d="M23.5903 25.4301L23.5103 25.3801L23.5403 25.3301L23.5903 25.4301Z" fill="white"/>
<path d="M23.48 25.4301L23.56 25.3801L23.53 25.3301L23.48 25.4301Z" fill="white"/>
<path d="M23.48 25.4303L23.51 25.3403L23.56 25.3503L23.48 25.4303Z" fill="white"/>
<path d="M25.2499 26.9102L25.1899 27.0802L25.2799 27.1002L25.2499 26.9102Z" fill="white"/>
<path d="M25.2502 26.9102L25.3002 27.0802L25.2202 27.1002L25.2502 26.9102Z" fill="white"/>
<path d="M25.4102 27.0303H25.2402V27.1203L25.4102 27.0303Z" fill="white"/>
<path d="M25.4102 27.0303L25.2702 27.1303L25.2202 27.0603L25.4102 27.0303Z" fill="white"/>
<path d="M25.0801 27.0303L25.2201 27.1303L25.2801 27.0603L25.0801 27.0303Z" fill="white"/>
<path d="M25.0801 27.0303H25.2601V27.1203L25.0801 27.0303Z" fill="white"/>
<path d="M25.35 27.2301L25.29 27.0601L25.21 27.0901L25.35 27.2301Z" fill="white"/>
<path d="M25.35 27.2303L25.21 27.1203L25.26 27.0503L25.35 27.2303Z" fill="white"/>
<path d="M25.1401 27.2303L25.2901 27.1203L25.2301 27.0503L25.1401 27.2303Z" fill="white"/>
<path d="M25.1401 27.2301L25.2001 27.0601L25.2801 27.0901L25.1401 27.2301Z" fill="white"/>
<path d="M25.6701 26.5103L25.6201 26.6403L25.6901 26.6703L25.6701 26.5103Z" fill="white"/>
<path d="M25.6701 26.5103L25.7101 26.6403L25.6401 26.6703L25.6701 26.5103Z" fill="white"/>
<path d="M25.8002 26.6104H25.6602V26.6804L25.8002 26.6104Z" fill="white"/>
<path d="M25.8001 26.6104L25.6901 26.6904L25.6401 26.6304L25.8001 26.6104Z" fill="white"/>
<path d="M25.5303 26.6104L25.6403 26.6904L25.6903 26.6304L25.5303 26.6104Z" fill="white"/>
<path d="M25.5303 26.6104H25.6703V26.6804L25.5303 26.6104Z" fill="white"/>
<path d="M25.7501 26.7604L25.7001 26.6304L25.6401 26.6504L25.7501 26.7604Z" fill="white"/>
<path d="M25.7501 26.7601L25.6401 26.6801L25.6801 26.6201L25.7501 26.7601Z" fill="white"/>
<path d="M25.5903 26.7601L25.7003 26.6801L25.6503 26.6201L25.5903 26.7601Z" fill="white"/>
<path d="M25.5903 26.7604L25.6303 26.6304L25.7003 26.6504L25.5903 26.7604Z" fill="white"/>
<path d="M24.8603 26.3901L24.8203 26.5201L24.8803 26.5501L24.8603 26.3901Z" fill="white"/>
<path d="M24.8603 26.3901L24.9003 26.5201L24.8403 26.5501L24.8603 26.3901Z" fill="white"/>
<path d="M24.9901 26.4902H24.8501V26.5602L24.9901 26.4902Z" fill="white"/>
<path d="M24.9903 26.4902L24.8803 26.5702L24.8403 26.5102L24.9903 26.4902Z" fill="white"/>
<path d="M24.73 26.4902L24.84 26.5702L24.88 26.5102L24.73 26.4902Z" fill="white"/>
<path d="M24.73 26.4902H24.87V26.5602L24.73 26.4902Z" fill="white"/>
<path d="M24.9401 26.6403L24.9001 26.5103L24.8301 26.5303L24.9401 26.6403Z" fill="white"/>
<path d="M24.9401 26.6403L24.8301 26.5603L24.8701 26.5103L24.9401 26.6403Z" fill="white"/>
<path d="M24.7803 26.6403L24.8903 26.5603L24.8503 26.5103L24.7803 26.6403Z" fill="white"/>
<path d="M24.7803 26.6403L24.8203 26.5103L24.8903 26.5303L24.7803 26.6403Z" fill="white"/>
<path d="M21.82 26.1699L21.75 26.3699L21.85 26.4099L21.82 26.1699Z" fill="white"/>
<path d="M21.8203 26.1699L21.8803 26.3699L21.7803 26.4099L21.8203 26.1699Z" fill="white"/>
<path d="M22.0201 26.3203H21.8101V26.4303L22.0201 26.3203Z" fill="white"/>
<path d="M22.02 26.3203L21.85 26.4403L21.79 26.3603L22.02 26.3203Z" fill="white"/>
<path d="M21.6201 26.3203L21.7901 26.4403L21.8501 26.3603L21.6201 26.3203Z" fill="white"/>
<path d="M21.6201 26.3203H21.8301V26.4303L21.6201 26.3203Z" fill="white"/>
<path d="M21.9403 26.5504L21.8803 26.3604L21.7803 26.3904L21.9403 26.5504Z" fill="white"/>
<path d="M21.94 26.5501L21.77 26.4301L21.83 26.3501L21.94 26.5501Z" fill="white"/>
<path d="M21.6899 26.5501L21.8599 26.4301L21.7999 26.3501L21.6899 26.5501Z" fill="white"/>
<path d="M21.6899 26.5504L21.7599 26.3604L21.8599 26.3904L21.6899 26.5504Z" fill="white"/>
<path d="M23.7803 27.5503L23.7603 27.6103L23.7903 27.6203L23.7803 27.5503Z" fill="white"/>
<path d="M23.78 27.5503L23.8 27.6103L23.77 27.6203L23.78 27.5503Z" fill="white"/>
<path d="M23.8503 27.6001H23.7803V27.6301L23.8503 27.6001Z" fill="white"/>
<path d="M23.85 27.6001L23.79 27.6401L23.77 27.6101L23.85 27.6001Z" fill="white"/>
<path d="M23.71 27.6001L23.77 27.6401L23.79 27.6101L23.71 27.6001Z" fill="white"/>
<path d="M23.71 27.6001H23.78V27.6301L23.71 27.6001Z" fill="white"/>
<path d="M23.82 27.6704L23.8 27.6104L23.77 27.6204L23.82 27.6704Z" fill="white"/>
<path d="M23.82 27.6704L23.77 27.6304L23.78 27.6104L23.82 27.6704Z" fill="white"/>
<path d="M23.7402 27.6704L23.7902 27.6304L23.7802 27.6104L23.7402 27.6704Z" fill="white"/>
<path d="M23.7402 27.6704L23.7602 27.6104L23.7902 27.6204L23.7402 27.6704Z" fill="white"/>
</g>
</g>
</g>
<defs>
<clipPath id="clip0_1299_23536">
<rect width="33.56" height="19.58" fill="white" transform="translate(7 14)"/>
</clipPath>
</defs>
</svg>
