<svg width="48" height="48" viewBox="0 0 48 48" fill="none" xmlns="http://www.w3.org/2000/svg">
<g clip-path="url(#clip0_1299_22920)">
<mask id="mask0_1299_22920" style="mask-type:luminance" maskUnits="userSpaceOnUse" x="7" y="14" width="34" height="20">
<path d="M40.56 14H7V33.58H40.56V14Z" fill="white"/>
</mask>
<g mask="url(#mask0_1299_22920)">
<path d="M40.56 14H7V20.53H40.56V14Z" fill="#EED12F"/>
<path d="M40.56 20.5298H7V27.0598H40.56V20.5298Z" fill="#242EA7"/>
<path d="M40.56 27.0498H7V33.5798H40.56V27.0498Z" fill="#BD0034"/>
<path d="M22.3198 22.8502L22.5798 20.9902L23.4598 22.6502L21.7798 21.8302L23.6198 21.5002L22.3198 22.8502Z" fill="white"/>
<path d="M24.0999 22.6502L24.9799 20.9902L25.2399 22.8502L23.9399 21.5002L25.7899 21.8302L24.0999 22.6502Z" fill="white"/>
<path d="M20.7201 23.6501L20.3301 21.8101L21.7201 23.0701L19.8501 22.8701L21.4801 21.9301L20.7201 23.6501Z" fill="white"/>
<path d="M25.8398 23.0701L27.2298 21.8101L26.8398 23.6501L26.0798 21.9301L27.7098 22.8701L25.8398 23.0701Z" fill="white"/>
<path d="M19.4802 24.9498L18.4902 23.3498L20.2302 24.0498L18.4102 24.5098L19.6202 23.0698L19.4802 24.9498Z" fill="white"/>
<path d="M27.3301 24.0498L29.0701 23.3498L28.0801 24.9498L27.9501 23.0698L29.1501 24.5098L27.3301 24.0498Z" fill="white"/>
<path d="M18.77 26.5898L17.29 25.4298L19.17 25.4998L17.61 26.5498L18.25 24.7798L18.77 26.5898Z" fill="white"/>
<path d="M28.3999 25.4998L30.2699 25.4298L28.7899 26.5898L29.3099 24.7798L29.9499 26.5498L28.3999 25.4998Z" fill="white"/>
</g>
</g>
<defs>
<clipPath id="clip0_1299_22920">
<rect width="33.56" height="19.58" fill="white" transform="translate(7 14)"/>
</clipPath>
</defs>
</svg>
