<svg width="48" height="48" viewBox="0 0 48 48" fill="none" xmlns="http://www.w3.org/2000/svg">
<g clip-path="url(#clip0_1299_27597)">
<mask id="mask0_1299_27597" style="mask-type:luminance" maskUnits="userSpaceOnUse" x="7" y="14" width="34" height="20">
<path d="M40.56 14H7V33.58H40.56V14Z" fill="white"/>
</mask>
<g mask="url(#mask0_1299_27597)">
<path d="M40.56 14H7V33.58H40.56V14Z" fill="white"/>
<path d="M40.56 14H7V20.54H40.56V14Z" fill="#49A044"/>
<path d="M40.56 27.04H7V33.58H40.56V27.04Z" fill="#C7001B"/>
<path d="M23.7802 21.4302L23.4302 21.7202L23.4902 26.3502L23.7802 26.6802L24.0702 26.3502L24.1402 21.7202L23.7802 21.4302Z" fill="#C7001B"/>
<mask id="mask1_1299_27597" style="mask-type:luminance" maskUnits="userSpaceOnUse" x="7" y="14" width="34" height="20">
<path d="M40.56 14H7V33.58H40.56V14Z" fill="white"/>
</mask>
<g mask="url(#mask1_1299_27597)">
<path d="M24.4898 20.9404C24.3498 21.1704 24.0498 21.2404 23.8198 21.1004C23.8098 21.1004 23.7898 21.0804 23.7798 21.0804C23.5598 21.2404 23.2598 21.2004 23.0898 20.9804C23.0898 20.9704 23.0698 20.9504 23.0598 20.9404C22.9998 21.1704 23.1398 21.4004 23.3598 21.4604C23.5098 21.5004 23.6598 21.4604 23.7698 21.3504C23.9298 21.5104 24.1998 21.5204 24.3698 21.3504C24.4798 21.2404 24.5198 21.0804 24.4898 20.9404Z" fill="#C7001B"/>
<path d="M24.67 21.5903C25.62 22.8803 25.34 24.6903 24.05 25.6403C23.46 26.0703 22.73 26.2603 22 26.1803C23.37 26.7303 24.93 26.0603 25.48 24.6903C25.92 23.5903 25.59 22.3303 24.67 21.6003" fill="#C7001B"/>
<path d="M22.8897 21.5903C21.9497 22.8803 22.2297 24.6903 23.5097 25.6403C24.0997 26.0703 24.8297 26.2603 25.5597 26.1803C24.1897 26.7303 22.6297 26.0603 22.0797 24.6903C21.6397 23.5903 21.9697 22.3303 22.8897 21.6003" fill="#C7001B"/>
<path d="M24.9997 21.5C26.2897 22.44 26.5797 24.25 25.6397 25.54C25.5897 25.6 25.5397 25.67 25.4897 25.72C26.5997 25.12 27.0197 23.73 26.4097 22.62C26.1097 22.07 25.5997 21.66 24.9897 21.5" fill="#C7001B"/>
<path d="M22.56 21.5C21.27 22.44 20.98 24.25 21.92 25.54C21.96 25.6 22.02 25.67 22.07 25.72C20.95 25.12 20.54 23.73 21.14 22.62C21.44 22.07 21.95 21.66 22.55 21.5" fill="#C7001B"/>
<path d="M7.06982 20.2302H7.22982V19.9202H7.68982V20.2302H8.44982V19.7702H7.98982V19.9302H8.28982V20.0902H7.82982V19.7802H7.06982V20.2402V20.2302ZM7.37982 20.2302H7.52982V20.0802H7.37982V20.2302ZM7.06982 19.6102H9.04982V19.4502H7.06982V19.6102ZM9.04982 20.2302H8.58982V19.7702H9.19982V19.4602H9.34982V20.0802H9.49982V19.4602H9.64982V20.0802H9.79982V19.4602H9.94982V20.2402H9.18982V19.9302H8.72982V20.0902H9.02982V20.2402L9.04982 20.2302Z" fill="white"/>
<path d="M10.1296 20.2302H10.2796V19.9202H10.7396V20.2302H11.4996V19.7702H11.0396V19.9302H11.3396V20.0902H10.8796V19.7802H10.1196V20.2402L10.1296 20.2302ZM10.4296 20.2302H10.5796V20.0802H10.4296V20.2302ZM10.1296 19.6102H12.1096V19.4502H10.1296V19.6102ZM12.1096 20.2302H11.6496V19.7702H12.2596V19.4602H12.4096V20.0802H12.5596V19.4602H12.7096V20.0802H12.8596V19.4602H13.0096V20.2402H12.2396V19.9302H11.7796V20.0902H12.0796V20.2402L12.1096 20.2302Z" fill="white"/>
<path d="M13.1799 20.2302H13.3299V19.9202H13.7899V20.2302H14.5499V19.7702H14.0899V19.9302H14.3899V20.0902H13.9299V19.7802H13.1699V20.2402L13.1799 20.2302ZM13.4799 20.2302H13.6299V20.0802H13.4799V20.2302ZM13.1799 19.6102H15.1599V19.4502H13.1799V19.6102ZM15.1599 20.2302H14.6999V19.7702H15.3099V19.4602H15.4599V20.0802H15.6099V19.4602H15.7599V20.0802H15.9099V19.4602H16.0599V20.2402H15.2999V19.9302H14.8399V20.0902H15.1499V20.2402L15.1599 20.2302Z" fill="white"/>
<path d="M16.2297 20.2302H16.3797V19.9202H16.8397V20.2302H17.5997V19.7702H17.1397V19.9302H17.4397V20.0902H16.9797V19.7802H16.2197V20.2402L16.2297 20.2302ZM16.5297 20.2302H16.6797V20.0802H16.5297V20.2302ZM16.2297 19.6102H18.2097V19.4502H16.2297V19.6102ZM18.2097 20.2302H17.7497V19.7702H18.3597V19.4602H18.5097V20.0802H18.6597V19.4602H18.8097V20.0802H18.9597V19.4602H19.1097V20.2402H18.3497V19.9302H17.8897V20.0902H18.1897V20.2402L18.2097 20.2302Z" fill="white"/>
<path d="M19.2798 20.2302H19.4298V19.9202H19.8898V20.2302H20.6498V19.7702H20.1898V19.9302H20.4998V20.0902H20.0398V19.7802H19.2798V20.2402V20.2302ZM19.5898 20.2302H19.7398V20.0802H19.5898V20.2302ZM19.2798 19.6102H21.2598V19.4502H19.2798V19.6102ZM21.2598 20.2302H20.7998V19.7702H21.4098V19.4602H21.5598V20.0802H21.7098V19.4602H21.8598V20.0802H22.0098V19.4602H22.1598V20.2402H21.3998V19.9302H20.9398V20.0902H21.2498V20.2402L21.2598 20.2302Z" fill="white"/>
<path d="M22.3298 20.2302H22.4798V19.9202H22.9398V20.2302H23.6998V19.7702H23.2398V19.9302H23.5398V20.0902H23.0798V19.7802H22.3198V20.2402L22.3298 20.2302ZM22.6398 20.2302H22.7898V20.0802H22.6398V20.2302ZM22.3298 19.6102H24.3098V19.4502H22.3298V19.6102ZM24.3098 20.2302H23.8498V19.7702H24.4598V19.4602H24.6098V20.0802H24.7598V19.4602H24.9098V20.0802H25.0598V19.4602H25.2098V20.2402H24.4498V19.9302H23.9898V20.0902H24.2998V20.2402L24.3098 20.2302Z" fill="white"/>
<path d="M25.3799 20.2302H25.5299V19.9202H25.9899V20.2302H26.7499V19.7702H26.2899V19.9302H26.5999V20.0902H26.1399V19.7802H25.3799V20.2402V20.2302ZM25.6799 20.2302H25.8299V20.0802H25.6799V20.2302ZM25.3799 19.6102H27.3599V19.4502H25.3799V19.6102ZM27.3599 20.2302H26.8999V19.7702H27.5099V19.4602H27.6599V20.0802H27.8099V19.4602H27.9599V20.0802H28.1099V19.4602H28.2599V20.2402H27.4999V19.9302H27.0399V20.0902H27.3399V20.2402L27.3599 20.2302Z" fill="white"/>
<path d="M28.4297 20.2302H28.5797V19.9202H29.0397V20.2302H29.7997V19.7702H29.3497V19.9302H29.6497V20.0902H29.1897V19.7802H28.4297V20.2402V20.2302ZM28.7297 20.2302H28.8797V20.0802H28.7297V20.2302ZM28.4297 19.6102H30.4197V19.4502H28.4297V19.6102ZM30.4197 20.2302H29.9597V19.7702H30.5697V19.4602H30.7197V20.0802H30.8697V19.4602H31.0197V20.0802H31.1697V19.4602H31.3197V20.2402H30.5597V19.9302H30.0997V20.0902H30.4097V20.2402L30.4197 20.2302Z" fill="white"/>
<path d="M31.4797 20.2302H31.6297V19.9202H32.0897V20.2302H32.8497V19.7702H32.3897V19.9302H32.6897V20.0902H32.2297V19.7802H31.4697V20.2402L31.4797 20.2302ZM31.7797 20.2302H31.9297V20.0802H31.7797V20.2302ZM31.4797 19.6102H33.4597V19.4502H31.4797V19.6102ZM33.4597 20.2302H32.9997V19.7702H33.6097V19.4602H33.7597V20.0802H33.9197V19.4602H34.0697V20.0802H34.2197V19.4602H34.3797V20.2402H33.6197V19.9302H33.1597V20.0902H33.4597V20.2402V20.2302Z" fill="white"/>
<path d="M34.5398 20.2302H34.6898V19.9202H35.1498V20.2302H35.9098V19.7702H35.4498V19.9302H35.7498V20.0902H35.2898V19.7802H34.5298V20.2402L34.5398 20.2302ZM34.8398 20.2302H34.9898V20.0802H34.8398V20.2302ZM34.5398 19.6102H36.5198V19.4502H34.5398V19.6102ZM36.5198 20.2302H36.0598V19.7702H36.6698V19.4602H36.8198V20.0802H36.9698V19.4602H37.1198V20.0802H37.2698V19.4602H37.4198V20.2402H36.6598V19.9302H36.1998V20.0902H36.4998V20.2402L36.5198 20.2302Z" fill="white"/>
<path d="M37.5898 20.2302H37.7498V19.9202H38.2098V20.2302H38.9698V19.7702H38.5098V19.9302H38.8098V20.0902H38.3498V19.7802H37.5898V20.2402V20.2302ZM37.8998 20.2302H38.0498V20.0802H37.8998V20.2302ZM37.5898 19.6102H39.5698V19.4502H37.5898V19.6102ZM39.5698 20.2302H39.1098V19.7702H39.7198V19.4602H39.8798V20.0802H40.0298V19.4602H40.1898V20.0802H40.3398V19.4602H40.4898V20.2402H39.7198V19.9302H39.2598V20.0902H39.5598V20.2402L39.5698 20.2302Z" fill="white"/>
<path d="M7.06982 20.7001H8.44982V20.3901H7.06982V20.7001ZM8.59982 20.7001H9.96982V20.3901H8.59982V20.7001Z" fill="white"/>
<path d="M10.1299 20.7001H11.4999V20.3901H10.1299V20.7001ZM11.6499 20.7001H13.0299V20.3901H11.6499V20.7001Z" fill="white"/>
<path d="M13.1797 20.7001H14.5497V20.3901H13.1797V20.7001ZM14.7097 20.7001H16.0797V20.3901H14.7097V20.7001Z" fill="white"/>
<path d="M16.23 20.7001H17.6V20.3901H16.23V20.7001ZM17.75 20.7001H19.13V20.3901H17.75V20.7001Z" fill="white"/>
<path d="M19.2798 20.7001H20.6498V20.3901H19.2798V20.7001ZM20.8098 20.7001H22.1798V20.3901H20.8098V20.7001Z" fill="white"/>
<path d="M22.3296 20.7001H23.6996V20.3901H22.3296V20.7001ZM23.8596 20.7001H25.2296V20.3901H23.8596V20.7001Z" fill="white"/>
<path d="M25.3799 20.7001H26.7499V20.3901H25.3799V20.7001ZM26.9099 20.7001H28.2799V20.3901H26.9099V20.7001Z" fill="white"/>
<path d="M28.4297 20.7001H29.7997V20.3901H28.4297V20.7001ZM29.9597 20.7001H31.3297V20.3901H29.9597V20.7001Z" fill="white"/>
<path d="M31.48 20.7001H32.85V20.3901H31.48V20.7001ZM33.01 20.7001H34.39V20.3901H33.01V20.7001Z" fill="white"/>
<path d="M34.54 20.7001H35.91V20.3901H34.54V20.7001ZM36.06 20.7001H37.43V20.3901H36.06V20.7001Z" fill="white"/>
<path d="M37.5898 20.7001H38.9598V20.3901H37.5898V20.7001ZM39.1198 20.7001H40.4998V20.3901H39.1198V20.7001Z" fill="white"/>
<path d="M7.06982 28.1301H7.22982V27.8201H7.68982V28.1301H8.44982V27.6601H7.98982V27.8201H8.28982V27.9801H7.82982V27.6701H7.06982V28.1401V28.1301ZM7.37982 28.1301H7.52982V27.9701H7.37982V28.1301ZM7.06982 27.5101H9.04982V27.3501H7.06982V27.5101ZM9.04982 28.1301H8.58982V27.6601H9.19982V27.3501H9.34982V27.9701H9.49982V27.3501H9.64982V27.9701H9.79982V27.3501H9.94982V28.1301H9.18982V27.8201H8.72982V27.9801H9.02982V28.1401L9.04982 28.1301Z" fill="white"/>
<path d="M10.1296 28.1301H10.2796V27.8201H10.7396V28.1301H11.4996V27.6601H11.0396V27.8201H11.3396V27.9801H10.8796V27.6701H10.1196V28.1401L10.1296 28.1301ZM10.4296 28.1301H10.5796V27.9701H10.4296V28.1301ZM10.1296 27.5101H12.1096V27.3501H10.1296V27.5101ZM12.1096 28.1301H11.6496V27.6601H12.2596V27.3501H12.4096V27.9701H12.5596V27.3501H12.7096V27.9701H12.8596V27.3501H13.0096V28.1301H12.2396V27.8201H11.7796V27.9801H12.0796V28.1401L12.1096 28.1301Z" fill="white"/>
<path d="M13.1799 28.1301H13.3299V27.8201H13.7899V28.1301H14.5499V27.6601H14.0899V27.8201H14.3899V27.9801H13.9299V27.6701H13.1699V28.1401L13.1799 28.1301ZM13.4799 28.1301H13.6299V27.9701H13.4799V28.1301ZM13.1799 27.5101H15.1599V27.3501H13.1799V27.5101ZM15.1599 28.1301H14.6999V27.6601H15.3099V27.3501H15.4599V27.9701H15.6099V27.3501H15.7599V27.9701H15.9099V27.3501H16.0599V28.1301H15.2999V27.8201H14.8399V27.9801H15.1499V28.1401L15.1599 28.1301Z" fill="white"/>
<path d="M16.2297 28.1301H16.3797V27.8201H16.8397V28.1301H17.5997V27.6601H17.1397V27.8201H17.4397V27.9801H16.9797V27.6701H16.2197V28.1401L16.2297 28.1301ZM16.5297 28.1301H16.6797V27.9701H16.5297V28.1301ZM16.2297 27.5101H18.2097V27.3501H16.2297V27.5101ZM18.2097 28.1301H17.7497V27.6601H18.3597V27.3501H18.5097V27.9701H18.6597V27.3501H18.8097V27.9701H18.9597V27.3501H19.1097V28.1301H18.3497V27.8201H17.8897V27.9801H18.1897V28.1401L18.2097 28.1301Z" fill="white"/>
<path d="M19.2798 28.1301H19.4298V27.8201H19.8898V28.1301H20.6498V27.6601H20.1898V27.8201H20.4998V27.9801H20.0398V27.6701H19.2798V28.1401V28.1301ZM19.5898 28.1301H19.7398V27.9701H19.5898V28.1301ZM19.2798 27.5101H21.2598V27.3501H19.2798V27.5101ZM21.2598 28.1301H20.7998V27.6601H21.4098V27.3501H21.5598V27.9701H21.7098V27.3501H21.8598V27.9701H22.0098V27.3501H22.1598V28.1301H21.3998V27.8201H20.9398V27.9801H21.2498V28.1401L21.2598 28.1301Z" fill="white"/>
<path d="M22.3298 28.1301H22.4798V27.8201H22.9398V28.1301H23.6998V27.6601H23.2398V27.8201H23.5398V27.9801H23.0798V27.6701H22.3198V28.1401L22.3298 28.1301ZM22.6398 28.1301H22.7898V27.9701H22.6398V28.1301ZM22.3298 27.5101H24.3098V27.3501H22.3298V27.5101ZM24.3098 28.1301H23.8498V27.6601H24.4598V27.3501H24.6098V27.9701H24.7598V27.3501H24.9098V27.9701H25.0598V27.3501H25.2098V28.1301H24.4498V27.8201H23.9898V27.9801H24.2998V28.1401L24.3098 28.1301Z" fill="white"/>
<path d="M25.3799 28.1301H25.5299V27.8201H25.9899V28.1301H26.7499V27.6601H26.2899V27.8201H26.5999V27.9801H26.1399V27.6701H25.3799V28.1401V28.1301ZM25.6799 28.1301H25.8299V27.9701H25.6799V28.1301ZM25.3799 27.5101H27.3599V27.3501H25.3799V27.5101ZM27.3599 28.1301H26.8999V27.6601H27.5099V27.3501H27.6599V27.9701H27.8099V27.3501H27.9599V27.9701H28.1099V27.3501H28.2599V28.1301H27.4999V27.8201H27.0399V27.9801H27.3399V28.1401L27.3599 28.1301Z" fill="white"/>
<path d="M28.4297 28.1301H28.5797V27.8201H29.0397V28.1301H29.7997V27.6601H29.3497V27.8201H29.6497V27.9801H29.1897V27.6701H28.4297V28.1401V28.1301ZM28.7297 28.1301H28.8797V27.9701H28.7297V28.1301ZM28.4297 27.5101H30.4197V27.3501H28.4297V27.5101ZM30.4197 28.1301H29.9597V27.6601H30.5697V27.3501H30.7197V27.9701H30.8697V27.3501H31.0197V27.9701H31.1697V27.3501H31.3197V28.1301H30.5597V27.8201H30.0997V27.9801H30.4097V28.1401L30.4197 28.1301Z" fill="white"/>
<path d="M31.4797 28.1301H31.6297V27.8201H32.0897V28.1301H32.8497V27.6601H32.3897V27.8201H32.6897V27.9801H32.2297V27.6701H31.4697V28.1401L31.4797 28.1301ZM31.7797 28.1301H31.9297V27.9701H31.7797V28.1301ZM31.4797 27.5101H33.4597V27.3501H31.4797V27.5101ZM33.4597 28.1301H32.9997V27.6601H33.6097V27.3501H33.7597V27.9701H33.9197V27.3501H34.0697V27.9701H34.2197V27.3501H34.3797V28.1301H33.6197V27.8201H33.1597V27.9801H33.4597V28.1401V28.1301Z" fill="white"/>
<path d="M34.5398 28.1301H34.6898V27.8201H35.1498V28.1301H35.9098V27.6601H35.4498V27.8201H35.7498V27.9801H35.2898V27.6701H34.5298V28.1401L34.5398 28.1301ZM34.8398 28.1301H34.9898V27.9701H34.8398V28.1301ZM34.5398 27.5101H36.5198V27.3501H34.5398V27.5101ZM36.5198 28.1301H36.0598V27.6601H36.6698V27.3501H36.8198V27.9701H36.9698V27.3501H37.1198V27.9701H37.2698V27.3501H37.4198V28.1301H36.6598V27.8201H36.1998V27.9801H36.4998V28.1401L36.5198 28.1301Z" fill="white"/>
<path d="M37.5898 28.1301H37.7498V27.8201H38.2098V28.1301H38.9698V27.6601H38.5098V27.8201H38.8098V27.9801H38.3498V27.6701H37.5898V28.1401V28.1301ZM37.8998 28.1301H38.0498V27.9701H37.8998V28.1301ZM37.5898 27.5101H39.5698V27.3501H37.5898V27.5101ZM39.5698 28.1301H39.1098V27.6601H39.7198V27.3501H39.8798V27.9701H40.0298V27.3501H40.1898V27.9701H40.3398V27.3501H40.4898V28.1301H39.7198V27.8201H39.2598V27.9801H39.5598V28.1401L39.5698 28.1301Z" fill="white"/>
<path d="M7.06982 27.2001H8.44982V26.8901H7.06982V27.2001ZM8.59982 27.2001H9.96982V26.8901H8.59982V27.2001Z" fill="white"/>
<path d="M10.1299 27.2001H11.4999V26.8901H10.1299V27.2001ZM11.6499 27.2001H13.0299V26.8901H11.6499V27.2001Z" fill="white"/>
<path d="M13.1797 27.2001H14.5497V26.8901H13.1797V27.2001ZM14.7097 27.2001H16.0797V26.8901H14.7097V27.2001Z" fill="white"/>
<path d="M16.23 27.2001H17.6V26.8901H16.23V27.2001ZM17.75 27.2001H19.13V26.8901H17.75V27.2001Z" fill="white"/>
<path d="M19.2798 27.2001H20.6498V26.8901H19.2798V27.2001ZM20.8098 27.2001H22.1798V26.8901H20.8098V27.2001Z" fill="white"/>
<path d="M22.3296 27.2001H23.6996V26.8901H22.3296V27.2001ZM23.8596 27.2001H25.2296V26.8901H23.8596V27.2001Z" fill="white"/>
<path d="M25.3799 27.2001H26.7499V26.8901H25.3799V27.2001ZM26.9099 27.2001H28.2799V26.8901H26.9099V27.2001Z" fill="white"/>
<path d="M28.4297 27.2001H29.7997V26.8901H28.4297V27.2001ZM29.9597 27.2001H31.3297V26.8901H29.9597V27.2001Z" fill="white"/>
<path d="M31.48 27.2001H32.85V26.8901H31.48V27.2001ZM33.01 27.2001H34.39V26.8901H33.01V27.2001Z" fill="white"/>
<path d="M34.54 27.2001H35.91V26.8901H34.54V27.2001ZM36.06 27.2001H37.43V26.8901H36.06V27.2001Z" fill="white"/>
<path d="M37.5898 27.2001H38.9598V26.8901H37.5898V27.2001ZM39.1198 27.2001H40.4998V26.8901H39.1198V27.2001Z" fill="white"/>
</g>
</g>
</g>
<defs>
<clipPath id="clip0_1299_27597">
<rect width="33.56" height="19.58" fill="white" transform="translate(7 14)"/>
</clipPath>
</defs>
</svg>
