<svg width="48" height="48" viewBox="0 0 48 48" fill="none" xmlns="http://www.w3.org/2000/svg">
<g clip-path="url(#clip0_1299_23228)">
<mask id="mask0_1299_23228" style="mask-type:luminance" maskUnits="userSpaceOnUse" x="7" y="14" width="34" height="20">
<path d="M40.56 14H7V33.57H40.56V14Z" fill="white"/>
</mask>
<g mask="url(#mask0_1299_23228)">
<path d="M40.56 14H7V33.57H40.56V14Z" fill="#1A0095"/>
<path d="M40.56 18.8901H7V28.6801H40.56V18.8901Z" fill="#BA0019"/>
<path d="M30.0101 23.77H17.5601V25.78H30.0101V23.77Z" fill="white"/>
<path d="M30.03 25.8H17.56L17.54 23.76L30.01 23.73L30.04 25.79L30.03 25.8ZM29.98 23.76L17.56 23.78L17.59 25.77L29.99 25.74V23.76H29.98Z" fill="#BA0019"/>
<path d="M17.5501 25.7798L17.3501 26.2498H30.2101L30.0101 25.7798H17.5501Z" fill="white"/>
<path d="M30.2501 26.28H17.3101L17.5301 25.77L30.0201 25.75L30.2601 26.28H30.2501ZM17.3801 26.23H30.1701L29.9801 25.79L17.5401 25.81L17.3701 26.23H17.3801Z" fill="#BA0019"/>
<path d="M27.3801 25.7798L27.1401 26.2498H30.0601L29.8201 25.7798H27.3801Z" fill="white"/>
<path d="M30.0998 26.2798H27.0898L27.3498 25.7598H29.8098L30.0998 26.2798ZM27.1698 26.2298H30.0198L29.7998 25.7998H27.3798L27.1798 26.2298H27.1698Z" fill="#BA0019"/>
<path d="M28.09 25.7798L27.96 26.2498H29.44L29.31 25.7798H28.09Z" fill="white"/>
<path d="M29.47 26.28H27.96L28.06 25.77L29.31 25.75L29.47 26.28ZM29.29 25.78L28.08 25.8L27.98 26.25L29.4 26.22L29.28 25.77L29.29 25.78Z" fill="#BA0019"/>
<path d="M28.3 25.7798L28.23 26.2498H29.18L29.1 25.7798H28.3Z" fill="white"/>
<path d="M29.21 26.2798H28.23L28.28 25.7798L29.1 25.7598L29.21 26.2898V26.2798ZM29.08 25.7798L28.31 25.7998L28.26 26.2498L29.16 26.2298L29.08 25.7798Z" fill="#BA0019"/>
<path d="M22.5002 25.7798L22.2402 26.2498H25.3202L25.0602 25.7798H22.5002Z" fill="white"/>
<path d="M25.3602 26.2798H22.2002L22.4702 25.7598H25.0602L25.3602 26.2798ZM22.2802 26.2298H25.2802L25.0402 25.7998H22.5002L22.2802 26.2298Z" fill="#BA0019"/>
<path d="M30.0802 23.7402H17.4902V24.2102H30.0802V23.7402Z" fill="white"/>
<path d="M30.1 24.2402H17.49L17.46 23.7402L30.07 23.7202L30.1 24.2402ZM30.05 23.7402L17.49 23.7702L17.51 24.2202L30.05 24.2002V23.7502V23.7402Z" fill="#BA0019"/>
<path d="M29.8299 23.77H27.3599V25.77H29.8299V23.77Z" fill="white"/>
<path d="M29.8501 25.8H27.3601L27.3301 23.77L29.8201 23.75L29.8501 25.8ZM29.8001 23.77L27.3601 23.79L27.3801 25.77L29.8001 25.74V23.76V23.77Z" fill="#BA0019"/>
<path d="M29.3799 24.71H29.1299V25.78H29.3799V24.71Z" fill="white"/>
<path d="M29.3999 25.7999H29.1299L29.1099 24.7099L29.3799 24.6899L29.3999 25.7999ZM29.3499 24.7099L29.1299 24.7399L29.1599 25.7799L29.3599 25.7599V24.7199L29.3499 24.7099Z" fill="#BA0019"/>
<path d="M28.29 24.71H28.04V25.78H28.29V24.71Z" fill="white"/>
<path d="M28.31 25.7999H28.04L28.02 24.7099L28.29 24.6899L28.32 25.7999H28.31ZM28.26 24.7099L28.04 24.7399L28.07 25.7799L28.27 25.7599V24.7199L28.26 24.7099Z" fill="#BA0019"/>
<path d="M23.13 25.7798L23 26.2498H24.54L24.42 25.7798H23.13Z" fill="white"/>
<path d="M24.58 26.28H23L23.11 25.77L24.42 25.75L24.58 26.28ZM24.4 25.78L23.14 25.8L23.03 26.25L24.52 26.22L24.4 25.77V25.78Z" fill="#BA0019"/>
<path d="M23.3798 25.7798L23.2998 26.2498H24.2698L24.1798 25.7798H23.3798Z" fill="white"/>
<path d="M24.2998 26.28H23.2998L23.3598 25.77L24.1898 25.75L24.2998 26.28ZM24.1698 25.78L23.3798 25.8L23.3298 26.25L24.2398 26.22L24.1598 25.77L24.1698 25.78Z" fill="#BA0019"/>
<path d="M25.0702 23.77H22.4702V25.78H25.0702V23.77Z" fill="white"/>
<path d="M25.0899 25.8H22.4699L22.4399 23.76L25.0599 23.73L25.0799 25.79L25.0899 25.8ZM25.0399 23.76L22.4699 23.78L22.4899 25.77L25.0399 25.74V23.76Z" fill="#BA0019"/>
<path d="M24.79 24.71H24.54V25.78H24.79V24.71Z" fill="white"/>
<path d="M24.81 25.7999H24.54L24.52 24.7099L24.79 24.6899L24.82 25.7999H24.81ZM24.76 24.7099L24.54 24.7399L24.57 25.7799L24.77 25.7499V24.7099H24.76Z" fill="#BA0019"/>
<path d="M23.0698 24.71H22.8198V25.78H23.0698V24.71Z" fill="white"/>
<path d="M23.1001 25.7999H22.8301L22.8101 24.7099L23.0801 24.6899L23.1101 25.7999H23.1001ZM23.0501 24.7099L22.8301 24.7399L22.8501 25.7799L23.0501 25.7499V24.7099Z" fill="#BA0019"/>
<path d="M24.4099 23.2798H23.1499V25.7798H24.4099V23.2798Z" fill="white"/>
<path d="M24.4401 25.7998H23.1601L23.1401 23.2798L24.4201 23.2598L24.4401 25.8098V25.7998ZM24.3901 23.2798L23.1601 23.3098L23.1901 25.7798L24.4001 25.7498V23.2798H24.3901Z" fill="#BA0019"/>
<path d="M24.3398 24.71H24.0898V25.78H24.3398V24.71Z" fill="white"/>
<path d="M24.3701 25.7999H24.1001L24.0801 24.7099L24.3501 24.6899L24.3701 25.7999ZM24.3201 24.7099L24.1001 24.7399L24.1301 25.7799L24.3301 25.7499V24.7099H24.3201Z" fill="#BA0019"/>
<path d="M23.52 24.71H23.27V25.78H23.52V24.71Z" fill="white"/>
<path d="M23.54 25.7999H23.27L23.25 24.7099L23.52 24.6899L23.54 25.7999ZM23.49 24.7099L23.27 24.7399L23.3 25.7799L23.5 25.7499V24.7099H23.49Z" fill="#BA0019"/>
<path d="M23.23 23.6802L23.77 24.4502L24.33 23.6802H23.23Z" fill="white"/>
<path d="M23.7699 24.4902L23.1899 23.6602H24.3799L23.7699 24.4902ZM23.2799 23.7002L23.7699 24.4002L24.2799 23.7002H23.2799Z" fill="#BA0019"/>
<path d="M29.0398 23.77H28.3398V26.25H29.0398V23.77Z" fill="white"/>
<path d="M29.0701 26.2802H28.3501L28.3301 23.7702L29.0501 23.7402L29.0801 26.2802H29.0701ZM29.0201 23.7702L28.3401 23.7902L28.3601 26.2502L29.0101 26.2302V23.7702H29.0201Z" fill="#BA0019"/>
<path d="M28.92 23.77H28.46V26.25H28.92V23.77Z" fill="white"/>
<path d="M28.9499 26.2802H28.4599L28.4399 23.7702L28.9299 23.7402L28.9599 26.2802H28.9499ZM28.8999 23.7702L28.4599 23.7902L28.4799 26.2502L28.8999 26.2302V23.7702Z" fill="#BA0019"/>
<path d="M17.7202 25.7798L17.4702 26.2498H20.4002L20.1502 25.7798H17.7202Z" fill="white"/>
<path d="M20.4402 26.2798H17.4302L17.6902 25.7598H20.1502L20.4402 26.2798ZM17.5102 26.2298H20.3602L20.1402 25.7998H17.7202L17.5102 26.2298Z" fill="#BA0019"/>
<path d="M18.2999 25.7798L18.1899 26.2498H19.5599L19.4499 25.7798H18.2999Z" fill="white"/>
<path d="M19.5902 26.28H18.1802L18.2702 25.77L19.4402 25.75L19.5902 26.28ZM19.4202 25.78L18.3002 25.8L18.2102 26.25L19.5302 26.22L19.4202 25.77V25.78Z" fill="#BA0019"/>
<path d="M18.5102 25.7798L18.4302 26.2498H19.3102L19.2402 25.7798H18.5102Z" fill="white"/>
<path d="M19.3402 26.2798H18.4302L18.4802 25.7798L19.2402 25.7598L19.3402 26.2898V26.2798ZM19.2102 25.7798L18.5002 25.7998L18.4502 26.2498L19.2802 26.2298L19.2102 25.7798Z" fill="#BA0019"/>
<path d="M20.1502 23.77H17.7002V25.78H20.1502V23.77Z" fill="white"/>
<path d="M20.1699 25.8H17.6999L17.6699 23.76L20.1399 23.73L20.1699 25.79V25.8ZM20.1199 23.76L17.6999 23.78L17.7299 25.77L20.1299 25.74V23.76H20.1199Z" fill="#BA0019"/>
<path d="M18.4199 24.71H18.1699V25.78H18.4199V24.71Z" fill="white"/>
<path d="M18.4502 25.7999H18.1802L18.1602 24.7099L18.4302 24.6899L18.4502 25.7999ZM18.4002 24.7099L18.1802 24.7399L18.2102 25.7799L18.4102 25.7599V24.7199L18.4002 24.7099Z" fill="#BA0019"/>
<path d="M19.5601 24.71H19.3101V25.78H19.5601V24.71Z" fill="white"/>
<path d="M19.5798 25.7999H19.3098L19.2798 24.7099L19.5498 24.6899L19.5698 25.7999H19.5798ZM19.5298 24.7099L19.3098 24.7399L19.3298 25.7799L19.5298 25.7599V24.7199V24.7099Z" fill="#BA0019"/>
<path d="M19.24 23.77H18.54V26.25H19.24V23.77Z" fill="white"/>
<path d="M19.2598 26.2802H18.5398L18.5098 23.7702L19.2298 23.7402L19.2598 26.2802ZM19.2098 23.7702L18.5398 23.7902L18.5598 26.2502L19.2098 26.2302V23.7702Z" fill="#BA0019"/>
<path d="M19.1199 23.77H18.6499V26.25H19.1199V23.77Z" fill="white"/>
<path d="M19.1399 26.2802H18.6499L18.6299 23.7702L19.1199 23.7402L19.1499 26.2802H19.1399ZM19.0899 23.7702L18.6499 23.7902L18.6799 26.2502L19.0999 26.2302V23.7702H19.0899Z" fill="#BA0019"/>
<path d="M30.2201 23.2998H17.3501V23.7698H30.2201V23.2998Z" fill="white"/>
<path d="M30.2401 23.7898H17.3501L17.3301 23.2998L30.2201 23.2798L30.2501 23.7998L30.2401 23.7898ZM30.1901 23.2998L17.3501 23.3198L17.3801 23.7698L30.1901 23.7398V23.2898V23.2998Z" fill="#BA0019"/>
<path d="M30.5202 26.1401H16.9902V26.7501H30.5202V26.1401Z" fill="white"/>
<path d="M30.55 26.7699H16.99L16.96 26.1399L30.51 26.1099L30.54 26.7699H30.55ZM30.5 26.1399L17 26.1599L17.02 26.7499L30.5 26.7199V26.1399Z" fill="#BA0019"/>
<path d="M30.73 26.27H16.79V26.88H30.73V26.27Z" fill="white"/>
<path d="M30.7498 26.9002H16.7898L16.7598 26.2602L30.7298 26.2402L30.7598 26.9002H30.7498ZM30.6998 26.2602L16.7898 26.2902L16.8098 26.8702L30.6998 26.8502V26.2602Z" fill="#BA0019"/>
<path d="M31.1299 26.6099H16.4199V27.2199H31.1299V26.6099Z" fill="white"/>
<path d="M31.1599 27.2498H16.4199L16.3999 26.6098L31.1399 26.5898L31.1599 27.2498ZM31.1099 26.6098L16.4199 26.6298L16.4399 27.2198L31.1099 27.1998V26.6098Z" fill="#BA0019"/>
<path d="M31.6602 27.0498H15.9102V27.6598H31.6602V27.0498Z" fill="white"/>
<path d="M31.6799 27.68H15.9099L15.8799 27.05L31.6499 27.02L31.6799 27.68ZM31.6299 27.05L15.9099 27.07L15.9299 27.66L31.6299 27.63V27.05Z" fill="#BA0019"/>
<path d="M32.1601 27.6602H15.3901V28.2602H32.1601V27.6602Z" fill="white"/>
<path d="M32.1899 28.2901H15.3899L15.3599 27.6701L32.1599 27.6401L32.1899 28.2901ZM32.1399 27.6701L15.3899 27.6901L15.4199 28.2701L32.1499 28.2401V27.6701H32.1399Z" fill="#BA0019"/>
<path d="M19.24 26.1401H18.54V28.2701H19.24V26.1401Z" fill="white"/>
<path d="M19.2598 28.2901H18.5398L18.5098 26.1301L19.2298 26.1001L19.2598 28.2801V28.2901ZM19.2098 26.1301L18.5398 26.1501L18.5598 28.2601L19.2098 28.2301V26.1201V26.1301Z" fill="#BA0019"/>
<path d="M19.1199 26.1401H18.6499V28.2701H19.1199V26.1401Z" fill="white"/>
<path d="M19.1501 28.2901H18.6601L18.6401 26.1301L19.1301 26.1001L19.1601 28.2801L19.1501 28.2901ZM19.1001 26.1301L18.6601 26.1501L18.6901 28.2601L19.1101 28.2301V26.1201L19.1001 26.1301Z" fill="#BA0019"/>
<path d="M29.0301 26.1401H28.3301V28.2701H29.0301V26.1401Z" fill="white"/>
<path d="M29.0498 28.2901H28.3298L28.2998 26.1301L29.0298 26.1001L29.0498 28.2801V28.2901ZM28.9998 26.1301L28.3198 26.1501L28.3498 28.2601L28.9998 28.2301V26.1201V26.1301Z" fill="#BA0019"/>
<path d="M28.9099 26.1401H28.4399V28.2701H28.9099V26.1401Z" fill="white"/>
<path d="M28.9302 28.2901H28.4402L28.4102 26.1301L28.9002 26.1001L28.9202 28.2801L28.9302 28.2901ZM28.8802 26.1301L28.4402 26.1501L28.4702 28.2601L28.8802 28.2301V26.1201V26.1301Z" fill="#BA0019"/>
<path d="M24.08 23.77H23.52V28.27H24.08V23.77Z" fill="white"/>
<path d="M24.1102 28.2902H23.5202L23.4902 23.7702L24.0802 23.7402L24.1002 28.2902H24.1102ZM24.0602 23.7702L23.5202 23.7902L23.5402 28.2702L24.0502 28.2402V23.7702H24.0602Z" fill="#BA0019"/>
<mask id="mask1_1299_23228" style="mask-type:luminance" maskUnits="userSpaceOnUse" x="7" y="14" width="34" height="20">
<path d="M40.56 14H7V33.57H40.56V14Z" fill="white"/>
</mask>
<g mask="url(#mask1_1299_23228)">
<path d="M27.52 23.7898V22.5598C27.52 22.5598 27.65 22.7998 28.63 22.8598C29.55 22.8298 29.71 22.6798 29.75 22.5498L29.71 23.7998H27.53L27.52 23.7898Z" fill="white"/>
<path d="M29.73 23.8197H27.52L27.5 22.5597V22.4697L27.55 22.5497C27.55 22.5497 27.69 22.7797 28.63 22.8297C29.52 22.7997 29.68 22.6597 29.72 22.5397H29.77L29.73 23.8297V23.8197ZM27.55 22.6197V23.7797L29.68 23.7597L29.72 22.6297C29.62 22.7397 29.36 22.8397 28.63 22.8597C27.91 22.8197 27.65 22.6797 27.55 22.6097V22.6197Z" fill="#BA0019"/>
<path d="M28.1501 22.3398L27.8501 22.0998C27.9501 22.0398 28.1401 22.1498 28.1401 22.1498C28.1401 22.1498 28.2401 21.8698 28.6701 21.7598C29.1001 21.8698 29.2001 22.1498 29.2001 22.1498C29.2001 22.1498 29.3901 22.0398 29.4901 22.0998L29.1901 22.3398H28.1601H28.1501Z" fill="white"/>
<path d="M29.1901 22.37H28.1501L27.8301 22.12C27.8601 22.07 27.8901 22.06 27.9201 22.06C28.0201 22.06 28.1201 22.11 28.1401 22.12C28.1301 22.1 28.2401 21.84 28.6601 21.73C29.0701 21.84 29.1901 22.07 29.2201 22.13C29.2301 22.09 29.4201 22.02 29.5001 22.08L29.1901 22.37ZM27.9201 22.11C27.9201 22.11 27.8701 22.11 27.8601 22.12L28.1601 22.32H29.1701L29.4301 22.11H29.4001C29.3101 22.11 29.2001 22.17 29.2001 22.17C29.1601 22.15 29.0601 21.88 28.6501 21.78C28.2501 21.89 28.1501 22.16 28.1501 22.16C28.1101 22.18 28.0101 22.11 27.9201 22.11Z" fill="#BA0019"/>
<path d="M27.9999 22.9696L27.6099 22.6296C27.7399 22.5396 27.9799 22.6896 27.9799 22.6896C27.9799 22.6896 28.1099 22.2996 28.6699 22.1396C29.2299 22.2996 29.3599 22.6896 29.3599 22.6896C29.3599 22.6896 29.5999 22.5396 29.7299 22.6296L29.3399 22.9696H27.9999Z" fill="white"/>
<path d="M29.3498 22.9999H27.9998L27.5898 22.6599C27.6198 22.5999 27.6598 22.5899 27.7098 22.5899C27.8298 22.5899 27.9698 22.6799 27.9898 22.6799C27.9698 22.6599 28.1198 22.2899 28.6598 22.1299C29.1998 22.2799 29.3498 22.6299 29.3798 22.6799C29.3898 22.6399 29.6298 22.5399 29.7498 22.6199L29.3498 22.9999ZM27.7098 22.6299C27.7098 22.6299 27.6498 22.6399 27.6198 22.6599L28.0098 22.9599H29.3298L29.7098 22.6299C29.7098 22.6299 29.6598 22.6299 29.6298 22.6299C29.5098 22.6299 29.3798 22.7199 29.3698 22.7199C29.3298 22.6999 29.1998 22.3299 28.6598 22.1699C28.1298 22.3299 27.9998 22.6999 27.9998 22.7099C27.9598 22.7299 27.8198 22.6399 27.7098 22.6399V22.6299Z" fill="#BA0019"/>
<path d="M28.6698 20.46C28.6698 20.46 29.1398 21.27 28.6698 21.28C28.1998 21.3 28.6698 20.48 28.6698 20.46Z" fill="white"/>
<path d="M28.66 21.3097C28.57 21.3097 28.51 21.2797 28.47 21.2197C28.36 21.0397 28.55 20.6497 28.62 20.4897C28.63 20.4697 28.64 20.4497 28.64 20.4497C28.64 20.4497 28.66 20.4497 28.67 20.4497H28.69V20.4697C28.77 20.5597 28.9 20.8697 28.9 21.0497C28.9 21.2097 28.82 21.2997 28.67 21.3097H28.66ZM28.67 20.5097C28.61 20.6497 28.42 21.0397 28.51 21.1997C28.54 21.2397 28.59 21.2697 28.66 21.2697C28.75 21.2697 28.81 21.2297 28.84 21.1697C28.92 20.9997 28.74 20.6297 28.68 20.5097H28.67Z" fill="#BA0019"/>
<path d="M28.2803 21.4897L28.0503 21.3697C28.1303 21.3297 28.2703 21.3897 28.2703 21.3897C28.2703 21.3897 28.3503 21.2497 28.6803 21.1797C29.0103 21.2397 29.0903 21.3897 29.0903 21.3897C29.0903 21.3897 29.2303 21.3397 29.3103 21.3697L29.0803 21.4897H28.2903H28.2803Z" fill="white"/>
<path d="M29.0802 21.5199H28.2802L27.9902 21.3599L28.0402 21.3399C28.1102 21.3099 28.2502 21.3599 28.2802 21.3599C28.2802 21.3399 28.3702 21.2099 28.6802 21.1499C28.9902 21.2099 29.0902 21.3299 29.1102 21.3599C29.1102 21.3399 29.2602 21.3099 29.3202 21.3399L29.3702 21.3599L29.0902 21.5199H29.0802ZM28.1302 21.3799L28.2902 21.4699H29.0702L29.2302 21.3799C29.1602 21.3799 29.1002 21.4199 29.1002 21.4199C29.0702 21.3999 28.9902 21.2699 28.6802 21.2099C28.3702 21.2699 28.3002 21.3999 28.3002 21.4099C28.2702 21.4199 28.2002 21.3899 28.1402 21.3899L28.1302 21.3799Z" fill="#BA0019"/>
<path d="M28.4702 21.5898V21.4898C28.4702 21.4898 28.5102 21.3498 28.6702 21.2798C28.8402 21.3398 28.8802 21.4898 28.8802 21.4898V21.5898H28.4702Z" fill="white"/>
<path d="M28.9102 21.62H28.4802L28.4502 21.5C28.4502 21.5 28.4902 21.33 28.6702 21.27C28.8702 21.33 28.9102 21.48 28.9102 21.49V21.62ZM28.6702 21.31C28.5302 21.36 28.4902 21.49 28.4902 21.5V21.59L28.8602 21.57V21.49C28.8602 21.49 28.8202 21.36 28.6702 21.31Z" fill="#BA0019"/>
<path d="M28.27 21.8997V21.7697C28.27 21.7697 28.34 21.5697 28.68 21.4897C29.02 21.5797 29.1 21.7697 29.1 21.7697V21.8997H28.27Z" fill="white"/>
<path d="M29.11 21.9297H28.27L28.23 21.7697C28.23 21.7697 28.32 21.5497 28.67 21.4697C29.03 21.5597 29.11 21.7597 29.12 21.7597V21.9297H29.11ZM28.67 21.5197C28.36 21.5897 28.28 21.7797 28.28 21.7797V21.8997L29.06 21.8797V21.7697C29.06 21.7697 28.97 21.5897 28.66 21.5197H28.67Z" fill="#BA0019"/>
<path d="M28.27 22.1099V21.9699C28.27 21.9699 28.34 21.7699 28.68 21.6899C29.02 21.7699 29.1 21.9699 29.1 21.9699V22.1099H28.27Z" fill="white"/>
<path d="M29.11 22.1397H28.27L28.23 21.9797C28.23 21.9797 28.32 21.7597 28.67 21.6797C29.03 21.7697 29.11 21.9697 29.12 21.9697V22.1397H29.11ZM28.67 21.7197C28.36 21.7997 28.28 21.9797 28.28 21.9797V22.1097L29.06 22.0897V21.9797C29.06 21.9797 28.97 21.7997 28.66 21.7297L28.67 21.7197Z" fill="#BA0019"/>
<path d="M28.2803 22.7299L28.0503 22.3899C28.1303 22.2999 28.2703 22.4499 28.2703 22.4499C28.2703 22.4499 28.3503 22.0599 28.6803 21.8999C29.0103 22.0599 29.0903 22.4499 29.0903 22.4499C29.0903 22.4499 29.2303 22.2999 29.3103 22.3899L29.0803 22.7299H28.2903H28.2803Z" fill="white"/>
<path d="M29.0903 22.7596H28.2803L28.0303 22.4096C28.0903 22.2596 28.2003 22.3696 28.2603 22.4096C28.2903 22.2996 28.3903 22.0196 28.6703 21.8696C28.9603 22.0096 29.0703 22.2996 29.1003 22.4096C29.1503 22.3596 29.2703 22.3096 29.3303 22.3696L29.0903 22.7496V22.7596ZM28.1103 22.3896C28.1103 22.3896 28.0803 22.3896 28.0703 22.4096L28.3003 22.7196H29.0603L29.2803 22.3896C29.2803 22.3896 29.2603 22.3896 29.2403 22.3896C29.1903 22.3896 29.1203 22.4496 29.1003 22.4696L29.0703 22.5096V22.4596C29.0703 22.4596 28.9803 22.0796 28.6703 21.9196C28.3703 22.0796 28.3003 22.4496 28.3003 22.4596V22.5096L28.2603 22.4696C28.2603 22.4696 28.1703 22.3896 28.1103 22.3896Z" fill="#BA0019"/>
<path d="M28.2803 23.1398L28.0503 22.7998C28.1303 22.7098 28.2703 22.8698 28.2703 22.8698C28.2703 22.8698 28.3503 22.4798 28.6803 22.3198C29.0103 22.4798 29.0903 22.8698 29.0903 22.8698C29.0903 22.8698 29.2303 22.7098 29.3103 22.7998L29.0803 23.1398H28.2903H28.2803Z" fill="white"/>
<path d="M29.0903 23.1696H28.2803L28.0303 22.8196C28.0903 22.6696 28.2003 22.7696 28.2603 22.8196C28.2903 22.7096 28.3903 22.4296 28.6703 22.2896C28.9603 22.4296 29.0703 22.7196 29.1003 22.8196C29.1503 22.7696 29.2703 22.7196 29.3303 22.7896L29.0903 23.1696ZM28.1103 22.7996C28.1103 22.7996 28.0803 22.7996 28.0703 22.8196L28.3003 23.1196H29.0603L29.2803 22.7896C29.2803 22.7896 29.2603 22.7896 29.2403 22.7896C29.1903 22.7896 29.1203 22.8496 29.1003 22.8696L29.0703 22.9096V22.8596C29.0703 22.8596 28.9803 22.4796 28.6703 22.3196C28.3703 22.4796 28.3003 22.8596 28.3003 22.8596V22.9096L28.2603 22.8696C28.2603 22.8696 28.1703 22.7896 28.1103 22.7896V22.7996Z" fill="#BA0019"/>
<path d="M28.27 23.77V23.43C28.27 23.43 28.34 22.94 28.68 22.73C29.02 22.93 29.1 23.43 29.1 23.43V23.77H28.27Z" fill="white"/>
<path d="M29.11 23.7897H28.27L28.23 23.4297C28.23 23.4297 28.32 22.9197 28.66 22.7197C29.03 22.9297 29.11 23.4097 29.12 23.4297V23.7997H29.11V23.7897ZM28.67 22.7497C28.37 22.9497 28.29 23.4197 28.29 23.4197V23.7597L29.07 23.7397V23.4197C29.07 23.4197 29 22.9497 28.67 22.7497Z" fill="#BA0019"/>
<path d="M28.2803 23.7699L28.0503 23.5199C28.1303 23.4499 28.2703 23.5599 28.2703 23.5599C28.2703 23.5599 28.3503 23.2699 28.6803 23.1499C29.0103 23.2699 29.0903 23.5599 29.0903 23.5599C29.0903 23.5599 29.2303 23.4499 29.3103 23.5199L29.0803 23.7699H28.2903H28.2803Z" fill="white"/>
<path d="M29.08 23.7896H28.27L28.02 23.5296C28.04 23.4796 28.07 23.4696 28.1 23.4696C28.16 23.4696 28.22 23.4996 28.25 23.5196C28.28 23.4296 28.39 23.2196 28.66 23.1196C28.95 23.2196 29.06 23.4296 29.09 23.5196C29.14 23.4796 29.25 23.4396 29.31 23.4896L29.07 23.7796L29.08 23.7896ZM28.1 23.5196C28.1 23.5196 28.07 23.5196 28.06 23.5296L28.3 23.7496H29.06L29.27 23.5196H29.25C29.2 23.5196 29.13 23.5596 29.1 23.5796L29.07 23.5996V23.5596C29.07 23.5596 28.98 23.2796 28.67 23.1696C28.37 23.2796 28.29 23.5596 28.29 23.5596V23.5996L28.25 23.5796C28.25 23.5796 28.17 23.5196 28.1 23.5196Z" fill="#BA0019"/>
<path d="M18.3801 22.2497L18.0801 22.0097C18.1801 21.9497 18.3701 22.0497 18.3701 22.0497C18.3701 22.0497 18.4701 21.7697 18.9001 21.6597C19.3301 21.7697 19.4301 22.0497 19.4301 22.0497C19.4301 22.0497 19.6201 21.9397 19.7201 22.0097L19.4201 22.2497H18.3901H18.3801Z" fill="white"/>
<path d="M19.4201 22.2799H18.3801L18.0601 22.0299C18.0901 21.9799 18.1201 21.9699 18.1501 21.9699C18.2401 21.9699 18.3501 22.0199 18.3701 22.0399C18.3501 22.0199 18.4701 21.7599 18.8801 21.6499C19.2901 21.7599 19.4101 21.9899 19.4401 22.0499C19.4501 22.0199 19.6401 21.9499 19.7201 22.0099L19.4201 22.2899V22.2799ZM18.1501 22.0199C18.1501 22.0199 18.1001 22.0199 18.0801 22.0299L18.3801 22.2299H19.3901L19.6601 22.0199H19.6301C19.5401 22.0199 19.4301 22.0799 19.4301 22.0799C19.3901 22.0699 19.2901 21.7999 18.8801 21.6899C18.4801 21.7999 18.3801 22.0699 18.3801 22.0699C18.3401 22.0799 18.2401 22.0199 18.1501 22.0199Z" fill="#BA0019"/>
<path d="M18.2201 22.8796L17.8301 22.5396C17.9601 22.4496 18.2001 22.6096 18.2001 22.6096C18.2001 22.6096 18.3301 22.2196 18.8901 22.0596C19.4501 22.2296 19.5801 22.6096 19.5801 22.6096C19.5801 22.6096 19.8201 22.4596 19.9501 22.5396L19.5601 22.8796H18.2201Z" fill="white"/>
<path d="M19.5701 22.9098H18.2201L17.8101 22.5698C17.8401 22.5098 17.8801 22.4998 17.9301 22.4998C18.0501 22.4998 18.1901 22.5798 18.2101 22.5898C18.1901 22.5598 18.3301 22.1998 18.8801 22.0298C19.4201 22.1898 19.5701 22.5298 19.6001 22.5898C19.6101 22.5498 19.8601 22.4498 19.9701 22.5198L19.5701 22.8998V22.9098ZM17.9301 22.5498C17.9301 22.5498 17.8701 22.5498 17.8401 22.5698L18.2301 22.8698H19.5501L19.9201 22.5298C19.9201 22.5298 19.8701 22.5298 19.8401 22.5398C19.7201 22.5398 19.5801 22.6198 19.5801 22.6298C19.5401 22.6098 19.4101 22.2398 18.8701 22.0798C18.3401 22.2398 18.2101 22.6198 18.2101 22.6198C18.1701 22.6298 18.0301 22.5498 17.9201 22.5498H17.9301Z" fill="#BA0019"/>
<path d="M17.8301 23.7898V22.5598C17.8301 22.5598 17.9601 22.7998 18.9301 22.8598C19.8501 22.8298 20.0101 22.6798 20.0501 22.5498L20.0101 23.7998H17.8301V23.7898Z" fill="white"/>
<path d="M20.0401 23.8197H17.8301L17.8101 22.5597V22.4697L17.8601 22.5497C17.8601 22.5497 18.0001 22.7797 18.9401 22.8297C19.8301 22.7997 19.9901 22.6597 20.0301 22.5397H20.0801L20.0401 23.8297V23.8197ZM17.8601 22.6197V23.7797L19.9901 23.7597L20.0301 22.6297C19.9301 22.7397 19.6701 22.8397 18.9401 22.8597C18.2201 22.8197 17.9601 22.6797 17.8601 22.6097V22.6197Z" fill="#BA0019"/>
<path d="M18.8803 20.46C18.8803 20.46 19.3503 21.27 18.8803 21.28C18.4103 21.3 18.8803 20.48 18.8803 20.46Z" fill="white"/>
<path d="M18.87 21.3097C18.78 21.3097 18.72 21.2797 18.68 21.2197C18.57 21.0397 18.76 20.6497 18.83 20.4897C18.84 20.4697 18.85 20.4497 18.85 20.4497H18.87H18.9V20.4697C18.98 20.5597 19.11 20.8697 19.11 21.0497C19.11 21.2097 19.03 21.2997 18.87 21.3097ZM18.88 20.5097C18.82 20.6497 18.63 21.0397 18.72 21.1997C18.75 21.2397 18.8 21.2697 18.87 21.2697C18.97 21.2697 19.02 21.2297 19.05 21.1697C19.13 20.9997 18.95 20.6297 18.89 20.5097H18.88Z" fill="#BA0019"/>
<path d="M18.4903 21.4897L18.2603 21.3697C18.3403 21.3297 18.4803 21.3897 18.4803 21.3897C18.4803 21.3897 18.5603 21.2497 18.8903 21.1797C19.2203 21.2397 19.3003 21.3897 19.3003 21.3897C19.3003 21.3897 19.4403 21.3397 19.5203 21.3697L19.2903 21.4897H18.5003H18.4903Z" fill="white"/>
<path d="M19.2902 21.5199H18.4902L18.2002 21.3599L18.2502 21.3399C18.3202 21.3099 18.4602 21.3599 18.4802 21.3599C18.4802 21.3399 18.5702 21.2099 18.8802 21.1499C19.1902 21.2099 19.2902 21.3299 19.3102 21.3599C19.3102 21.3399 19.4602 21.3099 19.5202 21.3399L19.5702 21.3599L19.2902 21.5199ZM18.3402 21.3799L18.5102 21.4699H19.2902L19.4502 21.3799C19.3902 21.3799 19.3202 21.4199 19.3202 21.4199C19.2902 21.3999 19.2102 21.2699 18.9002 21.2099C18.6002 21.2699 18.5202 21.3999 18.5202 21.4099C18.4902 21.4199 18.4202 21.3899 18.3602 21.3899L18.3402 21.3799Z" fill="#BA0019"/>
<path d="M18.6802 21.5898V21.4898C18.6802 21.4898 18.7102 21.3498 18.8802 21.2798C19.0502 21.3398 19.0902 21.4898 19.0902 21.4898V21.5898H18.6802Z" fill="white"/>
<path d="M19.1099 21.62H18.6799L18.6499 21.5C18.6499 21.5 18.6999 21.33 18.8799 21.27C19.0799 21.33 19.1199 21.48 19.1199 21.49V21.62H19.1099ZM18.8699 21.31C18.7299 21.36 18.6899 21.49 18.6899 21.5V21.59L19.0599 21.57V21.49C19.0599 21.49 19.0199 21.36 18.8699 21.31Z" fill="#BA0019"/>
<path d="M18.48 21.8997V21.7697C18.48 21.7697 18.55 21.5697 18.89 21.4897C19.23 21.5797 19.31 21.7697 19.31 21.7697V21.8997H18.48Z" fill="white"/>
<path d="M19.3199 21.9297H18.4799L18.4399 21.7697C18.4399 21.7697 18.5299 21.5497 18.8799 21.4697C19.2399 21.5597 19.3199 21.7597 19.3299 21.7597V21.9297H19.3199ZM18.8799 21.5197C18.5699 21.5897 18.4899 21.7797 18.4899 21.7797V21.8997L19.2699 21.8797V21.7697C19.2699 21.7697 19.1799 21.5897 18.8699 21.5197H18.8799Z" fill="#BA0019"/>
<path d="M18.48 22.1099V21.9699C18.48 21.9699 18.55 21.7699 18.89 21.6899C19.23 21.7699 19.31 21.9699 19.31 21.9699V22.1099H18.48Z" fill="white"/>
<path d="M19.3199 22.1397H18.4799L18.4399 21.9797C18.4399 21.9797 18.5299 21.7597 18.8799 21.6797C19.2399 21.7697 19.3199 21.9697 19.3299 21.9697V22.1397H19.3199ZM18.8799 21.7197C18.5699 21.7997 18.4899 21.9797 18.4899 21.9797V22.1097L19.2699 22.0897V21.9797C19.2699 21.9797 19.1799 21.7997 18.8699 21.7297L18.8799 21.7197Z" fill="#BA0019"/>
<path d="M18.4903 22.7299L18.2603 22.3899C18.3403 22.2999 18.4803 22.4499 18.4803 22.4499C18.4803 22.4499 18.5603 22.0599 18.8903 21.8999C19.2203 22.0599 19.3003 22.4499 19.3003 22.4499C19.3003 22.4499 19.4403 22.2999 19.5203 22.3899L19.2903 22.7299H18.5003H18.4903Z" fill="white"/>
<path d="M19.3002 22.7596H18.4902L18.2402 22.4096C18.3002 22.2596 18.4202 22.3696 18.4702 22.4096C18.5002 22.2996 18.6002 22.0196 18.8802 21.8696C19.1702 22.0096 19.2802 22.2996 19.3102 22.4096C19.3602 22.3596 19.4802 22.3096 19.5302 22.3696L19.2902 22.7496L19.3002 22.7596ZM18.3202 22.3896C18.3202 22.3896 18.2902 22.3896 18.2802 22.4096L18.5102 22.7196H19.2702L19.4902 22.3896C19.4902 22.3896 19.4702 22.3896 19.4502 22.3896C19.4002 22.3896 19.3302 22.4496 19.3102 22.4696L19.2802 22.5096V22.4596C19.2802 22.4596 19.1902 22.0796 18.8802 21.9196C18.5902 22.0796 18.5102 22.4496 18.5102 22.4596V22.5096L18.4702 22.4696C18.4702 22.4696 18.3802 22.3896 18.3302 22.3896H18.3202Z" fill="#BA0019"/>
<path d="M18.4903 23.1398L18.2603 22.7998C18.3403 22.7098 18.4803 22.8698 18.4803 22.8698C18.4803 22.8698 18.5603 22.4798 18.8903 22.3198C19.2203 22.4798 19.3003 22.8698 19.3003 22.8698C19.3003 22.8698 19.4403 22.7098 19.5203 22.7998L19.2903 23.1398H18.5003H18.4903Z" fill="white"/>
<path d="M19.3002 23.1696H18.4902L18.2402 22.8196C18.3002 22.6696 18.4202 22.7696 18.4702 22.8196C18.5002 22.7096 18.6002 22.4296 18.8802 22.2896C19.1702 22.4296 19.2802 22.7196 19.3102 22.8196C19.3602 22.7696 19.4802 22.7196 19.5302 22.7896L19.2902 23.1696H19.3002ZM18.3202 22.7996C18.3202 22.7996 18.2902 22.7996 18.2802 22.8196L18.5102 23.1196H19.2702L19.4902 22.7896C19.4902 22.7896 19.4702 22.7896 19.4502 22.7896C19.4002 22.7896 19.3302 22.8496 19.3102 22.8696L19.2802 22.9096V22.8596C19.2802 22.8596 19.1902 22.4796 18.8802 22.3196C18.5902 22.4796 18.5102 22.8596 18.5102 22.8596V22.9096L18.4702 22.8696C18.4702 22.8696 18.3802 22.7896 18.3302 22.7896L18.3202 22.7996Z" fill="#BA0019"/>
<path d="M18.48 23.77V23.43C18.48 23.43 18.55 22.94 18.89 22.73C19.23 22.93 19.31 23.43 19.31 23.43V23.77H18.48Z" fill="white"/>
<path d="M19.3199 23.7897H18.4799L18.4399 23.4297C18.4399 23.4297 18.5299 22.9197 18.8699 22.7197C19.2399 22.9297 19.3199 23.4097 19.3299 23.4297V23.7997H19.3199V23.7897ZM18.8799 22.7497C18.5799 22.9497 18.4999 23.4197 18.4999 23.4197V23.7597L19.2799 23.7397V23.4197C19.2799 23.4197 19.2099 22.9497 18.8799 22.7497Z" fill="#BA0019"/>
<path d="M18.4903 23.7699L18.2603 23.5199C18.3403 23.4499 18.4803 23.5599 18.4803 23.5599C18.4803 23.5599 18.5603 23.2699 18.8903 23.1499C19.2203 23.2699 19.3003 23.5599 19.3003 23.5599C19.3003 23.5599 19.4403 23.4499 19.5203 23.5199L19.2903 23.7699H18.5003H18.4903Z" fill="white"/>
<path d="M19.29 23.7896H18.48L18.23 23.5296C18.25 23.4796 18.28 23.4696 18.31 23.4696C18.37 23.4696 18.43 23.4996 18.46 23.5196C18.49 23.4296 18.6 23.2196 18.87 23.1196C19.16 23.2196 19.27 23.4296 19.3 23.5196C19.35 23.4796 19.46 23.4396 19.52 23.4896L19.28 23.7796L19.29 23.7896ZM18.31 23.5196C18.31 23.5196 18.28 23.5196 18.27 23.5296L18.5 23.7496H19.27L19.48 23.5196C19.48 23.5196 19.47 23.5196 19.46 23.5196C19.4 23.5196 19.31 23.5796 19.31 23.5796L19.28 23.5996V23.5596C19.28 23.5596 19.19 23.2796 18.88 23.1696C18.58 23.2796 18.51 23.5596 18.5 23.5596V23.5996L18.46 23.5796C18.46 23.5796 18.38 23.5196 18.31 23.5196Z" fill="#BA0019"/>
<path d="M22.3599 23.21H25.2099C25.3499 23.21 25.4599 23.32 25.4599 23.46C25.4599 23.6 25.3499 23.71 25.2099 23.71H22.3599C22.2199 23.71 22.1099 23.59 22.1099 23.46C22.1099 23.33 22.2199 23.21 22.3599 23.21Z" fill="white"/>
<path d="M25.1998 23.7499H22.3498C22.1998 23.7499 22.0698 23.6299 22.0698 23.4699C22.0698 23.3099 22.1998 23.1899 22.3498 23.1899H25.1998C25.3498 23.1899 25.4798 23.3199 25.4798 23.4699C25.4798 23.6199 25.3498 23.7499 25.1998 23.7499ZM22.3498 23.2399C22.2198 23.2399 22.1198 23.3399 22.1198 23.4699C22.1198 23.5999 22.2198 23.6999 22.3498 23.6999H25.1998C25.3298 23.6999 25.4298 23.5999 25.4298 23.4699C25.4298 23.3399 25.3298 23.2399 25.1998 23.2399H22.3498Z" fill="#BA0019"/>
<path d="M25.5103 23.5198L25.5303 21.8398C25.5303 21.8398 25.4703 22.2498 25.2703 22.2498H22.2903C22.1003 22.2498 22.0303 21.8398 22.0303 21.8398L22.0503 23.5198H25.5003H25.5103Z" fill="white"/>
<path d="M25.5303 23.5398H22.0503L22.0103 21.8398H22.0603C22.0803 21.9498 22.1503 22.2298 22.3003 22.2298H25.2803C25.4203 22.2298 25.5003 21.9398 25.5103 21.8398H25.5603L25.5403 23.5498L25.5303 23.5398ZM22.0603 22.0298L22.0803 23.5098L25.4903 23.4898L25.5103 22.0298C25.4703 22.1498 25.3903 22.2698 25.2803 22.2698H22.3003C22.1803 22.2698 22.1103 22.1498 22.0703 22.0298H22.0603Z" fill="#BA0019"/>
<path d="M24.8499 22.7498V22.1998C24.8499 22.1998 25.2299 22.0998 25.1799 21.9598C25.1299 21.8198 24.6799 22.1398 24.6799 22.1398H22.8899C22.8899 22.1398 22.4399 21.8198 22.3899 21.9598C22.3399 22.0998 22.7099 22.1998 22.7099 22.1998V22.7498H24.8499Z" fill="white"/>
<path d="M24.8699 22.7797H22.7099L22.6799 22.2097C22.6799 22.2097 22.4299 22.1597 22.3699 22.0397C22.3599 22.0197 22.3499 21.9897 22.3699 21.9597C22.3699 21.9397 22.3999 21.9097 22.4499 21.9097C22.5899 21.9097 22.8899 22.1197 22.8999 22.1297H24.6699C24.6699 22.1297 24.9599 21.9097 25.1099 21.9097C25.1699 21.9097 25.1899 21.9397 25.1999 21.9597C25.2099 21.9897 25.1999 22.0197 25.1999 22.0397C25.1399 22.1597 24.8799 22.2297 24.8699 22.2297V22.7797ZM22.4499 21.9497C22.4499 21.9497 22.4099 21.9497 22.4099 21.9697C22.4099 21.9797 22.4099 21.9997 22.4099 22.0197C22.4499 22.0997 22.6399 22.1597 22.7099 22.1797L22.7299 22.7497L24.8199 22.7297V22.2097C24.9099 22.1697 25.0999 22.0997 25.1399 22.0197C25.1399 21.9997 25.1399 21.9897 25.1399 21.9697C25.1399 21.9597 25.1299 21.9497 25.0999 21.9497C24.9899 21.9497 24.7599 22.0997 24.6799 22.1597H22.8799C22.7799 22.0997 22.5499 21.9497 22.4399 21.9497H22.4499Z" fill="#BA0019"/>
<path d="M25.0599 23.23V22.65C25.0599 22.65 25.5099 22.58 25.4499 22.44C25.3899 22.29 24.8499 22.62 24.8499 22.62H22.6999C22.6999 22.62 22.1599 22.29 22.0999 22.44C22.0399 22.58 22.4799 22.65 22.4799 22.65V23.23H25.0499H25.0599Z" fill="white"/>
<path d="M25.0802 23.2496H22.5002L22.4702 22.6396C22.4702 22.6396 22.1502 22.6096 22.0902 22.4996C22.0802 22.4696 22.0702 22.4496 22.0902 22.4196C22.1002 22.3996 22.1302 22.3696 22.1902 22.3696C22.3602 22.3696 22.7102 22.5796 22.7302 22.5896H24.8602C24.8602 22.5896 25.2202 22.3696 25.3902 22.3696C25.4502 22.3696 25.4802 22.3996 25.4902 22.4196C25.5002 22.4496 25.5002 22.4696 25.4902 22.4996C25.4302 22.6096 25.1202 22.6596 25.0902 22.6696V23.2496H25.1002H25.0802ZM22.1802 22.4196L22.1302 22.4396C22.1702 22.5496 22.4102 22.6096 22.4902 22.6196L22.5202 23.2296L25.0302 23.1996V22.6496C25.1502 22.6096 25.3802 22.5596 25.4202 22.4796C25.4202 22.2796 24.8602 22.6296 24.8602 22.6396H22.7002C22.7002 22.6396 22.3302 22.4296 22.1802 22.4296V22.4196Z" fill="#BA0019"/>
<path d="M24.0902 20.2598V20.0298C23.8302 20.0298 23.8902 19.7798 23.8902 19.6798C23.9702 19.5898 23.9902 19.3898 23.7702 19.2998C23.5602 19.4098 23.5802 19.5898 23.6502 19.6798C23.6502 19.7898 23.7402 20.0398 23.4502 20.0398V20.2698H24.0802L24.0902 20.2598Z" fill="white"/>
<path d="M24.1199 20.2898H23.4699L23.4399 20.0398C23.5399 20.0098 23.5899 19.9998 23.6199 19.9598C23.6699 19.9098 23.6599 19.8198 23.6499 19.7498C23.6499 19.7198 23.6499 19.6998 23.6499 19.6798C23.6099 19.6398 23.5899 19.5598 23.5999 19.4898C23.6099 19.4298 23.6499 19.3498 23.7799 19.2798C23.9199 19.3298 23.9699 19.4098 23.9799 19.4698C23.9999 19.5398 23.9799 19.6298 23.9299 19.6998C23.9299 19.6998 23.9299 19.7198 23.9299 19.7398C23.9299 19.8098 23.9199 19.8998 23.9699 19.9598C23.9999 19.9998 24.0399 20.0098 24.1099 20.0098L24.1299 20.2598V20.2898H24.1199ZM23.7699 19.3298C23.7099 19.3798 23.6499 19.4398 23.6399 19.4998C23.6399 19.5598 23.6399 19.6198 23.6799 19.6598C23.6799 19.6998 23.6799 19.7098 23.6899 19.7398C23.6899 19.8198 23.7099 19.9198 23.6499 19.9898C23.6099 20.0398 23.5499 20.0498 23.4599 20.0498L23.4899 20.2598L24.0699 20.2398V20.0298C24.0199 20.0498 23.9599 20.0298 23.9199 19.9898C23.8599 19.9198 23.8699 19.7998 23.8699 19.7298V19.6798C23.9099 19.6198 23.9399 19.5598 23.9199 19.4798C23.8999 19.4098 23.8499 19.3598 23.7699 19.3198V19.3298Z" fill="#BA0019"/>
<path d="M24.5399 21.7698V21.3298C24.5399 21.3298 24.8099 21.2398 24.7699 21.1298C24.7299 21.0098 24.4199 21.2698 24.4199 21.2698H23.1499C23.1499 21.2698 22.8299 21.0098 22.7999 21.1298C22.7599 21.2498 23.0299 21.3298 23.0299 21.3298V21.7698H24.5499H24.5399Z" fill="white"/>
<path d="M24.5598 21.7898H23.0198L22.9898 21.3298C22.9898 21.3298 22.7198 21.2598 22.7698 21.1198C22.7698 21.0898 22.7998 21.0698 22.8398 21.0698C22.9398 21.0698 23.1398 21.2298 23.1598 21.2598H24.4098C24.4098 21.2598 24.6198 21.0698 24.7198 21.0698C24.7498 21.0698 24.7798 21.0898 24.7898 21.1198C24.8298 21.2598 24.5798 21.3498 24.5498 21.3598V21.7998H24.5598V21.7898ZM22.8398 21.1098C22.7998 21.1998 22.9698 21.2798 23.0298 21.2998L23.0498 21.7598L24.5098 21.7398V21.3198C24.5898 21.2798 24.7598 21.1998 24.7398 21.1198C24.6498 21.0998 24.4798 21.2298 24.4298 21.2798H23.1498C23.0798 21.2298 22.9098 21.1098 22.8398 21.1098Z" fill="#BA0019"/>
<path d="M24.69 22.1597V21.6797C24.69 21.6797 25.01 21.6197 24.97 21.5097C24.93 21.3897 24.55 21.6597 24.55 21.6597H23.03C23.03 21.6597 22.65 21.3897 22.61 21.5097C22.57 21.6197 22.88 21.6797 22.88 21.6797V22.1597H24.7H24.69Z" fill="white"/>
<path d="M24.7099 22.1797H22.8699L22.8399 21.6797C22.8399 21.6797 22.6299 21.6597 22.5799 21.5697C22.5699 21.5497 22.5599 21.5197 22.5799 21.4997C22.5799 21.4797 22.5999 21.4497 22.6599 21.4497C22.7799 21.4497 23.0299 21.6197 23.0499 21.6297H24.5599C24.5599 21.6297 24.8099 21.4497 24.9299 21.4497C24.9799 21.4497 24.9999 21.4797 25.0099 21.4997C25.0099 21.5197 25.0099 21.5497 25.0099 21.5697C24.9599 21.6597 24.7499 21.6997 24.7199 21.7097V22.1797H24.7299H24.7099ZM22.6499 21.4997L22.6199 21.5497C22.6499 21.5997 22.7899 21.6397 22.8699 21.6597L22.8999 22.1597L24.6599 22.1297V21.6797C24.7399 21.6397 24.8999 21.6097 24.9399 21.5497L24.9099 21.4997C24.8199 21.4997 24.6199 21.6197 24.5599 21.6697H23.0199C22.9399 21.6197 22.7399 21.4997 22.6499 21.4997Z" fill="#BA0019"/>
<path d="M24.2701 21.0699V20.7799C24.2701 20.7799 24.4401 20.7099 24.4201 20.6299C24.4001 20.5499 24.1901 20.7299 24.1901 20.7299H23.3701C23.3701 20.7299 23.1601 20.5499 23.1401 20.6299C23.1101 20.7099 23.2901 20.7799 23.2901 20.7799V21.0699H24.2701Z" fill="white"/>
<path d="M24.3003 21.0898H23.3003L23.2703 20.7698C23.2703 20.7698 23.1003 20.7098 23.1203 20.6098L23.1703 20.5698C23.2403 20.5698 23.3603 20.6798 23.3903 20.6998H24.1903C24.1903 20.6998 24.3203 20.5698 24.3903 20.5698H24.4103L24.4403 20.6098C24.4703 20.7098 24.3003 20.7898 24.2803 20.7898V21.0798H24.2903L24.3003 21.0898ZM23.1803 20.6298C23.1803 20.6298 23.2603 20.7298 23.3103 20.7498L23.3303 21.0598L24.2603 21.0398V20.7698C24.3303 20.7298 24.4203 20.6798 24.4103 20.6298C24.3803 20.6298 24.2703 20.6998 24.2203 20.7398H23.3803C23.3103 20.6898 23.2203 20.6298 23.1803 20.6298Z" fill="#BA0019"/>
<path d="M24.3703 21.3296V21.0396C24.3703 21.0396 24.5803 20.9696 24.5503 20.8896C24.5203 20.8096 24.2803 20.9896 24.2803 20.9896H23.3003C23.3003 20.9896 23.0503 20.8096 23.0303 20.8896C23.0003 20.9696 23.2103 21.0396 23.2103 21.0396V21.3296H24.3903H24.3703Z" fill="white"/>
<path d="M24.3902 21.3596H23.1902L23.1602 21.0396C23.1602 21.0396 23.0202 21.0096 22.9902 20.9396V20.8896C22.9902 20.8896 23.0102 20.8496 23.0502 20.8496C23.1302 20.8496 23.2902 20.9596 23.3102 20.9696H24.2802C24.2802 20.9696 24.4402 20.8496 24.5202 20.8496H24.5402L24.5802 20.8896C24.5802 20.8896 24.5802 20.9296 24.5802 20.9396C24.5502 21.0096 24.4102 21.0596 24.3902 21.0596V21.3496H24.4002L24.3902 21.3596ZM23.0402 20.8996C23.0402 20.9596 23.1402 21.0096 23.1902 21.0196L23.2102 21.3296L24.3302 21.3096V21.0396C24.4002 20.9996 24.4902 20.9596 24.5102 20.9196C24.4502 20.8996 24.3402 20.9696 24.2802 21.0096H23.2802C23.2002 20.9596 23.0902 20.8896 23.0402 20.8896V20.8996Z" fill="#BA0019"/>
<path d="M24.13 20.5499V20.2799C24.13 20.2799 24.25 20.2199 24.24 20.1499C24.22 20.0899 24.08 20.2399 24.08 20.2399H23.5C23.5 20.2399 23.35 20.0899 23.34 20.1499C23.33 20.2199 23.44 20.2799 23.44 20.2799V20.5099L24.14 20.5499H24.13Z" fill="white"/>
<path d="M24.1501 20.5799L23.4301 20.5399L23.4001 20.2899C23.4001 20.2899 23.2801 20.2399 23.3001 20.1499V20.1299L23.3401 20.1099C23.3901 20.1099 23.4701 20.1999 23.5001 20.2199H24.0601C24.0601 20.2199 24.1501 20.1099 24.2001 20.1099H24.2201L24.2401 20.1499C24.2601 20.2399 24.1401 20.2999 24.1201 20.3099V20.5799H24.1301H24.1501ZM23.3501 20.1699C23.3501 20.1699 23.4101 20.2599 23.4401 20.2599L23.4601 20.5099H24.1001V20.2799C24.1001 20.2799 24.2201 20.1999 24.2101 20.1599C24.2001 20.1599 24.1301 20.2099 24.0901 20.2499H23.4901C23.4301 20.2099 23.3701 20.1599 23.3501 20.1599V20.1699Z" fill="#BA0019"/>
<path d="M24.2 20.7399V20.5099C24.2 20.5099 24.35 20.4499 24.33 20.3799C24.31 20.3099 24.14 20.4599 24.14 20.4599H23.44C23.44 20.4599 23.27 20.3099 23.25 20.3799C23.23 20.4499 23.37 20.5099 23.37 20.5099V20.7399H24.2Z" fill="white"/>
<path d="M24.2203 20.7596H23.3703L23.3403 20.5096C23.3403 20.5096 23.1903 20.4596 23.2203 20.3696V20.3496L23.2703 20.3296C23.3303 20.3296 23.4303 20.4196 23.4603 20.4396H24.1403C24.1403 20.4396 24.2503 20.3296 24.3103 20.3296H24.3303L24.3603 20.3696C24.3803 20.4596 24.2503 20.5096 24.2203 20.5296V20.7596ZM23.2603 20.3796C23.2603 20.3796 23.3203 20.4496 23.3703 20.4796L23.3903 20.7296L24.1703 20.6996V20.4996C24.2403 20.4496 24.3103 20.4096 24.3003 20.3796C24.2703 20.3796 24.1903 20.4296 24.1403 20.4696H23.4303C23.3703 20.4296 23.2903 20.3796 23.2603 20.3796Z" fill="#BA0019"/>
<path d="M23.5602 20.7497L23.4302 20.6097L23.5502 20.6397C23.5502 20.6397 23.5902 20.4697 23.7802 20.4097C23.9602 20.4797 24.0102 20.6397 24.0102 20.6397C24.0102 20.6397 24.0902 20.5697 24.1302 20.6097L24.0002 20.7497H23.5602Z" fill="white"/>
<path d="M24.0099 20.7696H23.5599L23.3799 20.5696H23.4699C23.4699 20.5696 23.5299 20.5696 23.5499 20.5896C23.5699 20.5396 23.6399 20.4196 23.7799 20.3696C23.9399 20.4196 23.9999 20.5396 24.0299 20.5896C24.0499 20.5796 24.0799 20.5596 24.1099 20.5596L24.1599 20.5796L24.0299 20.7696H24.0099ZM23.4599 20.6096L23.5699 20.7296H23.9799L24.0999 20.5896C24.0999 20.5896 24.0199 20.6396 24.0099 20.6496L23.9799 20.6696V20.6296C23.9799 20.6296 23.9299 20.4696 23.7599 20.4096C23.6099 20.4696 23.5699 20.6196 23.5699 20.6296V20.6696L23.5299 20.6496C23.5299 20.6496 23.4799 20.6096 23.4499 20.6096H23.4599Z" fill="#BA0019"/>
<path d="M23.47 20.9799L23.29 20.8399C23.35 20.7999 23.46 20.8599 23.46 20.8599C23.46 20.8599 23.52 20.6899 23.78 20.6299C24.04 20.6999 24.1 20.8599 24.1 20.8599C24.1 20.8599 24.21 20.7999 24.27 20.8399L24.09 20.9799H23.47Z" fill="white"/>
<path d="M24.1 21.0096H23.47L23.27 20.8596C23.29 20.8096 23.31 20.8096 23.33 20.8096C23.38 20.8096 23.44 20.8396 23.46 20.8496C23.46 20.8196 23.53 20.6796 23.77 20.6196C24.01 20.6796 24.09 20.8096 24.11 20.8596C24.12 20.8296 24.23 20.7996 24.28 20.8296L24.09 21.0196L24.1 21.0096ZM23.35 20.8596L23.49 20.9696H24.08L24.21 20.8596L24.11 20.8896C24.07 20.8696 24.01 20.7196 23.77 20.6596C23.54 20.7196 23.48 20.8696 23.48 20.8796C23.45 20.8896 23.39 20.8596 23.34 20.8596H23.35Z" fill="#BA0019"/>
<path d="M23.4302 21.3997L23.2202 21.2097C23.2902 21.1597 23.4202 21.2497 23.4202 21.2497C23.4202 21.2497 23.4902 21.0297 23.7802 20.9297C24.0702 21.0197 24.1402 21.2497 24.1402 21.2497C24.1402 21.2497 24.2702 21.1597 24.3402 21.2097L24.1302 21.3997H23.4202H23.4302Z" fill="white"/>
<path d="M24.1402 21.4297H23.4202L23.2002 21.2297C23.2202 21.1797 23.2402 21.1697 23.2702 21.1697C23.3302 21.1697 23.4002 21.2097 23.4202 21.2197C23.4102 21.1897 23.4902 20.9997 23.7702 20.9097C24.0402 20.9897 24.1402 21.1697 24.1602 21.2197C24.1802 21.1897 24.3002 21.1497 24.3502 21.1897L24.1402 21.4297ZM23.2702 21.2197C23.2702 21.2197 23.2402 21.2197 23.2302 21.2297L23.4402 21.3897H24.1202L24.2902 21.2197C24.2902 21.2197 24.1702 21.2597 24.1502 21.2697C24.1102 21.2497 24.0402 21.0397 23.7702 20.9497C23.5102 21.0397 23.4402 21.2497 23.4402 21.2497C23.4002 21.2697 23.3302 21.2097 23.2702 21.2097V21.2197Z" fill="#BA0019"/>
<path d="M23.3401 21.9098L23.0801 21.6698C23.1601 21.6098 23.3201 21.7198 23.3201 21.7198C23.3201 21.7198 23.4101 21.4398 23.7701 21.3198C24.1401 21.4398 24.2301 21.7198 24.2301 21.7198C24.2301 21.7198 24.3901 21.6098 24.4701 21.6698L24.2101 21.9098H23.3301H23.3401Z" fill="white"/>
<path d="M24.2298 21.9298H23.3398L23.0698 21.6798C23.0998 21.6298 23.1198 21.6198 23.1498 21.6198C23.2298 21.6198 23.3198 21.6698 23.3398 21.6898C23.3298 21.6598 23.4298 21.4098 23.7798 21.2998C24.1298 21.3998 24.2398 21.6298 24.2598 21.6898C24.2698 21.6498 24.4298 21.5898 24.4998 21.6498L24.2398 21.9398L24.2298 21.9298ZM23.1498 21.6698C23.1498 21.6698 23.1098 21.6698 23.0998 21.6898L23.3598 21.8898H24.2198L24.4498 21.6698C24.4498 21.6698 24.4298 21.6698 24.4198 21.6698C24.3498 21.6698 24.2498 21.7298 24.2498 21.7298C24.2098 21.7098 24.1298 21.4498 23.7698 21.3398C23.4398 21.4498 23.3498 21.7198 23.3498 21.7198C23.3098 21.7298 23.2198 21.6698 23.1498 21.6698Z" fill="#BA0019"/>
<path d="M23.2803 22.3198L23.7703 22.9398L24.2903 22.3198H23.2803Z" fill="white"/>
<path d="M23.77 22.9796L23.23 22.3096H24.35L23.78 22.9796H23.77ZM23.33 22.3596L23.77 22.8996L24.24 22.3596H23.33Z" fill="#BA0019"/>
<path d="M23.2499 22.3997L22.9399 22.1297C23.0399 22.0597 23.2299 22.1797 23.2299 22.1797C23.2299 22.1797 23.3299 21.8697 23.7699 21.7397C24.2099 21.8697 24.3099 22.1797 24.3099 22.1797C24.3099 22.1797 24.4999 22.0597 24.5999 22.1297L24.2899 22.3997H23.2299H23.2499Z" fill="white"/>
<path d="M24.3199 22.42H23.2499L22.9199 22.14C22.9499 22.09 22.9799 22.07 23.0199 22.07C23.1199 22.07 23.2199 22.13 23.2399 22.15C23.2199 22.11 23.3399 21.83 23.7699 21.71C24.1899 21.83 24.3099 22.09 24.3399 22.15C24.3499 22.11 24.5399 22.04 24.6299 22.1L24.3199 22.42ZM23.0199 22.13C23.0199 22.13 22.9699 22.13 22.9499 22.15L23.2599 22.38H24.2999L24.5799 22.13C24.5799 22.13 24.5599 22.13 24.5399 22.13C24.4499 22.13 24.3399 22.2 24.3399 22.2C24.2999 22.18 24.1999 21.88 23.7699 21.76C23.3599 21.88 23.2599 22.18 23.2599 22.18C23.2199 22.2 23.1099 22.13 23.0199 22.13Z" fill="#BA0019"/>
<path d="M23.23 23L23.77 23.77L24.33 23H23.23Z" fill="white"/>
<path d="M23.7699 23.81L23.1899 22.98H24.3799L23.7699 23.81ZM23.2799 23.03L23.7699 23.73L24.2799 23.03H23.2799Z" fill="#BA0019"/>
<path d="M23.2101 23.09L22.8701 22.75C22.9801 22.66 23.1901 22.82 23.1901 22.82C23.1901 22.82 23.3001 22.43 23.7801 22.27C24.2601 22.43 24.3701 22.82 24.3701 22.82C24.3701 22.82 24.5801 22.67 24.6901 22.75L24.3601 23.09H23.2101Z" fill="white"/>
<path d="M24.3601 23.1097H23.2001L22.8501 22.7697C22.8801 22.7097 22.9101 22.6997 22.9501 22.6997C23.0301 22.6997 23.1301 22.7497 23.1701 22.7797C23.2101 22.6797 23.3601 22.3797 23.7701 22.2397C24.1901 22.3797 24.3401 22.6797 24.3801 22.7797C24.4501 22.7397 24.6201 22.6697 24.7001 22.7297L24.3601 23.1097ZM22.9501 22.7397C22.9501 22.7397 22.9001 22.7397 22.8801 22.7697L23.2201 23.0697H24.3401L24.6601 22.7297C24.6601 22.7297 24.6201 22.7297 24.6001 22.7297C24.5001 22.7297 24.3801 22.8197 24.3801 22.8197L24.3501 22.8397V22.8097C24.3501 22.8097 24.2301 22.4297 23.7701 22.2697C23.3301 22.4297 23.2101 22.8097 23.2101 22.8097V22.8397L23.1701 22.8197C23.1701 22.8197 23.0501 22.7297 22.9501 22.7297V22.7397Z" fill="#BA0019"/>
<path d="M23.2101 23.7699L22.8701 23.4299C22.9801 23.3399 23.1901 23.4899 23.1901 23.4899C23.1901 23.4899 23.3001 23.0999 23.7801 22.9399C24.2601 23.1099 24.3701 23.4899 24.3701 23.4899C24.3701 23.4899 24.5801 23.3399 24.6901 23.4299L24.3601 23.7699H23.2101Z" fill="white"/>
<path d="M24.3601 23.7897H23.2001L22.8501 23.4497C22.8801 23.3897 22.9101 23.3797 22.9501 23.3797C23.0301 23.3797 23.1301 23.4297 23.1701 23.4497C23.2101 23.3497 23.3601 23.0597 23.7701 22.9097C24.1901 23.0497 24.3401 23.3497 24.3801 23.4497C24.4401 23.4097 24.6201 23.3397 24.7001 23.4097L24.3601 23.7897ZM22.9501 23.4297C22.9501 23.4297 22.9001 23.4297 22.8801 23.4497L23.2201 23.7497H24.3401L24.6601 23.4197C24.6601 23.4197 24.6201 23.4197 24.6001 23.4197C24.5001 23.4197 24.3801 23.5097 24.3801 23.5097L24.3501 23.5297V23.4997C24.3501 23.4997 24.2301 23.1197 23.7701 22.9597C23.3301 23.1197 23.2101 23.4997 23.2101 23.4997V23.5297L23.1701 23.5097C23.1701 23.5097 23.0501 23.4197 22.9501 23.4197V23.4297Z" fill="#BA0019"/>
<path d="M20.6099 24.71H20.3599V25.78H20.6099V24.71Z" fill="white"/>
<path d="M20.6298 25.7999H20.3598L20.3398 24.7099L20.6098 24.6899L20.6298 25.7999ZM20.5798 24.7099L20.3598 24.7399L20.3898 25.7799L20.5898 25.7599V24.7199L20.5798 24.7099Z" fill="#BA0019"/>
<path d="M21.4502 24.71H21.2002V25.78H21.4502V24.71Z" fill="white"/>
<path d="M21.4702 25.7999H21.2002L21.1802 24.7099L21.4502 24.6899L21.4802 25.7999H21.4702ZM21.4202 24.7099L21.2002 24.7399L21.2302 25.7799L21.4302 25.7499V24.7099H21.4202Z" fill="#BA0019"/>
<path d="M21.0503 24.71H20.8003V25.78H21.0503V24.71Z" fill="white"/>
<path d="M21.0703 25.7999H20.8003L20.7803 24.7099L21.0503 24.6899L21.0703 25.7999ZM21.0203 24.7099L20.8003 24.7399L20.8303 25.7799L21.0303 25.7499V24.7099H21.0203Z" fill="#BA0019"/>
<path d="M25.54 24.71H25.29V25.78H25.54V24.71Z" fill="white"/>
<path d="M25.5603 25.7999H25.2903L25.2603 24.7099L25.5303 24.6899L25.5603 25.7999ZM25.5103 24.7099L25.2903 24.7399L25.3103 25.7799L25.5103 25.7599V24.7199V24.7099Z" fill="#BA0019"/>
<path d="M27.21 24.71H26.96V25.78H27.21V24.71Z" fill="white"/>
<path d="M27.2302 25.7999H26.9602L26.9302 24.7099L27.2002 24.6899L27.2302 25.7999ZM27.1802 24.7099L26.9602 24.7399L26.9802 25.7799L27.1802 25.7499V24.7099Z" fill="#BA0019"/>
<path d="M26.3701 24.71H26.1201V25.78H26.3701V24.71Z" fill="white"/>
<path d="M26.3901 25.7999H26.1201L26.1001 24.7099L26.3701 24.6899L26.3901 25.7999ZM26.3401 24.7099L26.1201 24.7399L26.1501 25.7799L26.3501 25.7499V24.7099H26.3401Z" fill="#BA0019"/>
<path d="M25.98 24.71H25.73V25.78H25.98V24.71Z" fill="white"/>
<path d="M26.0002 25.7999H25.7302L25.7002 24.7099L25.9702 24.6899L25.9902 25.7999H26.0002ZM25.9502 24.7099L25.7302 24.7399L25.7502 25.7799L25.9502 25.7499V24.7099Z" fill="#BA0019"/>
<path d="M26.77 24.71H26.52V25.78H26.77V24.71Z" fill="white"/>
<path d="M26.79 25.7999H26.52L26.5 24.7099L26.77 24.6899L26.8 25.7999H26.79ZM26.74 24.7099L26.52 24.7399L26.55 25.7799L26.75 25.7499V24.7099H26.74Z" fill="#BA0019"/>
<path d="M22.29 24.71H22.04V25.78H22.29V24.71Z" fill="white"/>
<path d="M22.31 25.7999H22.04L22.02 24.7099L22.29 24.6899L22.32 25.7999H22.31ZM22.26 24.7099L22.04 24.7399L22.06 25.7799L22.26 25.7599V24.7199V24.7099Z" fill="#BA0019"/>
<path d="M21.8398 24.71H21.5898V25.78H21.8398V24.71Z" fill="white"/>
<path d="M21.8601 25.7999H21.5901L21.5601 24.7099L21.8301 24.6899L21.8601 25.7999ZM21.8101 24.7099L21.5901 24.7399L21.6101 25.7799L21.8101 25.7499V24.7099Z" fill="#BA0019"/>
<path d="M24.03 19.8496H23.52V20.0496H24.03V19.8496Z" fill="white"/>
<path d="M24.0602 20.0598H23.5202L23.4902 19.8498L24.0302 19.8198L24.0602 20.0598ZM24.0102 19.8498L23.5202 19.8698L23.5402 20.0398L24.0002 20.0198V19.8498H24.0102Z" fill="#BA0019"/>
<path d="M23.9698 19.6597H23.5898V19.8497H23.9698V19.6597Z" fill="white"/>
<path d="M23.9901 19.8699H23.5901L23.5601 19.6599L23.9601 19.6299L23.9801 19.8699H23.9901ZM23.9401 19.6599L23.5901 19.6799L23.6201 19.8399L23.9501 19.8199V19.6599H23.9401Z" fill="#BA0019"/>
</g>
</g>
</g>
<defs>
<clipPath id="clip0_1299_23228">
<rect width="33.56" height="19.57" fill="white" transform="translate(7 14)"/>
</clipPath>
</defs>
</svg>
