<svg width="48" height="48" viewBox="0 0 48 48" fill="none" xmlns="http://www.w3.org/2000/svg">
<g clip-path="url(#clip0_1299_27672)">
<mask id="mask0_1299_27672" style="mask-type:luminance" maskUnits="userSpaceOnUse" x="7" y="14" width="34" height="20">
<path d="M40.56 14H7V33.58H40.56V14Z" fill="white"/>
</mask>
<g mask="url(#mask0_1299_27672)">
<path d="M40.56 27.0498H7V33.5798H40.56V27.0498Z" fill="#3564C2"/>
<path d="M40.56 14H7V20.53H40.56V14Z" fill="#3564C2"/>
<path d="M40.56 20.5298H7V27.0598H40.56V20.5298Z" fill="white"/>
<path d="M21.8101 24.93L23.7801 21.52L25.7501 24.93H21.8101Z" fill="#F5CD28"/>
<path d="M22 24.8102L23.78 21.7402L25.55 24.8102H22Z" fill="#95D4FD"/>
<mask id="mask1_1299_27672" style="mask-type:luminance" maskUnits="userSpaceOnUse" x="7" y="14" width="34" height="20">
<path d="M40.56 14H7V33.58H40.56V14Z" fill="white"/>
</mask>
<g mask="url(#mask1_1299_27672)">
<path d="M22.3597 24.53C22.3597 24.53 22.3097 24.53 22.2897 24.53H22.2397V24.48L22.2997 24.5C22.3497 24.5 22.3997 24.51 22.4597 24.51C22.4197 24.53 22.3997 24.54 22.3597 24.54V24.53Z" fill="#95D4FD"/>
<path d="M22.1899 24.75L22.1499 24.73C22.1499 24.73 22.1899 24.7 22.2099 24.67C22.2499 24.66 22.2799 24.67 22.2999 24.67C22.3199 24.67 22.3399 24.67 22.3599 24.68C22.3999 24.7 22.4499 24.7 22.4799 24.68H22.5299L22.4899 24.71C22.4899 24.71 22.3899 24.74 22.3399 24.71C22.3199 24.71 22.2999 24.71 22.2799 24.71C22.2499 24.71 22.2399 24.7 22.2099 24.71C22.1899 24.73 22.1799 24.75 22.1699 24.77L22.1899 24.75Z" fill="#95D4FD"/>
<path d="M22.54 24.78C22.54 24.78 22.46 24.78 22.4 24.78L22.35 24.76V24.78C22.35 24.78 22.3 24.78 22.29 24.78C22.29 24.78 22.34 24.75 22.35 24.75H22.4C22.46 24.75 22.51 24.75 22.54 24.79V24.78Z" fill="#95D4FD"/>
<path d="M23.0298 24.51C22.9598 24.51 22.9398 24.49 22.9198 24.42C22.8998 24.42 22.8498 24.42 22.8098 24.43H22.7598V24.4H22.8098C22.8098 24.4 22.9098 24.38 22.9498 24.4C22.9698 24.48 22.9898 24.48 23.0398 24.49C23.0398 24.48 23.0698 24.46 23.0898 24.45H23.1298C23.1298 24.45 23.0598 24.5 23.0498 24.51H23.0298Z" fill="#95D4FD"/>
<path d="M22.9199 24.7001L22.8799 24.6801C22.8799 24.6801 22.9199 24.6501 22.9399 24.6201C22.9899 24.5801 23.0199 24.5601 23.0999 24.5801C23.1599 24.6301 23.1799 24.6401 23.2299 24.6501C23.2599 24.6501 23.2799 24.6501 23.2999 24.6501C23.3199 24.6501 23.3299 24.6501 23.3499 24.6501C23.3299 24.6901 23.3199 24.6901 23.2999 24.6901C23.2799 24.6901 23.2499 24.6901 23.2199 24.6901C23.1599 24.6901 23.1399 24.6701 23.0999 24.6401C23.0199 24.6101 22.9999 24.6301 22.9599 24.6501C22.9299 24.6801 22.9199 24.7001 22.9099 24.7101L22.9199 24.7001Z" fill="#95D4FD"/>
<path d="M23.2701 24.81C23.2201 24.81 23.1801 24.79 23.1401 24.78L23.1001 24.76C23.1001 24.76 23.0701 24.78 23.0601 24.79V24.76C23.0601 24.76 23.0801 24.74 23.1001 24.73L23.1601 24.75C23.1601 24.75 23.2301 24.78 23.2701 24.78C23.2901 24.78 23.3001 24.78 23.3101 24.78C23.3301 24.78 23.3501 24.77 23.3701 24.77C23.3501 24.8 23.3301 24.81 23.3201 24.81C23.3001 24.81 23.2901 24.81 23.2701 24.81Z" fill="#95D4FD"/>
<path d="M23.6997 24.4499C23.6997 24.4499 23.5997 24.4299 23.5497 24.4299H23.4897V24.3999H23.5397C23.6097 24.3999 23.6597 24.3999 23.7097 24.4199H23.8697L23.6997 24.4499Z" fill="#95D4FD"/>
<path d="M23.7697 24.66C23.7097 24.66 23.6797 24.64 23.6497 24.61L23.6097 24.59C23.6097 24.59 23.5197 24.55 23.4797 24.54C23.4597 24.56 23.4397 24.56 23.4297 24.57V24.55C23.4297 24.55 23.4397 24.53 23.4697 24.52C23.5297 24.52 23.5897 24.54 23.6297 24.57L23.6597 24.59C23.6597 24.59 23.7097 24.63 23.7597 24.63C23.7997 24.61 23.8197 24.6 23.8397 24.6L23.8097 24.65C23.8097 24.65 23.7797 24.67 23.7597 24.67L23.7697 24.66Z" fill="#95D4FD"/>
<path d="M23.8498 24.7399C23.8498 24.7399 23.7598 24.7399 23.7298 24.7199C23.6898 24.6899 23.6298 24.7199 23.6098 24.7299L23.5898 24.6999C23.5898 24.6999 23.6798 24.6499 23.7398 24.6799C23.7798 24.6999 23.8398 24.6999 23.8898 24.6999C23.9098 24.6999 23.9298 24.6799 23.9498 24.6699C23.9798 24.6599 24.0098 24.6499 24.0198 24.6299H24.0698L24.0298 24.6599C24.0298 24.6599 23.9898 24.6899 23.9598 24.6999C23.9398 24.6999 23.9198 24.7199 23.9098 24.7199C23.8898 24.7199 23.8698 24.7199 23.8598 24.7199L23.8498 24.7399Z" fill="#95D4FD"/>
<path d="M24.2901 24.5402C24.2401 24.5202 24.1601 24.5202 24.1201 24.5202V24.4902C24.1201 24.4902 24.2401 24.4902 24.2901 24.5102C24.3301 24.5102 24.3501 24.4702 24.3701 24.4402L24.4001 24.4102C24.4601 24.4102 24.5001 24.4102 24.5401 24.4202C24.4901 24.4402 24.4601 24.4302 24.4201 24.4302C24.3801 24.4902 24.3501 24.5202 24.2901 24.5302V24.5402Z" fill="#95D4FD"/>
<path d="M24.3301 24.7201V24.6901C24.3301 24.6901 24.3701 24.6801 24.4101 24.6701C24.4501 24.6301 24.4701 24.6501 24.5001 24.6701C24.5101 24.6701 24.5201 24.6901 24.5401 24.6901C24.5901 24.6701 24.6201 24.6301 24.6401 24.5801C24.6401 24.6501 24.6101 24.7001 24.5401 24.7201C24.5101 24.7201 24.4901 24.7001 24.4801 24.6901C24.4601 24.6701 24.4501 24.6701 24.4301 24.6901C24.3901 24.6901 24.3401 24.7101 24.3401 24.7101L24.3301 24.7201Z" fill="#95D4FD"/>
<path d="M24.4697 24.5903V24.5703C24.4697 24.5703 24.4797 24.5503 24.5097 24.5203L24.5397 24.4903C24.5397 24.4903 24.5797 24.4503 24.6197 24.4403C24.6497 24.4003 24.6897 24.4403 24.7097 24.4503C24.6597 24.4503 24.6497 24.4503 24.6397 24.4703C24.5897 24.4703 24.5797 24.4903 24.5597 24.5103C24.5597 24.5203 24.5397 24.5303 24.5297 24.5403C24.4997 24.5603 24.4897 24.5703 24.4797 24.5803L24.4697 24.5903Z" fill="#95D4FD"/>
<path d="M24.7199 24.7299H24.6899C24.6899 24.7299 24.7099 24.6399 24.7299 24.6099C24.7699 24.5799 24.7899 24.5699 24.8199 24.5799C24.8399 24.5799 24.8599 24.6099 24.8799 24.6399C24.8899 24.6399 24.9099 24.6499 24.9299 24.6699C24.9499 24.6799 24.9699 24.6899 24.9999 24.6999C24.9599 24.7199 24.9399 24.6999 24.9199 24.6999C24.8999 24.6899 24.8799 24.6799 24.8599 24.6699C24.8399 24.6299 24.8199 24.6199 24.8099 24.6099C24.7999 24.6099 24.7799 24.6099 24.7499 24.6299C24.7499 24.6499 24.7199 24.7199 24.7199 24.7399V24.7299Z" fill="#95D4FD"/>
<path d="M25.0199 24.5401C24.9799 24.4701 24.9599 24.4301 24.9199 24.4201C24.9199 24.4501 24.9099 24.4801 24.8999 24.4901L24.8599 24.4701C24.8599 24.4701 24.8899 24.4301 24.9099 24.3901C24.9899 24.3901 24.9999 24.4401 25.0299 24.4901C25.0799 24.4901 25.1099 24.4901 25.1399 24.4701C25.1299 24.5301 25.0799 24.5301 25.0199 24.5301V24.5401Z" fill="#95D4FD"/>
<path d="M25.3897 24.7001C25.3397 24.7001 25.3197 24.6801 25.3097 24.6601C25.2897 24.6501 25.2797 24.6301 25.2597 24.6201C25.2297 24.6001 25.2197 24.6201 25.1897 24.6801H25.1597C25.1797 24.6301 25.1997 24.5801 25.2397 24.5801L25.2797 24.6101C25.2797 24.6101 25.3197 24.6301 25.3397 24.6501C25.3497 24.6601 25.3697 24.6801 25.3897 24.6901C25.3897 24.6701 25.3897 24.6601 25.4297 24.6501C25.4097 24.6901 25.4097 24.6901 25.3997 24.7101L25.3897 24.7001Z" fill="#95D4FD"/>
<path d="M24.1299 24.7501V24.7201C24.1299 24.7201 24.1399 24.7001 24.1699 24.6901C24.2199 24.6501 24.2399 24.6301 24.2699 24.5801C24.3099 24.5801 24.3299 24.5801 24.3499 24.5801C24.3799 24.5801 24.3999 24.5801 24.4299 24.5801C24.3999 24.6101 24.3699 24.6101 24.3399 24.6001C24.3199 24.6001 24.2999 24.6001 24.2799 24.6001C24.2599 24.6501 24.2399 24.6701 24.1999 24.7101C24.1599 24.7301 24.1399 24.7401 24.1299 24.7501Z" fill="#95D4FD"/>
<path d="M22.6101 24.5401H22.5801C22.5801 24.5401 22.6001 24.5001 22.6601 24.4701C22.6801 24.4401 22.7101 24.4501 22.7301 24.4701L22.7701 24.5101C22.7701 24.5101 22.7401 24.5101 22.7201 24.5101H22.6801C22.6801 24.5101 22.6201 24.5501 22.6201 24.5601L22.6101 24.5401Z" fill="#95D4FD"/>
<path d="M22.7999 24.7099C22.7999 24.7099 22.7699 24.7099 22.7599 24.6999C22.7499 24.6999 22.7299 24.6799 22.7099 24.6799C22.6999 24.6899 22.6799 24.6999 22.6699 24.7099V24.6799C22.6699 24.6799 22.6799 24.6599 22.7099 24.6499C22.7499 24.6499 22.7599 24.6599 22.7799 24.6699C22.7999 24.6799 22.8099 24.6899 22.8399 24.6899C22.8199 24.6999 22.8099 24.7099 22.7999 24.7099Z" fill="#95D4FD"/>
<path d="M23.79 24.12L23.77 21.77H23.79V24.12Z" fill="white"/>
<path d="M22.9297 23.22V23.21H24.6297L22.9297 23.22Z" fill="white"/>
<path d="M25.0499 23.9401L23.1499 22.8701L23.1599 22.8501L25.0499 23.9401Z" fill="white"/>
<path d="M22.5098 23.9598L24.4198 22.8398L24.4298 22.8598L22.5098 23.9598Z" fill="white"/>
<path d="M23.4096 23.8901L23.3896 23.8801L24.1096 22.6401L23.4096 23.8901Z" fill="white"/>
<path d="M24.2299 23.9901L23.4199 22.6101L23.4399 22.6001L24.2299 23.9901Z" fill="white"/>
<path d="M24.04 23.22C24.04 23.36 23.92 23.48 23.78 23.48C23.64 23.48 23.52 23.36 23.52 23.22C23.52 23.08 23.64 22.96 23.78 22.96C23.92 22.96 24.04 23.08 24.04 23.22Z" fill="#95D4FD"/>
<path d="M25.2301 24.2603H24.3501C24.3501 24.2603 24.3501 24.4003 24.4101 24.4103C24.4701 24.4103 25.2001 24.4103 25.2201 24.4603C25.2501 24.5203 24.5101 24.5503 24.5101 24.5503C24.5101 24.5503 25.1601 24.5503 25.2001 24.5903C25.2401 24.6403 24.8401 24.6503 24.8701 24.6603C24.9001 24.6603 25.3301 24.6603 25.3701 24.7003C25.4101 24.7503 25.1801 24.7803 25.1801 24.7803C25.1801 24.7803 25.5301 24.8203 25.5401 24.8103C25.4601 24.6603 25.2201 24.2603 25.2201 24.2603H25.2301Z" fill="#487BA2"/>
<path d="M23.6496 23.0403C23.6496 23.0403 23.7196 23.0703 23.7096 23.1303C23.7096 23.1703 23.6496 23.2303 23.6296 23.2703C23.6096 23.3103 23.7296 23.4603 23.8496 23.3803C23.9596 23.3003 23.9496 23.1603 23.9096 23.1303C23.8196 23.0703 23.7596 22.9803 23.6496 23.0403Z" fill="#C0003B"/>
<path d="M23.8199 23.3801C23.8199 23.3801 23.7799 23.3301 23.7399 23.3101C23.7099 23.2901 23.6699 23.2801 23.6499 23.2901C23.6499 23.2901 23.6499 23.3001 23.6499 23.3101V23.2901C23.6499 23.2901 23.7299 23.2901 23.7499 23.3101C23.7699 23.3201 23.8299 23.3701 23.8199 23.3901V23.3801Z" fill="black"/>
<path d="M23.0297 23.5801C23.1297 23.5601 23.1597 23.6701 23.1997 23.7001C23.2297 23.7201 23.3197 23.7301 23.3497 23.7401C23.3697 23.7501 23.4597 23.8101 23.4597 23.8101C23.4597 23.8101 23.4997 23.7 23.5497 23.69C23.5997 23.68 23.7997 23.82 23.7997 23.82C23.7997 23.82 23.8197 23.6901 23.8797 23.7101C23.9297 23.7301 24.1997 23.9301 24.1997 23.9301C24.1997 23.9301 24.2097 23.8601 24.2697 23.8401C24.3297 23.8201 24.5197 23.94 24.5197 23.94C24.5197 23.94 24.5397 23.8401 24.5797 23.8401C24.6997 23.8401 25.0697 24.2501 25.1597 24.2601C25.1997 24.2601 25.0197 24.3201 25.0197 24.3201C25.0197 24.3201 25.0497 24.3501 25.0297 24.3701C25.0097 24.3901 24.4897 24.3701 24.4897 24.3701C24.4897 24.3701 24.4997 24.4101 24.4897 24.4201C24.4797 24.4401 22.2197 24.4601 22.2197 24.4601C22.4297 24.1001 22.8497 23.6301 23.0297 23.5901V23.5801Z" fill="#5B7133"/>
<path d="M23.9198 24.4299C23.9998 24.4099 23.9398 24.1899 23.5098 23.8599C24.1898 24.3299 23.7598 24.3999 24.4598 24.4199C24.3398 24.4199 23.9198 24.4299 23.9198 24.4299Z" fill="#263732"/>
<path d="M23.8101 23.8398C23.8101 23.8398 24.4601 24.3398 24.4801 24.3598H24.6201C24.6201 24.3598 24.5301 24.3598 23.8101 23.8398Z" fill="#263732"/>
<path d="M24.1899 23.9399C24.1899 23.9399 24.7299 24.3699 24.6499 24.3699C24.5599 24.3699 24.9499 24.3699 25.0199 24.3699C24.6699 24.3499 24.7399 24.3399 24.1999 23.9499L24.1899 23.9399Z" fill="#263732"/>
<path d="M24.52 23.96L25 24.32C25 24.32 25.08 24.3 25.11 24.28C24.97 24.3 24.94 24.24 24.52 23.96Z" fill="#263732"/>
<path d="M23.1101 23.6201C23.1101 23.6201 23.1601 23.6901 23.1801 23.7101C23.2001 23.7201 23.4301 23.8301 23.5501 23.9601C23.6701 24.0901 23.8601 24.2501 23.7901 24.2701C23.7301 24.2901 23.6601 24.2201 23.6601 24.2201C23.6601 24.2201 23.7501 24.3701 23.6301 24.3801C23.5101 24.3901 23.2101 23.9301 23.2101 23.9301C23.2101 23.9301 23.3501 24.3401 23.1701 24.3301C22.9801 24.3101 23.0001 24.0201 23.0001 24.0201C23.0001 24.0201 22.9501 24.1601 22.9101 24.1601C22.8701 24.1601 22.9101 23.9801 22.9101 23.9801C22.9101 23.9801 22.7001 24.3401 22.6201 24.3001C22.5401 24.2601 22.9501 23.6101 23.1101 23.6401V23.6201Z" fill="#93C438"/>
<path d="M23.5498 23.7502C23.5498 23.7502 23.5798 23.7302 23.6398 23.7602C23.7098 23.7902 24.2398 24.2102 24.2298 24.2502C24.2198 24.2902 23.5798 23.9502 23.5498 23.7502Z" fill="#93C438"/>
<path d="M23.9497 23.8101C23.9497 23.8101 24.3697 24.2701 24.4797 24.2401C24.5897 24.2101 23.9797 23.8101 23.9497 23.8101Z" fill="#93C438"/>
<path d="M24.2701 23.8599C24.2201 23.8599 24.7201 24.3099 24.8301 24.2899C24.9401 24.2699 24.3501 23.8699 24.2701 23.8599Z" fill="#93C438"/>
<path d="M24.5701 23.8802C24.5101 23.8902 24.9501 24.2202 25.0001 24.2202C25.0601 24.2202 24.7001 23.8602 24.5701 23.8802Z" fill="#93C438"/>
<path d="M23.0801 22.9603C23.0801 22.9603 23.3501 22.6503 23.7801 22.6503C24.2101 22.6503 24.4801 22.9603 24.4801 22.9603L24.3701 22.7703C24.3701 22.7703 24.1501 22.5503 23.7801 22.5503C23.4101 22.5503 23.1901 22.7603 23.1901 22.7603L23.0801 22.9503V22.9603Z" fill="#B0008A"/>
<path d="M24.3097 22.66C24.3097 22.66 24.1197 22.5 23.7797 22.5C23.4397 22.5 23.2497 22.66 23.2497 22.66L23.1597 22.81C23.1597 22.81 23.3697 22.58 23.7797 22.58C24.1897 22.58 24.3997 22.81 24.3997 22.81L24.3097 22.66Z" fill="#C0003B"/>
<path d="M24.24 22.5201C24.24 22.5201 24.07 22.3901 23.78 22.3901C23.49 22.3901 23.34 22.5101 23.34 22.5101L23.25 22.6701C23.25 22.6701 23.42 22.5001 23.79 22.5001C24.16 22.5001 24.33 22.6701 24.33 22.6701L24.25 22.5201H24.24Z" fill="#F3CD2D"/>
<path d="M24.1598 22.4001L24.2398 22.5401C24.2398 22.5401 24.0698 22.4101 23.7698 22.4101C23.4698 22.4101 23.2998 22.5401 23.2998 22.5401L23.3798 22.4001C23.3798 22.4001 23.4998 22.3101 23.7598 22.3101C24.0198 22.3101 24.1398 22.3901 24.1398 22.3901L24.1598 22.4001Z" fill="#93C438"/>
<path d="M24.0999 22.3003L24.1699 22.4203C24.1699 22.4203 23.9999 22.3403 23.7799 22.3403C23.5599 22.3403 23.3799 22.4503 23.3799 22.4503L23.4499 22.3303C23.4499 22.3303 23.5699 22.2603 23.7899 22.2603C24.0099 22.2603 24.1099 22.3103 24.1099 22.3103L24.0999 22.3003Z" fill="#6091BE"/>
<path d="M24.0699 22.2402L24.1199 22.3402C24.1199 22.3402 24.0199 22.2702 23.7799 22.2702C23.5399 22.2702 23.4399 22.3402 23.4399 22.3402L23.4999 22.2402C23.4999 22.2402 23.6099 22.2002 23.7899 22.2002C23.9699 22.2002 24.0799 22.2402 24.0799 22.2402H24.0699Z" fill="#2F4791"/>
<path d="M23.3498 24.48H24.2298C24.2298 24.48 24.0798 24.51 24.0798 24.52C24.0798 24.54 24.3998 24.55 24.3998 24.55C24.3998 24.55 24.2098 24.56 24.2098 24.58C24.2098 24.6 24.2998 24.61 24.2998 24.61C24.2998 24.61 24.1298 24.63 24.1298 24.65C24.1298 24.67 24.3498 24.68 24.3398 24.68C24.3198 24.68 24.0498 24.68 24.0498 24.71C24.0498 24.74 24.2498 24.78 24.2498 24.78L23.0898 24.8C23.0898 24.8 23.2698 24.77 23.2698 24.74C23.2698 24.7 23.1398 24.69 23.1398 24.69C23.1398 24.69 23.6098 24.69 23.6398 24.68C23.6598 24.66 23.5398 24.64 23.5398 24.64C23.5398 24.64 23.7298 24.65 23.7398 24.63C23.7498 24.61 23.4898 24.57 23.4898 24.57C23.4898 24.57 23.6498 24.57 23.6698 24.55C23.6898 24.52 23.3798 24.49 23.3798 24.49L23.3498 24.48Z" fill="white"/>
<path d="M23.1798 24.5C23.1798 24.5 22.3098 24.53 22.2298 24.58C22.1498 24.63 22.7198 24.68 22.7198 24.68C22.7198 24.68 22.1398 24.68 22.0998 24.74C22.0598 24.79 22.4498 24.79 22.4498 24.79L22.0098 24.82L22.2198 24.46L23.1898 24.51L23.1798 24.5Z" fill="#487BA2"/>
<path d="M21.2399 24.5602C21.2399 24.5602 21.2399 24.6202 21.1999 24.6302C21.1699 24.6302 21.1399 24.6302 21.1299 24.5902C21.1299 24.5602 21.1299 24.5302 21.1699 24.5202C21.1999 24.5102 21.2299 24.5202 21.2399 24.5602Z" fill="#F3CD2D"/>
<path d="M21.3298 25.1203C21.3298 25.1203 21.2698 25.1703 21.2898 25.2203H21.2698L21.1798 25.0303H21.1998C21.1998 25.0303 21.2298 25.0603 21.2498 25.0503C21.2598 25.0503 21.2698 25.0403 21.2798 25.0303L21.3398 24.9803L21.2698 24.8303H21.2298C21.2298 24.8303 21.1898 24.8303 21.1798 24.8503C21.1498 24.8603 21.1498 24.8903 21.1598 24.9203H21.1398L21.0698 24.7803H21.0898C21.0898 24.7803 21.1598 24.8203 21.2198 24.8103L21.5598 24.7803L21.6198 24.8503L21.3298 25.1203ZM21.4998 24.8203L21.2898 24.8403L21.3498 24.9603L21.4998 24.8203Z" fill="#F3CD2D"/>
<path d="M21.64 25.6102C21.64 25.6102 21.61 25.6602 21.64 25.6902H21.62L21.49 25.5202H21.51C21.51 25.5202 21.56 25.5502 21.59 25.5202L21.85 25.3302L21.44 25.4602V25.4402L21.66 25.0902L21.46 25.2402C21.38 25.3002 21.37 25.3102 21.4 25.3602H21.38L21.29 25.2402H21.31C21.31 25.2402 21.36 25.2702 21.44 25.2102L21.63 25.0702C21.63 25.0702 21.67 25.0202 21.64 24.9902H21.66L21.77 25.1302L21.6 25.3802L21.89 25.2902L22 25.4302H21.98C21.98 25.4302 21.94 25.4002 21.9 25.4302L21.66 25.6102H21.64Z" fill="#F3CD2D"/>
<path d="M21.7097 25.7802C21.7097 25.7802 21.7597 25.8102 21.7897 25.7802L21.9897 25.5502C21.9897 25.5502 22.0197 25.5002 21.9897 25.4702V25.4502L22.2797 25.7002L22.2297 25.8102H22.2097C22.2097 25.7302 22.1997 25.6602 22.1397 25.6102C22.0997 25.5702 22.0897 25.5902 22.0597 25.6202L21.9797 25.7102C21.9797 25.7102 22.0497 25.7702 22.1097 25.7402L22.1297 25.7602L22.0097 25.9002L21.9897 25.8802C22.0197 25.8202 22.0097 25.7902 21.9597 25.7502H21.9497L21.8597 25.8402C21.8597 25.8402 21.8197 25.8902 21.8597 25.9202C21.9197 25.9702 21.9997 25.9902 22.0697 25.9802V26.0002L21.9597 26.0602L21.6797 25.8102V25.7902L21.7097 25.7802Z" fill="#F3CD2D"/>
<path d="M22.4301 26.2202C22.4301 26.2202 22.4301 26.3102 22.4701 26.3402V26.3602L22.3301 26.2802C22.3301 26.2802 22.3301 26.2402 22.3301 26.2202V26.1302C22.3501 26.0402 22.3301 26.0202 22.3101 26.0102L22.2401 26.1302C22.2401 26.1302 22.2201 26.1902 22.2601 26.2102V26.2302L22.0601 26.1102V26.0902C22.0601 26.0902 22.1301 26.1102 22.1501 26.0802L22.3101 25.8202C22.3101 25.8202 22.3301 25.7602 22.2901 25.7402V25.7202L22.5301 25.8602C22.6101 25.9102 22.6301 25.9802 22.5901 26.0402C22.5501 26.1002 22.4901 26.0902 22.4301 26.0702C22.4301 26.0902 22.4301 26.1202 22.4301 26.1402V26.2202ZM22.3301 25.9902C22.4101 26.0502 22.4601 26.0302 22.5001 25.9802C22.5301 25.9302 22.5101 25.8902 22.4601 25.8502C22.4301 25.8302 22.4201 25.8502 22.4001 25.8702L22.3301 25.9902Z" fill="#F3CD2D"/>
<path d="M22.69 26.0399C22.69 26.0399 22.7 25.9799 22.66 25.9599V25.9399L22.87 26.0299V26.0499C22.87 26.0499 22.8 26.0399 22.78 26.0799L22.66 26.3599C22.66 26.3599 22.66 26.4199 22.69 26.4399V26.4599L22.48 26.3699V26.3499C22.48 26.3499 22.55 26.3599 22.57 26.3199L22.69 26.0399Z" fill="#F3CD2D"/>
<path d="M23.1897 26.2803H23.1597C23.1597 26.2103 23.1197 26.1403 23.0497 26.1203C22.9597 26.0903 22.9097 26.2003 22.8797 26.2703C22.8297 26.4103 22.8797 26.5003 22.9497 26.5203C23.0097 26.5403 23.0597 26.5103 23.0997 26.4803V26.5003C23.0497 26.5603 22.9797 26.5903 22.8897 26.5603C22.7697 26.5203 22.7197 26.4003 22.7597 26.2803C22.7997 26.1603 22.9197 26.0603 23.0397 26.1003C23.0597 26.1003 23.0797 26.1203 23.0897 26.1303C23.0997 26.1403 23.1097 26.1503 23.1297 26.1603C23.1497 26.1603 23.1697 26.1603 23.1797 26.1603V26.3003L23.1897 26.2803Z" fill="#F3CD2D"/>
<path d="M23.4998 26.5602C23.4998 26.5602 23.4998 26.6402 23.5598 26.6502V26.6702L23.3398 26.6302V26.6102C23.3398 26.6102 23.3898 26.6102 23.3998 26.5902C23.3998 26.5802 23.3998 26.5702 23.3998 26.5502V26.4702L23.2298 26.4402L23.2098 26.4802C23.2098 26.4802 23.1898 26.5102 23.1898 26.5302C23.1898 26.5602 23.2098 26.5802 23.2398 26.5902V26.6102L23.0698 26.5802V26.5602C23.1298 26.5602 23.1498 26.5202 23.1798 26.4802L23.3498 26.1802H23.4398L23.4898 26.5602H23.4998ZM23.3498 26.2402L23.2498 26.4302L23.3898 26.4502L23.3598 26.2402H23.3498Z" fill="#F3CD2D"/>
<path d="M24.1398 26.3199H24.1098C24.1098 26.3199 24.0198 26.2099 23.9498 26.2099C23.8598 26.2099 23.8398 26.3399 23.8498 26.4099C23.8598 26.5599 23.9398 26.6199 24.0098 26.6199C24.0698 26.6199 24.1098 26.5699 24.1398 26.5199H24.1598C24.1198 26.6099 24.0698 26.6599 23.9798 26.6699C23.8598 26.6699 23.7598 26.5799 23.7598 26.4599C23.7598 26.3299 23.8298 26.1999 23.9598 26.1899C23.9798 26.1899 23.9998 26.1899 24.0198 26.1899C24.0398 26.1899 24.0498 26.1899 24.0598 26.1899C24.0798 26.1899 24.0898 26.1899 24.0998 26.1699L24.1398 26.2999V26.3199Z" fill="#F3CD2D"/>
<path d="M24.2299 26.6201C24.2299 26.6201 24.2899 26.5901 24.2699 26.5501L24.1999 26.2501C24.1999 26.2501 24.1699 26.2001 24.1299 26.2101V26.1901L24.4899 26.1001L24.5499 26.2101H24.5299C24.4799 26.1801 24.3999 26.1501 24.3299 26.1601C24.2799 26.1701 24.2799 26.1901 24.2899 26.2401L24.3199 26.3601H24.3299C24.3899 26.3401 24.4099 26.3301 24.4199 26.2601H24.4399L24.4799 26.4301H24.4599C24.4299 26.3801 24.3899 26.3701 24.3299 26.3901H24.3199L24.3499 26.5201C24.3499 26.5201 24.3699 26.5801 24.4099 26.5701C24.4799 26.5501 24.5399 26.4901 24.5799 26.4301H24.5999L24.5799 26.5601L24.2099 26.6501V26.6301L24.2299 26.6201Z" fill="#F3CD2D"/>
<path d="M25.0101 26.2399L24.9301 26.0499C24.9301 26.0499 24.8901 25.9799 24.8301 25.9999V25.9799L24.9701 25.9199V25.9399C24.9701 25.9399 24.9301 25.9999 24.9601 26.0499L25.1001 26.3699L25.0501 26.3899L24.6801 26.1599L24.7701 26.3799C24.8001 26.4399 24.8101 26.4499 24.8801 26.4399V26.4599L24.7301 26.5299V26.5099C24.7301 26.5099 24.7701 26.4599 24.7501 26.3999L24.6401 26.1299C24.6401 26.1299 24.5901 26.1099 24.5601 26.1299V26.1099L24.6901 26.0499L25.0201 26.2499L25.0101 26.2399Z" fill="#F3CD2D"/>
<path d="M25.2997 25.6802L25.3997 25.7702V25.7902C25.3297 25.7702 25.2597 25.7502 25.2097 25.7902L25.4097 26.0802C25.4097 26.0802 25.4497 26.1202 25.4897 26.0902V26.1102L25.3197 26.2402V26.2202C25.3197 26.2202 25.3497 26.1802 25.3197 26.1402L25.1197 25.8502C25.1197 25.8502 25.0597 25.9602 25.0597 26.0202H25.0397L24.9897 25.9102L25.2997 25.7002V25.6802Z" fill="#F3CD2D"/>
<path d="M25.8301 25.6502C25.8301 25.6502 25.9201 25.6802 25.9601 25.6502H25.9701L25.8601 25.7702C25.8601 25.7702 25.8201 25.7602 25.8001 25.7502L25.7201 25.7202C25.6401 25.6902 25.6101 25.7002 25.6001 25.7202L25.7001 25.8202C25.7001 25.8202 25.7501 25.8502 25.7801 25.8202V25.8402L25.6401 26.0002H25.6301C25.6301 26.0002 25.6601 25.9302 25.6301 25.9002L25.4201 25.6802C25.4201 25.6802 25.3701 25.6502 25.3401 25.6802H25.3301L25.5201 25.4802C25.5901 25.4202 25.6601 25.4102 25.7101 25.4602C25.7601 25.5102 25.7401 25.5802 25.7101 25.6302C25.7301 25.6302 25.7601 25.6302 25.7801 25.6402L25.8501 25.6602L25.8301 25.6502ZM25.5901 25.6902C25.6601 25.6202 25.6601 25.5702 25.6201 25.5202C25.5801 25.4702 25.5401 25.4802 25.4901 25.5302C25.4601 25.5602 25.4701 25.5702 25.4901 25.6002L25.5801 25.7002L25.5901 25.6902Z" fill="#F3CD2D"/>
<path d="M26.15 25.2399C26.15 25.2399 26.23 25.2699 26.26 25.2199H26.28L26.15 25.4099H26.13C26.13 25.4099 26.15 25.3499 26.13 25.3399C26.13 25.3399 26.11 25.3299 26.1 25.3299L26.03 25.3099L25.94 25.4399L25.96 25.4799C25.96 25.4799 25.98 25.5099 26 25.5199C26.02 25.5399 26.05 25.5199 26.07 25.4999H26.09L25.99 25.6499H25.97C25.99 25.5799 25.97 25.5499 25.94 25.5099L25.75 25.2199L25.78 25.1299L26.15 25.2499V25.2399ZM25.8 25.2399L25.92 25.4199L26 25.3099L25.8 25.2399Z" fill="#F3CD2D"/>
<path d="M26.2601 25.2C26.2601 25.2 26.2701 25.14 26.2401 25.12L25.9701 24.99C25.9701 24.99 25.9101 24.98 25.8901 25.02H25.8701L25.9701 24.81H25.9901C25.9901 24.81 25.9801 24.88 26.0101 24.9L26.2801 25.03C26.2801 25.03 26.3301 25.05 26.3501 25.01C26.3801 24.94 26.3701 24.86 26.3401 24.79H26.3501L26.4401 24.87L26.2701 25.21H26.2501L26.2601 25.2Z" fill="#F3CD2D"/>
<path d="M26.3097 24.5599C26.3097 24.5599 26.3497 24.5099 26.3797 24.5199C26.4097 24.5199 26.4297 24.5599 26.4197 24.5899C26.4197 24.6199 26.3797 24.6399 26.3497 24.6299C26.3197 24.6299 26.2997 24.5899 26.3097 24.5599Z" fill="#F3CD2D"/>
<path d="M21.24 24.0001C21.24 24.0001 21.31 23.9401 21.31 23.8901H21.33L21.35 24.0401C21.35 24.0401 21.32 24.0601 21.3 24.0701L21.23 24.1201C21.15 24.1701 21.15 24.2001 21.16 24.2201L21.3 24.2001C21.3 24.2001 21.35 24.1801 21.35 24.1301H21.37L21.4 24.3501H21.38C21.38 24.3501 21.36 24.2901 21.31 24.3001L21.01 24.3501C21.01 24.3501 20.96 24.3801 20.96 24.4201H20.94L20.9 24.1601C20.89 24.0701 20.93 24.0001 20.99 23.9901C21.06 23.9801 21.1 24.0301 21.12 24.0901C21.13 24.0701 21.15 24.0501 21.17 24.0401L21.23 24.0001H21.24ZM21.13 24.2201C21.11 24.1201 21.08 24.0901 21.01 24.1001C20.95 24.1001 20.93 24.1501 20.94 24.2101C20.94 24.2501 20.96 24.2501 21 24.2501L21.13 24.2301V24.2201Z" fill="#F3CD2D"/>
<path d="M21.3199 23.8602C21.3199 23.8602 21.3099 23.8002 21.2599 23.8002H20.9599C20.9599 23.8002 20.8999 23.8002 20.8999 23.8502H20.8799V23.4702L21.0099 23.4302V23.4502C21.0099 23.4502 20.9099 23.5502 20.9099 23.6202C20.9099 23.6802 20.9299 23.6802 20.9699 23.6802H21.0899C21.0899 23.6102 21.0899 23.5802 21.0199 23.5602V23.5402H21.1999V23.5702C21.1399 23.5802 21.1199 23.6202 21.1199 23.6802L21.2499 23.7002C21.2499 23.7002 21.3099 23.7002 21.3099 23.6502C21.3099 23.5702 21.2699 23.5002 21.2199 23.4502V23.4302L21.3399 23.4802V23.8602H21.3099H21.3199Z" fill="#F3CD2D"/>
<path d="M21.1899 23.2101L21.3199 23.2401C21.3199 23.2401 21.3799 23.2401 21.3899 23.1901H21.4099L21.3599 23.4201H21.3399C21.3399 23.4201 21.3399 23.3501 21.2999 23.3401L21.0099 23.2701C21.0099 23.2701 20.9499 23.2701 20.9399 23.3201H20.9199L20.9699 23.0901C20.9999 22.9501 21.0699 22.9101 21.1299 22.9301C21.2399 22.9501 21.2299 23.0701 21.2099 23.1501V23.2001L21.1899 23.2101ZM21.1499 23.2101V23.1701C21.1799 23.0901 21.1499 23.0501 21.0799 23.0401C21.0099 23.0301 20.9799 23.0601 20.9599 23.1101C20.9499 23.1601 20.9599 23.1601 21.0099 23.1701L21.1399 23.2001L21.1499 23.2101Z" fill="#F3CD2D"/>
<path d="M21.3498 22.8302C21.4498 22.8702 21.4998 22.8502 21.5198 22.7902C21.5498 22.7002 21.5198 22.6602 21.4298 22.6202L21.2298 22.5402C21.2298 22.5402 21.1698 22.5402 21.1498 22.5802H21.1298L21.1898 22.4302H21.2098C21.2098 22.4302 21.2098 22.5002 21.2398 22.5202L21.4498 22.6002C21.5498 22.6402 21.5898 22.7102 21.5398 22.8202C21.4898 22.9402 21.4198 22.9702 21.3298 22.9402L21.1098 22.8502C21.1098 22.8502 21.0498 22.8502 21.0298 22.8902H21.0098L21.0898 22.6702H21.1098C21.1098 22.6702 21.1098 22.7402 21.1398 22.7602L21.3398 22.8402L21.3498 22.8302Z" fill="#F3CD2D"/>
<path d="M21.6 22.6199H21.58C21.58 22.6199 21.6 22.5499 21.56 22.5299L21.31 22.3699C21.31 22.3699 21.25 22.3499 21.23 22.3899H21.21L21.33 22.1899C21.42 22.0499 21.48 22.0499 21.52 22.0799C21.57 22.1199 21.56 22.1899 21.54 22.2399C21.59 22.1899 21.65 22.1399 21.72 22.1899C21.78 22.2299 21.79 22.2999 21.72 22.3999L21.58 22.6299L21.6 22.6199ZM21.49 22.3099C21.53 22.2399 21.53 22.1999 21.47 22.1599C21.41 22.1199 21.38 22.1499 21.35 22.1999C21.35 22.2099 21.33 22.2299 21.34 22.2399C21.34 22.2499 21.36 22.2599 21.37 22.2599L21.48 22.3299L21.5 22.2999L21.49 22.3099ZM21.61 22.4299C21.61 22.4299 21.67 22.4699 21.71 22.4199C21.75 22.3699 21.74 22.3099 21.68 22.2699C21.63 22.2399 21.59 22.2299 21.52 22.3299L21.5 22.3599L21.61 22.4299Z" fill="#F3CD2D"/>
<path d="M21.83 22.2203C21.83 22.2203 21.86 22.1703 21.83 22.1403L21.61 21.9403C21.61 21.9403 21.56 21.9103 21.53 21.9403H21.52L21.67 21.7603H21.68C21.68 21.7603 21.65 21.8303 21.68 21.8603L21.9 22.0603C21.9 22.0603 21.94 22.1003 21.97 22.0603C22.02 22.0003 22.03 21.9203 22.02 21.8503H22.04L22.1 21.9603L21.85 22.2403H21.84L21.83 22.2203Z" fill="#F3CD2D"/>
<path d="M21.9399 21.5902C21.9399 21.5902 21.8899 21.5602 21.8599 21.5902V21.5702L22.0199 21.4302V21.4502C22.0199 21.4502 21.9899 21.5002 22.0199 21.5402L22.2099 21.7702C22.2099 21.7702 22.2599 21.8002 22.2899 21.7702H22.2999L22.1299 21.9302V21.9102C22.1299 21.9102 22.1499 21.8602 22.1299 21.8302L21.9399 21.6002V21.5902Z" fill="#F3CD2D"/>
<path d="M22.4699 21.2802L22.4499 21.3002C22.3899 21.2602 22.3199 21.2402 22.2499 21.2702C22.1699 21.3202 22.2199 21.4302 22.2499 21.5002C22.3299 21.6302 22.4299 21.6402 22.4899 21.6002C22.5399 21.5702 22.5499 21.5102 22.5499 21.4502H22.5699C22.5699 21.5402 22.5499 21.6102 22.4699 21.6602C22.3699 21.7302 22.2399 21.6902 22.1699 21.5802C22.0999 21.4702 22.1099 21.3202 22.2199 21.2502C22.2399 21.2402 22.2599 21.2302 22.2699 21.2302C22.2799 21.2302 22.2999 21.2302 22.3099 21.2202C22.3199 21.2102 22.3299 21.2002 22.3399 21.1802L22.4399 21.2702L22.4699 21.2802Z" fill="#F3CD2D"/>
<path d="M22.9799 21.31C22.9799 21.31 23.0299 21.37 23.0799 21.35V21.37L22.8899 21.45V21.43C22.8899 21.43 22.9199 21.4 22.9199 21.39C22.9199 21.38 22.9099 21.37 22.8999 21.36L22.8499 21.3L22.6999 21.36V21.4C22.6999 21.4 22.6999 21.44 22.7099 21.45C22.7199 21.48 22.7499 21.48 22.7799 21.47V21.49L22.6299 21.55V21.53C22.6299 21.53 22.6699 21.46 22.6699 21.41V21.06L22.7299 21L22.9799 21.31ZM22.6899 21.11V21.32L22.8199 21.27L22.6899 21.11Z" fill="#F3CD2D"/>
<path d="M23.2697 21.3101C23.2697 21.3101 23.3297 21.2901 23.3197 21.2401L23.2897 20.9401C23.2897 20.9401 23.2697 20.8801 23.2197 20.8901V20.8701L23.4297 20.8501C23.4297 20.8501 23.4997 20.8501 23.5397 20.8501C23.6197 20.8701 23.6897 20.9401 23.6997 21.0501C23.7097 21.1501 23.6597 21.2401 23.5897 21.2701C23.5597 21.2901 23.5197 21.3001 23.4797 21.3001L23.2697 21.3201V21.3001V21.3101ZM23.4197 21.2301C23.4197 21.2301 23.4197 21.2901 23.4797 21.2801C23.5597 21.2801 23.6097 21.2201 23.5897 21.0501C23.5697 20.9001 23.5097 20.8601 23.4297 20.8701C23.3797 20.8701 23.3897 20.8901 23.3897 20.9301L23.4197 21.2201V21.2301Z" fill="#F3CD2D"/>
<path d="M23.74 21.2601C23.74 21.2601 23.8 21.2601 23.8 21.2101L23.82 20.9101C23.82 20.9101 23.81 20.8501 23.76 20.8501V20.8301L24.13 20.8501L24.16 20.9701H24.14C24.14 20.9701 24.04 20.8701 23.97 20.8601C23.92 20.8601 23.92 20.8801 23.91 20.9201V21.0401C23.97 21.0401 24 21.0401 24.03 20.9701H24.05V21.1501H24.01C24 21.0801 23.97 21.0701 23.91 21.0601H23.9V21.1901C23.9 21.1901 23.9 21.2501 23.94 21.2501C24.02 21.2501 24.09 21.2201 24.14 21.1601H24.16L24.11 21.2801L23.73 21.2501V21.2301L23.74 21.2601Z" fill="#F3CD2D"/>
<path d="M24.7301 21.3301L24.8001 21.1301C24.8201 21.0801 24.8201 21.0501 24.7601 21.0201V21.0001L24.9201 21.0501V21.0701C24.8501 21.0701 24.8401 21.0801 24.8201 21.1401L24.7101 21.4701L24.6601 21.4501L24.5401 21.0301L24.4601 21.2601C24.4401 21.3201 24.4401 21.3401 24.5001 21.3701V21.3901L24.3301 21.3301V21.3101C24.4001 21.3101 24.4101 21.3101 24.4301 21.2501L24.5201 20.9701C24.5201 20.9701 24.4901 20.9201 24.4601 20.9101V20.8901L24.6201 20.9401L24.7301 21.3101V21.3301Z" fill="#F3CD2D"/>
<path d="M24.99 21.1801C24.99 21.1801 25 21.1201 24.96 21.1001V21.0801L25.17 21.1801V21.2001C25.17 21.2001 25.1 21.1801 25.08 21.2201L24.95 21.4901C24.95 21.4901 24.94 21.5501 24.98 21.5701V21.5901L24.77 21.4901V21.4701C24.77 21.4701 24.84 21.4801 24.86 21.4501L24.99 21.1801Z" fill="#F3CD2D"/>
<path d="M25.49 21.5499H25.46C25.47 21.4699 25.46 21.3899 25.41 21.3499C25.33 21.2999 25.25 21.3899 25.21 21.4499C25.13 21.5699 25.15 21.6699 25.21 21.7099C25.26 21.7499 25.32 21.7299 25.37 21.7099V21.7299C25.3 21.7699 25.22 21.7799 25.15 21.7299C25.05 21.6599 25.03 21.5199 25.1 21.4299C25.17 21.3199 25.31 21.2699 25.42 21.3399C25.44 21.3499 25.45 21.3699 25.46 21.3799C25.47 21.3899 25.48 21.3999 25.49 21.4099C25.5 21.4099 25.52 21.4199 25.54 21.4199L25.49 21.5599V21.5499Z" fill="#F3CD2D"/>
<path d="M25.67 22.0301C25.67 22.0301 25.63 22.1001 25.67 22.1401L25.65 22.1601L25.49 22.0101V21.9901C25.49 21.9901 25.55 22.0201 25.56 22.0001C25.56 22.0001 25.58 21.9801 25.58 21.9701L25.62 21.9001L25.51 21.7901L25.47 21.8101C25.47 21.8101 25.44 21.8301 25.42 21.8401C25.4 21.8601 25.41 21.8901 25.42 21.9101H25.41L25.29 21.8101H25.3C25.35 21.8201 25.38 21.8101 25.43 21.7901L25.74 21.6401L25.83 21.6801L25.65 22.0301H25.67ZM25.73 21.6901L25.54 21.7801L25.64 21.8801L25.73 21.6901Z" fill="#F3CD2D"/>
<path d="M25.9596 22.4299C25.9596 22.4299 25.9196 22.5099 25.9396 22.5599H25.9196L25.8296 22.4399C25.8296 22.4399 25.8496 22.4099 25.8596 22.3899L25.8996 22.3199C25.9496 22.2399 25.9396 22.2199 25.9196 22.1999L25.7996 22.2799C25.7996 22.2799 25.7596 22.3299 25.7896 22.3599H25.7696L25.6396 22.1899H25.6596C25.6596 22.1899 25.6996 22.2199 25.7396 22.1899L25.9896 22.0199C25.9896 22.0199 26.0296 21.9699 25.9996 21.9399H26.0196L26.1696 22.1499C26.2196 22.2299 26.2096 22.2999 26.1596 22.3399C26.0996 22.3799 26.0396 22.3399 25.9996 22.2999C25.9996 22.3199 25.9896 22.3399 25.9696 22.3599L25.9296 22.4299H25.9596ZM25.9596 22.1899C26.0196 22.2799 26.0596 22.2799 26.1196 22.2399C26.1696 22.2099 26.1696 22.1599 26.1296 22.1099C26.1096 22.0799 26.0896 22.0799 26.0596 22.1099L25.9496 22.1899H25.9596Z" fill="#F3CD2D"/>
<path d="M26.1897 22.9403C26.1897 22.9403 26.1297 22.9903 26.1497 23.0403H26.1297L26.0497 22.8403H26.0697C26.0697 22.8403 26.0997 22.8703 26.1097 22.8703C26.1197 22.8703 26.1297 22.8603 26.1397 22.8503L26.1997 22.8003L26.1397 22.6503H26.0997C26.0997 22.6503 26.0597 22.6503 26.0497 22.6503C26.0197 22.6603 26.0197 22.6903 26.0297 22.7203H26.0097L25.9497 22.5703H25.9697C25.9697 22.5703 26.0397 22.6103 26.0897 22.6103H26.4397L26.4997 22.6703L26.1997 22.9203L26.1897 22.9403ZM26.3797 22.6503H26.1697L26.2197 22.7803L26.3797 22.6503Z" fill="#F3CD2D"/>
<path d="M26.5299 23.3803V23.3603C26.5799 23.2903 26.6099 23.2403 26.5999 23.1903C26.5899 23.1303 26.5199 23.0803 26.3599 23.1103C26.2099 23.1403 26.1599 23.2003 26.1699 23.2703C26.1799 23.3403 26.2299 23.3403 26.2899 23.3303C26.3399 23.3203 26.3399 23.3103 26.3299 23.2603H26.3499L26.3899 23.4603H26.3699C26.3699 23.4603 26.3399 23.4103 26.2899 23.4203L26.1999 23.4403C26.1999 23.4403 26.1899 23.3903 26.1699 23.3603C26.1499 23.3303 26.1399 23.3003 26.1299 23.2703C26.0999 23.1403 26.1799 23.0303 26.2999 23.0103C26.4299 22.9803 26.5699 23.0503 26.5899 23.1803C26.5899 23.2003 26.5899 23.2203 26.5899 23.2303C26.5899 23.2403 26.5899 23.2603 26.5899 23.2703C26.5899 23.2803 26.6099 23.3103 26.6199 23.3203L26.4999 23.3803H26.5299Z" fill="#F3CD2D"/>
<path d="M26.3697 23.62C26.2597 23.62 26.2297 23.66 26.2297 23.73C26.2297 23.82 26.2897 23.85 26.3797 23.85H26.5997C26.5997 23.85 26.6597 23.83 26.6497 23.78H26.6697V23.94H26.6497C26.6497 23.94 26.6397 23.88 26.5897 23.88H26.3697C26.2597 23.88 26.1997 23.84 26.1997 23.72C26.1997 23.59 26.2497 23.53 26.3497 23.53H26.5897C26.5897 23.53 26.6397 23.51 26.6397 23.46H26.6597V23.68H26.6497C26.6497 23.68 26.6297 23.62 26.5897 23.62H26.3697Z" fill="#F3CD2D"/>
<path d="M26.2496 24.3299C26.2496 24.3299 26.1696 24.3299 26.1596 24.3899H26.1396L26.1696 24.1699H26.1896C26.1896 24.1699 26.1896 24.2199 26.2096 24.2299C26.2196 24.2299 26.2396 24.2299 26.2496 24.2299H26.3196L26.3496 24.0599L26.3096 24.0399C26.3096 24.0399 26.2796 24.0199 26.2596 24.0199C26.2296 24.0199 26.2096 24.0399 26.1996 24.0699H26.1796L26.2096 23.8999H26.2296C26.2296 23.9599 26.2696 23.9799 26.3096 24.0099L26.6096 24.1799V24.2699L26.2396 24.3299H26.2496ZM26.5596 24.1799L26.3696 24.0799L26.3496 24.2199L26.5596 24.1899V24.1799Z" fill="#F3CD2D"/>
</g>
</g>
</g>
<defs>
<clipPath id="clip0_1299_27672">
<rect width="33.56" height="19.58" fill="white" transform="translate(7 14)"/>
</clipPath>
</defs>
</svg>
