<svg width="48" height="48" viewBox="0 0 48 48" fill="none" xmlns="http://www.w3.org/2000/svg">
<g clip-path="url(#clip0_1299_27747)">
<mask id="mask0_1299_27747" style="mask-type:luminance" maskUnits="userSpaceOnUse" x="7" y="14" width="34" height="20">
<path d="M40.56 14H7V33.58H40.56V14Z" fill="white"/>
</mask>
<g mask="url(#mask0_1299_27747)">
<path d="M40.56 14H7V33.58H40.56V14Z" fill="white"/>
<path d="M40.5601 14H15.3901V33.58H40.5601V14Z" fill="#2A680B"/>
<mask id="mask1_1299_27747" style="mask-type:luminance" maskUnits="userSpaceOnUse" x="7" y="14" width="34" height="20">
<path d="M40.56 14H7V33.58H40.56V14Z" fill="white"/>
</mask>
<g mask="url(#mask1_1299_27747)">
<path d="M27.4498 17.9199C30.6898 17.9199 33.3098 20.5499 33.3098 23.7899C33.3098 27.0299 30.6898 29.6699 27.4498 29.6699C24.2098 29.6699 21.5898 27.0399 21.5898 23.7899C21.5898 20.5399 24.2098 17.9199 27.4498 17.9199Z" fill="white"/>
<path d="M25.3797 18.4299C27.5997 16.4599 30.9897 16.6599 32.9597 18.8799C34.9297 21.0899 34.7297 24.4999 32.5097 26.4799C30.2897 28.4599 26.8897 28.2499 24.9197 26.0299C22.9497 23.8099 23.1497 20.4099 25.3697 18.4299" fill="#2A680B"/>
<path d="M31.82 19.8901L30.04 20.6701L30.43 21.5701L31.82 19.8901Z" fill="white"/>
<path d="M31.8197 19.8901L30.8397 21.5801L29.9897 21.0801L31.8197 19.8901Z" fill="white"/>
<path d="M32.0498 22.18L30.7498 20.71L30.0298 21.37L32.0498 22.18Z" fill="white"/>
<path d="M32.0496 22.1798L30.1396 21.7598L30.3496 20.7998L32.0496 22.1798Z" fill="white"/>
<path d="M29.5801 19.3901L29.7801 21.3401L30.7501 21.2501L29.5801 19.3901Z" fill="white"/>
<path d="M29.5801 19.3901L30.8801 20.8601L30.1501 21.5101L29.5801 19.3901Z" fill="white"/>
<path d="M29.9497 23.0999L30.9397 21.4099L30.0897 20.9199L29.9497 23.0999Z" fill="white"/>
<path d="M29.95 23.0998L29.75 21.1498L30.73 21.0498L29.95 23.0998Z" fill="white"/>
<path d="M28.4199 21.3801L30.3299 21.8001L30.5399 20.8501L28.4199 21.3801Z" fill="white"/>
<path d="M28.4199 21.3801L30.2099 20.6001L30.5999 21.5001L28.4199 21.3801Z" fill="white"/>
</g>
</g>
</g>
<defs>
<clipPath id="clip0_1299_27747">
<rect width="33.56" height="19.58" fill="white" transform="translate(7 14)"/>
</clipPath>
</defs>
</svg>
