<svg width="48" height="48" viewBox="0 0 48 48" fill="none" xmlns="http://www.w3.org/2000/svg">
<g clip-path="url(#clip0_1299_24152)">
<mask id="mask0_1299_24152" style="mask-type:luminance" maskUnits="userSpaceOnUse" x="7" y="14" width="34" height="20">
<path d="M40.56 14H7V33.58H40.56V14Z" fill="white"/>
</mask>
<g mask="url(#mask0_1299_24152)">
<path d="M40.56 14H7V33.58H40.56V14Z" fill="white"/>
<path d="M40.56 14H7V20.53H40.56V14Z" fill="#BC0030"/>
<path d="M29.6601 21.6699L30.1301 23.1399H31.6701L30.4301 24.0399L30.9001 25.5099L29.6601 24.5999L28.4101 25.5099L28.8801 24.0399L27.6401 23.1399H29.1801L29.6601 21.6699Z" fill="#429E61"/>
<path d="M17.9101 21.6699L18.3801 23.1399H19.9201L18.6801 24.0399L19.1601 25.5099L17.9101 24.5999L16.6601 25.5099L17.1401 24.0399L15.8901 23.1399H17.4301L17.9101 21.6699Z" fill="#429E61"/>
<path d="M40.56 27.0498H7V33.5798H40.56V27.0498Z" fill="black"/>
</g>
</g>
<defs>
<clipPath id="clip0_1299_24152">
<rect width="33.56" height="19.58" fill="white" transform="translate(7 14)"/>
</clipPath>
</defs>
</svg>
