<svg width="48" height="48" viewBox="0 0 48 48" fill="none" xmlns="http://www.w3.org/2000/svg">
<g clip-path="url(#clip0_1299_24460)">
<mask id="mask0_1299_24460" style="mask-type:luminance" maskUnits="userSpaceOnUse" x="7" y="14" width="34" height="20">
<path d="M40.56 14H7V33.58H40.56V14Z" fill="white"/>
</mask>
<g mask="url(#mask0_1299_24460)">
<path d="M40.56 14H7V33.58H40.56V14Z" fill="#307359"/>
<path d="M15.81 14H10.52V33.58H15.81V14Z" fill="#BF0236"/>
<path fill-rule="evenodd" clip-rule="evenodd" d="M10.52 19.4699V19.3199L10.75 18.9399L10.69 18.8599L10.83 18.6599L10.79 18.5799L10.69 18.7299L10.66 18.6599L10.96 18.1199L11.02 18.1999L10.96 18.2799L11.06 18.4299L11.29 18.0499L11.06 17.6899L10.96 17.8199L11.02 17.8999L10.96 17.9699L10.66 17.4499L10.69 17.3699L10.79 17.5199L10.83 17.4499L10.69 17.2399L10.75 17.1599L10.52 16.7799V16.6299L10.83 17.1599L10.79 17.2399L10.92 17.4499L10.83 17.5999L10.92 17.7499L11.06 17.5199L11.36 18.0499L11.06 18.5799L10.92 18.3499L10.83 18.4999L10.92 18.6599L10.79 18.8599L10.83 18.9399L10.52 19.4699Z" fill="#E0852A"/>
<path fill-rule="evenodd" clip-rule="evenodd" d="M10.52 17.6001L10.58 17.7501V17.9701H10.72L10.79 18.0501L10.72 18.1201H10.58V18.3501L10.52 18.5001V17.6001Z" fill="#E0852A"/>
<path fill-rule="evenodd" clip-rule="evenodd" d="M10.52 23.06V22.91L10.75 22.54L10.69 22.46L10.83 22.23L10.79 22.15L10.69 22.3L10.66 22.23L10.96 21.72L11.02 21.8L10.96 21.87L11.06 22.02L11.29 21.64L11.06 21.29L10.96 21.42L11.02 21.5L10.96 21.57L10.66 21.04L10.69 20.96L10.79 21.11L10.83 21.04L10.69 20.81L10.75 20.73L10.52 20.38V20.23L10.83 20.73L10.79 20.81L10.92 21.04L10.83 21.19L10.92 21.34L11.06 21.11L11.36 21.64L11.06 22.15L10.92 21.95L10.83 22.1L10.92 22.23L10.79 22.46L10.83 22.54L10.52 23.06Z" fill="#E0852A"/>
<path fill-rule="evenodd" clip-rule="evenodd" d="M10.52 21.1899L10.58 21.3399V21.5699H10.72L10.79 21.6399L10.72 21.7199H10.58V21.9499L10.52 22.0999V21.1899Z" fill="#E0852A"/>
<path fill-rule="evenodd" clip-rule="evenodd" d="M10.52 26.6598V26.5098L10.75 26.1298L10.69 26.0498L10.83 25.8198L10.79 25.7498L10.69 25.8998L10.66 25.8198L10.96 25.3098L11.02 25.3698L10.96 25.4498L11.06 25.5998L11.29 25.2398L11.06 24.8598L10.96 25.0098L11.02 25.0898L10.96 25.1598L10.66 24.6298L10.69 24.5598L10.79 24.7098L10.83 24.6298L10.69 24.4098L10.75 24.3298L10.52 23.9498V23.7998L10.83 24.3298L10.79 24.4098L10.92 24.6298L10.83 24.7798L10.92 24.9298L11.06 24.7098L11.36 25.2398L11.06 25.7498L10.92 25.5198L10.83 25.6698L10.92 25.8198L10.79 26.0498L10.83 26.1298L10.52 26.6598Z" fill="#E0852A"/>
<path fill-rule="evenodd" clip-rule="evenodd" d="M10.52 24.7798L10.58 24.9298V25.1598H10.72L10.79 25.2398L10.72 25.3098H10.58V25.5198L10.52 25.6698V24.7798Z" fill="#E0852A"/>
<path fill-rule="evenodd" clip-rule="evenodd" d="M10.52 30.0199V29.8699L10.75 29.4999L10.69 29.4199L10.83 29.1899L10.79 29.1099L10.69 29.2699L10.66 29.1899L10.96 28.6599L11.02 28.7399L10.96 28.8099L11.06 28.9599L11.29 28.5899L11.06 28.2299L10.96 28.3799L11.02 28.4499L10.96 28.5299L10.66 27.9999L10.69 27.9199L10.79 28.0799L10.83 27.9999L10.69 27.7699L10.75 27.6999L10.52 27.3199V27.1699L10.83 27.6999L10.79 27.7699L10.92 27.9999L10.83 28.1499L10.92 28.2999L11.06 28.0799L11.36 28.5999L11.06 29.1099L10.92 28.8899L10.83 29.0399L10.92 29.1899L10.79 29.4199L10.83 29.4999L10.52 30.0199Z" fill="#E0852A"/>
<path fill-rule="evenodd" clip-rule="evenodd" d="M10.52 28.1499L10.58 28.2999V28.5299H10.72L10.79 28.5899L10.72 28.6599H10.58V28.8899L10.52 29.0399V28.1499Z" fill="#E0852A"/>
<path fill-rule="evenodd" clip-rule="evenodd" d="M15.81 19.4699V19.3199L15.58 18.9399L15.64 18.8599L15.51 18.6599L15.55 18.5799L15.64 18.7299L15.68 18.6599L15.38 18.1199L15.32 18.1999L15.38 18.2799L15.28 18.4299L15.07 18.0499L15.28 17.6899L15.38 17.8199L15.32 17.8999L15.38 17.9699L15.68 17.4499L15.64 17.3699L15.55 17.5199L15.51 17.4499L15.64 17.2399L15.58 17.1599L15.81 16.7799V16.6299L15.51 17.1599L15.55 17.2399L15.41 17.4499L15.51 17.5999L15.41 17.7499L15.28 17.5199L14.98 18.0499L15.28 18.5799L15.41 18.3499L15.51 18.4999L15.41 18.6599L15.55 18.8599L15.51 18.9399L15.81 19.4699Z" fill="#E0852A"/>
<path fill-rule="evenodd" clip-rule="evenodd" d="M15.8098 17.6001L15.7698 17.7501V17.9701H15.6398L15.5498 18.0501L15.6398 18.1201H15.7698V18.3501L15.8098 18.5001V17.6001Z" fill="#E0852A"/>
<path fill-rule="evenodd" clip-rule="evenodd" d="M15.81 23.06V22.91L15.58 22.54L15.64 22.46L15.51 22.23L15.55 22.15L15.64 22.3L15.68 22.23L15.38 21.72L15.32 21.8L15.38 21.87L15.28 22.02L15.07 21.64L15.28 21.29L15.38 21.42L15.32 21.5L15.38 21.57L15.68 21.04L15.64 20.96L15.55 21.11L15.51 21.04L15.64 20.81L15.58 20.73L15.81 20.38V20.23L15.51 20.73L15.55 20.81L15.41 21.04L15.51 21.19L15.41 21.34L15.28 21.11L14.98 21.64L15.28 22.15L15.41 21.95L15.51 22.1L15.41 22.23L15.55 22.46L15.51 22.54L15.81 23.06Z" fill="#E0852A"/>
<path fill-rule="evenodd" clip-rule="evenodd" d="M15.8098 21.1899L15.7698 21.3399V21.5699H15.6398L15.5498 21.6399L15.6398 21.7199H15.7698V21.9499L15.8098 22.0999V21.1899Z" fill="#E0852A"/>
<path fill-rule="evenodd" clip-rule="evenodd" d="M15.81 26.6598V26.5098L15.58 26.1298L15.64 26.0498L15.51 25.8198L15.55 25.7498L15.64 25.8998L15.68 25.8198L15.38 25.3098L15.32 25.3698L15.38 25.4498L15.28 25.5998L15.07 25.2398L15.28 24.8598L15.38 25.0098L15.32 25.0898L15.38 25.1598L15.68 24.6298L15.64 24.5598L15.55 24.7098L15.51 24.6298L15.64 24.4098L15.58 24.3298L15.81 23.9498V23.7998L15.51 24.3298L15.55 24.4098L15.41 24.6298L15.51 24.7798L15.41 24.9298L15.28 24.7098L14.98 25.2398L15.28 25.7498L15.41 25.5198L15.51 25.6698L15.41 25.8198L15.55 26.0498L15.51 26.1298L15.81 26.6598Z" fill="#E0852A"/>
<path fill-rule="evenodd" clip-rule="evenodd" d="M15.8098 24.7798L15.7698 24.9298V25.1598H15.6398L15.5498 25.2398L15.6398 25.3098H15.7698V25.5198L15.8098 25.6698V24.7798Z" fill="#E0852A"/>
<path fill-rule="evenodd" clip-rule="evenodd" d="M15.81 30.0199V29.8699L15.58 29.4999L15.64 29.4199L15.51 29.1899L15.55 29.1099L15.64 29.2699L15.68 29.1899L15.38 28.6599L15.32 28.7399L15.38 28.8099L15.28 28.9599L15.07 28.5899L15.28 28.2299L15.38 28.3799L15.32 28.4499L15.38 28.5299L15.68 27.9999L15.64 27.9199L15.55 28.0799L15.51 27.9999L15.64 27.7699L15.58 27.6999L15.81 27.3199V27.1699L15.51 27.6999L15.55 27.7699L15.41 27.9999L15.51 28.1499L15.41 28.2999L15.28 28.0799L14.98 28.5999L15.28 29.1099L15.41 28.8899L15.51 29.0399L15.41 29.1899L15.55 29.4199L15.51 29.4999L15.81 30.0199Z" fill="#E0852A"/>
<path fill-rule="evenodd" clip-rule="evenodd" d="M15.8098 28.1499L15.7698 28.2999V28.5299H15.6398L15.5498 28.5899L15.6398 28.6599H15.7698V28.8899L15.8098 29.0399V28.1499Z" fill="#E0852A"/>
<path fill-rule="evenodd" clip-rule="evenodd" d="M10.52 15.44V15.29L10.75 14.91L10.69 14.84L10.83 14.61L10.79 14.53L10.69 14.68L10.66 14.61L10.96 14.08L11.02 14.15L10.96 14.23L11.06 14.38L11.29 14H11.36L11.06 14.53L10.92 14.3L10.83 14.46L10.92 14.61L10.79 14.84L10.83 14.91L10.52 15.44Z" fill="#E0852A"/>
<path fill-rule="evenodd" clip-rule="evenodd" d="M10.52 14H10.79L10.72 14.08H10.58V14.3L10.52 14.46V14Z" fill="#E0852A"/>
<path fill-rule="evenodd" clip-rule="evenodd" d="M15.81 15.44V15.29L15.58 14.91L15.64 14.84L15.51 14.61L15.55 14.53L15.64 14.68L15.68 14.61L15.38 14.08L15.32 14.15L15.38 14.23L15.28 14.38L15.07 14H14.98L15.28 14.53L15.41 14.3L15.51 14.46L15.41 14.61L15.55 14.84L15.51 14.91L15.81 15.44Z" fill="#E0852A"/>
<path fill-rule="evenodd" clip-rule="evenodd" d="M15.8098 14H15.5498L15.6398 14.08H15.7698V14.3L15.8098 14.46V14Z" fill="#E0852A"/>
<mask id="mask1_1299_24460" style="mask-type:luminance" maskUnits="userSpaceOnUse" x="7" y="14" width="34" height="20">
<path d="M40.56 14H7V33.58H40.56V14Z" fill="white"/>
</mask>
<g mask="url(#mask1_1299_24460)">
<path fill-rule="evenodd" clip-rule="evenodd" d="M12.72 33.4103C12.72 33.4103 12.91 33.1203 13.41 33.0303C13.88 32.9603 13.96 33.2403 14.24 33.2403C14.5 33.2403 14.94 33.0303 14.94 33.0303C14.94 33.0303 14.5 33.4103 14.16 33.3903C13.84 33.3903 13.72 33.2003 13.38 33.2403C13.03 33.2603 12.71 33.4303 12.71 33.4103H12.72Z" fill="#E0852A"/>
<path fill-rule="evenodd" clip-rule="evenodd" d="M13.6497 33.4103C13.6497 33.4103 13.4597 33.1203 12.9897 33.0303C12.5097 32.9603 12.4197 33.2403 12.1497 33.2403C11.8697 33.2403 11.4497 33.0303 11.4497 33.0303C11.4497 33.0303 11.8697 33.4103 12.2097 33.3903C12.5497 33.3903 12.6697 33.2003 13.0097 33.2403C13.3497 33.2603 13.6497 33.4303 13.6497 33.4103Z" fill="#E0852A"/>
<path fill-rule="evenodd" clip-rule="evenodd" d="M12.1001 32.9403C12.0501 32.8603 11.9501 32.5203 12.0001 32.4803C12.0801 32.4603 12.3001 32.8003 12.2801 33.1103C12.1301 33.1603 11.6401 33.0703 11.6401 32.9903C11.6801 32.8603 11.9601 32.9003 12.0901 32.9403H12.1001Z" fill="#E0852A"/>
<path fill-rule="evenodd" clip-rule="evenodd" d="M11.7998 32.6502C11.7598 32.5602 11.7198 32.2002 11.7798 32.1802C11.8798 32.1802 12.0298 32.5602 11.9498 32.8602C11.7998 32.8802 11.3298 32.6702 11.3598 32.5802C11.4198 32.4702 11.6798 32.5802 11.7998 32.6502Z" fill="#E0852A"/>
<path fill-rule="evenodd" clip-rule="evenodd" d="M11.5498 32.3104C11.5298 32.2404 11.5298 31.8704 11.5898 31.8604C11.6798 31.8604 11.7998 32.2804 11.6798 32.5404C11.5298 32.5604 11.0798 32.2804 11.1098 32.2004C11.1898 32.0904 11.4298 32.2404 11.5498 32.3104Z" fill="#E0852A"/>
<path fill-rule="evenodd" clip-rule="evenodd" d="M11.3598 31.97C11.3398 31.87 11.3998 31.52 11.4498 31.52C11.5498 31.54 11.6098 31.97 11.4498 32.22C11.2998 32.2 10.8998 31.86 10.9398 31.79C11.0098 31.69 11.2598 31.88 11.3498 31.98L11.3598 31.97Z" fill="#E0852A"/>
<path fill-rule="evenodd" clip-rule="evenodd" d="M11.2299 31.6104C11.2299 31.5204 11.2999 31.1704 11.3799 31.1704C11.4499 31.2104 11.4799 31.6304 11.2999 31.8704C11.1299 31.8204 10.7899 31.4004 10.8299 31.3404C10.9299 31.2604 11.1299 31.4904 11.2299 31.6104Z" fill="#E0852A"/>
<path fill-rule="evenodd" clip-rule="evenodd" d="M11.2598 31.2C11.2398 31.56 11.1698 31.56 11.0398 31.3C10.9598 31.2 10.9598 30.77 11.0198 30.77C11.0998 30.75 11.2698 31.06 11.2698 31.2H11.2598Z" fill="#E0852A"/>
<path fill-rule="evenodd" clip-rule="evenodd" d="M14.2799 32.9804C14.3199 32.9004 14.4099 32.5604 14.3599 32.5204C14.2799 32.5004 14.0599 32.8404 14.0799 33.1404C14.2299 33.2004 14.7199 33.1004 14.7199 33.0304C14.6799 32.9004 14.3999 32.9404 14.2799 32.9804Z" fill="#E0852A"/>
<path fill-rule="evenodd" clip-rule="evenodd" d="M14.5599 32.6902C14.5999 32.5902 14.6299 32.2402 14.5699 32.2202C14.4799 32.2202 14.3299 32.6002 14.3999 32.9002C14.5599 32.9202 15.0299 32.7102 15.0099 32.6202C14.9499 32.5102 14.6899 32.6202 14.5599 32.6902Z" fill="#E0852A"/>
<path fill-rule="evenodd" clip-rule="evenodd" d="M14.8 32.3504C14.82 32.2804 14.84 31.9104 14.76 31.9004C14.68 31.9004 14.55 32.3104 14.66 32.5804C14.81 32.6004 15.27 32.3104 15.23 32.2404C15.16 32.1304 14.91 32.2804 14.79 32.3504H14.8Z" fill="#E0852A"/>
<path fill-rule="evenodd" clip-rule="evenodd" d="M14.9999 32.0103C15.0199 31.9103 14.9799 31.5503 14.9099 31.5503C14.8299 31.5703 14.7599 32.0103 14.9099 32.2503C15.0599 32.2303 15.4599 31.8903 15.4199 31.8203C15.3399 31.7203 15.1199 31.9103 14.9999 32.0103Z" fill="#E0852A"/>
<path fill-rule="evenodd" clip-rule="evenodd" d="M15.1301 31.6502C15.1301 31.5502 15.0601 31.2202 14.9801 31.2202C14.9101 31.2602 14.8801 31.6702 15.0701 31.9202C15.2301 31.8802 15.5601 31.4502 15.5301 31.3902C15.4301 31.3202 15.2301 31.5402 15.1301 31.6602V31.6502Z" fill="#E0852A"/>
<path fill-rule="evenodd" clip-rule="evenodd" d="M15.1099 31.23C15.1099 31.59 15.1899 31.59 15.3199 31.32C15.3899 31.23 15.3899 30.79 15.3399 30.79C15.2599 30.77 15.1099 31.08 15.1099 31.22V31.23Z" fill="#E0852A"/>
<path fill-rule="evenodd" clip-rule="evenodd" d="M14.9999 27.47H14.7299V27.7H14.4899V27.92H13.4599L13.2899 28.15L13.3899 28.27H13.7999L13.8999 28.15H13.4599L13.5599 28.04H14.1399L13.8999 28.38H13.2899L13.1199 28.27L12.9499 28.38H12.3699L12.1199 28.04H12.7099L12.7799 28.15H12.3699L12.4499 28.27H12.8699L12.9499 28.15L12.7799 27.92H11.8499V27.7H11.5999V27.47H11.3599V26.43H11.5999V26.2H11.8499V25.98H12.7799L12.9499 25.75L12.8699 25.63H12.4499L12.3699 25.75H12.7799L12.7099 25.86H12.1199L12.3699 25.52H12.9499L13.1199 25.63L13.2899 25.52H13.8999L14.1399 25.86H13.5599L13.4599 25.75H13.8999L13.7999 25.63H13.3899L13.2899 25.75L13.4599 25.98H14.4899V26.2H14.7299V26.43H14.9999V27.47Z" fill="#C03F2A"/>
<path fill-rule="evenodd" clip-rule="evenodd" d="M11.4297 26.56V27.36H11.6797V27.59H11.9497V27.81H12.7797L13.1197 28.15L13.4597 27.81H14.3897V27.59H14.6597V27.36H14.8997V26.54H14.6597V26.32L14.3897 26.34V26.09H13.4597L13.1197 25.75L12.7797 26.09H11.9497V26.34H11.6797V26.56H11.4297Z" fill="#307359"/>
<path d="M11.4899 27.3599H11.3799V26.5699H11.4899V27.3599ZM11.4299 27.4199H11.3799V27.3599H11.4299V27.4199ZM11.4299 27.3099H11.6799V27.4199H11.4299V27.3099ZM11.6799 27.3099H11.7399V27.3599H11.6799V27.3099ZM11.7399 27.5999H11.6199V27.3699H11.7399V27.5999ZM11.6799 27.6499H11.6199V27.5999H11.6799V27.6499ZM11.6799 27.5399H11.9499V27.6499H11.6799V27.5399ZM11.9499 27.5399H12.0099V27.5999H11.9499V27.5399ZM12.0099 27.8299H11.8899V27.5999H12.0099V27.8299ZM11.9499 27.8799H11.8899V27.8299H11.9499V27.8799ZM11.9499 27.7699H12.7799V27.8799H11.9499V27.7699ZM12.7799 27.7699H12.8399L12.7799 27.8299V27.7699ZM12.8399 27.7699L13.1599 28.1099L13.0799 28.1999L12.7399 27.8599L12.8399 27.7699ZM13.1599 28.1999L13.1199 28.2399L13.0799 28.1999L13.1199 28.1599L13.1599 28.1999ZM13.0799 28.1099L13.4199 27.7699L13.4999 27.8599L13.1599 28.1999L13.0799 28.1099ZM13.4199 27.7699H13.4599V27.8299L13.4199 27.7699ZM13.4599 27.7699H14.3899V27.8799H13.4599V27.7699ZM14.4499 27.8799H14.3899V27.8299H14.4499V27.8799ZM14.3299 27.5999H14.4499V27.8299H14.3299V27.5999ZM14.3299 27.5399H14.3799V27.5999H14.3299V27.5399ZM14.3799 27.5399H14.6499V27.6499H14.3799V27.5399ZM14.6999 27.6499H14.6499V27.5999H14.6999V27.6499ZM14.5899 27.3599H14.6999V27.5899H14.5899V27.3599ZM14.5899 27.3099H14.6499V27.3599H14.5899V27.3099ZM14.6499 27.3099H14.8999V27.4199H14.6499V27.3099ZM14.9499 27.4199H14.8999V27.3599H14.9499V27.4199ZM14.8399 26.5499H14.9499V27.3599H14.8399V26.5499ZM14.8999 26.4899H14.9499V26.5499H14.8999V26.4899ZM14.8999 26.5999H14.6499V26.4899H14.8999V26.5999ZM14.6499 26.5999H14.5899V26.5499H14.6499V26.5999ZM14.5899 26.3199H14.6999V26.5499H14.5899V26.3199ZM14.6499 26.2599H14.6999V26.3199H14.6499V26.2599ZM14.6499 26.3799L14.3799 26.3999V26.2899L14.6499 26.2699V26.3899V26.3799ZM14.3799 26.3999H14.3299V26.3499H14.3799V26.3999ZM14.3299 26.0999H14.4499V26.3499H14.3299V26.0999ZM14.3799 26.0499H14.4399V26.1099H14.3799V26.0499ZM14.3799 26.1699H13.4499V26.0499H14.3799V26.1699ZM13.4499 26.1699H13.4099L13.4499 26.1099V26.1699ZM13.4099 26.1699L13.0699 25.8299L13.1499 25.7399L13.4899 26.0799L13.4099 26.1799V26.1699ZM13.0699 25.7299L13.1099 25.6899L13.1499 25.7299L13.1099 25.7699L13.0699 25.7299ZM13.1499 25.8199L12.8299 26.1599L12.7299 26.0599L13.0699 25.7199L13.1499 25.8099V25.8199ZM12.8299 26.1599H12.7699V26.0999L12.8299 26.1599ZM12.7699 26.1599H11.9399V26.0399H12.7699V26.1599ZM11.8799 26.0399H11.9399V26.0999H11.8799V26.0399ZM11.9999 26.3399H11.8799V26.0899H11.9999V26.3399ZM11.9999 26.3899H11.9399V26.3399H11.9999V26.3899ZM11.9399 26.3899H11.6699V26.2799H11.9399V26.3899ZM11.6199 26.2799H11.6799V26.3299H11.6199V26.2799ZM11.7399 26.5599H11.6199V26.3299H11.7399V26.5599ZM11.7399 26.6199H11.6799V26.5599H11.7399V26.6199ZM11.6799 26.6199H11.4299V26.5099H11.6799V26.6199ZM11.3799 26.5099H11.4299V26.5599H11.3799V26.5099Z" fill="#E0852A"/>
<path fill-rule="evenodd" clip-rule="evenodd" d="M12.6301 26.2002L12.1201 26.7702V26.2002H12.6301Z" fill="#C03F2A"/>
<path fill-rule="evenodd" clip-rule="evenodd" d="M13.6299 26.2002L14.1399 26.7702V26.2002H13.6299Z" fill="#C03F2A"/>
<path fill-rule="evenodd" clip-rule="evenodd" d="M12.6301 27.7004L12.1201 27.1304V27.7004H12.6301Z" fill="#C03F2A"/>
<path fill-rule="evenodd" clip-rule="evenodd" d="M13.6299 27.7004L14.1399 27.1304V27.7004H13.6299Z" fill="#C03F2A"/>
<path fill-rule="evenodd" clip-rule="evenodd" d="M13.7999 26.54L13.6299 26.77H13.9699L13.7999 26.54Z" fill="#C03F2A"/>
<path fill-rule="evenodd" clip-rule="evenodd" d="M12.45 26.54L12.29 26.77H12.63L12.45 26.54Z" fill="#C03F2A"/>
<path fill-rule="evenodd" clip-rule="evenodd" d="M12.45 27.3604L12.29 27.1304H12.63L12.45 27.3604Z" fill="#C03F2A"/>
<path fill-rule="evenodd" clip-rule="evenodd" d="M13.7999 27.3604L13.6299 27.1304H13.9699L13.7999 27.3604Z" fill="#C03F2A"/>
<path fill-rule="evenodd" clip-rule="evenodd" d="M13.1197 27.9202L12.9497 27.7002H13.2897L13.1197 27.9202Z" fill="#E0852A"/>
<path fill-rule="evenodd" clip-rule="evenodd" d="M13.1197 26.77L12.9497 26.54H13.2897L13.1197 26.77Z" fill="#E0852A"/>
<path fill-rule="evenodd" clip-rule="evenodd" d="M13.1197 25.98L12.9497 26.2H13.2897L13.1197 25.98Z" fill="#E0852A"/>
<path fill-rule="evenodd" clip-rule="evenodd" d="M13.1197 27.1304L12.9497 27.3604H13.2897L13.1197 27.1304Z" fill="#E0852A"/>
<path d="M13.9699 26.77H13.6299V26.89H13.9699V26.77Z" fill="#E0852A"/>
<path d="M12.5401 26.8901H12.3701V27.0201H12.5401V26.8901Z" fill="#CF3B1D"/>
<path d="M13.8897 26.8901H13.7197V27.0201H13.8897V26.8901Z" fill="#CF3B1D"/>
<path d="M13.2897 26.2002H12.9497V26.3102H13.2897V26.2002Z" fill="#AD3B2B"/>
<path d="M13.2897 26.4302H12.9497V26.5402H13.2897V26.4302Z" fill="#AD3B2B"/>
<path d="M13.3901 26.3203H12.8701V26.4403H13.3901V26.3203Z" fill="#AD3B2B"/>
<path d="M13.2897 27.3604H12.9497V27.4804H13.2897V27.3604Z" fill="#AD3B2B"/>
<path d="M13.2897 27.5903H12.9497V27.7003H13.2897V27.5903Z" fill="#AD3B2B"/>
<path d="M13.3901 27.4702H12.8701V27.5802H13.3901V27.4702Z" fill="#AD3B2B"/>
<path d="M13.9699 27.02H13.6299V27.14H13.9699V27.02Z" fill="#E0852A"/>
<path d="M12.63 26.77H12.29V26.89H12.63V26.77Z" fill="#E0852A"/>
<path d="M12.63 27.02H12.29V27.14H12.63V27.02Z" fill="#E0852A"/>
<path d="M12.3599 26.8901H12.1899V27.0201H12.3599V26.8901Z" fill="#E0852A"/>
<path d="M12.6998 26.8901H12.5298V27.0201H12.6998V26.8901Z" fill="#E0852A"/>
<path d="M13.7301 26.8901H13.5601V27.0201H13.7301V26.8901Z" fill="#E0852A"/>
<path d="M14.0499 26.8901H13.8999V27.0201H14.0499V26.8901Z" fill="#E0852A"/>
<path fill-rule="evenodd" clip-rule="evenodd" d="M12.9301 27.5302C12.9301 27.5302 12.9301 27.5502 12.9101 27.5502L12.8901 27.5302L12.9101 27.4902C12.9301 27.4902 12.9301 27.5102 12.9301 27.5302Z" fill="white"/>
<path fill-rule="evenodd" clip-rule="evenodd" d="M13.1601 27.5302C13.1601 27.5302 13.1401 27.5502 13.1201 27.5502L13.1001 27.5302L13.1201 27.4902C13.1401 27.4902 13.1601 27.5102 13.1601 27.5302Z" fill="white"/>
<path fill-rule="evenodd" clip-rule="evenodd" d="M13.3701 27.5102L13.3501 27.5502C13.3301 27.5502 13.3101 27.5302 13.3101 27.5102C13.3101 27.5102 13.3301 27.4902 13.3501 27.4902L13.3701 27.5102Z" fill="white"/>
<path fill-rule="evenodd" clip-rule="evenodd" d="M13.0297 27.4101L13.0097 27.4301L12.9897 27.4101C12.9897 27.3901 12.9897 27.3701 13.0097 27.3701C13.0097 27.3701 13.0297 27.3901 13.0297 27.4101Z" fill="white"/>
<path fill-rule="evenodd" clip-rule="evenodd" d="M13.27 27.3901C13.27 27.3901 13.27 27.4301 13.25 27.4301C13.23 27.4301 13.23 27.4101 13.23 27.3901C13.23 27.3901 13.23 27.3701 13.25 27.3701C13.27 27.3701 13.27 27.3901 13.27 27.3901Z" fill="white"/>
<path fill-rule="evenodd" clip-rule="evenodd" d="M13.0297 27.6201L13.0097 27.6601C12.9897 27.6601 12.9897 27.6401 12.9897 27.6201C12.9897 27.6201 12.9897 27.6001 13.0097 27.6001L13.0297 27.6201Z" fill="white"/>
<path fill-rule="evenodd" clip-rule="evenodd" d="M13.27 27.6401C13.27 27.6401 13.27 27.6601 13.25 27.6601C13.23 27.6601 13.23 27.6601 13.23 27.6401C13.23 27.6201 13.23 27.6001 13.25 27.6001C13.27 27.6001 13.27 27.6201 13.27 27.6401Z" fill="white"/>
<path fill-rule="evenodd" clip-rule="evenodd" d="M13.6098 26.9404L13.5898 26.9804C13.5698 26.9804 13.5698 26.9604 13.5698 26.9404C13.5698 26.9204 13.5698 26.9204 13.5898 26.9204C13.5898 26.9204 13.6098 26.9204 13.6098 26.9404Z" fill="white"/>
<path fill-rule="evenodd" clip-rule="evenodd" d="M13.8198 26.9404C13.8198 26.9404 13.8198 26.9804 13.7998 26.9804C13.7798 26.9804 13.7798 26.9604 13.7798 26.9404C13.7798 26.9204 13.7798 26.9204 13.7998 26.9204C13.7998 26.9204 13.8065 26.9271 13.8198 26.9404Z" fill="white"/>
<path fill-rule="evenodd" clip-rule="evenodd" d="M14.0297 26.9404C14.0297 26.9404 14.0297 26.9804 14.0097 26.9804C13.9897 26.9804 13.9897 26.9604 13.9897 26.9404C13.9897 26.9204 13.9897 26.9204 14.0097 26.9204C14.0297 26.9204 14.0297 26.9204 14.0297 26.9404Z" fill="white"/>
<path fill-rule="evenodd" clip-rule="evenodd" d="M13.6899 26.8301C13.6899 26.8301 13.6899 26.8701 13.6699 26.8701C13.6699 26.8701 13.6499 26.8501 13.6499 26.8301C13.6499 26.8101 13.6699 26.8101 13.6699 26.8101C13.6699 26.8101 13.6766 26.8167 13.6899 26.8301Z" fill="white"/>
<path fill-rule="evenodd" clip-rule="evenodd" d="M13.9501 26.8301L13.9301 26.8701C13.9101 26.8701 13.8901 26.8501 13.8901 26.8301C13.8901 26.8101 13.9101 26.8101 13.9301 26.8101C13.9301 26.8101 13.9501 26.8101 13.9501 26.8301Z" fill="white"/>
<path fill-rule="evenodd" clip-rule="evenodd" d="M13.6899 27.0503C13.6899 27.0503 13.6899 27.0903 13.6699 27.0903C13.6699 27.0903 13.6499 27.0703 13.6499 27.0503C13.6499 27.0303 13.6699 27.0303 13.6699 27.0303C13.6699 27.0303 13.6766 27.0369 13.6899 27.0503Z" fill="white"/>
<path fill-rule="evenodd" clip-rule="evenodd" d="M13.9501 27.0503L13.9301 27.0903C13.9101 27.0903 13.8901 27.0703 13.8901 27.0503C13.8901 27.0503 13.9101 27.0303 13.9301 27.0303L13.9501 27.0503Z" fill="white"/>
<path fill-rule="evenodd" clip-rule="evenodd" d="M12.9301 26.3804C12.9301 26.3804 12.9301 26.4204 12.9101 26.4204C12.9101 26.4204 12.8901 26.4004 12.8901 26.3804L12.9101 26.3604L12.9301 26.3804Z" fill="white"/>
<path fill-rule="evenodd" clip-rule="evenodd" d="M13.1401 26.3804C13.1401 26.3804 13.1401 26.4204 13.1201 26.4204C13.1201 26.4204 13.1001 26.4004 13.1001 26.3804L13.1201 26.3604L13.1401 26.3804Z" fill="white"/>
<path fill-rule="evenodd" clip-rule="evenodd" d="M13.3701 26.3804C13.3701 26.3804 13.3501 26.4204 13.3301 26.4204C13.3301 26.4204 13.3101 26.4004 13.3101 26.3804C13.3101 26.3604 13.3301 26.3604 13.3301 26.3604C13.3501 26.3604 13.3701 26.3604 13.3701 26.3804Z" fill="white"/>
<path fill-rule="evenodd" clip-rule="evenodd" d="M13.0297 26.2602L13.0097 26.3002C12.9897 26.3002 12.9897 26.2802 12.9897 26.2602C12.9897 26.2602 12.9897 26.2402 13.0097 26.2402L13.0297 26.2602Z" fill="white"/>
<path fill-rule="evenodd" clip-rule="evenodd" d="M13.27 26.2602C13.27 26.2602 13.27 26.3002 13.25 26.3002C13.23 26.3002 13.23 26.2802 13.23 26.2602C13.23 26.2602 13.2366 26.2536 13.25 26.2402C13.25 26.2402 13.27 26.2402 13.27 26.2602Z" fill="white"/>
<path fill-rule="evenodd" clip-rule="evenodd" d="M13.0297 26.48L13.0097 26.52C12.9897 26.52 12.9697 26.5 12.9697 26.48C12.9697 26.46 12.9897 26.46 13.0097 26.46C13.0097 26.46 13.0297 26.46 13.0297 26.48Z" fill="white"/>
<path fill-rule="evenodd" clip-rule="evenodd" d="M13.27 26.5102C13.27 26.5102 13.27 26.5302 13.25 26.5302C13.23 26.5302 13.23 26.5102 13.23 26.5102C13.23 26.4902 13.23 26.4702 13.25 26.4702C13.27 26.4702 13.27 26.4902 13.27 26.5102Z" fill="white"/>
<path fill-rule="evenodd" clip-rule="evenodd" d="M12.27 26.9604L12.25 26.9804C12.23 26.9804 12.21 26.9804 12.21 26.9604C12.21 26.9404 12.23 26.9204 12.25 26.9204C12.25 26.9204 12.27 26.9404 12.27 26.9604Z" fill="white"/>
<path fill-rule="evenodd" clip-rule="evenodd" d="M12.4799 26.9604L12.4599 26.9804C12.4599 26.9804 12.4533 26.9737 12.4399 26.9604C12.4399 26.9604 12.4399 26.9204 12.4599 26.9204C12.4599 26.9204 12.4799 26.9404 12.4799 26.9604Z" fill="white"/>
<path fill-rule="evenodd" clip-rule="evenodd" d="M12.6899 26.9604L12.6699 26.9804L12.6499 26.9604C12.6499 26.9404 12.6499 26.9204 12.6699 26.9204C12.6699 26.9204 12.6899 26.9404 12.6899 26.9604Z" fill="white"/>
<path fill-rule="evenodd" clip-rule="evenodd" d="M12.3398 26.8403C12.3398 26.8403 12.3398 26.8603 12.3198 26.8603C12.3198 26.8603 12.3131 26.8536 12.2998 26.8403C12.2998 26.8403 12.2998 26.8003 12.3198 26.8003C12.3398 26.8003 12.3398 26.8203 12.3398 26.8403Z" fill="white"/>
<path fill-rule="evenodd" clip-rule="evenodd" d="M12.5898 26.8403C12.5898 26.8403 12.5898 26.8603 12.5698 26.8603L12.5498 26.8403L12.5698 26.8003C12.5898 26.8003 12.5898 26.8203 12.5898 26.8403Z" fill="white"/>
<path fill-rule="evenodd" clip-rule="evenodd" d="M12.3398 27.0703C12.3398 27.0703 12.3398 27.0903 12.3198 27.0903C12.2998 27.0903 12.2998 27.0703 12.2998 27.0703C12.2998 27.0503 12.2998 27.0303 12.3198 27.0303C12.3398 27.0303 12.3398 27.0503 12.3398 27.0703Z" fill="white"/>
<path fill-rule="evenodd" clip-rule="evenodd" d="M12.5898 27.0703C12.5898 27.0703 12.5898 27.0903 12.5698 27.0903C12.5698 27.0903 12.5498 27.0903 12.5498 27.0703C12.5498 27.0503 12.5698 27.0303 12.5698 27.0303C12.5898 27.0303 12.5898 27.0503 12.5898 27.0703Z" fill="white"/>
<path fill-rule="evenodd" clip-rule="evenodd" d="M13.46 24.4601L13.61 24.3901L13.74 24.4601H13.46Z" fill="white"/>
<path fill-rule="evenodd" clip-rule="evenodd" d="M13.0298 24.4601L13.1798 24.3901L13.3098 24.4601H13.0298Z" fill="white"/>
<path fill-rule="evenodd" clip-rule="evenodd" d="M12.5898 24.4601L12.7398 24.3901L12.8698 24.4601H12.5898Z" fill="white"/>
<path fill-rule="evenodd" clip-rule="evenodd" d="M13.46 22.48L13.61 22.55L13.74 22.48H13.46Z" fill="white"/>
<path fill-rule="evenodd" clip-rule="evenodd" d="M13.0298 22.48L13.1798 22.55L13.3098 22.48H13.0298Z" fill="white"/>
<path fill-rule="evenodd" clip-rule="evenodd" d="M12.5898 22.48L12.7398 22.55L12.8698 22.48H12.5898Z" fill="white"/>
<path fill-rule="evenodd" clip-rule="evenodd" d="M13.3499 24.4204L13.1799 24.5704L13.0099 24.4204L12.8399 24.5704L12.6699 24.4204V24.5004L12.7799 24.5704L12.7199 24.6304V24.7104H12.7799L12.8399 24.6304L12.8899 24.7104H12.9499V24.6304L12.8899 24.5704L13.0099 24.5004L13.1199 24.5704L13.0599 24.6304V24.7104H13.1199L13.1799 24.6304L13.2399 24.7104H13.2899V24.6304L13.2399 24.5704L13.3499 24.5004L13.4599 24.5704L13.4099 24.6304V24.7104H13.4599L13.4999 24.6304L13.5599 24.7104H13.6099V24.6304L13.5599 24.5704L13.6699 24.5004V24.4204L13.4999 24.5704L13.3499 24.4204Z" fill="#307359"/>
<path fill-rule="evenodd" clip-rule="evenodd" d="M13.3499 22.4602L13.1799 22.3202L13.0099 22.4602L12.8399 22.3202L12.6699 22.4602V22.4002L12.7799 22.3202L12.7199 22.2702V22.2002H12.7799L12.8399 22.2702L12.8899 22.2002H12.9499V22.2702L12.8899 22.3202L13.0099 22.4002L13.1199 22.3202L13.0599 22.2702V22.2002H13.1199L13.1799 22.2702L13.2399 22.2002H13.2899V22.2702L13.2399 22.3202L13.3499 22.4002L13.4599 22.3202L13.4099 22.2702V22.2002H13.4599L13.4999 22.2702L13.5599 22.2002H13.6099V22.2702L13.5599 22.3202L13.6699 22.4002V22.4602L13.4999 22.3202L13.3499 22.4602Z" fill="#307359"/>
<path fill-rule="evenodd" clip-rule="evenodd" d="M14.6201 23.5903L14.8001 23.4403L14.6201 23.3103L14.8001 23.1603L14.6201 23.0103H14.7101L14.8001 23.1003L14.9001 23.0603H15.0001V23.1003L14.9001 23.1603L15.0001 23.2003V23.2503H14.9001L14.8001 23.2003L14.7101 23.3103L14.8001 23.4003L14.9001 23.3503H15.0001V23.4003L14.9001 23.4403L15.0001 23.5003V23.5503H14.9001L14.8001 23.5003L14.7101 23.5903L14.8001 23.6903L14.9001 23.6503H15.0001V23.6903L14.9001 23.7503L15.0001 23.8003V23.8403H14.9001L14.8001 23.8003L14.7101 23.8903H14.6201L14.8001 23.7503L14.6201 23.5903Z" fill="#307359"/>
<path fill-rule="evenodd" clip-rule="evenodd" d="M11.7199 23.5903L11.5299 23.4403L11.7199 23.3103L11.5299 23.1603L11.7199 23.0103H11.6199L11.5299 23.1003L11.4299 23.0603H11.3599V23.1003L11.4299 23.1603L11.3599 23.2003V23.2503H11.4299L11.5299 23.2003L11.6199 23.3103L11.5299 23.4003L11.4299 23.3503H11.3599V23.4003L11.4299 23.4403L11.3599 23.5003V23.5503H11.4299L11.5299 23.5003L11.6199 23.5903L11.5299 23.6903L11.4299 23.6503H11.3599V23.6903L11.4299 23.7503L11.3599 23.8003V23.8403H11.4299L11.5299 23.8003L11.6199 23.8903H11.7199L11.5299 23.7503L11.7199 23.5903Z" fill="#307359"/>
<path d="M14.7699 24.0903H14.6899V24.1603H14.7699V24.0903Z" fill="#307359"/>
<path d="M14.7001 24.1602H14.6201V24.2302H14.7001V24.1602Z" fill="#307359"/>
<path d="M14.3398 24.5H14.2598V24.57H14.3398V24.5Z" fill="#307359"/>
<path d="M14.4001 24.4204H14.3301V24.5004H14.4001V24.4204Z" fill="#307359"/>
<path d="M11.9997 24.4204H11.9297V24.5004H11.9997V24.4204Z" fill="#307359"/>
<path d="M11.6498 24.0903H11.5698V24.1603H11.6498V24.0903Z" fill="#307359"/>
<path d="M11.7201 24.1602H11.6401V24.2302H11.7201V24.1602Z" fill="#307359"/>
<path d="M11.7201 22.6602H11.6401V22.7402H11.7201V22.6602Z" fill="#307359"/>
<path d="M11.6498 22.7402H11.5698V22.8002H11.6498V22.7402Z" fill="#307359"/>
<path d="M12.08 22.3203H12V22.4003H12.08V22.3203Z" fill="#307359"/>
<path d="M11.9997 22.4004H11.9297V22.4504H11.9997V22.4004Z" fill="#307359"/>
<path d="M14.3398 22.3203H14.2598V22.4003H14.3398V22.3203Z" fill="#307359"/>
<path d="M14.4001 22.4004H14.3301V22.4504H14.4001V22.4004Z" fill="#307359"/>
<path d="M14.7001 22.6602H14.6201V22.7402H14.7001V22.6602Z" fill="#307359"/>
<path d="M14.7699 22.7402H14.6899V22.8002H14.7699V22.7402Z" fill="#307359"/>
<path d="M12.08 24.5H12V24.57H12.08V24.5Z" fill="#307359"/>
<path fill-rule="evenodd" clip-rule="evenodd" d="M12.9497 23.4403H12.7397V23.3103H12.8697V23.2003H13.0197V23.0903H13.1497V23.2203C13.0297 23.2203 12.9397 23.3203 12.9397 23.4503L12.9497 23.4403Z" fill="white"/>
<path fill-rule="evenodd" clip-rule="evenodd" d="M13.3699 23.4403H13.5999V23.3103H13.4499V23.2003H13.3199V23.0903H13.1699V23.2203C13.2799 23.2203 13.3799 23.3203 13.3799 23.4503L13.3699 23.4403Z" fill="#E0852A"/>
<path fill-rule="evenodd" clip-rule="evenodd" d="M13.3699 23.4402H13.5999V23.5702H13.4499V23.7002H13.3199V23.8102H13.1699V23.6802C13.2799 23.6802 13.3799 23.5702 13.3799 23.4302L13.3699 23.4402Z" fill="white"/>
<path fill-rule="evenodd" clip-rule="evenodd" d="M12.9497 23.4402H12.7397V23.5702H12.8697V23.7002H13.0197V23.8102H13.1497V23.6802C13.0297 23.6802 12.9397 23.5702 12.9397 23.4302L12.9497 23.4402Z" fill="#E0852A"/>
<path fill-rule="evenodd" clip-rule="evenodd" d="M13.3697 23.44H13.1597V23.21C13.2697 23.21 13.3697 23.33 13.3697 23.44Z" fill="#307359"/>
<path fill-rule="evenodd" clip-rule="evenodd" d="M13.3697 23.4399H13.1597V23.6899C13.2697 23.6899 13.3697 23.5799 13.3697 23.4399Z" fill="#C03F2A"/>
<path fill-rule="evenodd" clip-rule="evenodd" d="M12.9497 23.4399H13.1597V23.6899C13.0397 23.6899 12.9497 23.5799 12.9497 23.4399Z" fill="#307359"/>
<path fill-rule="evenodd" clip-rule="evenodd" d="M12.9497 23.44H13.1597V23.21C13.0397 23.21 12.9497 23.33 12.9497 23.44Z" fill="#C03F2A"/>
<path fill-rule="evenodd" clip-rule="evenodd" d="M13.3898 24.2903L13.1798 24.1603L12.9498 24.2903L12.7398 24.1603L12.5098 24.2903V24.2303L12.6698 24.1603L12.5898 24.0903V24.0303H12.6698L12.7398 24.0903L12.7998 24.0303H12.8698V24.0903L12.7998 24.1603L12.9498 24.2303L13.0998 24.1603L13.0298 24.0903V24.0303H13.0998L13.1798 24.0903L13.2398 24.0303H13.3098V24.0903L13.2398 24.1603L13.3898 24.2303L13.5398 24.1603L13.4598 24.0903V24.0303H13.5398L13.6098 24.0903L13.6698 24.0303H13.7398V24.0903L13.6698 24.1603L13.8198 24.2303V24.2903L13.6098 24.1603L13.3898 24.2903Z" fill="#307359"/>
<path fill-rule="evenodd" clip-rule="evenodd" d="M13.3898 22.6104L13.1798 22.7404L12.9498 22.6104L12.7398 22.7404L12.5098 22.6104V22.6604L12.6698 22.7404L12.5898 22.8004V22.8704H12.6698L12.7398 22.8004L12.7998 22.8704H12.8698V22.8004L12.7998 22.7404L12.9498 22.6604L13.0998 22.7404L13.0298 22.8004V22.8704H13.0998L13.1798 22.8004L13.2398 22.8704H13.3098V22.8004L13.2398 22.7404L13.3898 22.6604L13.5398 22.7404L13.4598 22.8004V22.8704H13.5398L13.6098 22.8004L13.6698 22.8704H13.7398V22.8004L13.6698 22.7404L13.8198 22.6604V22.6104L13.6098 22.7404L13.3898 22.6104Z" fill="#307359"/>
<path fill-rule="evenodd" clip-rule="evenodd" d="M14.1797 23.6102L14.0897 23.4402L14.1797 23.2702L14.0897 23.1002L14.1797 22.9502H14.1297L14.0897 23.0602L14.0297 23.0102H13.9697V23.0602L14.0297 23.1002L13.9697 23.1602V23.2102H14.0297L14.0897 23.1602L14.1297 23.2702L14.0897 23.3802L14.0297 23.3302H13.9697V23.3802L14.0297 23.4402L13.9697 23.5002V23.5502H14.0297L14.0897 23.5002L14.1297 23.6102L14.0897 23.7202L14.0297 23.6702H13.9697V23.7202L14.0297 23.7802L13.9697 23.8402V23.8902H14.0297L14.0897 23.8402L14.1297 23.9502H14.1797L14.0897 23.7802L14.1797 23.6102Z" fill="#307359"/>
<path fill-rule="evenodd" clip-rule="evenodd" d="M12.51 22.6602L12.23 22.9502V23.9502L12.51 24.2302H13.82L14.1 23.9502V22.9502L13.82 22.6602H12.51ZM12.43 22.4502L11.71 23.1302V23.7502L12.43 24.4102H13.89L14.61 23.7502V23.1302L13.89 22.4502H12.43Z" fill="#307359"/>
<path fill-rule="evenodd" clip-rule="evenodd" d="M12.8198 24.29L12.9298 24.42L13.0398 24.29H12.8198Z" fill="#E0852A"/>
<path fill-rule="evenodd" clip-rule="evenodd" d="M12.8198 22.61L12.9298 22.46L13.0398 22.61H12.8198Z" fill="#E0852A"/>
<path fill-rule="evenodd" clip-rule="evenodd" d="M13.29 22.61L13.41 22.46L13.52 22.61H13.29Z" fill="#E0852A"/>
<path fill-rule="evenodd" clip-rule="evenodd" d="M13.29 24.29L13.41 24.42L13.52 24.29H13.29Z" fill="#E0852A"/>
<path fill-rule="evenodd" clip-rule="evenodd" d="M12.5898 22.61L12.7098 22.46L12.8198 22.61H12.5898Z" fill="#C03F2A"/>
<path fill-rule="evenodd" clip-rule="evenodd" d="M13.04 22.61L13.18 22.46L13.29 22.61H13.04Z" fill="#C03F2A"/>
<path fill-rule="evenodd" clip-rule="evenodd" d="M13.52 22.61L13.63 22.46L13.74 22.61H13.52Z" fill="#C03F2A"/>
<path fill-rule="evenodd" clip-rule="evenodd" d="M12.3101 24.0903L12.5101 24.2903H12.3101V24.0903Z" fill="#C03F2A"/>
<path fill-rule="evenodd" clip-rule="evenodd" d="M12.1499 23.6102L12.2699 23.4402L12.1499 23.2702L12.2699 23.1002L12.1499 22.9502H12.2099L12.2699 23.0602L12.3099 23.0102H12.3699V23.0602L12.3099 23.1002L12.3699 23.1602V23.2102H12.3099L12.2699 23.1602L12.2099 23.2702L12.2699 23.3802L12.3099 23.3302H12.3699V23.3802L12.3099 23.4402L12.3699 23.5002V23.5502H12.3099L12.2699 23.5002L12.2099 23.6102L12.2699 23.7202L12.3099 23.6702H12.3699V23.7202L12.3099 23.7802L12.3699 23.8402V23.8902H12.3099L12.2699 23.8402L12.2099 23.9502H12.1499L12.2699 23.7802L12.1499 23.6102Z" fill="#307359"/>
<path fill-rule="evenodd" clip-rule="evenodd" d="M14.2598 23.27H14.5598L14.6198 23.33L14.5598 23.38H14.2598V23.27Z" fill="#C03F2A"/>
<path fill-rule="evenodd" clip-rule="evenodd" d="M12.3101 22.8003L12.1501 22.9503V23.9503L12.3101 24.0903H12.0801V22.8003H12.3101Z" fill="#C03F2A"/>
<path fill-rule="evenodd" clip-rule="evenodd" d="M12.5898 24.29L12.7098 24.42L12.8198 24.29H12.5898Z" fill="#C03F2A"/>
<path fill-rule="evenodd" clip-rule="evenodd" d="M13.04 24.29L13.18 24.42L13.29 24.29H13.04Z" fill="#C03F2A"/>
<path fill-rule="evenodd" clip-rule="evenodd" d="M13.52 24.29L13.63 24.42L13.74 24.29H13.52Z" fill="#C03F2A"/>
<path fill-rule="evenodd" clip-rule="evenodd" d="M14.0498 22.8003L14.1798 22.9503V23.9503L14.0498 24.0903H14.2598V22.8003H14.0498Z" fill="#C03F2A"/>
<path fill-rule="evenodd" clip-rule="evenodd" d="M14.0498 24.0903L13.8198 24.2903H14.0498V24.0903Z" fill="#C03F2A"/>
<path fill-rule="evenodd" clip-rule="evenodd" d="M14.0498 22.8004L13.8198 22.6104H14.0498V22.8004Z" fill="#C03F2A"/>
<path fill-rule="evenodd" clip-rule="evenodd" d="M12.3101 22.8004L12.5101 22.6104H12.3101V22.8004Z" fill="#C03F2A"/>
<path fill-rule="evenodd" clip-rule="evenodd" d="M12.5099 22.6601L12.2299 22.9501V23.9501L12.5099 24.2301H13.8199L14.0999 23.9501V22.9501L13.8199 22.6601H12.5099ZM12.5099 22.6001L12.1499 22.9401V23.9401L12.5099 24.2801H13.8199L14.1799 23.9401V22.9401L13.8199 22.6001H12.5099Z" fill="#307359"/>
<path fill-rule="evenodd" clip-rule="evenodd" d="M14.2598 23.3804H14.5598L14.6198 23.4404L14.5598 23.5204H14.2598V23.3804Z" fill="#E0852A"/>
<path fill-rule="evenodd" clip-rule="evenodd" d="M14.2598 23.52H14.5598L14.6198 23.57L14.5598 23.63H14.2598V23.52Z" fill="#C03F2A"/>
<path fill-rule="evenodd" clip-rule="evenodd" d="M14.2598 23.6304H14.5598L14.6198 23.6904L14.5598 23.7604H14.2598V23.6304Z" fill="#E0852A"/>
<path fill-rule="evenodd" clip-rule="evenodd" d="M14.2598 23.1401H14.5598L14.6198 23.2101L14.5598 23.2701H14.2598V23.1401Z" fill="#E0852A"/>
<path fill-rule="evenodd" clip-rule="evenodd" d="M12.0797 23.27H11.7997L11.7197 23.33L11.7997 23.38H12.0797V23.27Z" fill="#C03F2A"/>
<path fill-rule="evenodd" clip-rule="evenodd" d="M12.0797 23.3804H11.7997L11.7197 23.4404L11.7997 23.5204H12.0797V23.3804Z" fill="#E0852A"/>
<path fill-rule="evenodd" clip-rule="evenodd" d="M12.0797 23.52H11.7997L11.7197 23.57L11.7997 23.63H12.0797V23.52Z" fill="#C03F2A"/>
<path fill-rule="evenodd" clip-rule="evenodd" d="M12.0797 23.6304H11.7997L11.7197 23.6904L11.7997 23.7604H12.0797V23.6304Z" fill="#E0852A"/>
<path fill-rule="evenodd" clip-rule="evenodd" d="M12.0797 23.1401H11.7997L11.7197 23.2101L11.7997 23.2701H12.0797V23.1401Z" fill="#E0852A"/>
<path fill-rule="evenodd" clip-rule="evenodd" d="M11.6401 22.7404V24.1604H12.0001V24.5004H14.3301V24.1604H14.6901V22.7404H14.3301V22.4004H12.0001V22.7404H11.6401ZM11.7201 22.8004V24.0904H12.0801V24.4304H14.2601V24.0904H14.6201V22.8004H14.2601V22.4604H12.0801V22.8004H11.7201Z" fill="#AB3B2C"/>
<path fill-rule="evenodd" clip-rule="evenodd" d="M14.9999 15.7802L14.7699 15.4402V15.2002L14.5599 14.9302H14.1099L13.7399 14.6802H12.5899L12.2299 14.9302H11.7999L11.5699 15.2002V15.4402L11.3599 15.7802V16.4502L11.5699 16.7802V17.0302L11.7999 17.2702H12.2299L12.5899 17.5202H13.7399L14.1099 17.2702H14.5599L14.7699 17.0302V16.7802L14.9999 16.4502V15.7802Z" fill="#C03F2A"/>
<path fill-rule="evenodd" clip-rule="evenodd" d="M11.4199 16.1001V16.3501L11.6399 16.6901V16.9301L11.8499 17.2001H12.3099L12.6699 17.4501H13.1799V16.1001H11.4199Z" fill="#E0852A"/>
<path fill-rule="evenodd" clip-rule="evenodd" d="M12.5501 16.6899L12.2901 16.8999H12.1401L12.1901 16.9699L12.0801 17.1199L12.1401 17.1999L12.2901 17.1199L12.3401 17.1999L12.3701 17.0099L12.6701 16.7799L12.5501 16.6899Z" fill="#C03F2A"/>
<path fill-rule="evenodd" clip-rule="evenodd" d="M12.2698 16.52L11.9998 16.75H11.8298L11.8898 16.8L11.7998 16.95L11.8298 17.03L11.9998 16.95L12.0598 17.03L12.0798 16.84L12.3698 16.61L12.2698 16.52Z" fill="#C03F2A"/>
<path fill-rule="evenodd" clip-rule="evenodd" d="M12.1201 16.2002L11.8501 16.4102H11.7001L11.7601 16.4802L11.6401 16.6102L11.7001 16.6902L11.8501 16.6102L11.9101 16.6902L11.9301 16.5002L12.2301 16.2702L12.1201 16.2002Z" fill="#C03F2A"/>
<path fill-rule="evenodd" clip-rule="evenodd" d="M14.9197 16.1003V15.8503L14.6897 15.5203V15.2703L14.4897 15.0203H14.0497L13.6697 14.7603H13.1797V16.1003H14.9197Z" fill="#E0852A"/>
<path fill-rule="evenodd" clip-rule="evenodd" d="M13.18 17.4502H13.03L12.87 17.2702H12.63L12.5 17.2002L12.57 17.1102L12.71 17.2002H12.84L12.97 16.9302L13.18 17.0302V17.2002H12.97L13.18 17.4502Z" fill="#C03F2A"/>
<path fill-rule="evenodd" clip-rule="evenodd" d="M11.4199 16.1003V15.8503L11.6399 15.5203V15.2703L11.8499 15.0203H12.3099L12.6699 14.7603H13.1799V16.1003H11.4199Z" fill="white"/>
<path fill-rule="evenodd" clip-rule="evenodd" d="M13.18 14.7603H13.03L12.87 14.9303H12.63L12.5 15.0203L12.57 15.1003L12.71 15.0203H12.84L12.97 15.2703L13.18 15.2003V15.0203H12.97L13.18 14.7603Z" fill="#C03F2A"/>
<path fill-rule="evenodd" clip-rule="evenodd" d="M13.1797 14.7603H13.3097L13.4597 14.9303H13.7097L13.8397 15.0203L13.7797 15.1003L13.6297 15.0203H13.4997L13.3697 15.2703L13.1797 15.2003V15.0203H13.3697L13.1797 14.7603Z" fill="#C03F2A"/>
<path fill-rule="evenodd" clip-rule="evenodd" d="M14.9197 16.1001V16.3501L14.6897 16.6901V16.9301L14.4897 17.2001H14.0497L13.6697 17.4501H13.1797V16.1001H14.9197Z" fill="white"/>
<path fill-rule="evenodd" clip-rule="evenodd" d="M13.1797 17.4502H13.3097L13.4597 17.2702H13.7097L13.8397 17.2002L13.7797 17.1102L13.6297 17.2002H13.4997L13.3697 16.9302L13.1797 17.0302V17.2002H13.3697L13.1797 17.4502Z" fill="#C03F2A"/>
<path fill-rule="evenodd" clip-rule="evenodd" d="M12.2698 15.6802L11.9998 15.4802H11.8298L11.8898 15.4002L11.7998 15.2502L11.8298 15.2002L11.9998 15.2502L12.0598 15.2002L12.0798 15.3802L12.3698 15.6102L12.2698 15.6802Z" fill="#C03F2A"/>
<path fill-rule="evenodd" clip-rule="evenodd" d="M13.7799 15.52L14.0499 15.3H14.1999L14.1599 15.23L14.2599 15.1L14.1999 15.02L14.0499 15.1L13.9899 15.02L13.9699 15.21L13.6699 15.44L13.7799 15.52Z" fill="#C03F2A"/>
<path fill-rule="evenodd" clip-rule="evenodd" d="M12.5501 15.52L12.2901 15.3H12.1401L12.1901 15.23L12.0801 15.1L12.1401 15.02L12.2901 15.1L12.3401 15.02L12.3701 15.21L12.6701 15.44L12.5501 15.52Z" fill="#C03F2A"/>
<path fill-rule="evenodd" clip-rule="evenodd" d="M12.1201 16.02L11.8501 15.8H11.7001L11.7601 15.74L11.6401 15.59L11.7001 15.52L11.8501 15.59L11.9101 15.52L11.9301 15.7L12.2301 15.93L12.1201 16.02Z" fill="#C03F2A"/>
<path fill-rule="evenodd" clip-rule="evenodd" d="M11.5498 16.1001H11.6198L11.6798 16.2001L11.7598 16.1001H13.1798V17.2701H13.0998L13.1798 17.3501V17.4501L12.9698 17.2001V17.1101H13.0298V17.2001H13.0998V17.1101L12.5498 16.7501H12.0998V16.3901L11.8898 16.2001H11.7598L11.6798 16.2701L11.7598 16.3501H11.6798L11.5498 16.1001Z" fill="white"/>
<path fill-rule="evenodd" clip-rule="evenodd" d="M11.5498 16.1003H11.6198L11.6798 16.0203L11.7598 16.1003H13.1798V14.9303H13.0998L13.1798 14.8503V14.7603L12.9698 15.0203V15.1003H13.0298V15.0203H13.0998V15.1003L12.5498 15.4803H12.0998V15.8403L11.8898 16.0203H11.7598L11.6798 15.9303L11.7598 15.8503H11.6798L11.5498 16.1003Z" fill="#E0852A"/>
<path fill-rule="evenodd" clip-rule="evenodd" d="M11.8501 16.1001H13.1801V17.1101L12.5901 16.6901H12.1501V16.3501L11.8501 16.1001Z" fill="#307359"/>
<path fill-rule="evenodd" clip-rule="evenodd" d="M14.0697 15.6802L14.3297 15.4802H14.4997L14.4497 15.4002L14.5597 15.2502L14.4997 15.2002L14.3297 15.2502L14.2897 15.2002L14.2597 15.3802L13.9697 15.6102L14.0697 15.6802Z" fill="#C03F2A"/>
<path fill-rule="evenodd" clip-rule="evenodd" d="M14.2199 16.02L14.4899 15.8H14.6299L14.5999 15.74L14.6899 15.59L14.6299 15.52L14.4899 15.59L14.4299 15.52L14.4099 15.7L14.1099 15.93L14.2199 16.02Z" fill="#C03F2A"/>
<path fill-rule="evenodd" clip-rule="evenodd" d="M14.7897 16.1003H14.7097L14.6597 16.0203L14.5797 16.1003H13.1797V14.9303H13.2397L13.1797 14.8503V14.7603L13.3697 15.0203V15.1003H13.3097V15.0203H13.2397V15.1003L13.7797 15.4803H14.2397V15.8403L14.4497 16.0203H14.5797L14.6597 15.9303L14.5797 15.8503H14.6597L14.7897 16.1003Z" fill="white"/>
<path fill-rule="evenodd" clip-rule="evenodd" d="M14.4897 16.1001H13.1797V15.1001L13.7397 15.5201H14.1797V15.8501L14.4897 16.1001Z" fill="#307359"/>
<path fill-rule="evenodd" clip-rule="evenodd" d="M13.7799 16.6899L14.0499 16.8999H14.1999L14.1599 16.9699L14.2599 17.1199L14.1999 17.1999L14.0499 17.1199L13.9899 17.1999L13.9699 17.0099L13.6699 16.7799L13.7799 16.6899Z" fill="#C03F2A"/>
<path fill-rule="evenodd" clip-rule="evenodd" d="M14.0697 16.52L14.3297 16.75H14.4997L14.4497 16.8L14.5597 16.95L14.4997 17.03L14.3297 16.95L14.2897 17.03L14.2597 16.84L13.9697 16.61L14.0697 16.52Z" fill="#C03F2A"/>
<path fill-rule="evenodd" clip-rule="evenodd" d="M14.2199 16.2002L14.4899 16.4102H14.6299L14.5999 16.4802L14.6899 16.6102L14.6299 16.6902L14.4899 16.6102L14.4299 16.6902L14.4099 16.5002L14.1099 16.2702L14.2199 16.2002Z" fill="#C03F2A"/>
<path fill-rule="evenodd" clip-rule="evenodd" d="M14.7897 16.1001H14.7097L14.6597 16.2001L14.5797 16.1001H13.1797V17.2701H13.2397L13.1797 17.3501V17.4501L13.3697 17.2001V17.1101H13.3097V17.2001H13.2397V17.1101L13.7797 16.7501H14.2397V16.3901L14.4497 16.2001H14.5797L14.6597 16.2701L14.5797 16.3501H14.6597L14.7897 16.1001Z" fill="#E0852A"/>
<path fill-rule="evenodd" clip-rule="evenodd" d="M14.4897 16.1001H13.1797V17.1101L13.7397 16.6901H14.1797V16.3501L14.4897 16.1001Z" fill="#C03F2A"/>
<path fill-rule="evenodd" clip-rule="evenodd" d="M11.8501 16.1001H13.1801V15.1001L12.5901 15.5201H12.1501V15.8501L11.8501 16.1001Z" fill="#C03F2A"/>
<path fill-rule="evenodd" clip-rule="evenodd" d="M13.3097 16.1L13.6697 15.85H13.8997L13.8197 15.78L13.9697 15.61L13.8997 15.52L13.6697 15.61L13.6097 15.52L13.5797 15.74L13.1797 16L13.3097 16.1Z" fill="#C03F2A"/>
<path fill-rule="evenodd" clip-rule="evenodd" d="M13.0301 16.1001L12.6701 16.3501H12.4401L12.5101 16.4501L12.3701 16.6101L12.4401 16.6901L12.6701 16.6101L12.7401 16.6901L12.7601 16.4601L13.1801 16.2001L13.0301 16.1001Z" fill="#C03F2A"/>
<path fill-rule="evenodd" clip-rule="evenodd" d="M13.0301 16.1L12.6701 15.85H12.4401L12.5101 15.78L12.3701 15.61L12.4401 15.52L12.6701 15.61L12.7401 15.52L12.7601 15.74L13.1801 16L13.0301 16.1Z" fill="#307359"/>
<path fill-rule="evenodd" clip-rule="evenodd" d="M13.3097 16.1001L13.6697 16.3501H13.8997L13.8197 16.4501L13.9697 16.6101L13.8997 16.6901L13.6697 16.6101L13.6097 16.6901L13.5797 16.4601L13.1797 16.2001L13.3097 16.1001Z" fill="#307359"/>
<path fill-rule="evenodd" clip-rule="evenodd" d="M12.7397 16.1002L13.1797 15.6802L13.6097 16.1002L13.1797 16.5202L12.7397 16.1002Z" fill="white"/>
<path fill-rule="evenodd" clip-rule="evenodd" d="M11.7597 16.2701L11.8097 16.3501L11.7597 16.4501H11.6797L11.4897 16.1001H11.5497L11.6797 16.3501H11.7597L11.6797 16.2701L11.7597 16.2001H11.8897V16.2701H11.7597Z" fill="#C03F2A"/>
<path fill-rule="evenodd" clip-rule="evenodd" d="M11.7597 15.9303L11.8097 15.8503L11.7597 15.7803H11.6797L11.4897 16.1003H11.5497L11.6797 15.8503H11.7597L11.6797 15.9303L11.7597 16.0203H11.8897V15.9303H11.7597Z" fill="#C03F2A"/>
<path fill-rule="evenodd" clip-rule="evenodd" d="M14.5797 16.2701L14.5197 16.3501L14.5797 16.4501H14.6597L14.8497 16.1001H14.7897L14.6597 16.3501H14.5797L14.6597 16.2701L14.5797 16.2001H14.4497V16.2701H14.5797Z" fill="#C03F2A"/>
<path fill-rule="evenodd" clip-rule="evenodd" d="M14.5797 15.9303L14.5197 15.8503L14.5797 15.7803H14.6597L14.8497 16.1003H14.7897L14.6597 15.8503H14.5797L14.6597 15.9303L14.5797 16.0203H14.4497V15.9303H14.5797Z" fill="#C03F2A"/>
<path d="M13.2301 15.7803H13.1001V16.4403H13.2301V15.7803Z" fill="#C03F2A"/>
<path d="M13.4401 15.9302H12.8901V16.2702H13.4401V15.9302Z" fill="#C03F2A"/>
<path fill-rule="evenodd" clip-rule="evenodd" d="M12.5699 29.1899L11.3599 29.8899V31.0899L12.5699 31.7899H13.7799L14.9999 31.0899V29.8899L13.7799 29.1899H12.5699Z" fill="#307359"/>
<path fill-rule="evenodd" clip-rule="evenodd" d="M11.7998 30.2103H11.8698V30.0403H12.0198V30.2103H12.0998V29.8203H12.0198V29.9803H11.8698V29.8203H11.7998V30.2103Z" fill="#CF3B1D"/>
<path fill-rule="evenodd" clip-rule="evenodd" d="M13.6499 31.5502H13.7199V31.3902H13.8799V31.5502H13.9499V31.1602H13.8799V31.3302H13.7199V31.1602H13.6499V31.5502Z" fill="#CF3B1D"/>
<path fill-rule="evenodd" clip-rule="evenodd" d="M14.2397 30.2103H14.3197V30.0403H14.4597V30.2103H14.5397V29.8203H14.4597V29.9803H14.3197V29.8203H14.2397V30.2103Z" fill="#CF3B1D"/>
<path fill-rule="evenodd" clip-rule="evenodd" d="M14.2397 30.89H14.3197V30.72H14.4597V30.89H14.5397V30.48H14.4597V30.67H14.3197V30.48H14.2397V30.89Z" fill="#CF3B1D"/>
<path fill-rule="evenodd" clip-rule="evenodd" d="M13.1797 31.73V30.48H14.9197V31.05L13.7697 31.73H13.1797Z" fill="#E0852A"/>
<path fill-rule="evenodd" clip-rule="evenodd" d="M13.1799 29.25V30.48H11.4199V29.93L12.5899 29.25H13.1799Z" fill="#E0852A"/>
<path fill-rule="evenodd" clip-rule="evenodd" d="M13.1797 29.25V30.48H14.9197V29.93L13.7697 29.25H13.1797Z" fill="white"/>
<path fill-rule="evenodd" clip-rule="evenodd" d="M13.1799 31.73V30.48H11.4199V31.05L12.5899 31.73H13.1799Z" fill="white"/>
<path fill-rule="evenodd" clip-rule="evenodd" d="M14.1097 29.98H14.8097L14.1097 29.64V29.98ZM14.9297 29.93V30.48H13.8297V30.05H13.5897L13.2997 29.88V29.49L13.4697 29.32H13.2397V29.89H13.1797V29.27H13.7697L14.9297 29.95V29.93Z" fill="#E0852A"/>
<path fill-rule="evenodd" clip-rule="evenodd" d="M12.5898 30.1001V30.8801H12.7598L13.1798 31.1001L13.5798 30.8801H13.7698V30.1001H13.5798L13.1798 29.8701L12.7598 30.1001H12.5898Z" fill="#C03F2A"/>
<path fill-rule="evenodd" clip-rule="evenodd" d="M12.2297 30.99H11.5297L12.2297 31.33V30.99ZM11.4097 31.05V30.48H12.5297V30.94H12.7597L13.0397 31.11V31.51L12.8697 31.68H13.0997V31.11H13.1797V31.73H12.5897L11.4197 31.05H11.4097Z" fill="#E0852A"/>
<path fill-rule="evenodd" clip-rule="evenodd" d="M12.2297 29.98H11.5297L12.2297 29.64V29.98ZM11.4097 29.93V30.48H12.5297V30.05H12.7597L13.0397 29.88V29.49L12.8697 29.32H13.0997V29.89H13.1797V29.27H12.5897L11.4197 29.95L11.4097 29.93Z" fill="white"/>
<path fill-rule="evenodd" clip-rule="evenodd" d="M14.1097 30.99H14.8097L14.1097 31.33V30.99ZM14.9297 31.05V30.48H13.8297V30.94H13.5897L13.2997 31.11V31.51L13.4697 31.68H13.2397V31.11H13.1797V31.73H13.7697L14.9297 31.05Z" fill="white"/>
<path fill-rule="evenodd" clip-rule="evenodd" d="M11.7598 30.93H11.8298V30.76H11.9798V30.93H12.0598V30.54H11.9798V30.7H11.8298V30.54H11.7598V30.93Z" fill="#C03F2A"/>
<path fill-rule="evenodd" clip-rule="evenodd" d="M12.4497 31.5001H12.5297V31.3301H12.6897V31.5001H12.7597V31.1001H12.6897V31.2701H12.5297V31.1001H12.4497V31.5001Z" fill="#C03F2A"/>
<path fill-rule="evenodd" clip-rule="evenodd" d="M11.7598 30.04H11.8298V30.21H11.9798V30.04H12.0598V30.44H11.9798V30.27H11.8298V30.44H11.7598V30.04Z" fill="#C03F2A"/>
<path fill-rule="evenodd" clip-rule="evenodd" d="M12.4497 29.48H12.5297V29.64H12.6897V29.48H12.7597V29.87H12.6897V29.7H12.5297V29.87H12.4497V29.48Z" fill="#C03F2A"/>
<path fill-rule="evenodd" clip-rule="evenodd" d="M14.2798 30.44H14.3498V30.27H14.4998V30.44H14.5798V30.04H14.4998V30.21H14.3498V30.04H14.2798V30.44Z" fill="#C03F2A"/>
<path fill-rule="evenodd" clip-rule="evenodd" d="M13.5801 31.5001H13.6501V31.3301H13.8001V31.5001H13.8801V31.1001H13.8001V31.2701H13.6501V31.1001H13.5801V31.5001Z" fill="#C03F2A"/>
<path fill-rule="evenodd" clip-rule="evenodd" d="M14.2798 30.93H14.3498V30.76H14.4998V30.93H14.5798V30.54H14.4998V30.7H14.3498V30.54H14.2798V30.93Z" fill="#C03F2A"/>
<path fill-rule="evenodd" clip-rule="evenodd" d="M13.5801 29.87H13.6501V29.7H13.8001V29.87H13.8801V29.48H13.8001V29.64H13.6501V29.48H13.5801V29.87Z" fill="#C03F2A"/>
<path fill-rule="evenodd" clip-rule="evenodd" d="M13.24 30.4801L13.46 30.2901H13.58V30.3801H13.46V30.4401H13.63V30.2301H13.46V30.0801H13.24V30.2301H13.29V30.1201H13.41V30.2301L13.18 30.4401L12.93 30.2301V30.1201H13.04V30.2301H13.1V30.0801H12.87V30.2301H12.71V30.4401H12.87V30.3801H12.76V30.2901H12.87L13.1 30.4801L12.87 30.6901H12.76V30.5901H12.87V30.5401H12.71V30.7401H12.87V30.8901H13.1V30.7401H13.04V30.8601H12.93V30.7401L13.18 30.5401L13.41 30.7401V30.8601H13.29V30.7401H13.24V30.8901H13.46V30.7401H13.63V30.5401H13.46V30.5901H13.58V30.6901H13.46L13.24 30.4801Z" fill="#307359"/>
<path fill-rule="evenodd" clip-rule="evenodd" d="M11.5298 20.0202L11.6398 19.8702H12.3298L12.8398 19.2202H13.5198L14.0298 19.8702H14.6898L14.7998 20.0202L14.6898 20.1702H14.0298L13.5198 20.8302H12.8398L12.3298 20.1702H11.6398L11.5298 20.0202Z" fill="#C03F2A"/>
<path fill-rule="evenodd" clip-rule="evenodd" d="M11.5898 19.8504L11.6398 19.7904H12.3398L12.8698 19.1704H13.4598L13.9898 19.7904H14.6898L14.7498 19.8504L14.6898 19.9004H13.9898L13.5198 20.4504H12.8198L12.3398 19.9004H11.6398L11.5898 19.8504Z" fill="#C03F2A"/>
<path fill-rule="evenodd" clip-rule="evenodd" d="M13.4601 19.9002L13.6901 20.1502L13.5801 20.2802L13.5201 20.2302H13.4701V20.2802L13.5201 20.3602H13.6301L13.7401 20.2302V20.1002L13.5101 19.8302L13.7401 19.5602V19.4502L13.6301 19.3202H13.5201L13.4701 19.3802V19.4502H13.5201L13.5801 19.3802L13.6901 19.5102L13.4601 19.7702L13.2301 19.5102L13.4601 19.2402V19.1802H13.4001L13.1701 19.4502L12.9401 19.1802H12.8901V19.2402L13.1101 19.5102L12.8901 19.7702L12.6601 19.5102L12.7701 19.3802L12.8301 19.4502H12.8901V19.3802L12.8301 19.3202H12.7101L12.6001 19.4502V19.5602L12.8301 19.8302L12.6001 20.1002V20.2302L12.7101 20.3602H12.8301L12.8901 20.2802V20.2302H12.8301L12.7701 20.2802L12.6601 20.1502L12.8901 19.9002L13.1101 20.1502L12.8901 20.4202V20.4902H12.9401L13.1701 20.2302L13.4001 20.4902H13.4601V20.4202L13.2301 20.1502L13.4601 19.9002ZM13.1701 19.5602L12.9401 19.8302L13.1701 20.1002L13.4001 19.8302L13.1701 19.5602Z" fill="#E0852A"/>
<path fill-rule="evenodd" clip-rule="evenodd" d="M12.8398 20.5503V21.0503L12.8898 21.0003L12.9498 21.0503L13.0098 21.0003L13.0598 21.0503L13.1198 21.0003L13.1798 21.0503L13.2398 21.0003L13.2898 21.0503L13.3498 21.0003L13.4098 21.0503L13.4598 21.0003L13.5198 21.0503V20.5503H12.8398Z" fill="#E0852A"/>
<path fill-rule="evenodd" clip-rule="evenodd" d="M13.5198 19.1101V18.6001L13.4598 18.6601L13.4098 18.6001L13.3498 18.6601L13.2898 18.6001L13.2398 18.6601L13.1798 18.6001L13.1198 18.6601L13.0598 18.6001L13.0098 18.6601L12.9498 18.6001L12.8898 18.6601L12.8398 18.6001V19.1101H13.5198Z" fill="#E0852A"/>
<path fill-rule="evenodd" clip-rule="evenodd" d="M14.4598 19.7002V19.1802L14.4098 19.2402L14.3498 19.1802L14.2898 19.2402L14.2398 19.1802L14.1998 19.2402L14.1398 19.1802L14.0898 19.2402L14.0298 19.1802V19.7002H14.4598Z" fill="#E0852A"/>
<path fill-rule="evenodd" clip-rule="evenodd" d="M12.3301 19.7002V19.1802L12.2701 19.2402L12.2101 19.1802L12.1501 19.2402L12.1001 19.1802L12.0401 19.2402L11.9801 19.1802L11.9301 19.2402L11.8701 19.1802V19.7002H12.3301Z" fill="#E0852A"/>
<path fill-rule="evenodd" clip-rule="evenodd" d="M14.4598 19.96V20.49L14.4098 20.41L14.3498 20.49L14.2898 20.41L14.2398 20.49L14.1998 20.41L14.1398 20.49L14.0898 20.41L14.0298 20.49V19.96H14.4598Z" fill="#E0852A"/>
<path fill-rule="evenodd" clip-rule="evenodd" d="M12.3301 19.96V20.49L12.2701 20.41L12.2101 20.49L12.1501 20.41L12.1001 20.49L12.0401 20.41L11.9801 20.49L11.9301 20.41L11.8701 20.49V19.96H12.3301Z" fill="#E0852A"/>
<path fill-rule="evenodd" clip-rule="evenodd" d="M13.52 20.55V20.87L13.58 20.81L13.63 20.87L13.69 20.81L13.74 20.87L13.8 20.81L13.86 20.87L13.92 20.81L13.97 20.87L14.03 20.81V19.96L13.52 20.55Z" fill="#307359"/>
<path fill-rule="evenodd" clip-rule="evenodd" d="M12.8401 20.55V20.87L12.7801 20.81L12.7201 20.87L12.6701 20.81L12.6101 20.87L12.5501 20.81L12.5001 20.87L12.4401 20.81L12.3801 20.87L12.3301 20.81V19.96L12.8401 20.55Z" fill="#307359"/>
<path fill-rule="evenodd" clip-rule="evenodd" d="M12.8401 19.11V18.79L12.7801 18.86L12.7201 18.79L12.6701 18.86L12.6101 18.79L12.5501 18.86L12.5001 18.79L12.4401 18.86L12.3801 18.79L12.3301 18.86V19.7L12.8401 19.11Z" fill="#307359"/>
<path fill-rule="evenodd" clip-rule="evenodd" d="M13.52 19.11V18.79L13.58 18.86L13.63 18.79L13.69 18.86L13.74 18.79L13.8 18.86L13.86 18.79L13.92 18.86L13.97 18.79L14.03 18.86V19.7L13.52 19.11Z" fill="#307359"/>
<path fill-rule="evenodd" clip-rule="evenodd" d="M11.8699 20.3603L11.8099 20.2803L11.7599 20.3603L11.6999 20.2803L11.6399 20.3603L11.5899 20.2803L11.5299 20.3603L11.4699 20.2803L11.4199 20.3603V19.3203L11.4699 19.3803L11.5299 19.3203L11.5899 19.3803L11.6399 19.3203L11.6999 19.3803L11.7599 19.3203L11.8099 19.3803L11.8699 19.3203V19.7003H11.6399L11.5299 19.8303L11.6399 19.9603H11.8699V20.3603Z" fill="#307359"/>
<path fill-rule="evenodd" clip-rule="evenodd" d="M14.46 20.3603L14.52 20.2803L14.58 20.3603L14.63 20.2803L14.69 20.3603L14.75 20.2803L14.8 20.3603L14.86 20.2803L14.92 20.3603V19.3203L14.86 19.3803L14.8 19.3203L14.75 19.3803L14.69 19.3203L14.63 19.3803L14.58 19.3203L14.52 19.3803L14.46 19.3203V19.7003H14.69L14.8 19.8303L14.69 19.9603H14.46V20.3603Z" fill="#307359"/>
<path fill-rule="evenodd" clip-rule="evenodd" d="M12.5497 20.5899C12.5497 20.5899 12.4997 20.6399 12.4997 20.6599C12.4997 20.6799 12.5497 20.7299 12.5797 20.7299C12.6197 20.7299 12.6497 20.6899 12.6497 20.6599C12.6497 20.6399 12.5997 20.5899 12.5997 20.5899V20.4899C12.5997 20.4899 12.7197 20.6599 12.7197 20.5899C12.7197 20.5299 12.5997 20.4399 12.5997 20.4399H12.5597C12.5597 20.4399 12.4497 20.5499 12.4497 20.5899C12.4497 20.6599 12.5597 20.4899 12.5597 20.4899V20.5899H12.5497Z" fill="white"/>
<path fill-rule="evenodd" clip-rule="evenodd" d="M13.1398 20.7901C13.1398 20.7901 13.0798 20.8501 13.0798 20.8901C13.0798 20.9301 13.1398 21.0001 13.1698 21.0001C13.1898 21.0001 13.2498 20.9301 13.2498 20.8901C13.2498 20.8501 13.1898 20.7901 13.1898 20.7901V20.6401C13.1898 20.6401 13.2898 20.8701 13.2898 20.7701C13.2898 20.6901 13.1898 20.5601 13.1898 20.5601H13.1398C13.1398 20.5601 13.0198 20.7301 13.0398 20.7701C13.0398 20.8601 13.1398 20.6401 13.1398 20.6401V20.7901Z" fill="#C03F2A"/>
<path fill-rule="evenodd" clip-rule="evenodd" d="M12.6699 19.83C12.6699 19.83 12.6099 19.9 12.5499 19.9C12.4799 19.9 12.4399 19.86 12.4399 19.83C12.4399 19.8 12.4799 19.77 12.5499 19.77C12.6099 19.77 12.6699 19.79 12.6699 19.83Z" fill="#307359"/>
<path fill-rule="evenodd" clip-rule="evenodd" d="M13.2898 19.83C13.2898 19.83 13.2398 19.9 13.1798 19.9C13.0998 19.9 13.0698 19.86 13.0698 19.83C13.0698 19.8 13.1098 19.77 13.1798 19.77C13.2398 19.77 13.2898 19.79 13.2898 19.83Z" fill="#307359"/>
<path fill-rule="evenodd" clip-rule="evenodd" d="M13.9199 19.83C13.9199 19.83 13.8599 19.9 13.8099 19.9C13.7299 19.9 13.6899 19.86 13.6899 19.83C13.6899 19.8 13.7299 19.77 13.8099 19.77C13.8599 19.77 13.9199 19.79 13.9199 19.83Z" fill="#307359"/>
<path fill-rule="evenodd" clip-rule="evenodd" d="M12.5299 19.0902C12.5299 19.0902 12.4899 19.0302 12.4899 19.0002C12.4899 18.9802 12.5299 18.9302 12.5399 18.9302C12.5799 18.9302 12.6199 18.9802 12.6199 19.0002C12.6199 19.0402 12.5799 19.0902 12.5799 19.0902V19.1802C12.5799 19.1802 12.6799 19.0102 12.6799 19.0902C12.6799 19.1502 12.5799 19.2402 12.5799 19.2402H12.5199C12.5199 19.2402 12.4199 19.1302 12.4199 19.0902C12.4199 19.0202 12.5199 19.1802 12.5199 19.1802V19.0902H12.5299Z" fill="white"/>
<path fill-rule="evenodd" clip-rule="evenodd" d="M13.12 18.8804C13.12 18.8804 13.07 18.8104 13.07 18.7704C13.07 18.7504 13.15 18.6704 13.17 18.6704C13.21 18.6704 13.25 18.7304 13.25 18.7704C13.25 18.8104 13.19 18.8804 13.19 18.8804V19.0304C13.19 19.0304 13.3 18.7904 13.3 18.9004C13.3 18.9804 13.19 19.0904 13.19 19.0904H13.13C13.13 19.0904 13.02 18.9404 13.04 18.9004C13.04 18.7904 13.13 19.0304 13.13 19.0304V18.8804H13.12Z" fill="#C03F2A"/>
<path fill-rule="evenodd" clip-rule="evenodd" d="M13.7699 20.5899C13.7699 20.5899 13.7099 20.6399 13.7099 20.6599C13.7099 20.6799 13.7699 20.7299 13.7899 20.7299C13.8099 20.7299 13.8699 20.6899 13.8699 20.6599C13.8699 20.6399 13.8199 20.5899 13.8199 20.5899V20.4899C13.8199 20.4899 13.9299 20.6599 13.9299 20.5899C13.9299 20.5299 13.8199 20.4399 13.8199 20.4399H13.7799C13.7799 20.4399 13.6699 20.5499 13.6699 20.5899C13.6699 20.6599 13.7799 20.4899 13.7799 20.4899V20.5899H13.7699Z" fill="white"/>
<path fill-rule="evenodd" clip-rule="evenodd" d="M13.7399 19.0902C13.7399 19.0902 13.6999 19.0302 13.6999 19.0002C13.6799 18.9802 13.7399 18.9302 13.7599 18.9302C13.7999 18.9302 13.8399 18.9802 13.8399 19.0002C13.8399 19.0402 13.7999 19.0902 13.7999 19.0902V19.1802C13.7999 19.1802 13.8899 19.0102 13.8899 19.0902C13.8899 19.1502 13.7999 19.2402 13.7999 19.2402H13.7399C13.7399 19.2402 13.6499 19.1302 13.6499 19.0902C13.6499 19.0202 13.7399 19.1802 13.7399 19.1802V19.0902Z" fill="white"/>
<path fill-rule="evenodd" clip-rule="evenodd" d="M12.06 20.2301C12.06 20.2301 11.98 20.2801 11.98 20.3001C11.98 20.3201 12.06 20.3701 12.08 20.3701C12.12 20.3701 12.17 20.3201 12.17 20.3001C12.17 20.2801 12.11 20.2301 12.11 20.2301V20.1401C12.11 20.1401 12.23 20.2901 12.23 20.2101C12.23 20.1701 12.11 20.0801 12.11 20.0801H12.06C12.06 20.0801 11.93 20.1901 11.94 20.2101C11.94 20.2801 12.06 20.1401 12.06 20.1401V20.2301Z" fill="#C03F2A"/>
<path fill-rule="evenodd" clip-rule="evenodd" d="M12.04 19.4903C12.04 19.4903 11.98 19.4503 11.98 19.4103C11.98 19.3903 12.04 19.3403 12.08 19.3403C12.12 19.3403 12.17 19.3903 12.17 19.4103C12.17 19.4503 12.09 19.4903 12.09 19.4903V19.5803C12.09 19.5803 12.2 19.4303 12.2 19.5103C12.2 19.5503 12.09 19.6403 12.09 19.6403H12.04C12.04 19.6403 11.91 19.5303 11.92 19.5103C11.92 19.4303 12.04 19.5803 12.04 19.5803V19.4903Z" fill="#C03F2A"/>
<path fill-rule="evenodd" clip-rule="evenodd" d="M14.24 20.2101C14.24 20.2101 14.18 20.2601 14.18 20.2801C14.16 20.3001 14.24 20.3601 14.27 20.3601C14.29 20.3601 14.36 20.3001 14.36 20.2801C14.36 20.2601 14.29 20.2101 14.29 20.2101V20.1201C14.29 20.1201 14.4 20.2701 14.4 20.2101C14.4 20.1501 14.29 20.0801 14.29 20.0801H14.24C14.24 20.0801 14.11 20.1701 14.13 20.2101C14.13 20.2601 14.24 20.1201 14.24 20.1201V20.2101Z" fill="#C03F2A"/>
<path fill-rule="evenodd" clip-rule="evenodd" d="M14.2199 19.4703C14.2199 19.4703 14.1599 19.4303 14.1599 19.3903C14.1599 19.3703 14.2199 19.3403 14.2499 19.3403C14.2799 19.3403 14.3399 19.3803 14.3399 19.3903C14.3399 19.4303 14.2599 19.4703 14.2599 19.4703V19.5603C14.2599 19.5603 14.3699 19.4103 14.3699 19.4903C14.3699 19.5303 14.2599 19.6203 14.2599 19.6203H14.2099C14.2099 19.6203 14.0799 19.5103 14.0899 19.4903C14.0899 19.4103 14.2099 19.5603 14.2099 19.5603V19.4703H14.2199Z" fill="#C03F2A"/>
<path fill-rule="evenodd" clip-rule="evenodd" d="M11.5899 20.2301C11.5699 20.1701 11.5899 20.1501 11.5899 20.1401C11.5699 20.1201 11.6499 20.0601 11.6699 20.0601C11.6899 20.0601 11.7299 20.1201 11.7299 20.1401V20.2301L11.6899 20.1501C11.6633 20.2234 11.6433 20.2234 11.6299 20.1501L11.5899 20.2301Z" fill="white"/>
<path fill-rule="evenodd" clip-rule="evenodd" d="M11.5898 19.4702C11.5898 19.4702 11.5898 19.5402 11.5898 19.5602C11.5898 19.5802 11.6498 19.6302 11.6698 19.6302C11.6898 19.6302 11.7298 19.5802 11.7298 19.5402V19.4702L11.6898 19.5402C11.6632 19.4669 11.6432 19.4669 11.6298 19.5402L11.5898 19.4702Z" fill="white"/>
<path fill-rule="evenodd" clip-rule="evenodd" d="M14.6601 20.2101C14.6601 20.2101 14.6401 20.1501 14.6401 20.1201C14.6401 20.1001 14.7001 20.0601 14.7201 20.0601C14.7601 20.0601 14.8001 20.1001 14.8001 20.1401C14.8001 20.1601 14.8001 20.1801 14.7801 20.2301L14.7601 20.1501C14.7335 20.2101 14.7135 20.2034 14.7001 20.1301L14.6601 20.2001V20.2101Z" fill="white"/>
<path fill-rule="evenodd" clip-rule="evenodd" d="M14.6601 19.4702C14.6601 19.4702 14.6401 19.5302 14.6401 19.5402C14.6401 19.5802 14.7001 19.6202 14.7201 19.6202C14.7601 19.6202 14.8001 19.5602 14.8001 19.5402V19.4502L14.7601 19.5302C14.7335 19.4502 14.7135 19.4502 14.7001 19.5302L14.6601 19.4702Z" fill="white"/>
<path fill-rule="evenodd" clip-rule="evenodd" d="M12.8201 21.07V20.88H12.2901V20.52H11.8201V20.39H11.4201V19.27H11.8201V19.16H12.2901V18.78H12.8201V18.61H13.5201V18.78H14.0501V19.16H14.5201V19.27H14.9201V20.39H14.5201V20.52H14.0501V20.88H13.5201V21.07H12.8201ZM12.7601 21.13V20.96H12.2301V20.58H11.7501V20.45H11.3501V19.22H11.7501V19.11H12.2301V18.73H12.7601V18.54H13.5801V18.73H14.1101V19.11H14.5801V19.22H15.0001V20.45H14.5801V20.58H14.1101V20.96H13.5801V21.13H12.7601Z" fill="#C03F2A"/>
<path fill-rule="evenodd" clip-rule="evenodd" d="M23.0697 18.3902C23.0697 17.0502 21.9697 15.9502 20.6197 15.9502C19.2697 15.9502 18.1997 17.0502 18.1997 18.3902C18.1997 19.7302 19.2797 20.8302 20.6197 20.8302C21.9597 20.8302 23.0697 19.7502 23.0697 18.3902Z" fill="white"/>
<path fill-rule="evenodd" clip-rule="evenodd" d="M22.3998 18.0104C22.3998 16.6904 21.3198 15.6104 19.9898 15.6104C18.6598 15.6104 17.5898 16.6904 17.5898 18.0104C17.5898 19.3304 18.6698 20.4304 19.9898 20.4304C21.3098 20.4304 22.3998 19.3504 22.3998 18.0104Z" fill="#307359"/>
<path fill-rule="evenodd" clip-rule="evenodd" d="M20.9498 17.03H20.5998L20.5098 17.37L20.3998 17.03H20.0498L20.3198 16.82L20.2098 16.5L20.4898 16.69L20.7798 16.5L20.6798 16.82L20.9498 17.03Z" fill="#FBFCFC"/>
<path fill-rule="evenodd" clip-rule="evenodd" d="M19.7101 16.4104L19.3701 16.4304L19.2801 16.7504L19.1701 16.4304L18.8301 16.4104L19.0901 16.2004L18.9701 15.8804L19.2601 16.0604L19.5301 15.8804L19.4501 16.2004L19.7101 16.4104Z" fill="#FBFCFC"/>
<path fill-rule="evenodd" clip-rule="evenodd" d="M19.7101 17.6504H19.3701L19.2801 17.9704L19.1701 17.6504H18.8301L19.0901 17.4504L18.9701 17.1104L19.2601 17.3104L19.5301 17.1104L19.4501 17.4504L19.7101 17.6504Z" fill="#FBFCFC"/>
<path fill-rule="evenodd" clip-rule="evenodd" d="M19.7101 18.9001H19.3701L19.2801 19.2201L19.1701 18.9001H18.8301L19.0901 18.6901L18.9701 18.3501L19.2601 18.5601L19.5301 18.3501L19.4501 18.6901L19.7101 18.9001Z" fill="#FBFCFC"/>
<path fill-rule="evenodd" clip-rule="evenodd" d="M18.4798 18.26H18.1398L18.0498 18.6L17.9298 18.26H17.5898L17.8598 18.05L17.7498 17.73L18.0298 17.92L18.3098 17.73L18.2198 18.05L18.4798 18.26Z" fill="#FBFCFC"/>
<path fill-rule="evenodd" clip-rule="evenodd" d="M13.5801 31.5001H13.6501V31.3301H13.8001V31.5001H13.8801V31.1001H13.8001V31.2701H13.6501V31.1001H13.5801V31.5001Z" fill="#C03F2A"/>
</g>
</g>
</g>
<defs>
<clipPath id="clip0_1299_24460">
<rect width="33.56" height="19.58" fill="white" transform="translate(7 14)"/>
</clipPath>
</defs>
</svg>
