<svg width="48" height="48" viewBox="0 0 48 48" fill="none" xmlns="http://www.w3.org/2000/svg">
<g clip-path="url(#clip0_1299_23074)">
<mask id="mask0_1299_23074" style="mask-type:luminance" maskUnits="userSpaceOnUse" x="7" y="14" width="34" height="20">
<path d="M40.56 14H7V33.58H40.56V14Z" fill="white"/>
</mask>
<g mask="url(#mask0_1299_23074)">
<path d="M40.56 14H7V33.58H40.56V14Z" fill="black"/>
<path d="M40.56 17.27H7V20.53H40.56V17.27Z" fill="#F8E82A"/>
<path d="M40.56 20.52H7V23.79H40.56V20.52Z" fill="#CC3220"/>
<path d="M40.56 27.0498H7V30.3098H40.56V27.0498Z" fill="#F8E82A"/>
<path d="M40.56 30.3198H7V33.5798H40.56V30.3198Z" fill="#CC3220"/>
<mask id="mask1_1299_23074" style="mask-type:luminance" maskUnits="userSpaceOnUse" x="7" y="14" width="34" height="20">
<path d="M40.56 14H7V33.58H40.56V14Z" fill="white"/>
</mask>
<g mask="url(#mask1_1299_23074)">
<path d="M26.83 23.7902C26.83 25.4802 25.46 26.8402 23.78 26.8402C22.1 26.8402 20.73 25.4802 20.73 23.7902C20.73 22.1002 22.09 20.7402 23.78 20.7402C25.47 20.7402 26.83 22.1102 26.83 23.7902Z" fill="#FFFCFF"/>
<path d="M23.7802 26.8502C22.0902 26.8502 20.7202 25.4802 20.7202 23.7902C20.7202 22.1002 22.1002 20.7202 23.7802 20.7202C25.4602 20.7202 26.8402 22.1002 26.8402 23.7902C26.8402 25.4802 25.4702 26.8502 23.7802 26.8502ZM23.7802 20.7502C22.1102 20.7502 20.7502 22.1102 20.7502 23.7902C20.7502 25.4702 22.1102 26.8302 23.7802 26.8302C25.4502 26.8302 26.8102 25.4702 26.8102 23.7902C26.8102 22.1102 25.4502 20.7502 23.7802 20.7502Z" fill="black"/>
<path d="M23.24 21.4502L23.04 21.0902C23.11 21.0102 23.24 20.9502 23.45 20.9502C23.45 20.9602 23.43 21.3502 23.43 21.3502L23.24 21.4502Z" fill="#CC2920"/>
<path d="M23.23 21.4702L23.02 21.0902C23.12 20.9802 23.26 20.9302 23.45 20.9302C23.47 20.9602 23.45 21.3502 23.45 21.3502L23.24 21.4702H23.23ZM23.43 20.9502C23.27 20.9702 23.13 21.0102 23.05 21.1002L23.24 21.4302L23.42 21.3402C23.42 21.3402 23.42 20.9602 23.42 20.9502H23.43Z" fill="black"/>
<path d="M23.4302 21.3601L23.4602 20.9501C23.4602 20.9501 23.8702 20.9301 24.0902 21.1901L23.8702 21.5101L23.4302 21.3601Z" fill="#F8E82A"/>
<path d="M23.8802 21.5304L23.4302 21.3704L23.4502 20.9404H23.4902C23.5802 20.9404 23.9102 20.9604 24.1102 21.1904C24.1102 21.1904 24.0368 21.3004 23.8902 21.5204L23.8802 21.5304ZM23.4902 20.9804L23.4502 21.3704L23.8702 21.5004C23.9002 21.4504 24.0702 21.2104 24.0802 21.2004C23.8902 21.0004 23.5802 20.9804 23.4902 20.9804Z" fill="black"/>
<path d="M23.8804 21.5104L24.0804 21.1904C24.2104 21.3304 24.2704 21.4304 24.2904 21.5904L23.9704 21.6604L23.8804 21.5004V21.5104Z" fill="#CC2920"/>
<path d="M23.9701 21.6804H23.9601C23.9601 21.6804 23.8801 21.5204 23.8701 21.5204L24.0701 21.1904C24.2301 21.3304 24.2901 21.4404 24.3101 21.5904C24.3001 21.6204 23.9801 21.6804 23.9701 21.6804ZM23.8901 21.5104C23.8901 21.5104 23.9601 21.6104 23.9801 21.6504C24.0301 21.6404 24.2701 21.5804 24.2801 21.5804C24.2501 21.4504 24.2001 21.3504 24.0701 21.2104L23.8901 21.5104Z" fill="black"/>
<path d="M23.3403 26.6602C23.3403 26.6602 23.7203 26.2302 24.4503 26.3202C24.3403 26.1402 23.9803 26.1602 23.9803 26.1602C23.9803 26.1602 23.8703 25.3202 23.9503 25.2802C24.0403 25.2402 24.4103 25.2802 24.4103 25.2802C24.4603 25.2802 24.5403 25.1402 24.4803 25.0702C24.4103 24.9802 24.2203 24.6602 24.3003 24.6002C24.3803 24.5302 24.8203 24.6402 24.8203 24.6402L23.5903 23.0702C23.5903 23.0702 23.4603 22.4802 23.7103 22.1902C24.0103 21.9402 23.9803 21.6702 23.9703 21.6702C23.9303 21.4002 23.5103 21.2002 23.2303 21.4502C23.0603 21.6502 23.1803 21.8102 23.1803 21.8102C23.1803 21.8102 22.7403 21.9302 22.7203 22.0102C22.7003 22.0802 23.2203 21.9902 23.2203 21.9902L23.1703 22.3402C23.1703 22.3402 22.1803 23.2502 22.9403 24.0302L22.9703 23.9902C22.9703 23.9902 23.2303 24.3202 23.5203 24.3902C23.7803 24.6602 23.7603 24.6202 23.7603 24.6202C23.7603 24.6202 23.8103 25.0502 23.7603 25.1302C23.6903 25.1102 23.0203 25.0902 22.9203 25.1302C22.8303 25.1602 22.4803 25.1402 22.5703 25.7102C22.6403 25.5502 22.7003 25.4202 22.7003 25.4202C22.7003 25.4202 22.6903 25.6202 22.7703 25.7002C22.7603 25.4902 22.8503 25.3402 22.8503 25.3402C22.8503 25.3402 22.8703 25.5702 22.9203 25.6102C22.9703 25.6502 22.9703 25.2302 23.2603 25.2702C23.5503 25.3102 23.7603 25.3002 23.7603 25.3002C23.7603 25.3002 23.8603 26.1202 23.8203 26.1902C23.6103 26.1402 23.1203 26.2102 23.0803 26.3302C23.3703 26.3102 23.5103 26.3502 23.5103 26.3502C23.5103 26.3502 23.2703 26.5602 23.3503 26.6702L23.3403 26.6602Z" fill="black"/>
<path d="M23.3401 26.6904V26.6704C23.2601 26.5504 23.4301 26.3804 23.4801 26.3304C23.4501 26.3304 23.3701 26.3304 23.2301 26.3304C23.1901 26.3304 23.1301 26.3304 23.0701 26.3304C23.0901 26.1604 23.6201 26.1104 23.8101 26.1504C23.8101 26.1104 23.7701 25.6104 23.7301 25.2904C23.7001 25.3104 23.5001 25.2904 23.2501 25.2704C23.0601 25.2704 23.0101 25.4304 22.9701 25.5304C22.9501 25.5804 22.9401 25.6104 22.9201 25.6104C22.8601 25.5804 22.8401 25.4304 22.8301 25.3604C22.8301 25.4104 22.7701 25.5404 22.7801 25.6904C22.6601 25.6304 22.6701 25.4204 22.6701 25.4104L22.5701 25.7004C22.4601 25.1804 22.7301 25.1304 22.8601 25.1104C22.8801 25.1104 22.8901 25.1104 22.9001 25.1004C22.9501 25.0904 23.1001 25.0804 23.2101 25.0804C23.4301 25.0804 23.7101 25.0904 23.7501 25.1104C23.7601 25.0604 23.7501 24.7704 23.7301 24.6304C23.7301 24.6304 23.6801 24.5904 23.5001 24.4004C23.2401 24.3304 22.9901 24.0404 22.9501 24.0004L22.9701 23.9804C22.9701 23.9804 23.2401 24.3104 23.5101 24.3804C23.7101 24.5904 23.7501 24.6104 23.7501 24.6104C23.7701 24.6904 23.8101 25.0604 23.7501 25.1404C23.6601 25.1404 22.9801 25.1104 22.9001 25.1404C22.8801 25.1404 22.8701 25.1404 22.8501 25.1404C22.7201 25.1704 22.4801 25.2104 22.5501 25.6904L22.6501 25.4004C22.6501 25.4004 22.6701 25.6104 22.7501 25.6704C22.7101 25.4704 22.8001 25.3204 22.8001 25.3104C22.8401 25.4204 22.8601 25.5604 22.9001 25.5804C22.9001 25.5804 22.9001 25.5404 22.9201 25.5104C22.9601 25.4004 23.0101 25.2204 23.2001 25.2204C23.5401 25.2604 23.7301 25.2404 23.7301 25.2404C23.7601 25.3404 23.8401 26.0804 23.8101 26.1604C23.7501 26.1604 23.6901 26.1604 23.6301 26.1604C23.3901 26.1604 23.1001 26.2304 23.0801 26.3104C23.1201 26.2904 23.1701 26.2904 23.2201 26.2904C23.4101 26.2904 23.4901 26.3104 23.5001 26.3104C23.4501 26.3904 23.3201 26.5404 23.3401 26.6304C23.4201 26.5404 23.8001 26.2204 24.4501 26.3004C24.3401 26.1804 24.0901 26.1804 24.0101 26.1804L23.9601 26.1604C23.9301 25.9604 23.8501 25.3004 23.9401 25.2604C24.0101 25.2204 24.4001 25.2604 24.4001 25.2604C24.4101 25.2604 24.4401 25.2404 24.4601 25.2004C24.4601 25.1804 24.4901 25.1204 24.4601 25.0704C24.4201 25.0204 24.2501 24.7504 24.2601 24.6304C24.2601 24.6104 24.2601 24.5904 24.2801 24.5804C24.3601 24.5304 24.8001 24.6104 24.8101 24.6204L23.5701 23.0704C23.5701 23.0704 23.4501 22.4604 23.7001 22.1804C23.9801 21.9604 23.9701 21.7104 23.9601 21.6804C23.9201 21.4004 23.4901 21.2504 23.2501 21.4704C23.1001 21.6604 23.1901 21.8004 23.2001 21.8104C22.9801 21.8904 22.7601 21.9704 22.7501 22.0204C22.7501 22.0204 22.7501 22.0204 22.8301 22.0204C22.9701 22.0204 23.2201 21.9804 23.2301 21.9804L23.2001 22.3504C23.2001 22.3504 22.7001 22.8204 22.6801 23.3504C22.6801 23.5904 22.7601 23.8204 22.9601 24.0204C22.9601 24.0204 22.9601 24.0404 22.9601 24.0504C22.7401 23.8404 22.6401 23.6004 22.6501 23.3504C22.6601 22.8004 23.1701 22.3404 23.1701 22.3304L23.2101 21.9904C23.2101 21.9904 22.9701 22.0504 22.8301 22.0504C22.7601 22.0504 22.7301 22.0404 22.7201 22.0304C22.7301 21.9204 23.0901 21.8204 23.1801 21.8004C23.1501 21.7804 23.0801 21.6304 23.2301 21.4404C23.4901 21.2004 23.9501 21.3704 24.0001 21.6704C24.0201 21.7104 24.0301 21.9604 23.7401 22.2104C23.5001 22.4804 23.6201 23.0604 23.6201 23.0704L24.8401 24.6304C24.8401 24.6304 24.5801 24.6004 24.4201 24.6004C24.3501 24.6004 24.3301 24.6104 24.3201 24.6204C24.3001 24.7404 24.4401 24.9804 24.5001 25.0604C24.5401 25.1104 24.5401 25.1704 24.5101 25.2204C24.4901 25.2604 24.4601 25.3004 24.4201 25.3004C24.4201 25.3004 24.2401 25.2804 24.1101 25.2804C24.0201 25.2804 23.9901 25.2904 23.9701 25.3004C23.9201 25.3204 23.9501 25.7604 24.0001 26.1704C24.1201 26.1504 24.3701 26.1704 24.4701 26.3204C24.3801 26.3404 24.3201 26.3404 24.2501 26.3404C23.6601 26.3404 23.3601 26.6804 23.3501 26.6804L23.3301 26.7004L23.3401 26.6904Z" fill="black"/>
<path d="M23.4602 22.2104C23.4602 22.2104 22.7402 23.0104 23.0502 23.6104C23.0602 23.5204 23.0502 23.4704 23.0702 23.4704C23.0502 23.4704 23.1602 23.5504 23.1502 23.5304C23.1502 23.4904 23.1102 23.3904 23.1102 23.3904C23.1502 23.3904 23.1802 23.4104 23.2102 23.4104C23.1902 23.3704 23.1702 23.3404 23.1502 23.3104C23.2002 23.3104 23.2402 23.3104 23.2902 23.3204C23.2902 23.3204 23.2402 23.1904 23.2602 23.1904C23.2802 23.1904 23.3802 23.1904 23.3802 23.1904C23.1702 22.8204 23.3702 22.5104 23.4602 22.1904V22.2104Z" fill="#9BA49A"/>
<path d="M23.0601 23.6704L23.0301 23.6304C22.7201 23.0204 23.4401 22.2204 23.4401 22.2104C23.4501 22.2904 23.4301 22.3604 23.4001 22.4204C23.3101 22.6804 23.2201 22.9204 23.3901 23.2104C23.3701 23.2304 23.2801 23.2304 23.2601 23.2304C23.2701 23.2304 23.2901 23.2904 23.3101 23.3404H23.1501L23.2201 23.4304H23.1301C23.1301 23.4304 23.1601 23.5104 23.1501 23.5504C23.1101 23.5704 23.0401 23.5004 23.0401 23.5004C23.0601 23.5504 23.0601 23.5804 23.0401 23.6204V23.6704H23.0601ZM23.4401 22.2204C23.3901 22.3204 22.8101 23.0104 23.0401 23.5704C23.0401 23.5504 23.0401 23.5304 23.0401 23.5204L23.0601 23.4704C23.0601 23.4704 23.1401 23.5204 23.1501 23.5304C23.1301 23.5104 23.1101 23.4404 23.1001 23.4104V23.3804L23.2201 23.4204L23.1401 23.3404H23.3001C23.2301 23.2304 23.2401 23.2204 23.2501 23.2104C23.2801 23.2104 23.3801 23.2104 23.3801 23.2104C23.2001 22.9304 23.2901 22.6704 23.3801 22.4204C23.4001 22.3604 23.4201 22.3004 23.4401 22.2304V22.2204Z" fill="#9BA49A"/>
<path d="M23.71 21.5303C23.71 21.5303 23.75 21.8103 23.6 21.8803C23.57 21.9003 23.48 21.9303 23.49 21.9903C23.51 22.0703 23.55 22.0503 23.61 22.0403C23.77 22.0203 23.95 21.6803 23.71 21.5403V21.5303Z" fill="#9BA49A"/>
<path d="M23.5501 22.07C23.5501 22.07 23.4901 22.04 23.4801 22C23.4701 21.95 23.5301 21.91 23.5701 21.89C23.7301 21.81 23.7001 21.55 23.7001 21.54C23.8201 21.58 23.8701 21.68 23.8401 21.8C23.8201 21.92 23.7201 22.05 23.6201 22.06C23.5901 22.06 23.5701 22.08 23.5601 22.08L23.5501 22.07ZM23.7101 21.55C23.7101 21.55 23.7501 21.82 23.6101 21.9C23.5401 21.94 23.5001 21.96 23.5101 21.99C23.5201 22.03 23.5401 22.04 23.5601 22.04C23.5601 22.04 23.5901 22.04 23.6101 22.04C23.7001 22.02 23.7901 21.91 23.8101 21.8C23.8101 21.74 23.8201 21.63 23.7201 21.57L23.7101 21.55Z" fill="#9BA49A"/>
<path d="M23.4501 21.7704C23.4501 21.7704 23.4201 21.8204 23.3901 21.8204C23.3601 21.8204 23.3301 21.8004 23.3301 21.7704C23.3301 21.7404 23.3601 21.7104 23.3901 21.7104C23.4201 21.7104 23.4501 21.7404 23.4501 21.7704Z" fill="white"/>
<path d="M23.2104 22C23.2104 22 22.9804 22.24 23.1704 22.32C23.3704 22.26 23.3204 22.22 23.3604 22.18C23.3604 22.09 23.2604 22.06 23.2104 22Z" fill="#CC2920"/>
<path d="M23.1702 22.3302C23.1202 22.3102 23.0802 22.2702 23.0802 22.2302C23.0702 22.1302 23.1802 22.0202 23.2102 21.9902C23.2502 22.0102 23.2702 22.0202 23.2902 22.0402C23.3402 22.0802 23.3902 22.1102 23.3902 22.1802L23.3702 22.2202C23.3702 22.2202 23.3302 22.2902 23.1902 22.3302H23.1702ZM23.2002 22.0102C23.2002 22.0102 23.0902 22.1502 23.1102 22.2202C23.1102 22.2502 23.1302 22.2702 23.1702 22.2902C23.3102 22.2502 23.3202 22.2302 23.3302 22.2002C23.3302 22.1902 23.3302 22.1702 23.3502 22.1602C23.3502 22.1102 23.3102 22.0902 23.2602 22.0502C23.2402 22.0302 23.2102 22.0202 23.2002 22.0002V22.0102Z" fill="black"/>
<path d="M23.6502 23.9604C23.6502 23.9604 23.6002 24.1704 23.6502 24.3004C23.8202 24.2304 23.9002 24.2504 23.9602 24.2904C23.8202 24.1804 23.7602 24.1304 23.6402 23.9704L23.6502 23.9604Z" fill="#9BA49A"/>
<path d="M23.6503 24.3204V24.3004C23.5803 24.1804 23.6203 24.0204 23.6303 23.9604C23.6503 24.0204 23.6103 24.1604 23.6603 24.2704C23.7803 24.2204 23.8703 24.2204 23.9403 24.2504C23.8103 24.1804 23.7503 24.1204 23.6303 23.9704C23.7803 24.1104 23.8403 24.1604 23.9803 24.2704C23.9303 24.2704 23.8903 24.2704 23.8503 24.2704C23.8003 24.2704 23.7403 24.2904 23.6603 24.3204H23.6503Z" fill="#9BA49A"/>
<path d="M23.9502 24.75L23.9702 25.14C23.9702 25.14 24.1002 25.16 24.1702 25.14C24.2302 25.11 24.1702 24.87 23.9602 24.75H23.9502Z" fill="white"/>
<path d="M24.0802 25.17C24.0202 25.17 23.9602 25.16 23.9602 25.16L23.9302 24.75C24.1202 24.84 24.2002 25.01 24.1902 25.1C24.1902 25.14 24.1702 25.15 24.1602 25.15C24.1402 25.16 24.1102 25.17 24.0702 25.17H24.0802ZM24.0002 25.13C24.0002 25.13 24.1202 25.13 24.1602 25.13C24.1802 25.02 24.1002 24.86 23.9502 24.77L23.9902 25.14H24.0102L24.0002 25.13Z" fill="white"/>
<path d="M24.93 24.8003C24.93 24.8003 24.68 24.1903 24.04 24.0403C23.4 23.8903 23.49 23.2103 23.54 23.1703C23.57 23.1103 23.59 23.0203 23.77 23.1103C23.95 23.1903 24.8 23.6203 24.92 23.6403C25.04 23.6603 24.94 24.8203 24.93 24.8003Z" fill="#9BA49A"/>
<path d="M24.9303 24.8203H24.9103C24.9103 24.8203 24.6403 24.2103 24.0303 24.0603C23.6703 23.9703 23.5503 23.7303 23.5003 23.5303C23.4603 23.3503 23.4803 23.1803 23.5203 23.1503C23.5503 23.0803 23.6003 23.0103 23.7703 23.0903L23.9803 23.1903C24.3003 23.3503 24.8303 23.6103 24.9203 23.6203C25.0303 23.6403 24.9903 24.3203 24.9603 24.6103C24.947 24.7437 24.9337 24.8103 24.9203 24.8103L24.9303 24.8203ZM23.6403 23.0903C23.5903 23.0903 23.5703 23.1303 23.5503 23.1603C23.5203 23.2003 23.4903 23.3603 23.5303 23.5503C23.5703 23.7303 23.6903 23.9503 24.0303 24.0303C24.5703 24.1603 24.8303 24.6003 24.9103 24.7503C24.9403 24.5503 24.9903 23.7903 24.9103 23.6703C24.8103 23.6403 24.3903 23.4403 23.9603 23.2203L23.7503 23.1203C23.7003 23.0903 23.6603 23.0803 23.6303 23.0803L23.6403 23.0903Z" fill="black"/>
<path d="M24.3203 24.0404C24.3203 24.0404 25.1703 24.5504 24.9103 24.9904C25.1603 24.8304 25.0803 24.5404 25.0803 24.5404C25.0803 24.5404 25.2803 25.0704 24.7903 25.3304C24.8403 25.3704 24.8803 25.3604 24.8803 25.3604L24.8003 25.4504C24.8003 25.4504 24.7603 25.5104 25.0903 25.3504C25.0003 25.4204 24.9903 25.4804 24.9903 25.4804C24.9903 25.4804 25.0103 25.5504 25.2303 25.3604C25.0603 25.5604 25.0203 25.6504 25.0203 25.6504C25.4903 25.6104 26.5103 24.0904 24.7003 23.6304C24.8003 23.7304 24.7803 23.7204 24.7803 23.7204L24.3203 24.0604V24.0404Z" fill="#CC2920"/>
<path d="M24.9903 25.6401V25.6101H25.0103C25.0403 25.5601 25.0803 25.5001 25.1303 25.4301C25.0903 25.4701 25.0503 25.4801 25.0203 25.4801H25.0103L24.9803 25.4601C24.9803 25.4601 24.9803 25.3901 25.0803 25.3201C24.9503 25.4201 24.8503 25.4601 24.8103 25.4601L24.7803 25.4201L24.8503 25.3501C24.8503 25.3501 24.8103 25.3501 24.7803 25.3301C25.0803 25.1501 25.1103 24.8801 25.1003 24.7101C25.0903 24.8001 25.0503 24.9201 24.9203 25.0001C25.0003 24.8101 24.9803 24.5201 24.3403 24.0901C24.3403 24.0901 24.327 24.0768 24.3003 24.0501L24.7603 23.6901L24.6703 23.6301C25.6503 23.8401 25.7503 24.3701 25.7303 24.6701C25.6903 25.1701 25.2603 25.6301 25.0103 25.6501H24.9803L24.9903 25.6401ZM25.2203 25.3301C25.1603 25.4401 25.0903 25.5401 25.0503 25.6001C25.2903 25.5501 25.6803 25.1201 25.7103 24.6501C25.7503 24.1601 25.3803 23.7901 24.6903 23.6201C24.7636 23.6668 24.797 23.6935 24.7903 23.7001L24.3403 24.0401H24.3603C24.8903 24.4201 25.0803 24.7401 24.9203 24.9901C25.1303 24.8201 25.0603 24.5401 25.0603 24.5401C25.0603 24.5401 25.0703 24.5601 25.0803 24.5701C25.1303 24.6801 25.2203 25.1101 24.7903 25.3401C24.8303 25.3401 24.8503 25.3401 24.8603 25.3401L24.8003 25.4501C24.8003 25.4501 24.8803 25.4201 25.0803 25.3301C25.0103 25.4301 25.0003 25.4701 25.0003 25.4701C25.0303 25.4701 25.0803 25.4501 25.2103 25.3401L25.2203 25.3301Z" fill="black"/>
<path d="M24.3602 23.8903C24.4802 23.9803 24.5202 24.0003 24.5302 24.0403C24.4202 24.0203 24.3302 24.0303 24.3302 24.0303C24.3302 24.0303 24.1002 23.8003 24.0502 23.7903C24.0202 23.7903 23.8402 23.6803 23.8402 23.6803C23.7502 23.6303 23.6702 23.3203 24.0002 23.4103C24.3402 23.5703 24.3902 23.5903 24.3902 23.5903C24.5302 23.6403 24.6602 23.6803 24.8002 23.7203C24.8802 23.8103 24.9602 23.8903 25.0302 23.9903C25.0302 23.9903 24.6102 23.7803 24.5602 23.7803C24.6702 23.8703 24.7402 24.0003 24.7402 24.0003C24.6102 23.9603 24.4902 23.9303 24.3502 23.9103L24.3602 23.8903Z" fill="white"/>
<path d="M24.5604 24.07H24.5304C24.4704 24.05 24.4104 24.04 24.3704 24.04H24.3204C24.2304 23.95 24.0804 23.81 24.0504 23.8C24.0504 23.8 23.8804 23.71 23.8404 23.68C23.7904 23.66 23.7404 23.55 23.7604 23.47C23.7704 23.42 23.8404 23.34 24.0204 23.38C24.3504 23.54 24.4104 23.56 24.4104 23.56L24.8204 23.68L25.0604 23.95C24.8804 23.9 24.6104 23.77 24.5804 23.76C24.7004 23.83 24.7704 23.96 24.7704 23.96L24.7904 23.99L24.7304 23.97C24.6104 23.94 24.5104 23.91 24.3804 23.89V23.85C24.5004 23.87 24.6104 23.9 24.7304 23.94C24.7104 23.91 24.6504 23.82 24.5704 23.76C24.6304 23.73 25.0204 23.92 25.0604 23.94L24.9204 23.83L24.8004 23.7L24.4104 23.57C24.4104 23.57 24.3504 23.55 24.0104 23.4C23.9004 23.37 23.8204 23.38 23.8004 23.45C23.7904 23.52 23.8304 23.61 23.8704 23.63C23.9504 23.69 24.0504 23.75 24.0704 23.75C24.1204 23.76 24.3304 23.97 24.3604 23.99C24.4104 23.99 24.4704 23.99 24.5204 23.99C24.5004 23.97 24.4604 23.94 24.3904 23.89C24.5204 23.94 24.5604 23.97 24.5704 24.01V24.04H24.5804L24.5604 24.07Z" fill="black"/>
<path d="M22.7202 22.0304C22.7202 22.0304 23.1202 21.9304 23.1702 21.9504L22.7202 22.0304Z" fill="black"/>
<path d="M22.73 22.0403V22.0103C22.79 21.9903 23.13 21.9103 23.18 21.9203C23.14 21.9403 22.89 22.0003 22.73 22.0303V22.0403Z" fill="white"/>
</g>
</g>
</g>
<defs>
<clipPath id="clip0_1299_23074">
<rect width="33.56" height="19.58" fill="white" transform="translate(7 14)"/>
</clipPath>
</defs>
</svg>
