<svg width="48" height="48" viewBox="0 0 48 48" fill="none" xmlns="http://www.w3.org/2000/svg">
<g clip-path="url(#clip0_1299_23382)">
<mask id="mask0_1299_23382" style="mask-type:luminance" maskUnits="userSpaceOnUse" x="7" y="14" width="34" height="20">
<path d="M40.56 14H7V33.58H40.56V14Z" fill="white"/>
</mask>
<g mask="url(#mask0_1299_23382)">
<path d="M40.56 14H7V20.27H40.56V14Z" fill="#4497B1"/>
<path d="M40.56 20.27H7V20.66H40.56V20.27Z" fill="#BC0030"/>
<path d="M40.56 20.6602H7V26.9302H40.56V20.6602Z" fill="white"/>
<path d="M40.56 26.9302H7V27.3202H40.56V26.9302Z" fill="#BC0030"/>
<path d="M40.56 27.3198H7V33.5898H40.56V27.3198Z" fill="#50B63F"/>
<mask id="mask1_1299_23382" style="mask-type:luminance" maskUnits="userSpaceOnUse" x="7" y="14" width="34" height="20">
<path d="M40.56 14H7V33.58H40.56V14Z" fill="white"/>
</mask>
<g mask="url(#mask1_1299_23382)">
<path d="M14.8299 17.14C14.8299 18.43 13.7799 19.48 12.4799 19.48C11.1799 19.48 10.1299 18.43 10.1299 17.14C10.1299 15.85 11.1899 14.79 12.4799 14.79C13.7699 14.79 14.8299 15.84 14.8299 17.14Z" fill="white"/>
<path d="M15.5001 17.1402C15.5001 18.2202 14.6201 19.0902 13.5401 19.0902C12.4601 19.0902 11.5801 18.2102 11.5801 17.1402C11.5801 16.0702 12.4601 15.1802 13.5401 15.1802C14.6201 15.1802 15.5001 16.0602 15.5001 17.1402Z" fill="#4497B1"/>
<path d="M18.43 14.79L18.29 15.23L18.51 15.3L18.43 14.79Z" fill="white"/>
<path d="M18.4299 14.79L18.5799 15.23L18.3599 15.3L18.4299 14.79Z" fill="white"/>
<path d="M18.8797 15.1099H18.4097V15.3499L18.8797 15.1099Z" fill="white"/>
<path d="M18.8799 15.1099L18.4999 15.3899L18.3599 15.1999L18.8799 15.1099Z" fill="white"/>
<path d="M17.9897 15.1099L18.3697 15.3899L18.5097 15.1999L17.9897 15.1099Z" fill="white"/>
<path d="M17.9897 15.1099H18.4597V15.3499L17.9897 15.1099Z" fill="white"/>
<path d="M18.7098 15.6399L18.5698 15.1899L18.3398 15.2599L18.7098 15.6399Z" fill="white"/>
<path d="M18.7101 15.6399L18.3301 15.3599L18.4701 15.1699L18.7101 15.6399Z" fill="white"/>
<path d="M18.1597 15.6399L18.5397 15.3599L18.3997 15.1699L18.1597 15.6399Z" fill="white"/>
<path d="M18.1597 15.6399L18.2997 15.1899L18.5297 15.2599L18.1597 15.6399Z" fill="white"/>
<path d="M20.3099 14.79L20.1699 15.23L20.3899 15.3L20.3099 14.79Z" fill="white"/>
<path d="M20.31 14.79L20.46 15.23L20.23 15.3L20.31 14.79Z" fill="white"/>
<path d="M20.76 15.1099H20.29V15.3499L20.76 15.1099Z" fill="white"/>
<path d="M20.7597 15.1099L20.3797 15.3899L20.2397 15.1999L20.7597 15.1099Z" fill="white"/>
<path d="M19.8701 15.1099L20.2501 15.3899L20.3801 15.1999L19.8701 15.1099Z" fill="white"/>
<path d="M19.8701 15.1099H20.3301V15.3499L19.8701 15.1099Z" fill="white"/>
<path d="M20.5897 15.6399L20.4397 15.1899L20.2197 15.2599L20.5897 15.6399Z" fill="white"/>
<path d="M20.59 15.6399L20.21 15.3599L20.35 15.1699L20.59 15.6399Z" fill="white"/>
<path d="M20.04 15.6399L20.42 15.3599L20.28 15.1699L20.04 15.6399Z" fill="white"/>
<path d="M20.04 15.6399L20.18 15.1899L20.41 15.2599L20.04 15.6399Z" fill="white"/>
<path d="M22.1998 14.79L22.0498 15.23L22.2698 15.3L22.1998 14.79Z" fill="white"/>
<path d="M22.1999 14.79L22.3399 15.23L22.1099 15.3L22.1999 14.79Z" fill="white"/>
<path d="M22.6399 15.1099H22.1699V15.3499L22.6399 15.1099Z" fill="white"/>
<path d="M22.6401 15.1099L22.2601 15.3899L22.1201 15.1999L22.6401 15.1099Z" fill="white"/>
<path d="M21.75 15.1099L22.12 15.3899L22.27 15.1999L21.75 15.1099Z" fill="white"/>
<path d="M21.75 15.1099H22.21V15.3499L21.75 15.1099Z" fill="white"/>
<path d="M22.4701 15.6399L22.3201 15.1899L22.1001 15.2599L22.4701 15.6399Z" fill="white"/>
<path d="M22.4698 15.6399L22.0898 15.3599L22.2198 15.1699L22.4698 15.6399Z" fill="white"/>
<path d="M21.9199 15.6399L22.2999 15.3599L22.1599 15.1699L21.9199 15.6399Z" fill="white"/>
<path d="M21.9199 15.6399L22.0599 15.1899L22.2899 15.2599L21.9199 15.6399Z" fill="white"/>
<path d="M16.5497 16.6602L16.4097 17.1102L16.6297 17.1802L16.5497 16.6602Z" fill="white"/>
<path d="M16.55 16.6602L16.7 17.1102L16.48 17.1802L16.55 16.6602Z" fill="white"/>
<path d="M16.9998 16.9902H16.5298V17.2202L16.9998 16.9902Z" fill="white"/>
<path d="M17 16.9902L16.62 17.2602L16.48 17.0702L17 16.9902Z" fill="white"/>
<path d="M16.1099 16.9902L16.4899 17.2602L16.6199 17.0702L16.1099 16.9902Z" fill="white"/>
<path d="M16.1099 16.9902H16.5799V17.2202L16.1099 16.9902Z" fill="white"/>
<path d="M16.83 17.5098L16.69 17.0698L16.46 17.1398L16.83 17.5098Z" fill="white"/>
<path d="M16.8297 17.5098L16.4497 17.2398L16.5897 17.0498L16.8297 17.5098Z" fill="white"/>
<path d="M16.2798 17.5098L16.6598 17.2398L16.5198 17.0498L16.2798 17.5098Z" fill="white"/>
<path d="M16.2798 17.5098L16.4198 17.0698L16.6498 17.1398L16.2798 17.5098Z" fill="white"/>
<path d="M18.43 16.6602L18.29 17.1102L18.51 17.1802L18.43 16.6602Z" fill="white"/>
<path d="M18.4299 16.6602L18.5799 17.1102L18.3599 17.1802L18.4299 16.6602Z" fill="white"/>
<path d="M18.8797 16.9902H18.4097V17.2202L18.8797 16.9902Z" fill="white"/>
<path d="M18.8799 16.9902L18.4999 17.2602L18.3599 17.0702L18.8799 16.9902Z" fill="white"/>
<path d="M17.9897 16.9902L18.3697 17.2602L18.5097 17.0702L17.9897 16.9902Z" fill="white"/>
<path d="M17.9897 16.9902H18.4597V17.2202L17.9897 16.9902Z" fill="white"/>
<path d="M18.7098 17.5098L18.5698 17.0698L18.3398 17.1398L18.7098 17.5098Z" fill="white"/>
<path d="M18.7101 17.5098L18.3301 17.2398L18.4701 17.0498L18.7101 17.5098Z" fill="white"/>
<path d="M18.1597 17.5098L18.5397 17.2398L18.3997 17.0498L18.1597 17.5098Z" fill="white"/>
<path d="M18.1597 17.5098L18.2997 17.0698L18.5297 17.1398L18.1597 17.5098Z" fill="white"/>
<path d="M20.3099 16.6602L20.1699 17.1102L20.3899 17.1802L20.3099 16.6602Z" fill="white"/>
<path d="M20.31 16.6602L20.46 17.1102L20.23 17.1802L20.31 16.6602Z" fill="white"/>
<path d="M20.76 16.9902H20.29V17.2202L20.76 16.9902Z" fill="white"/>
<path d="M20.7597 16.9902L20.3797 17.2602L20.2397 17.0702L20.7597 16.9902Z" fill="white"/>
<path d="M19.8701 16.9902L20.2501 17.2602L20.3801 17.0702L19.8701 16.9902Z" fill="white"/>
<path d="M19.8701 16.9902H20.3301V17.2202L19.8701 16.9902Z" fill="white"/>
<path d="M20.5897 17.5098L20.4397 17.0698L20.2197 17.1398L20.5897 17.5098Z" fill="white"/>
<path d="M20.59 17.5098L20.21 17.2398L20.35 17.0498L20.59 17.5098Z" fill="white"/>
<path d="M20.04 17.5098L20.42 17.2398L20.28 17.0498L20.04 17.5098Z" fill="white"/>
<path d="M20.04 17.5098L20.18 17.0698L20.41 17.1398L20.04 17.5098Z" fill="white"/>
<path d="M22.1998 16.6602L22.0498 17.1102L22.2698 17.1802L22.1998 16.6602Z" fill="white"/>
<path d="M22.1999 16.6602L22.3399 17.1102L22.1099 17.1802L22.1999 16.6602Z" fill="white"/>
<path d="M22.6399 16.9902H22.1699V17.2202L22.6399 16.9902Z" fill="white"/>
<path d="M22.6401 16.9902L22.2601 17.2602L22.1201 17.0702L22.6401 16.9902Z" fill="white"/>
<path d="M21.75 16.9902L22.12 17.2602L22.27 17.0702L21.75 16.9902Z" fill="white"/>
<path d="M21.75 16.9902H22.21V17.2202L21.75 16.9902Z" fill="white"/>
<path d="M22.4701 17.5098L22.3201 17.0698L22.1001 17.1398L22.4701 17.5098Z" fill="white"/>
<path d="M22.4698 17.5098L22.0898 17.2398L22.2198 17.0498L22.4698 17.5098Z" fill="white"/>
<path d="M21.9199 17.5098L22.2999 17.2398L22.1599 17.0498L21.9199 17.5098Z" fill="white"/>
<path d="M21.9199 17.5098L22.0599 17.0698L22.2899 17.1398L21.9199 17.5098Z" fill="white"/>
<path d="M14.6798 18.54L14.5298 18.99L14.7498 19.06L14.6798 18.54Z" fill="white"/>
<path d="M14.6801 18.54L14.8201 18.99L14.6001 19.06L14.6801 18.54Z" fill="white"/>
<path d="M15.1199 18.8701H14.6499V19.1001L15.1199 18.8701Z" fill="white"/>
<path d="M15.1201 18.8701L14.7401 19.1401L14.6001 18.9501L15.1201 18.8701Z" fill="white"/>
<path d="M14.23 18.8701L14.61 19.1401L14.75 18.9501L14.23 18.8701Z" fill="white"/>
<path d="M14.23 18.8701H14.7V19.1001L14.23 18.8701Z" fill="white"/>
<path d="M14.9501 19.3902L14.8101 18.9502L14.5801 19.0202L14.9501 19.3902Z" fill="white"/>
<path d="M14.9498 19.3902L14.5698 19.1202L14.7098 18.9302L14.9498 19.3902Z" fill="white"/>
<path d="M14.3999 19.3902L14.7799 19.1202L14.6399 18.9302L14.3999 19.3902Z" fill="white"/>
<path d="M14.3999 19.3902L14.5399 18.9502L14.7699 19.0202L14.3999 19.3902Z" fill="white"/>
<path d="M16.5497 18.54L16.4097 18.99L16.6297 19.06L16.5497 18.54Z" fill="white"/>
<path d="M16.55 18.54L16.7 18.99L16.48 19.06L16.55 18.54Z" fill="white"/>
<path d="M16.9998 18.8701H16.5298V19.1001L16.9998 18.8701Z" fill="white"/>
<path d="M17 18.8701L16.62 19.1401L16.48 18.9501L17 18.8701Z" fill="white"/>
<path d="M16.1099 18.8701L16.4899 19.1401L16.6199 18.9501L16.1099 18.8701Z" fill="white"/>
<path d="M16.1099 18.8701H16.5799V19.1001L16.1099 18.8701Z" fill="white"/>
<path d="M16.83 19.3902L16.69 18.9502L16.46 19.0202L16.83 19.3902Z" fill="white"/>
<path d="M16.8297 19.3902L16.4497 19.1202L16.5897 18.9302L16.8297 19.3902Z" fill="white"/>
<path d="M16.2798 19.3902L16.6598 19.1202L16.5198 18.9302L16.2798 19.3902Z" fill="white"/>
<path d="M16.2798 19.3902L16.4198 18.9502L16.6498 19.0202L16.2798 19.3902Z" fill="white"/>
<path d="M18.43 18.54L18.29 18.99L18.51 19.06L18.43 18.54Z" fill="white"/>
<path d="M18.4299 18.54L18.5799 18.99L18.3599 19.06L18.4299 18.54Z" fill="white"/>
<path d="M18.8797 18.8701H18.4097V19.1001L18.8797 18.8701Z" fill="white"/>
<path d="M18.8799 18.8701L18.4999 19.1401L18.3599 18.9501L18.8799 18.8701Z" fill="white"/>
<path d="M17.9897 18.8701L18.3697 19.1401L18.5097 18.9501L17.9897 18.8701Z" fill="white"/>
<path d="M17.9897 18.8701H18.4597V19.1001L17.9897 18.8701Z" fill="white"/>
<path d="M18.7098 19.3902L18.5698 18.9502L18.3398 19.0202L18.7098 19.3902Z" fill="white"/>
<path d="M18.7101 19.3902L18.3301 19.1202L18.4701 18.9302L18.7101 19.3902Z" fill="white"/>
<path d="M18.1597 19.3902L18.5397 19.1202L18.3997 18.9302L18.1597 19.3902Z" fill="white"/>
<path d="M18.1597 19.3902L18.2997 18.9502L18.5297 19.0202L18.1597 19.3902Z" fill="white"/>
<path d="M20.3099 18.54L20.1699 18.99L20.3899 19.06L20.3099 18.54Z" fill="white"/>
<path d="M20.31 18.54L20.46 18.99L20.23 19.06L20.31 18.54Z" fill="white"/>
<path d="M20.76 18.8701H20.29V19.1001L20.76 18.8701Z" fill="white"/>
<path d="M20.7597 18.8701L20.3797 19.1401L20.2397 18.9501L20.7597 18.8701Z" fill="white"/>
<path d="M19.8701 18.8701L20.2501 19.1401L20.3801 18.9501L19.8701 18.8701Z" fill="white"/>
<path d="M19.8701 18.8701H20.3301V19.1001L19.8701 18.8701Z" fill="white"/>
<path d="M20.5897 19.3902L20.4397 18.9502L20.2197 19.0202L20.5897 19.3902Z" fill="white"/>
<path d="M20.59 19.3902L20.21 19.1202L20.35 18.9302L20.59 19.3902Z" fill="white"/>
<path d="M20.04 19.3902L20.42 19.1202L20.28 18.9302L20.04 19.3902Z" fill="white"/>
<path d="M20.04 19.3902L20.18 18.9502L20.41 19.0202L20.04 19.3902Z" fill="white"/>
<path d="M22.1998 18.54L22.0498 18.99L22.2698 19.06L22.1998 18.54Z" fill="white"/>
<path d="M22.1999 18.54L22.3399 18.99L22.1099 19.06L22.1999 18.54Z" fill="white"/>
<path d="M22.6399 18.8701H22.1699V19.1001L22.6399 18.8701Z" fill="white"/>
<path d="M22.6401 18.8701L22.2601 19.1401L22.1201 18.9501L22.6401 18.8701Z" fill="white"/>
<path d="M21.75 18.8701L22.12 19.1401L22.27 18.9501L21.75 18.8701Z" fill="white"/>
<path d="M21.75 18.8701H22.21V19.1001L21.75 18.8701Z" fill="white"/>
<path d="M22.4701 19.3902L22.3201 18.9502L22.1001 19.0202L22.4701 19.3902Z" fill="white"/>
<path d="M22.4698 19.3902L22.0898 19.1202L22.2198 18.9302L22.4698 19.3902Z" fill="white"/>
<path d="M21.9199 19.3902L22.2999 19.1202L22.1599 18.9302L21.9199 19.3902Z" fill="white"/>
<path d="M21.9199 19.3902L22.0599 18.9502L22.2899 19.0202L21.9199 19.3902Z" fill="white"/>
</g>
</g>
</g>
<defs>
<clipPath id="clip0_1299_23382">
<rect width="33.56" height="19.58" fill="white" transform="translate(7 14)"/>
</clipPath>
</defs>
</svg>
