<svg width="24" height="24" viewBox="0 0 24 24" fill="none" xmlns="http://www.w3.org/2000/svg">
<g clip-path="url(#clip0_32_52366)">
<path d="M5.58333 1V3.75M18.4167 1V3.75M1 20.25V6.5C1 5.77065 1.28973 5.07118 1.80546 4.55546C2.32118 4.03973 3.02065 3.75 3.75 3.75H20.25C20.9793 3.75 21.6788 4.03973 22.1945 4.55546C22.7103 5.07118 23 5.77065 23 6.5V20.25M1 20.25C1 20.9793 1.28973 21.6788 1.80546 22.1945C2.32118 22.7103 3.02065 23 3.75 23H20.25C20.9793 23 21.6788 22.7103 22.1945 22.1945C22.7103 21.6788 23 20.9793 23 20.25M1 20.25V11.0833C1 10.354 1.28973 9.65451 1.80546 9.13879C2.32118 8.62306 3.02065 8.33333 3.75 8.33333H20.25C20.9793 8.33333 21.6788 8.62306 22.1945 9.13879C22.7103 9.65451 23 10.354 23 11.0833V20.25" stroke="#04CBF5" stroke-width="1.5" stroke-linecap="round" stroke-linejoin="round"/>
</g>
<defs>
<clipPath id="clip0_32_52366">
<rect width="24" height="24" fill="white"/>
</clipPath>
</defs>
</svg>
