<svg width="80" height="80" viewBox="0 0 80 80" fill="none" xmlns="http://www.w3.org/2000/svg">
<g opacity="0.8">
<path d="M1.41548 63.9078C1.28004 63.909 1.14626 63.8797 1.02371 63.822C0.901147 63.7643 0.792936 63.6798 0.707503 63.5747C0.61546 63.4808 0.544501 63.3683 0.499074 63.2449C0.453647 63.1215 0.434988 62.9899 0.444171 62.8587C0.453354 62.7276 0.490106 62.5998 0.552283 62.4839C0.61446 62.368 0.700539 62.2667 0.80477 62.1865L27.8463 38.8652C29.1436 37.8544 30.7411 37.3054 32.3857 37.3054C34.0303 37.3054 35.6278 37.8544 36.925 38.8652L48.919 49.1655C49.0214 49.2469 49.1055 49.3488 49.1664 49.4646C49.2274 49.5804 49.2637 49.7077 49.2729 49.8382C49.282 49.9687 49.2638 50.0997 49.2196 50.2229C49.1754 50.346 49.106 50.4587 49.016 50.5536C48.9358 50.6579 48.8346 50.7439 48.7187 50.806C48.6029 50.8682 48.4751 50.9051 48.3439 50.9143C48.2127 50.9235 48.081 50.9048 47.9575 50.8593C47.8341 50.8139 47.7217 50.7429 47.6278 50.6508L35.6758 40.3922C34.7188 39.6493 33.5416 39.246 32.3301 39.246C31.1186 39.246 29.9417 39.6493 28.9847 40.3922L1.98485 63.6719C1.82576 63.8102 1.62578 63.893 1.41548 63.9078Z" fill="white"/>
<path d="M40.1585 43.0853L38.9228 41.6972L62.7858 21.4021L64.0072 22.7903L40.1585 43.0853ZM24.1111 42.8771L0.512207 22.8042L1.74753 21.416L25.3465 41.4889L24.1111 42.8771Z" fill="white"/>
<path d="M48.6829 64.5049H2.67908C1.96852 64.5049 1.28702 64.2227 0.784575 63.7203C0.282133 63.2178 0 62.5363 0 61.8258V21.083L8.24566 15.5303L9.30068 17.0989L1.88772 22.0963V61.8258C1.88772 61.9297 1.90829 62.0326 1.94805 62.1286C1.98781 62.2246 2.04606 62.3118 2.11954 62.3853C2.19301 62.4588 2.28009 62.517 2.37609 62.5568C2.47209 62.5966 2.57517 62.617 2.67908 62.617H48.6829V64.5049Z" fill="white"/>
<path d="M64.6752 40.4061H62.7736V22.0961L55.6382 17.2652L56.6932 15.6965L64.6752 21.0826V40.4061Z" fill="white"/>
<path d="M38.8405 5.92405L33.2878 2.21765C32.9917 2.01411 32.6406 1.90518 32.2813 1.90518C31.9219 1.90518 31.5709 2.01411 31.2747 2.21765L25.722 5.92405L24.667 4.35541L30.2197 0.649011C30.8318 0.226358 31.5581 0 32.3019 0C33.0458 0 33.7721 0.226358 34.3842 0.649011L39.9369 4.35541L38.8405 5.92405Z" fill="white"/>
<path d="M9.02245 29.3564C8.72424 29.3564 8.43824 29.2379 8.22737 29.027C8.0165 28.8162 7.89795 28.5302 7.89795 28.2319V4.02222H57.275V27.7322C57.2925 27.8894 57.2767 28.0486 57.2286 28.1992C57.1804 28.3499 57.1012 28.4887 56.9957 28.6066C56.8903 28.7245 56.7612 28.8188 56.6168 28.8834C56.4724 28.948 56.3158 28.9814 56.1576 28.9814C55.9994 28.9814 55.8431 28.948 55.6987 28.8834C55.5543 28.8188 55.4249 28.7245 55.3195 28.6066C55.214 28.4887 55.1348 28.3499 55.0866 28.1992C55.0385 28.0486 55.0227 27.8894 55.0402 27.7322V6.25715H10.1327V28.2319C10.1346 28.3789 10.1074 28.5248 10.0524 28.6612C9.99741 28.7975 9.91575 28.9216 9.81245 29.0262C9.70914 29.1308 9.58614 29.2139 9.45049 29.2705C9.31484 29.3272 9.16946 29.3564 9.02245 29.3564Z" fill="white"/>
<path d="M46.7532 13.5171H17.6016V15.8076H46.7532V13.5171Z" fill="white"/>
<path d="M46.7532 19.6946H17.6016V21.9851H46.7532V19.6946Z" fill="white"/>
<path d="M46.7532 25.886H17.6016V28.1765H46.7532V25.886Z" fill="white"/>
<path d="M62.8977 73.4027C59.5252 73.3945 56.2311 72.3869 53.431 70.5073C50.6308 68.6276 48.4504 65.9602 47.1656 62.8421C45.8807 59.7239 45.5489 56.295 46.2119 52.9883C46.8748 49.6816 48.5029 46.6456 50.8905 44.2637C53.2781 41.8819 56.3179 40.2612 59.6262 39.6063C62.9345 38.9514 66.363 39.2916 69.478 40.5841C72.593 41.8766 75.255 44.0633 77.1278 46.868C79.0006 49.6727 80.0001 52.9695 80.0001 56.342C79.9983 58.5855 79.5542 60.8065 78.6936 62.8783C77.833 64.9501 76.5725 66.832 74.9842 68.4164C73.396 70.0009 71.5112 71.2567 69.4373 72.1123C67.3634 72.9678 65.1411 73.4064 62.8977 73.4027ZM62.8977 41.4748C59.9655 41.4748 57.0993 42.3442 54.6612 43.9733C52.2231 45.6024 50.3228 47.9178 49.2007 50.6269C48.0786 53.3359 47.7851 56.3169 48.3572 59.1928C48.9292 62.0687 50.3412 64.7103 52.4146 66.7838C54.488 68.8572 57.1296 70.2692 60.0055 70.8413C62.8814 71.4133 65.8624 71.1197 68.5714 69.9975C71.2804 68.8754 73.5958 66.9752 75.2249 64.5371C76.8539 62.0991 77.7236 59.2327 77.7236 56.3004C77.709 52.3768 76.1409 48.6186 73.3626 45.8481C70.5842 43.0775 66.8214 41.52 62.8977 41.5164V41.4748Z" fill="white"/>
<path d="M61.5514 62.7696L55.4297 56.6478C55.3083 56.5482 55.2091 56.4243 55.1385 56.2841C55.068 56.1439 55.0276 55.9905 55.0199 55.8337C55.0122 55.677 55.0373 55.5203 55.0938 55.3739C55.1503 55.2275 55.237 55.0945 55.348 54.9835C55.459 54.8725 55.592 54.786 55.7384 54.7295C55.8848 54.673 56.0412 54.6478 56.198 54.6555C56.3547 54.6632 56.5082 54.7036 56.6484 54.7742C56.7886 54.8448 56.9124 54.9439 57.012 55.0652L61.5514 59.6046L70.4498 50.7064C70.6596 50.4984 70.9433 50.3823 71.2388 50.3836C71.5342 50.3849 71.817 50.5035 72.025 50.7133C72.233 50.9232 72.3493 51.2071 72.348 51.5025C72.3467 51.798 72.2281 52.0809 72.0182 52.2889L61.5514 62.7696Z" fill="white"/>
</g>
</svg>
