<svg width="80" height="80" viewBox="0 0 80 80" fill="none" xmlns="http://www.w3.org/2000/svg">
<g opacity="0.8">
<path d="M35.9893 73.9899C16.1389 73.9899 0 57.3961 0 36.995C0 16.5939 16.1389 0 35.9893 0C55.8396 0 71.9905 16.5939 71.9905 36.995C71.9925 40.5457 71.5009 44.0795 70.5298 47.4949L68.6861 46.9562C69.612 43.717 70.0795 40.3639 70.0749 36.995C70.0749 17.6475 54.786 1.91571 35.9893 1.91571C17.1925 1.91571 1.90358 17.6475 1.90358 36.995C1.88625 43.8515 3.85303 50.5667 7.56661 56.3305C9.47024 55.6601 14.8698 53.7923 19.0482 52.5232V52.1522L22.8315 49.9851L27.2852 48.1174C27.2134 47.1118 27.1416 46.1539 27.0697 45.5074C26.3973 45.0626 25.8216 44.4866 25.3772 43.8138C24.9328 43.1411 24.6289 42.3854 24.4837 41.5924L24.1365 38.5275C23.61 38.5454 23.095 38.3708 22.6879 38.0366C22.4609 37.8508 22.2731 37.6218 22.1354 37.3628C21.9977 37.1039 21.9128 36.8201 21.8856 36.528L21.2152 29.8474C21.2089 29.7717 21.2089 29.6956 21.2152 29.6199C21.2165 29.124 21.3832 28.6428 21.689 28.2524C21.9948 27.862 22.4222 27.5849 22.9033 27.4649L22.6879 25.5254L22.604 24.8189C22.604 24.6274 22.604 24.4598 22.604 24.2682V24.1965C22.604 23.5859 22.4724 22.7956 22.4724 21.8977C22.406 20.5597 22.621 19.2226 23.1036 17.9729C23.5861 16.7232 24.3255 15.5885 25.2739 14.6423C28.1581 12.0348 31.9484 10.6597 35.8336 10.8112C39.7361 10.66 43.5416 12.0489 46.4292 14.6783C47.3711 15.6126 48.1046 16.7358 48.5812 17.9739C49.0579 19.212 49.267 20.537 49.1949 21.8617C49.1949 22.7597 49.123 23.5619 49.0632 24.1845C49.0632 24.4 49.0632 24.6035 49.0632 24.7711C48.9674 25.693 48.8596 26.579 48.7639 27.4649C49.246 27.583 49.6746 27.8595 49.9808 28.2503C50.2869 28.6411 50.4529 29.1235 50.452 29.6199C50.452 29.6917 50.452 29.7756 50.452 29.8474L49.7696 36.528C49.7472 36.8212 49.6644 37.1066 49.5263 37.3662C49.3883 37.6258 49.198 37.8541 48.9674 38.0366C48.5572 38.3652 48.0443 38.539 47.5188 38.5275C47.411 39.5571 47.2913 40.5867 47.1716 41.6163C47.0234 42.4051 46.718 43.1562 46.2738 43.8246C45.8295 44.4931 45.2554 45.0653 44.5855 45.5074C44.5136 46.1898 44.4418 47.1955 44.37 48.2491L48.3927 49.9373L51.8049 51.8768L50.859 53.541L48.285 52.0683L40.443 71.799C43.6823 71.3758 46.8412 70.476 49.8174 69.129L50.6077 70.8771C46.017 72.9586 41.0297 74.0205 35.9893 73.9899ZM32.1222 71.8588C34.3083 72.1103 36.5138 72.1463 38.707 71.9665L38.2641 71.787L45.8905 52.6311L44.0347 51.4338C44.0347 52.0804 43.927 52.631 43.8672 53.0261V53.4092L35.1751 60.1139L27.7762 53.3614V53.0141C27.7762 52.5951 27.6564 51.9606 27.5965 51.2303L25.4175 52.6669L32.8764 71.6792L32.1222 71.8588ZM23.7414 69.7157C26.0166 70.6254 28.3856 71.2799 30.8052 71.6672L23.6217 53.2535C23.035 53.3852 22.1371 53.6248 21.0595 53.948L20.9877 63.8613L25.0823 65.693L23.7414 69.7157ZM8.72791 57.9708C12.148 62.6859 16.7024 66.4621 21.9695 68.9496L22.6879 66.7465L19.0123 65.0943L19.0841 54.5227C15.7079 55.5523 11.5415 56.9531 8.68004 57.9708H8.72791ZM29.584 52.3438L35.2828 57.5398L42.0713 52.2958C42.1551 51.4697 42.2508 50.1288 42.3346 48.8238C42.4544 47.1955 42.5622 45.6511 42.6699 44.837V44.406L43.0291 44.1665C43.545 43.8755 43.9972 43.484 44.3592 43.0151C44.7211 42.5462 44.9853 42.0095 45.1362 41.4367C45.3039 39.9521 45.4714 38.5155 45.6271 37.0669L45.8426 35.1154C45.1888 35.4523 44.4701 35.6442 43.7354 35.678H42.0713C41.4175 35.6758 40.7711 35.5398 40.1719 35.2783C39.5728 35.0168 39.0334 34.6353 38.5873 34.1575C38.0051 33.5526 37.5923 32.8054 37.39 31.9906H34.5525C34.2843 33.0156 33.6916 33.9263 32.8629 34.5866C32.0343 35.2469 31.0142 35.6214 29.9552 35.6541H28.279C27.6243 35.6503 26.9774 35.5124 26.3782 35.2488C25.7789 34.9852 25.2402 34.6015 24.795 34.1215C24.3632 33.671 24.028 33.137 23.8098 32.5524C23.5915 31.9677 23.495 31.3447 23.5259 30.7214C23.5259 30.458 23.5259 30.1826 23.5259 29.9072V29.7397C23.5259 29.62 23.5259 29.5002 23.5259 29.3685H23.4062C23.3671 29.3572 23.3256 29.3572 23.2865 29.3685C23.2145 29.3775 23.1487 29.4133 23.102 29.4688C23.0554 29.5243 23.0315 29.5954 23.035 29.6678L23.7055 36.3484C23.7075 36.3898 23.7182 36.4304 23.7368 36.4675C23.7553 36.5046 23.7814 36.5375 23.8133 36.564C23.8433 36.5779 23.8759 36.5852 23.909 36.5852C23.9421 36.5852 23.9748 36.5779 24.0048 36.564C24.0343 36.5595 24.0625 36.5487 24.0873 36.5321C24.1121 36.5156 24.133 36.4938 24.1485 36.4683L25.5732 34.9238L26.3035 41.353C26.5625 42.417 27.2232 43.3395 28.1473 43.9271L33.1158 46.4892H38.7549V48.4048H32.649L29.0572 46.525C29.0572 47.2194 29.165 48.0097 29.2129 48.8238C29.3565 50.1767 29.4523 51.5177 29.5361 52.3438H29.584ZM45.9862 35.0674L47.3391 36.516C47.3839 36.5643 47.4424 36.5978 47.5068 36.6119C47.5347 36.6257 47.5654 36.6328 47.5966 36.6328C47.6277 36.6328 47.6584 36.6257 47.6864 36.6119C47.7174 36.5873 47.743 36.5563 47.7615 36.5213C47.78 36.4863 47.7911 36.4479 47.7941 36.4083L48.1652 32.8166C47.9548 33.3086 47.6635 33.7618 47.3033 34.1575C46.904 34.537 46.4423 34.8449 45.9384 35.0674H45.9862ZM39.3176 29.8594C39.3176 30.1707 39.3176 30.5059 39.3176 30.8411C39.3021 31.2098 39.361 31.5779 39.4905 31.9235C39.6201 32.269 39.8178 32.5849 40.0718 32.8525C40.3401 33.1404 40.6644 33.3706 41.0246 33.5291C41.3848 33.6876 41.7735 33.7711 42.167 33.7744H43.7833C44.6013 33.7307 45.37 33.3699 45.9264 32.7687C46.1595 32.5209 46.341 32.2292 46.4603 31.9106C46.5795 31.592 46.6341 31.2529 46.6208 30.913C46.6208 30.6736 46.6208 30.446 46.6208 30.2185L46.501 30.2904V29.9432C44.154 29.188 41.6336 29.1589 39.2697 29.8594H39.3176ZM25.5492 29.8594V30.0271C25.5492 30.3024 25.5492 30.5657 25.5492 30.8411C25.5312 31.2109 25.5877 31.5806 25.7152 31.9282C25.8427 32.2757 26.0387 32.5941 26.2916 32.8645C26.5634 33.1511 26.8899 33.3804 27.2518 33.5387C27.6138 33.697 28.0037 33.7813 28.3987 33.7864H30.003C30.755 33.7681 31.4709 33.4602 32.0017 32.9272C32.5325 32.3942 32.8373 31.6771 32.8525 30.925V29.9791C30.4722 29.1874 27.9062 29.1456 25.5014 29.8594H25.5492ZM34.7202 30.0988H37.39C37.39 30.003 37.39 29.8953 37.39 29.7995C37.4008 29.5135 37.4369 29.2291 37.4978 28.9495L37.5936 28.4107L38.1084 28.2312C40.413 27.4219 42.888 27.2239 45.2919 27.6565V21.0597C45.2967 20.8726 45.2645 20.6863 45.1973 20.5116C45.13 20.3369 45.0291 20.1773 44.9001 20.0416C44.7712 19.906 44.6167 19.797 44.4456 19.7211C44.2745 19.6452 44.0902 19.6036 43.903 19.5989H27.6804C27.3014 19.6084 26.9415 19.7671 26.6792 20.0407C26.4168 20.3143 26.2732 20.6807 26.2796 21.0597V27.6923C28.8334 27.2143 31.4691 27.4377 33.9061 28.3389L34.4209 28.5305L34.5167 29.0812C34.568 29.3459 34.6 29.614 34.6124 29.8834L34.7202 30.0988ZM48.4407 29.4762C48.4407 29.56 48.4407 29.6439 48.4407 29.7158V29.6199C48.4363 29.5689 48.4198 29.5196 48.3927 29.4762H48.4407ZM27.2613 17.6834H43.927C44.6686 17.6868 45.3877 17.9387 45.9694 18.3988C46.551 18.8589 46.9616 19.5006 47.1356 20.2215C46.963 18.6236 46.2291 17.1387 45.0644 16.0312C42.522 13.7653 39.2008 12.5724 35.7977 12.7028C32.4118 12.5719 29.1057 13.7511 26.5669 15.9952C25.7398 16.7615 25.1287 17.7319 24.795 18.8089C25.099 18.4588 25.474 18.1773 25.8951 17.9833C26.3162 17.7892 26.7737 17.687 27.2374 17.6834H27.2613Z" fill="white"/>
<path d="M67.4169 78.0367H61.6581L61.3348 74.2174C60.431 73.9468 59.5629 73.569 58.7488 73.0921L55.8994 75.4866L51.8167 71.4638L54.331 68.5425C53.8893 67.7299 53.5514 66.8652 53.3252 65.9685L49.5898 65.6692V59.9583L53.4689 59.647C53.7349 58.7604 54.1131 57.9115 54.5943 57.1208L52.1998 54.3072L56.2825 50.2845L59.2397 52.7509C60.0722 52.3069 60.9571 51.9691 61.8736 51.7452L62.1729 48.0696H67.9317L68.255 51.8889C69.1606 52.1544 70.0294 52.5325 70.841 53.0142L73.6904 50.6197L77.7731 54.6425L75.2588 57.5638C75.7004 58.3764 76.0384 59.2411 76.2645 60.1378L80 60.4371V66.1959L76.1209 66.5072C75.8549 67.3938 75.4767 68.2427 74.9955 69.0334L77.39 71.8469L73.3193 75.8696L70.3501 73.4034C69.5144 73.8403 68.6304 74.1777 67.7162 74.409L67.4169 78.0367ZM63.418 76.1211H65.645L65.9323 72.7688L66.6506 72.6371C67.8171 72.4146 68.9356 71.989 69.955 71.3799L70.5417 71.0209L73.2116 73.2357L74.78 71.6912L72.577 69.1291L72.996 68.5185C73.6648 67.5548 74.148 66.4748 74.4207 65.3339L74.5884 64.6634L78.0604 64.3761V62.2091L74.6602 61.9218L74.5285 61.2153C74.3025 60.0611 73.8684 58.9577 73.2475 57.9589L72.8883 57.3602L75.1271 54.7502L73.5588 53.2058L70.9608 55.3728L70.3621 54.9777C69.3759 54.3102 68.2765 53.8274 67.1176 53.5529L66.4351 53.3974L66.1478 49.9732H63.9089L63.6336 53.3255L62.9152 53.4572C61.7444 53.6777 60.6216 54.1033 59.5988 54.7144L59.0242 55.0734L56.3663 52.8466L54.7859 54.4031L56.9888 56.9652L56.5698 57.5638C55.904 58.5351 55.4174 59.6176 55.1331 60.7604L54.9775 61.4309L51.5055 61.7182V63.8852L54.9056 64.1607L55.0373 64.879C55.2633 66.0332 55.6974 67.1366 56.3184 68.1355L56.6895 68.7221L54.4387 71.3441L56.0071 72.8885L58.6052 70.7216L59.2038 71.1166C60.1907 71.7804 61.29 72.2592 62.4483 72.5294L63.1307 72.697L63.418 76.1211ZM64.7949 69.7877C63.4583 69.7711 62.1565 69.3598 61.0532 68.6052C59.9499 67.8506 59.0945 66.7865 58.5944 65.5469C58.0943 64.3073 57.972 62.9475 58.2428 61.6386C58.5137 60.3296 59.1657 59.1301 60.1166 58.1908C61.0676 57.2515 62.275 56.6143 63.5872 56.3596C64.8994 56.1048 66.2575 56.2439 67.4909 56.7591C68.7243 57.2744 69.7777 58.1428 70.5187 59.2553C71.2596 60.3678 71.655 61.6745 71.6551 63.0112C71.6424 64.819 70.913 66.548 69.6268 67.8185C68.3406 69.089 66.6028 69.7972 64.7949 69.7877ZM64.7949 58.1505C63.8373 58.167 62.9059 58.466 62.1176 59.0101C61.3293 59.5542 60.7194 60.3189 60.3643 61.2085C60.0092 62.098 59.9248 63.0725 60.1217 64.0098C60.3186 64.9472 60.7881 65.8055 61.4711 66.477C62.1541 67.1484 63.0203 67.603 63.9608 67.7838C64.9014 67.9647 65.8743 67.8637 66.7577 67.4934C67.641 67.1232 68.3953 66.5003 68.9258 65.7028C69.4563 64.9054 69.7394 63.969 69.7395 63.0112C69.7175 61.7177 69.1857 60.4852 68.2597 59.5817C67.3338 58.6782 66.0886 58.1768 64.7949 58.1864V58.1505Z" fill="white"/>
</g>
</svg>
