<svg width="80" height="80" viewBox="0 0 80 80" fill="none" xmlns="http://www.w3.org/2000/svg">
<g opacity="0.8">
<path d="M49.3094 36.3564H47.4473V63.2514H49.3094V36.3564Z" fill="white"/>
<path d="M32.5745 36.3564H30.7124V63.2514H32.5745V36.3564Z" fill="white"/>
<path d="M40.0109 14.8847C36.1239 14.8847 33.5054 11.8937 33.5054 7.44808C33.5054 3.00244 36.1239 0 40.0109 0C43.898 0 46.5281 2.9908 46.5281 7.44808C46.5281 11.9054 43.9096 14.8847 40.0109 14.8847ZM40.0109 1.86202C36.5778 1.86202 35.3558 4.86449 35.3558 7.44808C35.3558 10.0317 36.5196 13.0226 40.0109 13.0226C43.5023 13.0226 44.6661 10.02 44.6661 7.44808C44.6661 4.87613 43.4441 1.86202 40.0109 1.86202Z" fill="white"/>
<path d="M40.9417 46.5164H39.0796V63.2632H40.9417V46.5164Z" fill="white"/>
<path d="M31.0494 32.027C30.8551 32.0271 30.6664 31.9616 30.514 31.8409C30.4148 31.7703 30.3306 31.6807 30.2663 31.5774C30.202 31.474 30.1588 31.3589 30.1393 31.2387C30.1198 31.1185 30.1244 30.9957 30.1528 30.8773C30.1812 30.7589 30.2327 30.6474 30.3046 30.5491L31.4684 28.9896C31.7251 28.5745 32.1126 28.2567 32.5698 28.086C33.027 27.9154 33.5279 27.9017 33.9937 28.047L37.648 28.7336C38.6489 28.6172 44.1419 28.0702 47.9824 29.2805L47.7031 26.5107C47.6804 26.2654 47.7559 26.0211 47.9129 25.8313C48.07 25.6416 48.2958 25.5218 48.541 25.4982C48.6627 25.4854 48.7859 25.4971 48.903 25.5324C49.0202 25.5678 49.1292 25.6263 49.2235 25.7043C49.3178 25.7824 49.3956 25.8784 49.4523 25.9869C49.5089 26.0954 49.5434 26.2142 49.5536 26.3362L49.9841 30.6305C50.0001 30.7974 49.9707 30.9656 49.899 31.1172C49.8273 31.2688 49.7159 31.3981 49.5768 31.4917C49.4334 31.5803 49.2682 31.6272 49.0997 31.6272C48.9311 31.6272 48.7659 31.5803 48.6225 31.4917C45.1311 29.6413 37.811 30.5375 37.7411 30.5491C37.6445 30.5613 37.5468 30.5613 37.4502 30.5491L33.5631 29.8159C33.4977 29.8277 33.4307 29.8277 33.3653 29.8159C33.2955 29.8159 33.1093 29.9323 32.9813 30.0952L31.8175 31.6547C31.7291 31.7742 31.6131 31.8705 31.4793 31.9354C31.3455 32.0002 31.198 32.0317 31.0494 32.027Z" fill="white"/>
<path d="M51.9628 37.3923H45.0499C44.1991 37.3472 43.3579 37.1907 42.5479 36.9267H42.4199L37.0781 37.3573H28.0239C27.4377 37.3644 26.8564 37.249 26.3174 37.0185C25.7783 36.7881 25.2933 36.4476 24.8933 36.019C24.6174 35.704 24.414 35.3323 24.2974 34.9302C24.1807 34.528 24.1538 34.1051 24.2183 33.6914L26.1502 22.9031C26.8251 19.5864 30.5144 16.8049 34.2036 16.8049H47.1215C48.8277 16.8434 50.4685 17.4685 51.7678 18.5749C53.0671 19.6813 53.9456 21.2016 54.2555 22.8798L55.7219 33.7031C55.7875 34.0898 55.7673 34.4862 55.6627 34.8643C55.5581 35.2424 55.3717 35.5929 55.1167 35.891C54.7269 36.3499 54.2444 36.721 53.7007 36.9797C53.1571 37.2385 52.5647 37.3792 51.9628 37.3923ZM42.2802 34.8552C43.1626 35.2232 44.0971 35.4509 45.0499 35.5301H51.9628C52.2928 35.5299 52.6193 35.4617 52.9217 35.3295C53.224 35.1974 53.4958 35.0042 53.7201 34.7621C53.8103 34.6698 53.8765 34.5568 53.913 34.4331C53.9495 34.3094 53.9552 34.1785 53.9296 34.0521L52.4749 23.2407C52.2392 21.994 51.5844 20.8654 50.6192 20.042C49.6539 19.2186 48.4362 18.7499 47.168 18.7135H34.2036C31.3872 18.7135 28.4777 20.8548 27.9773 23.2988L26.0571 34.0289C26.0339 34.1726 26.0439 34.3195 26.0862 34.4587C26.1286 34.5979 26.2022 34.7255 26.3014 34.8319C26.5252 35.0603 26.7936 35.2402 27.09 35.3604C27.3863 35.4805 27.7042 35.5383 28.0239 35.5301H36.9966L39.6268 35.3091C37.5552 33.994 33.866 32.004 30.9682 32.2833C30.8235 32.299 30.6772 32.2797 30.5415 32.227C30.4058 32.1744 30.2847 32.0899 30.1885 31.9807C30.0909 31.8714 30.02 31.7408 29.9817 31.5994C29.9433 31.458 29.9384 31.3096 29.9674 31.1659L30.9915 26.5108C31.0202 26.3871 31.0731 26.2705 31.1474 26.1676C31.2217 26.0647 31.3159 25.9776 31.4242 25.9115C31.5326 25.8453 31.6531 25.8014 31.7786 25.7825C31.9041 25.7635 32.0322 25.7698 32.1553 25.8009C32.2798 25.8281 32.3974 25.8803 32.5012 25.9542C32.605 26.0281 32.6927 26.1223 32.7591 26.2311C32.8254 26.3399 32.869 26.4609 32.8873 26.587C32.9055 26.7131 32.898 26.8416 32.8652 26.9647L32.0855 30.4561C36.5078 30.6888 41.5587 34.3315 42.2802 34.8552Z" fill="white"/>
<path d="M66.0448 45.5737H64.1827V43.7233H65.1138V26.6972C65.1062 25.6234 64.8864 24.5618 64.4671 23.5732C64.0477 22.5847 63.4371 21.6888 62.6703 20.9371C61.9034 20.1854 60.9955 19.5929 59.9988 19.1933C59.0021 18.7937 57.9363 18.5952 56.8626 18.609H53.9531V16.7468H56.8626C59.5212 16.7282 62.0784 17.7658 63.9725 19.6316C65.8666 21.4973 66.9427 24.0386 66.9643 26.6972V44.5962C66.9722 44.7217 66.9543 44.8476 66.9117 44.966C66.8691 45.0843 66.8025 45.1925 66.7164 45.2842C66.6302 45.3758 66.5262 45.4489 66.4106 45.4987C66.2951 45.5485 66.1706 45.574 66.0448 45.5737Z" fill="white"/>
<path d="M62.321 63.2166H60.459V29.7347C60.459 29.4877 60.5571 29.2509 60.7317 29.0763C60.9063 28.9017 61.1431 28.8037 61.39 28.8037H63.1938V30.6657H62.321V63.2166Z" fill="white"/>
<path d="M55.7805 45.5852H53.9185V63.263H55.7805V45.5852Z" fill="white"/>
<path d="M54.8606 14.8849C51.5206 14.8849 49.2744 12.2665 49.2744 8.3678C49.2744 4.46913 51.5206 1.8623 54.8606 1.8623C58.2007 1.8623 60.4351 4.48077 60.4351 8.3678C60.4351 12.2548 58.189 14.8849 54.8606 14.8849ZM54.8606 3.72433C52.1141 3.72433 51.1365 6.12171 51.1365 8.37945C51.1365 10.6372 52.1141 13.0346 54.8606 13.0346C57.6071 13.0346 58.5731 10.6372 58.5731 8.37945C58.5731 6.12171 57.5955 3.72433 54.8606 3.72433Z" fill="white"/>
<path d="M79.0556 46.5045H77.2053V44.5959H78.1363V27.8607C78.1363 23.962 75.1454 21.3435 70.6881 21.3435H67.895V19.4932H70.6881C76.1695 19.4932 79.9984 22.9844 79.9984 27.8607V45.5269C80.0065 45.6545 79.988 45.7822 79.944 45.9021C79.8999 46.0221 79.8314 46.1316 79.7427 46.2236C79.654 46.3156 79.5471 46.3881 79.4288 46.4364C79.3106 46.4848 79.1834 46.508 79.0556 46.5045Z" fill="white"/>
<path d="M75.3435 63.2164H73.4814V33.447C73.4814 33.2 73.5795 32.9632 73.7541 32.7886C73.9287 32.614 74.1655 32.5159 74.4124 32.5159H75.3435V63.2164Z" fill="white"/>
<path d="M68.8259 48.3782H66.9639V63.263H68.8259V48.3782Z" fill="white"/>
<path d="M68.826 17.678C66.0446 17.678 64.1709 15.4318 64.1709 12.0917C64.1709 8.7517 66.0329 6.51733 68.826 6.51733C71.6191 6.51733 73.4811 8.7517 73.4811 12.0917C73.4811 15.4318 71.5609 17.678 68.826 17.678ZM68.826 8.36771C66.7778 8.36771 66.0446 10.2995 66.0446 12.0917C66.0446 13.884 66.7778 15.8159 68.826 15.8159C70.8743 15.8159 71.6191 13.8956 71.6191 12.0917C71.6191 10.2879 70.8859 8.36771 68.826 8.36771Z" fill="white"/>
<path d="M15.8155 45.5737H13.9535C13.7065 45.5737 13.4698 45.4757 13.2952 45.3011C13.1206 45.1265 13.0225 44.8897 13.0225 44.6428V26.6972C13.0471 24.0376 14.1256 21.4963 16.0216 19.6309C17.9175 17.7654 20.476 16.7282 23.1357 16.7468H26.0452V18.609H23.1357C22.062 18.5952 20.9962 18.7937 19.9995 19.1933C19.0028 19.5929 18.0949 20.1854 17.328 20.9371C16.5612 21.6888 15.9506 22.5847 15.5312 23.5732C15.1119 24.5618 14.8921 25.6234 14.8845 26.6972V43.7233H15.8155V45.5737Z" fill="white"/>
<path d="M19.5285 63.2164H17.6781V30.6306H16.7471V28.7686H18.6091C18.7308 28.7685 18.8513 28.7927 18.9636 28.8396C19.0759 28.8865 19.1778 28.9553 19.2634 29.0419C19.3489 29.1285 19.4164 29.2313 19.4619 29.3442C19.5074 29.4571 19.53 29.5778 19.5285 29.6995V63.2164Z" fill="white"/>
<path d="M26.0573 45.5852H24.1953V63.263H26.0573V45.5852Z" fill="white"/>
<path d="M25.1374 14.8849C21.7974 14.8849 19.5513 12.2665 19.5513 8.3678C19.5513 4.46913 21.7974 1.8623 25.1374 1.8623C28.4775 1.8623 30.712 4.48077 30.712 8.3678C30.712 12.2548 28.5007 14.8849 25.1374 14.8849ZM25.1374 3.72433C22.3909 3.72433 21.4133 6.12171 21.4133 8.37945C21.4133 10.6372 22.3909 13.0346 25.1374 13.0346C27.8839 13.0346 28.8499 10.6372 28.8499 8.37945C28.8499 6.12171 27.8839 3.72433 25.1374 3.72433Z" fill="white"/>
<path d="M2.79303 46.5046H0.93101C0.684087 46.5046 0.447291 46.4065 0.27269 46.2319C0.0980891 46.0573 0 45.8205 0 45.5736V27.9075C0 22.973 3.82884 19.5398 9.31025 19.5398H12.1033V21.3903H9.31025C4.8646 21.3903 1.87367 24.0088 1.87367 27.9075V44.596H2.80468L2.79303 46.5046Z" fill="white"/>
<path d="M6.51681 63.2164H4.65479V32.5159H5.5858C5.83272 32.5159 6.06951 32.614 6.24412 32.7886C6.41872 32.9632 6.51681 33.2 6.51681 33.447V63.2164Z" fill="white"/>
<path d="M13.0227 48.3782H11.1606V63.263H13.0227V48.3782Z" fill="white"/>
<path d="M11.1605 17.678C8.37906 17.678 6.50537 15.4318 6.50537 12.0917C6.50537 8.7517 8.36742 6.51733 11.1605 6.51733C13.9536 6.51733 15.8156 8.7517 15.8156 12.0917C15.8156 15.4318 13.9419 17.678 11.1605 17.678ZM11.1605 8.36771C9.1006 8.36771 8.36746 10.2995 8.36746 12.0917C8.36746 13.884 9.1006 15.8159 11.1605 15.8159C13.2204 15.8159 13.9536 13.8956 13.9536 12.0917C13.9536 10.2879 13.2204 8.36771 11.1605 8.36771Z" fill="white"/>
</g>
</svg>
