<svg width="142" height="40" viewBox="0 0 142 40" fill="none" xmlns="http://www.w3.org/2000/svg">
<path d="M142 20.0332H40.125V21.365H142V20.0332Z" fill="white"/>
<path d="M98.2256 11.1676H94.6554V17.8579H93.248V9.85156H99.6298V17.8579H98.2225V11.1676H98.2256Z" fill="white"/>
<path d="M101.796 9.85156H103.213L105.946 13.5918L108.553 9.85156H109.878V17.8579H108.483V12.0712L105.955 15.6288H105.75L103.2 12.1058V17.8579H101.793V9.85156H101.796Z" fill="white"/>
<path d="M113.076 13.1227H116.644C116.37 11.7846 115.271 11.0416 113.76 11.0416C113.121 11.0416 112.444 11.2368 111.883 11.6587L111.335 10.6071C111.896 10.1254 112.869 9.72559 114.093 9.72559C116.448 9.72559 118.12 11.3501 118.12 13.8437C118.12 16.3372 116.496 17.9838 113.933 17.9838C112.825 17.9838 111.805 17.628 111.244 17.1495L111.852 15.972C112.356 16.3624 113.076 16.6709 113.911 16.6709C115.284 16.6709 116.439 15.9153 116.678 14.4419H113.076V13.1258V13.1227Z" fill="white"/>
<path d="M122.673 16.885C120.466 16.885 118.979 15.7642 118.979 13.7398C118.979 11.7154 120.478 10.6292 122.673 10.5946V9.76025H124.08V10.5946C126.265 10.6292 127.773 11.7721 127.773 13.7398C127.773 15.7075 126.262 16.8724 124.08 16.885V17.9492H122.673V16.885ZM122.673 15.5911V11.8854C121.209 11.898 120.466 12.6505 120.466 13.7398C120.466 14.9393 121.265 15.5816 122.673 15.5942V15.5911ZM124.08 11.8854V15.5911C125.531 15.5785 126.287 14.9614 126.287 13.7367C126.287 12.6599 125.578 11.9074 124.08 11.8823V11.8854Z" fill="white"/>
<path d="M128.953 12.2067C128.713 11.9548 128.565 11.5203 128.565 11.1425C128.565 10.0784 129.217 9.46131 129.708 9.1748L130.316 9.73522C129.985 10.0091 129.8 10.4342 129.8 10.856C129.8 11.1299 129.903 11.4039 130.064 11.5644L128.956 12.2035L128.953 12.2067Z" fill="white"/>
<path d="M40.1505 12.0016C40.1505 10.7674 41.1328 9.69067 42.7353 9.69067C43.7648 9.69067 44.5897 10.0338 45.0903 10.5722L44.108 11.9449C43.7522 11.6143 43.4909 11.4065 42.8959 11.4065C42.3921 11.4065 42.0962 11.6364 42.0962 12.0016C42.0962 13.3271 45.4366 13.0091 45.4366 15.6159C45.4366 17.0107 44.2371 17.9709 42.6912 17.9709C41.6176 17.9709 40.3709 17.5144 39.9805 16.6549L41.0226 15.4081C41.4791 15.9906 42.178 16.255 42.7384 16.255C43.2202 16.255 43.4941 16.0158 43.4941 15.638C43.4941 14.4384 40.1536 14.5864 40.1536 12.0016H40.1505Z" fill="white"/>
<path d="M46.9229 17.836V9.82648C47.3699 9.82648 48.7521 9.80444 49.3723 9.80444C51.8091 9.80444 52.6088 11.0732 52.6088 12.4585C52.6088 13.8438 51.5006 15.1472 49.6462 15.1472C49.4762 15.1472 49.0386 15.1472 48.7552 15.1126V17.836H46.926H46.9229ZM48.7521 11.5455V13.3747C49.0165 13.4093 49.3251 13.4314 49.5864 13.4314C50.0681 13.4314 50.6631 13.2267 50.6631 12.4491C50.6631 11.7407 50.2066 11.5235 49.5549 11.5235C49.3156 11.5235 49.133 11.5361 48.7552 11.5455H48.7521Z" fill="white"/>
<path d="M54.2109 9.82642H56.0401V17.8327H54.2109V9.82642Z" fill="white"/>
<path d="M58.2139 9.82642H62.9616V11.5423H60.0462V12.9496H62.6184V14.6655H60.0462V16.1169H63.0781V17.8327H58.217V9.82642H58.2139Z" fill="white"/>
<path d="M64.793 9.82642H69.4242V11.5423H66.6222V13.2361H69.0811V14.952H66.6222V17.8359H64.793V9.82642Z" fill="white"/>
<path d="M71.0712 12.3891C70.7847 12.0931 70.6367 11.5894 70.6367 11.1864C70.6367 9.97428 71.427 9.26589 71.9276 8.9668L72.7272 9.68778C72.4061 9.98372 72.2361 10.4088 72.2361 10.8086C72.2361 11.0731 72.3274 11.369 72.51 11.5516L71.068 12.3859L71.0712 12.3891Z" fill="white"/>
<path d="M73.4443 16.5669C74.7635 15.2729 76.5423 13.7239 76.5423 12.3008C76.5423 11.7215 76.2653 11.5043 75.8025 11.5043C75.305 11.5043 75.0846 11.8852 74.9115 12.3701L73.4664 11.7121C73.7214 10.5692 74.5872 9.76953 76.0103 9.76953C77.5813 9.76953 78.3904 10.8085 78.3904 11.9545C78.3904 14.2308 76.2873 15.8742 75.686 16.3339H78.6675V17.9522H73.4443V16.5637V16.5669Z" fill="white"/>
<path d="M79.2441 16.7527L80.2044 15.4682C80.6105 15.931 81.1174 16.3591 81.8006 16.3591C82.4838 16.3591 82.8175 15.9908 82.8175 15.572C82.8175 14.9581 82.3453 14.6811 81.4417 14.6811H80.9317V12.9463H81.3945C82.0084 12.9463 82.5059 12.6913 82.5059 12.1372C82.5059 11.7908 82.3107 11.454 81.766 11.454C81.2685 11.454 80.8183 11.6271 80.3681 12.1812L79.4204 10.9313C79.9179 10.1348 80.7837 9.71606 81.9297 9.71606C83.3528 9.71606 84.3571 10.5126 84.3571 11.7845C84.3571 12.7448 83.9636 13.3115 83.1544 13.6799V13.7145C84.1493 13.9097 84.6688 14.6622 84.6688 15.6319C84.6688 17.1588 83.4661 18.0813 81.9171 18.0813C80.5633 18.0813 79.6755 17.4674 79.2473 16.7401L79.2441 16.7527Z" fill="white"/>
<path d="M130.896 16.9195C132.215 15.6255 134.261 13.749 134.261 12.178C134.261 11.5294 133.902 11.1264 133.232 11.1264C132.652 11.1264 132.237 11.5326 132.064 12.2126L130.952 11.7152C131.173 10.5345 132.098 9.79468 133.383 9.79468C134.922 9.79468 135.675 10.8368 135.675 11.9104C135.675 14.1772 133.257 16.2237 132.621 16.7463H135.986V17.9836H130.896V16.9195Z" fill="white"/>
<path d="M136.783 16.7463L137.536 15.7734C137.942 16.3748 138.565 16.7809 139.271 16.7809C140.14 16.7809 140.577 16.2709 140.577 15.6601C140.577 14.9202 140.011 14.5141 139.072 14.5141H138.493V13.1823H139.012C139.67 13.1823 140.262 12.7667 140.262 12.0709C140.262 11.4916 139.925 11.0886 139.233 11.0886C138.584 11.0886 138.112 11.3657 137.706 11.9576L136.966 11.0194C137.407 10.1976 138.251 9.76001 139.362 9.76001C140.75 9.76001 141.685 10.5471 141.685 11.819C141.685 12.7321 141.27 13.3806 140.448 13.7396V13.7742C141.456 13.9474 141.997 14.747 141.997 15.7073C141.997 17.1996 140.842 18.1127 139.349 18.1127C138.112 18.1127 137.208 17.568 136.78 16.7463H136.783Z" fill="white"/>
<mask id="mask0_655_28846" style="mask-type:luminance" maskUnits="userSpaceOnUse" x="72" y="26" width="70" height="14">
<path d="M141.966 26.0779H72.834V40H141.966V26.0779Z" fill="white"/>
</mask>
<g mask="url(#mask0_655_28846)">
<mask id="mask1_655_28846" style="mask-type:luminance" maskUnits="userSpaceOnUse" x="72" y="26" width="70" height="15">
<path d="M141.967 26.0781H72.835V40.0003H141.967V26.0781Z" fill="white"/>
</mask>
<g mask="url(#mask1_655_28846)">
<path d="M85.2115 37.1663C85.2115 37.1663 85.2021 37.2104 85.2147 37.2104C85.5232 37.3395 85.7531 37.5599 85.7531 37.9503C85.7531 38.2462 85.5862 38.4572 85.3721 38.602C85.158 38.7531 84.7487 38.8003 84.5693 38.8003C84.4433 38.8003 83.949 38.7909 83.7475 38.7877C83.587 38.7846 83.4768 38.7909 83.4075 38.7909C83.3257 38.7909 83.2627 38.7594 83.2627 38.7185C83.2627 38.6776 83.3383 38.6524 83.3886 38.6429C83.6625 38.5894 83.6814 38.5233 83.6972 38.369C83.7066 38.2746 83.7381 37.8275 83.7381 36.9365C83.7381 36.5555 83.7192 36.3257 83.7066 36.2627C83.6846 36.1651 83.6562 36.1274 83.4233 36.0833C83.3634 36.0738 83.3099 36.0487 83.3099 35.9983C83.3099 35.9637 83.3729 35.9385 83.4296 35.9385H83.7255C83.8703 35.9385 84.415 35.907 84.6008 35.907C84.8621 35.907 85.1108 35.9574 85.2462 36.0424C85.4666 36.1777 85.561 36.3729 85.561 36.5933C85.561 36.9334 85.328 37.0813 85.2052 37.1632M84.4591 36.0675C84.4307 36.0675 84.352 36.0801 84.3017 36.0959C84.2922 36.099 84.267 36.14 84.2607 36.1683C84.2513 36.2407 84.2418 36.3698 84.2418 37.1223C84.2418 37.1411 84.2639 37.1758 84.2922 37.1758C84.4528 37.1758 84.7109 37.1537 84.818 37.0719C84.9565 36.9743 85.0321 36.82 85.0321 36.6469C85.0321 36.2753 84.7802 36.0675 84.4591 36.0675ZM84.8211 37.4056C84.7172 37.3458 84.5882 37.3206 84.4339 37.3206C84.3709 37.3206 84.2954 37.3395 84.2828 37.3521C84.2702 37.3647 84.2481 37.3867 84.2481 37.563C84.245 37.6795 84.2576 38.2179 84.267 38.3533C84.2702 38.3879 84.2954 38.4603 84.3268 38.4981C84.4024 38.58 84.5283 38.6492 84.6102 38.6492C84.8967 38.6492 85.158 38.3627 85.158 37.9849C85.158 37.7236 85.0226 37.5095 84.8274 37.4056" fill="white"/>
<path d="M87.3271 38.4446C87.346 38.432 87.3775 38.3595 87.3775 38.3407V37.3363C87.3775 37.3048 87.3491 37.2545 87.3019 37.2324C87.2295 37.2104 87.1823 37.1884 87.1225 37.1663C87.091 37.1569 87.05 37.1222 87.05 37.0845C87.05 37.0656 87.091 37.0404 87.1256 37.0404C87.3051 37.0404 87.5884 37.0089 87.7175 36.9806C87.7616 36.9711 87.7931 36.9617 87.8245 36.9617C87.856 36.9617 87.8686 37.0152 87.8686 37.0341C87.8592 37.1946 87.8466 38.3344 87.8466 38.4792C87.8466 38.4918 87.856 38.561 87.9064 38.561C87.9505 38.5579 88.0512 38.5296 88.1079 38.5296C88.1268 38.5296 88.1583 38.6335 88.1614 38.6461C88.1646 38.6555 88.1299 38.6964 88.1079 38.6964C87.9883 38.7059 87.7521 38.7625 87.6514 38.7909C87.5758 38.8129 87.431 38.8475 87.4184 38.8475C87.3995 38.8475 87.368 38.8161 87.368 38.7846C87.368 38.7562 87.3775 38.6775 87.3806 38.602C87.3806 38.5799 87.3586 38.561 87.3491 38.5673C87.2358 38.6523 87.0941 38.7468 87.0343 38.7688C86.9587 38.8035 86.8769 38.835 86.7478 38.835C86.5369 38.835 86.3889 38.7437 86.2944 38.5957C86.2629 38.5516 86.2409 38.4162 86.2409 38.3595C86.2409 38.0416 86.2378 37.6071 86.2283 37.3678C86.2252 37.2387 86.1528 37.2104 86.074 37.1789C86.0331 37.16 85.9922 37.1254 85.9922 37.0845C85.9922 37.0624 86.0237 37.0341 86.0646 37.0341C86.1905 37.0341 86.6659 36.9837 86.6848 36.9837C86.7037 36.9837 86.7195 37.0341 86.7195 37.0498C86.7289 37.3898 86.7163 38.0636 86.7163 38.2714C86.7163 38.3564 86.7572 38.4225 86.8013 38.4634C86.8737 38.517 86.9682 38.5485 87.0532 38.5485C87.1193 38.5485 87.2295 38.5201 87.3271 38.4414" fill="white"/>
<path d="M88.4257 38.8003C88.3533 38.8003 88.2998 38.772 88.2998 38.7405C88.2998 38.709 88.3313 38.687 88.4226 38.6586C88.5265 38.6271 88.5737 38.5736 88.5832 38.5295C88.602 38.4666 88.6115 38.1486 88.6115 37.8306C88.6115 37.6952 88.6115 37.4811 88.602 37.4276C88.5989 37.393 88.5454 37.3458 88.4509 37.267C88.4226 37.2387 88.3974 37.2167 88.3974 37.1946C88.3974 37.16 88.4478 37.1222 88.517 37.1096C88.6996 37.075 88.983 36.9648 89.0554 36.9491C89.0775 36.9491 89.0995 36.9837 89.0995 36.9994C89.09 37.1474 89.0775 37.7519 89.0775 38.0132C89.0775 38.1517 89.0806 38.3092 89.0869 38.4666C89.09 38.602 89.1467 38.6208 89.2632 38.6555C89.3293 38.6775 89.3608 38.7059 89.3608 38.7405C89.3608 38.7751 89.2978 38.8003 89.2349 38.8003C89.2034 38.8003 88.961 38.7877 88.8634 38.7877C88.7185 38.7877 88.5045 38.8066 88.4289 38.8066M89.1121 36.2973C89.1121 36.4485 88.9547 36.5713 88.8413 36.5713C88.8004 36.5713 88.7122 36.5492 88.6619 36.4988C88.6178 36.4548 88.5769 36.3918 88.5769 36.2973C88.5769 36.247 88.5989 36.1588 88.6493 36.1053C88.7028 36.0549 88.7878 36.0234 88.8728 36.0234C89.0302 36.0234 89.1089 36.1997 89.1089 36.2973" fill="white"/>
<path d="M89.6532 35.8063C89.8453 35.7527 90.0625 35.715 90.2357 35.6048C90.2483 35.5953 90.2892 35.6331 90.2892 35.6488C90.2766 35.8063 90.2545 36.713 90.2545 37.3836C90.2545 37.7331 90.2577 38.325 90.2734 38.4603C90.286 38.5642 90.3049 38.6178 90.4749 38.6681C90.5379 38.6902 90.5694 38.7122 90.5694 38.7437C90.5694 38.7846 90.497 38.7972 90.4497 38.7972C90.3427 38.7972 90.0877 38.7783 90.0058 38.7783C89.9019 38.7783 89.6815 38.7972 89.5871 38.7972C89.4926 38.7972 89.458 38.7657 89.458 38.7437C89.458 38.6933 89.5178 38.6776 89.5651 38.6681C89.713 38.6272 89.7414 38.5611 89.754 38.3281C89.7665 38.1266 89.7823 37.6229 89.7823 36.9145C89.7823 36.6784 89.7823 36.2565 89.7791 36.1242C89.776 36.0739 89.7508 36.0487 89.6627 35.97C89.5997 35.9259 89.5776 35.9039 89.5776 35.8818C89.5776 35.8598 89.6091 35.822 89.6595 35.8063" fill="white"/>
<path d="M92.0874 36.9742C92.1063 36.9773 92.1189 36.9521 92.122 36.9332C92.1441 36.7979 92.1252 36.2028 92.1126 36.0895C92.1094 36.0548 92.1094 35.9824 91.9237 35.9006C91.8828 35.8817 91.8607 35.8659 91.8607 35.8565C91.8607 35.8345 91.9142 35.7746 91.9426 35.7715C92.0591 35.7526 92.3834 35.6896 92.5093 35.6424C92.5408 35.6298 92.5691 35.6204 92.5943 35.6204C92.6132 35.6204 92.6384 35.6644 92.6352 35.7117C92.6163 35.8817 92.5943 36.4075 92.5943 37.4149C92.5943 37.9722 92.6037 38.1957 92.6037 38.2807C92.6069 38.5546 92.6447 38.5956 92.6856 38.5956C92.7202 38.5956 92.8556 38.5767 92.9091 38.5767C92.928 38.5767 92.9375 38.6082 92.9375 38.6113C92.9375 38.6397 92.8651 38.7247 92.843 38.731C92.7234 38.7498 92.4526 38.7908 92.3676 38.8223C92.2606 38.8569 92.1913 38.8726 92.1693 38.8726C92.1504 38.8726 92.1157 38.838 92.1157 38.8097C92.1157 38.775 92.1283 38.7058 92.1283 38.6397C92.1283 38.6176 92.1 38.605 92.0937 38.6082C91.9363 38.7373 91.7064 38.8191 91.5427 38.8191C91.3098 38.8191 91.1397 38.731 91.0044 38.605C90.8249 38.4382 90.7588 38.1863 90.7588 37.9722C90.7588 37.5094 91.0232 37.267 91.2436 37.1379C91.4136 37.034 91.6844 36.9679 91.845 36.9679C91.9583 36.9679 92.0213 36.9679 92.0905 36.9773M91.4168 37.2638C91.2972 37.3929 91.2499 37.6542 91.2499 37.8116C91.2499 38.1926 91.505 38.5609 91.8513 38.5609C91.9363 38.5609 92.0087 38.5421 92.0717 38.4948C92.0843 38.4854 92.1315 38.35 92.1315 38.2839C92.1346 38.1265 92.1409 37.6794 92.1283 37.5062C92.1283 37.4842 92.0874 37.3709 92.0465 37.3268C91.9205 37.1788 91.7726 37.1284 91.6844 37.1284C91.612 37.1284 91.5144 37.1694 91.42 37.2638" fill="white"/>
<path d="M93.2021 38.8003C93.1297 38.8003 93.0762 38.772 93.0762 38.7405C93.0762 38.709 93.1077 38.687 93.199 38.6586C93.3029 38.6271 93.3501 38.5736 93.3595 38.5295C93.3784 38.4666 93.3879 38.1486 93.3879 37.8306C93.3879 37.6952 93.3879 37.4811 93.3784 37.4276C93.3753 37.393 93.3217 37.3458 93.2273 37.267C93.199 37.2387 93.1738 37.2167 93.1738 37.1946C93.1738 37.16 93.2241 37.1222 93.2934 37.1096C93.476 37.075 93.7594 36.9648 93.8318 36.9491C93.8538 36.9491 93.8759 36.9837 93.8759 36.9994C93.8664 37.1474 93.8538 37.7519 93.8538 38.0132C93.8538 38.1517 93.857 38.3092 93.8633 38.4666C93.8664 38.602 93.9231 38.6208 94.0396 38.6555C94.1057 38.6775 94.1372 38.7059 94.1372 38.7405C94.1372 38.7751 94.0742 38.8003 94.0112 38.8003C93.9798 38.8003 93.7373 38.7877 93.6397 38.7877C93.4949 38.7877 93.2808 38.8066 93.2053 38.8066M93.8885 36.2973C93.8885 36.4485 93.731 36.5713 93.6177 36.5713C93.5768 36.5713 93.4886 36.5492 93.4382 36.4988C93.3942 36.4548 93.3532 36.3918 93.3532 36.2973C93.3532 36.247 93.3753 36.1588 93.4256 36.1053C93.4792 36.0549 93.5642 36.0234 93.6492 36.0234C93.8066 36.0234 93.8853 36.1997 93.8853 36.2973" fill="white"/>
<path d="M94.4671 37.1129C94.5521 37.0814 94.7536 37.0153 94.826 36.9775C94.8984 36.9429 94.9551 36.9114 94.9772 36.9114C94.9961 36.9114 95.0275 36.9618 95.0275 36.9775C95.0275 37.0279 95.0244 37.1349 95.0244 37.1758C95.0244 37.2042 95.0527 37.1979 95.0559 37.1979C95.2353 37.0625 95.4242 36.9555 95.6257 36.9555C95.8461 36.9555 95.9752 37.0625 96.0382 37.1349C96.1421 37.2514 96.1987 37.4497 96.1987 37.6764C96.1987 37.7709 96.2082 38.4289 96.2113 38.4919C96.2208 38.558 96.2522 38.6115 96.3687 38.643C96.4537 38.665 96.4852 38.6871 96.4852 38.7248C96.4852 38.7626 96.4317 38.7878 96.3562 38.7878C96.2491 38.7878 96.0728 38.7784 95.9469 38.7784C95.8335 38.7784 95.6541 38.791 95.5911 38.791C95.5281 38.791 95.4715 38.7784 95.4715 38.728C95.4715 38.6965 95.5218 38.6713 95.5785 38.6524C95.6824 38.6115 95.7044 38.5706 95.7139 38.4226C95.7233 38.2746 95.7233 37.7174 95.7233 37.5883C95.7233 37.497 95.6887 37.3773 95.6257 37.3175C95.5754 37.2734 95.4652 37.2231 95.3707 37.2231C95.2133 37.2231 95.1377 37.2671 95.0748 37.3144C95.0559 37.327 95.0338 37.3868 95.0307 37.412C95.0275 37.4875 95.0338 38.4541 95.0401 38.5076C95.0433 38.5706 95.059 38.6021 95.1976 38.6461C95.2385 38.665 95.2731 38.6965 95.2731 38.7217C95.2731 38.7532 95.2227 38.7847 95.1472 38.7847C95.0622 38.7847 94.8953 38.7752 94.8009 38.7752C94.634 38.7752 94.4608 38.7878 94.3853 38.7878C94.3097 38.7878 94.2656 38.7595 94.2656 38.7217C94.2656 38.6871 94.3097 38.6619 94.3601 38.6493C94.5081 38.5989 94.5301 38.5643 94.5427 38.3974C94.5553 38.262 94.5647 37.9031 94.5647 37.4497C94.5647 37.3994 94.5332 37.3553 94.4356 37.2671C94.401 37.2325 94.3853 37.2168 94.3853 37.2042C94.3853 37.1758 94.4356 37.1192 94.4703 37.1066" fill="white"/>
<path d="M97.9302 37.009C97.9806 37.0184 98.0215 37.0373 98.053 37.0373C98.1569 37.0404 98.4843 37.0593 98.5599 37.0719C98.5882 37.0751 98.6039 37.1034 98.6039 37.1223C98.6039 37.1884 98.5221 37.2923 98.5063 37.2923C98.478 37.2923 98.3521 37.2955 98.245 37.2892C98.223 37.2892 98.2135 37.3175 98.2167 37.3207C98.2293 37.3742 98.245 37.4371 98.245 37.5127C98.245 37.7551 98.1632 37.9377 97.99 38.0731C97.7885 38.2211 97.5492 38.2431 97.4485 38.2431C97.4201 38.2431 97.3131 38.24 97.269 38.2337C97.2375 38.2305 97.2186 38.2305 97.206 38.2431C97.1714 38.2652 97.121 38.325 97.121 38.3596C97.121 38.4446 97.2344 38.5202 97.2879 38.5265C97.4863 38.5359 98.0026 38.5485 98.1317 38.5706C98.1757 38.5737 98.2796 38.6115 98.3615 38.6776C98.4811 38.7846 98.5536 38.9389 98.5536 39.0869C98.5536 39.449 98.2702 39.6914 98.0907 39.8047C97.8609 39.9495 97.6279 40.0031 97.4075 40.0031C97.1872 40.0031 97.0077 39.959 96.8408 39.8519C96.6929 39.7481 96.6016 39.5906 96.6016 39.449C96.6016 39.2884 96.6834 39.2254 96.7401 39.1845C96.8314 39.1247 96.9699 39.0397 97.0266 39.0019C97.0392 38.9924 97.0455 38.9798 97.0266 38.9704C96.9857 38.9578 96.9007 38.9263 96.844 38.8854C96.7401 38.813 96.674 38.6933 96.674 38.5296C96.674 38.517 96.6866 38.4856 96.7023 38.4761C96.7432 38.4446 96.9951 38.3061 97.0644 38.2211C97.0738 38.2179 97.0738 38.1896 97.0549 38.177C96.9258 38.114 96.6929 37.9346 96.6929 37.6103C96.6929 37.4025 96.7873 37.2388 96.9636 37.1066C97.099 37.009 97.2816 36.9397 97.5051 36.9397C97.6878 36.9397 97.8042 36.9743 97.9302 37.0121M97.9585 39.7134C98.1096 39.6253 98.16 39.4773 98.16 39.3545C98.16 39.2915 98.138 39.1971 98.0844 39.1404C98.0246 39.0774 97.9554 39.0428 97.8326 39.0239C97.6752 39.0019 97.5996 39.0019 97.3666 39.0019C97.269 39.0019 97.1872 39.0302 97.1525 39.0554C97.0612 39.1373 97.0172 39.2443 97.0172 39.3419C97.0172 39.471 97.0801 39.5843 97.1746 39.6599C97.2911 39.7543 97.4579 39.789 97.609 39.789C97.7287 39.789 97.8546 39.7669 97.9585 39.7134ZM97.2848 37.1601C97.2186 37.2514 97.1809 37.3742 97.1809 37.541C97.1809 37.8275 97.3257 38.1203 97.5398 38.1203C97.5713 38.1203 97.6279 38.092 97.6783 38.0542C97.7507 37.9881 97.8011 37.7929 97.8011 37.6009C97.8011 37.5284 97.7696 37.3364 97.7035 37.2388C97.6374 37.1349 97.5524 37.0688 97.4611 37.0688C97.3949 37.0688 97.3225 37.1097 97.2848 37.1632" fill="white"/>
<path d="M101.903 35.929C102.124 35.9164 102.19 35.8943 102.25 35.8628C102.284 35.8408 102.303 35.8219 102.322 35.8219C102.344 35.8219 102.379 35.8754 102.363 35.9384C102.328 36.0643 102.281 36.2879 102.269 36.4579C102.269 36.4988 102.237 36.5744 102.184 36.5744C102.152 36.5744 102.124 36.546 102.108 36.4358C102.064 36.1745 102.01 36.1399 101.784 36.1305C101.677 36.1305 101.349 36.1336 101.236 36.1493C101.208 36.1525 101.192 36.1903 101.192 36.2092C101.192 36.417 101.189 36.757 101.189 37.1411C101.189 37.6574 101.192 38.1328 101.211 38.3564C101.223 38.5012 101.261 38.5893 101.56 38.6523C101.623 38.6649 101.674 38.7153 101.674 38.7436C101.674 38.7845 101.598 38.8034 101.548 38.8034C101.513 38.8034 101.006 38.7845 100.883 38.7845C100.745 38.7845 100.398 38.8129 100.323 38.8129C100.238 38.8129 100.184 38.794 100.184 38.7593C100.184 38.7184 100.238 38.6775 100.282 38.6649C100.575 38.5925 100.597 38.5358 100.609 38.221C100.628 37.9565 100.65 37.0624 100.65 36.7192C100.65 36.4642 100.647 36.3162 100.647 36.1997C100.647 36.1588 100.613 36.1367 100.597 36.1367C100.515 36.1242 100.188 36.1179 100.09 36.1179C100.018 36.1179 99.8916 36.1619 99.8443 36.2218C99.8003 36.2721 99.7499 36.3508 99.6901 36.4579C99.6366 36.5492 99.6082 36.5744 99.5925 36.5744C99.5484 36.5744 99.5264 36.5208 99.5264 36.4768C99.5264 36.3918 99.6082 36.0958 99.6114 35.8723C99.6114 35.8502 99.6523 35.7778 99.6838 35.7778C99.7153 35.7778 99.7342 35.8188 99.7593 35.8502C99.7719 35.8723 99.8569 35.9132 99.9419 35.9227C100.04 35.9321 100.631 35.951 100.937 35.951C101.189 35.951 101.762 35.9478 101.907 35.9384" fill="white"/>
<path d="M102.127 37.1349C102.297 37.0814 102.499 37.0153 102.581 36.9649C102.631 36.9334 102.675 36.9114 102.688 36.9114C102.716 36.9114 102.741 36.9523 102.741 36.9649C102.741 37.0468 102.729 37.1318 102.729 37.2168C102.729 37.2294 102.751 37.2483 102.763 37.2357C102.902 37.0877 103.1 36.9586 103.239 36.9586C103.437 36.9586 103.5 37.0782 103.5 37.1412C103.5 37.1538 103.487 37.1916 103.472 37.2136C103.421 37.2892 103.283 37.4749 103.251 37.4781C103.232 37.4781 103.185 37.4749 103.169 37.4592C103.119 37.4151 102.971 37.3333 102.886 37.3333C102.845 37.3333 102.801 37.3333 102.773 37.3616C102.744 37.3836 102.732 37.412 102.732 37.4529C102.732 37.5442 102.754 38.3219 102.76 38.3911C102.77 38.5296 102.801 38.6115 102.864 38.6241C102.908 38.6335 103.002 38.665 103.056 38.6839C103.128 38.706 103.147 38.7374 103.147 38.7563C103.147 38.791 103.094 38.8098 103.021 38.8098C102.886 38.8098 102.653 38.7878 102.389 38.7878C102.294 38.7878 102.2 38.8004 102.096 38.8004C102.042 38.8004 101.982 38.7878 101.982 38.7374C101.982 38.706 102.049 38.6839 102.086 38.6713C102.247 38.6147 102.256 38.5643 102.263 38.2935V37.5536C102.263 37.4718 102.253 37.4057 102.228 37.3836C102.156 37.3238 102.067 37.2451 102.067 37.2262C102.067 37.2168 102.077 37.1538 102.127 37.1412" fill="white"/>
<path d="M104.967 38.4446C104.986 38.432 105.017 38.3595 105.017 38.3407V37.3363C105.017 37.3048 104.989 37.2545 104.942 37.2324C104.869 37.2104 104.822 37.1884 104.762 37.1663C104.731 37.1569 104.69 37.1222 104.69 37.0845C104.69 37.0656 104.731 37.0404 104.765 37.0404C104.945 37.0404 105.228 37.0089 105.357 36.9806C105.401 36.9711 105.433 36.9617 105.464 36.9617C105.496 36.9617 105.508 37.0152 105.508 37.0341C105.499 37.1946 105.486 38.3344 105.486 38.4792C105.486 38.4918 105.496 38.561 105.546 38.561C105.59 38.5579 105.691 38.5296 105.748 38.5296C105.766 38.5296 105.798 38.6335 105.801 38.6461C105.804 38.6555 105.77 38.6964 105.748 38.6964C105.628 38.7059 105.392 38.7625 105.291 38.7909C105.215 38.8129 105.071 38.8475 105.058 38.8475C105.039 38.8475 105.008 38.8161 105.008 38.7846C105.008 38.7562 105.017 38.6775 105.02 38.602C105.02 38.5799 104.998 38.561 104.989 38.5673C104.875 38.6523 104.734 38.7468 104.674 38.7688C104.598 38.8035 104.517 38.835 104.387 38.835C104.177 38.835 104.029 38.7437 103.934 38.5957C103.903 38.5516 103.881 38.4162 103.881 38.3595C103.881 38.0416 103.877 37.6071 103.868 37.3678C103.865 37.2387 103.792 37.2104 103.714 37.1789C103.673 37.16 103.632 37.1254 103.632 37.0845C103.632 37.0624 103.663 37.0341 103.704 37.0341C103.83 37.0341 104.306 36.9837 104.324 36.9837C104.343 36.9837 104.359 37.0341 104.359 37.0498C104.369 37.3898 104.356 38.0636 104.356 38.2714C104.356 38.3564 104.397 38.4225 104.441 38.4634C104.513 38.517 104.608 38.5485 104.693 38.5485C104.759 38.5485 104.869 38.5201 104.967 38.4414" fill="white"/>
<path d="M106.931 36.9837C106.991 36.9931 107.082 37.0278 107.092 37.0341C107.111 37.0467 107.126 37.075 107.133 37.1096C107.142 37.1726 107.152 37.3646 107.152 37.3961C107.152 37.437 107.117 37.4906 107.086 37.4906C107.054 37.4906 107.013 37.4308 106.988 37.3835C106.89 37.1946 106.777 37.0907 106.616 37.0907C106.503 37.0907 106.393 37.2041 106.393 37.3206C106.393 37.4811 106.563 37.5819 106.786 37.7078C107.174 37.9156 107.227 38.0699 107.227 38.2745C107.227 38.4792 107.092 38.6334 106.944 38.7279C106.849 38.7909 106.62 38.8412 106.491 38.8412C106.352 38.8412 106.122 38.8097 106.037 38.7373C106.018 38.7153 105.952 38.5264 105.952 38.369C105.952 38.3029 105.98 38.2651 105.996 38.2651C106.04 38.2651 106.072 38.3154 106.103 38.369C106.251 38.6208 106.428 38.7058 106.538 38.7058C106.591 38.7058 106.673 38.6775 106.717 38.646C106.78 38.5957 106.809 38.5169 106.809 38.4445C106.809 38.369 106.774 38.2871 106.629 38.199C106.509 38.1234 106.453 38.0856 106.321 38.0069C106.154 37.903 106.012 37.733 106.012 37.5032C106.012 37.3363 106.103 37.1568 106.289 37.0529C106.387 36.9994 106.513 36.9585 106.679 36.9585C106.783 36.9585 106.878 36.9711 106.934 36.9868" fill="white"/>
<path d="M108.682 37.0057C108.701 37.0057 108.748 37.0246 108.748 37.0561C108.748 37.0435 108.761 37.1851 108.761 37.2387C108.761 37.2827 108.676 37.2922 108.644 37.2922H108.219C108.191 37.2922 108.175 37.3142 108.175 37.3237C108.175 37.5472 108.172 37.9659 108.172 38.2304C108.172 38.3437 108.194 38.3973 108.244 38.4413C108.295 38.4854 108.392 38.5169 108.465 38.5169C108.509 38.5169 108.603 38.4854 108.663 38.4539C108.698 38.4319 108.723 38.4224 108.739 38.4224C108.751 38.4224 108.77 38.4445 108.77 38.4949C108.77 38.5358 108.726 38.5925 108.698 38.6239C108.575 38.7499 108.395 38.8349 108.185 38.8349C108.005 38.8349 107.838 38.7436 107.769 38.6428C107.715 38.5673 107.687 38.498 107.687 38.3249C107.687 38.158 107.706 37.5094 107.706 37.352C107.706 37.3205 107.63 37.289 107.536 37.2544C107.501 37.2418 107.482 37.204 107.482 37.1788C107.482 37.1599 107.486 37.1505 107.504 37.1379C107.728 36.9899 107.876 36.8829 107.977 36.779C108.03 36.716 108.062 36.6814 108.081 36.6814C108.112 36.6814 108.169 36.7255 108.169 36.757V36.9805C108.169 36.9805 108.191 37.0214 108.21 37.0214C108.307 37.0214 108.666 37.0088 108.685 37.0088" fill="white"/>
<path d="M72.835 29.8998C72.835 28.801 73.7291 27.9069 74.8279 27.9069C75.9267 27.9069 76.8208 28.801 76.8208 29.8998C76.8208 30.0226 76.8082 30.1454 76.7862 30.265C76.465 30.1296 76.1156 30.0572 75.7504 30.0572C74.7807 30.0572 73.9337 30.5735 73.4615 31.3449C73.0774 30.9828 72.8381 30.4697 72.8381 29.8998M76.1817 32.7365C76.1817 32.0942 76.4084 31.5023 76.7893 31.0395C76.4871 30.8538 76.1313 30.7436 75.7504 30.7436C74.6516 30.7436 73.7574 31.6377 73.7574 32.7365C73.7574 33.8353 74.6516 34.7294 75.7504 34.7294C76.1313 34.7294 76.4871 34.6192 76.7893 34.4335C76.4115 33.9706 76.1817 33.3788 76.1817 32.7365ZM79.7866 32.5822C78.8169 32.5822 77.97 32.0627 77.4977 31.2914C77.1136 31.6534 76.8712 32.1666 76.8712 32.7365C76.8712 33.8353 77.7653 34.7294 78.8641 34.7294C79.9629 34.7294 80.857 33.8353 80.857 32.7365C80.857 32.6105 80.8444 32.4909 80.8224 32.3744C80.5044 32.5098 80.1549 32.5822 79.7866 32.5822ZM79.9818 27.9195C79.9818 27.9698 79.9912 28.0202 79.9912 28.0706C79.9912 29.3268 79.1191 30.3815 77.9511 30.6711C78.2533 31.389 78.9617 31.8927 79.7866 31.8927C80.8854 31.8927 81.7795 30.9986 81.7795 29.8998C81.7795 28.8671 80.9893 28.0171 79.9818 27.9195ZM77.3057 26.0808C76.4808 26.0808 75.7724 26.5846 75.4702 27.3024C76.6413 27.592 77.5103 28.6467 77.5103 29.9029C77.5103 29.9533 77.5103 30.0037 77.504 30.0541C78.5083 29.9533 79.2954 29.1033 79.2954 28.0737C79.2954 26.975 78.4013 26.0808 77.3025 26.0808" fill="white"/>
<path d="M86.8007 30.369C86.7661 30.3941 86.593 30.4855 86.4796 30.5421C86.4387 30.5579 86.445 30.624 86.4639 30.6586C86.6213 30.9892 87.2982 32.1289 87.7106 32.6075C87.9342 32.8719 88.1734 32.9727 88.4222 33.0199C88.504 33.0356 88.5701 33.1018 88.5701 33.1364C88.5701 33.1868 88.4946 33.2434 88.4379 33.2592C88.3057 33.3095 87.9908 33.3253 87.8838 33.3253C87.1313 33.3253 86.8102 33.0293 86.637 32.7869C86.4072 32.4721 85.9853 31.7952 85.639 31.2001C85.5634 31.0773 85.4406 30.8947 85.3745 30.8538C85.3179 30.8034 85.1352 30.7468 84.9778 30.7468C84.9463 30.7468 84.896 30.7877 84.8865 30.8286C84.8708 30.9923 84.8865 32.0911 84.9117 32.4721C84.9369 32.8278 84.9936 32.9097 85.3745 33.0104C85.5162 33.0514 85.5729 33.1112 85.5729 33.1679C85.5729 33.2592 85.4155 33.2907 85.3179 33.2907C85.0282 33.2907 84.6661 33.2403 84.26 33.2403C83.9703 33.2403 83.5579 33.2718 83.4666 33.2718C83.2588 33.2718 83.2021 33.2151 83.2021 33.1395C83.2021 33.0892 83.2935 33.0388 83.4005 33.0073C83.7815 32.8908 83.8696 32.7932 83.8948 32.5287C83.9452 31.8928 83.9452 31.197 83.9452 30.498C83.9452 29.6133 83.9294 28.9113 83.9042 28.6877C83.8885 28.4894 83.8129 28.3666 83.4257 28.2753C83.3092 28.2438 83.2179 28.184 83.2179 28.1179C83.2179 28.0612 83.3155 28.0014 83.4572 28.0014H84.0585C84.3639 28.0014 85.0502 27.9604 85.4973 27.9604C85.8783 27.9604 86.5394 27.9919 86.9361 28.3225C87.1911 28.5303 87.3832 28.927 87.3832 29.3048C87.3832 29.7519 87.1691 30.073 86.8039 30.3627M86.0011 28.5272C85.8121 28.3288 85.554 28.2375 85.3304 28.2375C85.299 28.2375 85.0817 28.2627 85.0156 28.2942C84.9747 28.3194 84.9243 28.4264 84.918 28.4673C84.8928 28.7475 84.8613 30.1958 84.8928 30.4099C84.9023 30.4603 84.9589 30.5106 84.9999 30.5106C85.4218 30.5106 85.8027 30.3879 85.8909 30.328C86.1144 30.1643 86.3537 29.8652 86.3537 29.4024C86.3537 29.1883 86.2781 28.8168 85.9979 28.5272" fill="white"/>
<path d="M94.2373 30.5516C94.2373 31.6347 93.7745 32.3367 93.1983 32.7996C92.7261 33.1616 92.024 33.3946 91.388 33.3946C90.5191 33.3946 89.7603 33.064 89.2408 32.5099C88.7938 32.0313 88.5293 31.3796 88.5293 30.6177C88.5293 29.6102 88.9764 28.9648 89.5935 28.4705C89.965 28.1809 90.6576 27.8755 91.3534 27.8755C93.1795 27.8755 94.2373 29.2293 94.2373 30.5516ZM90.2231 28.587C89.9429 28.8609 89.6438 29.4528 89.6438 30.4383C89.6438 31.7102 90.4215 33.0892 91.6273 33.0892C92.0807 33.0892 92.364 32.8562 92.4711 32.7492C92.8174 32.4029 93.107 31.6913 93.107 30.8066C93.107 30.1549 92.852 29.1632 92.2475 28.6091C91.9673 28.3603 91.5203 28.162 91.1582 28.162C90.7961 28.162 90.4152 28.395 90.2231 28.5839" fill="white"/>
<path d="M98.1034 28.0169C98.1349 28.0264 98.201 28.1397 98.2105 28.1838C98.2105 28.2909 98.2923 28.9268 98.2923 28.9615C98.2923 29.0842 98.2671 29.1693 98.2168 29.1693C98.1507 29.1693 98.0184 29.0937 97.9775 28.9709C97.8956 28.697 97.7225 28.4672 97.6217 28.3853C97.4234 28.2184 97.2156 28.1555 96.9606 28.1555C96.5733 28.1555 96.1168 28.4766 96.1168 29.015C96.1168 29.503 96.4789 29.7674 97.225 30.2366C98.242 30.8568 98.4403 31.3857 98.4403 31.8895C98.4403 32.3176 98.1916 32.8151 97.713 33.1047C97.4328 33.2779 96.9543 33.4007 96.5576 33.4007C96.0696 33.4007 95.7075 33.3188 95.3675 33.1866C95.3014 33.1551 95.1534 32.9788 95.1534 32.9473C95.0873 32.6577 95.0117 32.3019 95.0117 32.0626C95.0117 32.0059 95.103 31.8895 95.144 31.8895C95.2101 31.8895 95.3423 32.0878 95.4651 32.3428C95.7138 32.8466 96.1924 33.1016 96.6143 33.1016C96.9952 33.1016 97.4738 32.8056 97.4738 32.2767C97.4738 31.9304 97.3006 31.5998 96.5387 31.1024C95.6981 30.5482 95.2416 30.0949 95.2416 29.3582C95.2416 28.889 95.4808 28.4892 95.7453 28.2751C96.0161 28.0453 96.4065 27.8784 97.0582 27.8784C97.4391 27.8784 97.8767 27.9792 98.1003 28.0201" fill="white"/>
<path d="M103.488 28.0077C103.686 28.0581 103.894 28.1053 104.083 28.1305C104.139 28.1305 104.206 28.2281 104.206 28.354C104.215 28.587 104.231 28.8735 104.246 29.1128C104.256 29.286 104.196 29.4276 104.105 29.4276C104.064 29.4276 103.988 29.3269 103.947 29.2041C103.866 28.9491 103.74 28.7256 103.601 28.6185C103.245 28.3226 102.823 28.14 102.379 28.14C101.067 28.14 100.446 29.1821 100.446 30.4383C100.446 30.9924 100.544 31.4709 100.727 31.833C101.18 32.7429 101.932 33.064 102.578 33.064C102.685 33.064 103.091 33.0483 103.381 32.8751C103.686 32.702 103.91 32.4627 104.098 32.1226C104.199 31.94 104.256 31.8676 104.322 31.8676C104.413 31.8676 104.413 32.0817 104.388 32.173C104.347 32.3777 104.215 32.7429 104.139 32.8909C104.114 32.9664 103.966 33.0986 103.843 33.1553C103.727 33.1962 103.157 33.3946 102.398 33.3946C101.177 33.3946 100.308 32.8499 99.971 32.4595C99.6561 32.0975 99.2783 31.5182 99.2783 30.602C99.2783 29.6008 99.8387 28.8987 100.188 28.6185C100.89 28.0392 101.74 27.8755 102.417 27.8755C102.798 27.8755 103.195 27.9322 103.491 28.0077" fill="white"/>
<path d="M110.663 30.5516C110.663 31.6347 110.201 32.3367 109.621 32.7996C109.149 33.1616 108.447 33.3946 107.811 33.3946C106.942 33.3946 106.183 33.064 105.664 32.5099C105.217 32.0313 104.952 31.3796 104.952 30.6177C104.952 29.6102 105.399 28.9648 106.016 28.4705C106.388 28.1809 107.08 27.8755 107.776 27.8755C109.602 27.8755 110.66 29.2293 110.66 30.5516M106.646 28.587C106.366 28.8609 106.067 29.4528 106.067 30.4383C106.067 31.7102 106.841 33.0892 108.05 33.0892C108.504 33.0892 108.787 32.8562 108.894 32.7492C109.24 32.4029 109.53 31.6913 109.53 30.8066C109.53 30.1549 109.275 29.1632 108.67 28.6091C108.39 28.3603 107.943 28.162 107.581 28.162C107.219 28.162 106.838 28.395 106.646 28.5839" fill="white"/>
<path d="M111.236 27.9824C111.418 27.9824 112.07 28.0139 112.492 28.0139C112.533 28.0139 112.649 28.0957 112.674 28.1209C112.797 28.2689 113.03 28.527 113.367 28.9237C113.773 29.418 115.391 31.0961 115.829 31.5589C115.87 31.5999 115.905 31.5243 115.905 31.5086C115.945 31.2693 115.92 30.3342 115.92 29.6416C115.92 29.3614 115.895 28.971 115.87 28.7569C115.854 28.59 115.772 28.4011 115.357 28.2941C115.193 28.2531 115.086 28.2028 115.086 28.1052C115.086 28.0485 115.177 28.0076 115.325 28.0076C115.533 28.0076 115.722 28.017 115.886 28.017C116.282 28.017 116.622 27.9761 116.836 27.9761C116.978 27.9761 117.035 28.0264 117.035 28.0831C117.035 28.1335 116.978 28.2059 116.827 28.25C116.399 28.3917 116.355 28.5396 116.314 28.8702C116.289 29.1662 116.232 31.2567 116.232 31.9588C116.232 32.3051 116.282 33.0324 116.282 33.2465C116.282 33.322 116.191 33.4039 116.15 33.4039C115.977 33.4039 115.779 33.1898 115.703 33.089C115.546 32.8812 115.388 32.6923 115.165 32.4184C114.387 31.4676 113.043 30.0477 112.306 29.1788C112.265 29.1284 112.215 29.1945 112.215 29.2197C112.199 29.4432 112.183 29.6321 112.174 30.287C112.164 31.4361 112.149 32.0627 112.189 32.4688C112.224 32.7333 112.312 32.8749 112.709 32.9977C112.882 33.0481 112.942 33.1048 112.942 33.1552C112.942 33.2465 112.825 33.2779 112.668 33.2779C112.429 33.2779 112.24 33.2433 111.95 33.2433C111.768 33.2433 111.305 33.2685 111.166 33.2685C111.05 33.2685 110.952 33.2276 110.952 33.1615C110.952 33.0796 111.05 33.0387 111.135 33.0135C111.516 32.897 111.714 32.8309 111.739 32.2106C111.78 31.285 111.887 29.6982 111.887 29.1032C111.887 28.7726 111.862 28.6719 111.837 28.6404C111.689 28.4578 111.629 28.3444 111.201 28.2437C111.11 28.2279 110.987 28.1618 110.987 28.102C110.987 28.0359 111.084 27.9792 111.236 27.9792" fill="white"/>
<path d="M121.864 28.0486C121.996 28.0801 122.16 28.1053 122.235 28.1147C122.27 28.1147 122.327 28.1903 122.336 28.3036C122.346 28.5429 122.459 28.9648 122.459 29.2954C122.459 29.4024 122.409 29.5032 122.317 29.5032C122.276 29.5032 122.21 29.4119 122.16 29.2891C122.103 29.1317 121.971 28.8672 121.845 28.7098C121.662 28.4957 121.184 28.1494 120.523 28.1494C119.276 28.1494 118.539 29.2639 118.539 30.5547C118.539 31.134 118.646 31.6283 118.886 32.0408C119.241 32.6767 119.893 33.1144 120.63 33.1144C120.731 33.1144 120.97 33.0734 121.149 32.9475C121.247 32.8814 121.322 32.6516 121.322 32.3682C121.322 32.0848 121.313 31.7322 121.288 31.6315C121.237 31.4426 121.171 31.2757 120.627 31.2253C120.504 31.2159 120.387 31.1435 120.387 31.0679C120.387 31.0112 120.504 30.9514 120.668 30.9514C120.973 30.9514 121.436 30.9829 121.659 30.9829C121.858 30.9829 122.311 30.9325 122.616 30.9325C122.774 30.9325 122.84 30.9892 122.84 31.0553C122.84 31.1057 122.749 31.1781 122.651 31.2127C122.371 31.2883 122.377 31.3859 122.361 31.5024C122.346 31.6031 122.32 32.1887 122.32 32.5256C122.32 32.6421 122.355 32.6736 122.453 32.7743C122.519 32.8247 122.544 32.8562 122.544 32.916C122.544 32.9569 122.478 33.0231 122.421 33.0388C122.28 33.0797 121.999 33.1553 121.669 33.2214C121.313 33.297 120.652 33.3883 120.447 33.3883C119.556 33.3883 118.728 33.1144 118.234 32.6704C117.853 32.3052 117.384 31.7039 117.384 30.6146C117.384 29.7739 117.73 29.1191 118.3 28.6248C118.819 28.162 119.663 27.8723 120.513 27.8723C121.074 27.8723 121.536 27.9636 121.861 28.0455" fill="white"/>
<path d="M127.063 30.369C127.028 30.3941 126.855 30.4855 126.742 30.5421C126.701 30.5579 126.707 30.624 126.726 30.6586C126.883 30.9892 127.56 32.1289 127.973 32.6075C128.196 32.8719 128.435 32.9727 128.684 33.0199C128.766 33.0356 128.832 33.1018 128.832 33.1364C128.832 33.1868 128.757 33.2434 128.7 33.2592C128.568 33.3095 128.253 33.3253 128.146 33.3253C127.393 33.3253 127.072 33.0293 126.899 32.7869C126.669 32.4721 126.247 31.7952 125.898 31.2001C125.822 31.0773 125.699 30.8947 125.633 30.8538C125.577 30.8034 125.394 30.7468 125.237 30.7468C125.202 30.7468 125.155 30.7877 125.145 30.8286C125.13 30.9923 125.145 32.0911 125.171 32.4721C125.196 32.8278 125.252 32.9097 125.633 33.0104C125.775 33.0514 125.832 33.1112 125.832 33.1679C125.832 33.2592 125.674 33.2907 125.577 33.2907C125.287 33.2907 124.925 33.2403 124.519 33.2403C124.229 33.2403 123.817 33.2718 123.725 33.2718C123.518 33.2718 123.461 33.2151 123.461 33.1395C123.461 33.0892 123.552 33.0388 123.659 33.0073C124.04 32.8908 124.132 32.7932 124.154 32.5287C124.204 31.8928 124.204 31.197 124.204 30.498C124.204 29.6133 124.188 28.9113 124.163 28.6877C124.147 28.4894 124.072 28.3666 123.684 28.2753C123.568 28.2438 123.477 28.184 123.477 28.1179C123.477 28.0612 123.574 28.0014 123.716 28.0014H124.32C124.626 28.0014 125.312 27.9604 125.759 27.9604C126.14 27.9604 126.801 27.9919 127.198 28.3225C127.453 28.5303 127.645 28.927 127.645 29.3048C127.645 29.7519 127.431 30.073 127.066 30.3627M126.263 28.5272C126.074 28.3288 125.816 28.2375 125.592 28.2375C125.561 28.2375 125.344 28.2627 125.278 28.2942C125.237 28.3194 125.186 28.4264 125.177 28.4673C125.152 28.7475 125.12 30.1958 125.152 30.4099C125.161 30.4603 125.218 30.5106 125.259 30.5106C125.681 30.5106 126.062 30.3879 126.15 30.328C126.373 30.1643 126.612 29.8652 126.612 29.4024C126.612 29.1883 126.537 28.8168 126.257 28.5272" fill="white"/>
<path d="M132.408 28.0172C132.682 28.0172 133.019 27.9857 133.135 27.9668C133.167 27.9574 133.227 28.0172 133.233 28.0739C133.242 28.2218 133.242 28.7917 133.242 28.9586C133.242 29.075 133.186 29.1884 133.11 29.1884C133.035 29.1884 132.968 29.0656 132.953 28.9806C132.846 28.5178 132.613 28.395 132.424 28.3604C132.266 28.3352 131.911 28.3037 131.275 28.31C131.24 28.31 131.174 28.3446 131.168 28.5398C131.152 28.7476 131.127 29.8968 131.133 30.3501C131.133 30.3753 131.168 30.432 131.215 30.432H131.876C132.462 30.432 132.446 30.3974 132.603 30.0353C132.654 29.9094 132.71 29.8212 132.786 29.8212C132.852 29.8212 132.877 29.9629 132.868 30.051C132.852 30.284 132.833 30.432 132.833 30.6209C132.833 30.8444 132.849 30.9767 132.868 31.1813C132.877 31.3293 132.827 31.43 132.761 31.43C132.695 31.43 132.628 31.3324 132.603 31.2474C132.496 30.8854 132.389 30.8255 132.065 30.8004C131.8 30.7752 131.495 30.7752 131.24 30.7752C131.209 30.7752 131.133 30.857 131.133 30.8728C131.101 31.1057 131.108 31.748 131.117 32.0219C131.127 32.2203 131.117 32.5257 131.149 32.6988C131.174 32.7744 131.246 32.8814 131.331 32.8972C131.464 32.9224 131.719 32.9475 132.002 32.9475C132.251 32.9475 132.556 32.9475 132.761 32.872C133.009 32.7807 133.233 32.5823 133.412 32.2612C133.529 32.0471 133.601 31.9715 133.667 31.9715C133.749 31.9715 133.743 32.1447 133.734 32.2108C133.734 32.2769 133.494 33.0357 133.419 33.1679C133.393 33.2246 133.261 33.275 133.22 33.275C133.129 33.275 131.089 33.234 130.469 33.234C129.915 33.234 129.823 33.275 129.527 33.275C129.37 33.275 129.247 33.2498 129.247 33.1679C129.247 33.0924 129.354 33.0357 129.496 33.0011C129.918 32.9003 130.025 32.8185 130.056 32.3745C130.081 32.0282 130.122 31.4017 130.122 30.3753C130.122 29.3489 130.132 29.0215 130.113 28.7791C130.097 28.4831 130.031 28.3163 129.675 28.2502C129.502 28.2187 129.411 28.184 129.411 28.1022C129.411 28.0266 129.552 27.9794 129.666 27.9794C130.053 27.9794 130.733 28.0046 131.161 28.0046H132.402L132.408 28.0172Z" fill="white"/>
<path d="M137.48 28.0169C137.512 28.0264 137.578 28.1397 137.587 28.1838C137.587 28.2909 137.669 28.9268 137.669 28.9615C137.669 29.0842 137.644 29.1693 137.594 29.1693C137.528 29.1693 137.395 29.0937 137.354 28.9709C137.273 28.697 137.099 28.4672 136.999 28.3853C136.8 28.2184 136.596 28.1555 136.338 28.1555C135.95 28.1555 135.494 28.4766 135.494 29.015C135.494 29.503 135.856 29.7674 136.602 30.2366C137.619 30.8568 137.817 31.3857 137.817 31.8895C137.817 32.3176 137.569 32.8151 137.09 33.1047C136.81 33.2779 136.331 33.4007 135.935 33.4007C135.447 33.4007 135.084 33.3188 134.744 33.1866C134.678 33.1551 134.53 32.9788 134.53 32.9473C134.464 32.6577 134.389 32.3019 134.389 32.0626C134.389 32.0059 134.48 31.8895 134.521 31.8895C134.587 31.8895 134.719 32.0878 134.842 32.3428C135.091 32.8466 135.569 33.1016 135.991 33.1016C136.372 33.1016 136.851 32.8056 136.851 32.2767C136.851 31.9304 136.678 31.5998 135.916 31.1024C135.072 30.5482 134.619 30.0949 134.619 29.3582C134.619 28.889 134.858 28.4892 135.122 28.2751C135.396 28.0453 135.783 27.8784 136.435 27.8784C136.816 27.8784 137.254 27.9792 137.477 28.0201" fill="white"/>
<path d="M141.627 28.0169C141.658 28.0264 141.724 28.1397 141.734 28.1838C141.734 28.2909 141.816 28.9268 141.816 28.9615C141.816 29.0842 141.791 29.1693 141.74 29.1693C141.674 29.1693 141.542 29.0937 141.501 28.9709C141.419 28.697 141.246 28.4672 141.145 28.3853C140.947 28.2184 140.739 28.1555 140.484 28.1555C140.097 28.1555 139.64 28.4766 139.64 29.015C139.64 29.503 140.005 29.7674 140.748 30.2366C141.765 30.8568 141.964 31.3857 141.964 31.8895C141.964 32.3176 141.715 32.8151 141.236 33.1047C140.956 33.2779 140.478 33.4007 140.081 33.4007C139.593 33.4007 139.231 33.3188 138.891 33.1866C138.825 33.1551 138.677 32.9788 138.677 32.9473C138.611 32.6577 138.535 32.3019 138.535 32.0626C138.535 32.0059 138.626 31.8895 138.667 31.8895C138.733 31.8895 138.866 32.0878 138.989 32.3428C139.237 32.8466 139.716 33.1016 140.138 33.1016C140.519 33.1016 140.997 32.8056 140.997 32.2767C140.997 31.9304 140.824 31.5998 140.065 31.1024C139.221 30.5482 138.768 30.0949 138.768 29.3582C138.768 28.889 139.007 28.4892 139.272 28.2751C139.546 28.0453 139.933 27.8784 140.585 27.8784C140.966 27.8784 141.403 27.9792 141.627 28.0201" fill="white"/>
</g>
</g>
<path fill-rule="evenodd" clip-rule="evenodd" d="M0.933594 14.3755C0.933594 6.43529 7.36888 0 15.3091 0C23.2493 0 29.6846 6.43529 29.6846 14.3755C29.6846 22.3157 23.2493 28.751 15.3091 28.751C7.36888 28.751 0.933594 22.3157 0.933594 14.3755ZM18.4105 8.07268L18.4168 8.09472C18.8167 9.28165 19.037 10.5473 19.037 11.8728C19.037 13.1982 18.8167 14.467 18.4168 15.6508L18.4105 15.6729H11.8304L11.8587 15.5847C12.246 14.4198 12.4569 13.1699 12.4569 11.8728C12.4569 10.5756 12.2428 9.32573 11.8587 8.16083L11.8304 8.07268H18.4105ZM24.2442 11.12V11.1074H20.2898L20.3056 11.161C20.5386 11.8599 20.6645 12.6092 20.6645 13.39C20.6645 14.1708 20.5386 14.9201 20.3056 15.6191L20.2898 15.6726H24.2411V15.66C24.4866 14.9485 24.6189 14.1866 24.6189 13.3932C24.6189 12.5998 24.4866 11.8347 24.2474 11.1263L24.2442 11.12ZM10.1577 11.1074V11.12L10.1609 11.1263C10.4002 11.8347 10.5324 12.5998 10.5324 13.3932C10.5324 14.1866 10.4002 14.9485 10.1546 15.66V15.6726H6.20338L6.21912 15.6191C6.4521 14.9201 6.57804 14.1708 6.57804 13.39C6.57804 12.6092 6.4521 11.8599 6.21912 11.161L6.20338 11.1074H10.1577ZM9.12852 8.34974V8.34344H7.57951L7.58581 8.36548C7.67711 8.63939 7.72749 8.93219 7.72749 9.24073C7.72749 9.54927 7.67711 9.83892 7.58581 10.116L7.57951 10.138H9.12852V10.1317C9.22297 9.85151 9.27649 9.55556 9.27649 9.24388C9.27649 8.93219 9.22611 8.63309 9.13166 8.35603L9.12852 8.34974ZM23.0673 8.34344V8.34974L23.0704 8.35603C23.1649 8.63309 23.2153 8.93219 23.2153 9.24388C23.2153 9.55556 23.1617 9.85151 23.0673 10.1317V10.138H21.5183L21.5246 10.116C21.6159 9.83892 21.6663 9.54927 21.6663 9.24073C21.6663 8.93219 21.6159 8.63939 21.5246 8.36548L21.5183 8.34344H23.0673ZM16.1843 4.55278V4.54648H14.1568L14.1662 4.57482C14.2859 4.93373 14.3488 5.31784 14.3488 5.71768C14.3488 6.11752 14.2827 6.50163 14.1662 6.86054L14.1568 6.88888H16.1812V6.88258C16.3071 6.51737 16.3732 6.12697 16.3732 5.72083C16.3732 5.31469 16.3071 4.92429 16.1812 4.55908L16.1843 4.55278ZM24.1468 17.1429L21.8958 21.4656V21.4625L15.706 21.4278V23.0052C16.0744 23.1406 16.342 23.4932 16.342 23.9119C16.342 24.4471 15.9107 24.8785 15.3755 24.8785H15.3692C15.3486 24.8785 15.3294 24.8758 15.3098 24.873C15.2994 24.8716 15.2888 24.8701 15.2779 24.869C14.7899 24.8186 14.4089 24.4125 14.4089 23.9119C14.4089 23.4963 14.6734 23.1437 15.0449 23.0083V21.431H8.79221L6.20109 17.1083L24.1468 17.1429Z" fill="#CAAA77"/>
</svg>
