<svg width="130" height="40" viewBox="0 0 130 40" fill="none" xmlns="http://www.w3.org/2000/svg">
<path d="M42.1459 15.2417C41.3505 17.6838 40.5551 20.0931 39.7706 22.5025C39.1713 22.5025 38.79 22.5025 38.0817 22.5025C37.0902 25.5551 36.0769 28.6622 35.0745 31.7365C35.4995 32.1617 36.0225 32.4343 36.4692 32.8267C35.6847 35.2252 34.9111 37.6018 34.1375 40.0003C31.566 40.0003 29.0273 40.0003 26.4559 40.0003C26.2598 39.4225 26.0636 38.8447 25.8566 38.2342C25.5842 38.2342 25.3336 38.2233 25.083 38.2342C24.8215 38.245 24.6363 38.2559 24.4075 38.1469C24.1351 38.0161 23.9389 37.7109 23.9389 37.4165C23.9281 37.1003 24.1132 36.8169 24.4074 36.6751C24.5817 36.5879 24.7343 36.5661 24.9305 36.5661C25.6169 36.5552 26.3033 36.5661 27.0225 36.5661C27.3275 37.1548 27.4038 37.809 27.6871 38.3868C29.4414 38.3868 31.1847 38.3868 32.9389 38.3868C33.4728 36.7406 34.0067 35.1052 34.5515 33.4373C34.1048 33.0993 33.6472 32.7722 33.1568 32.4016C33.5164 31.126 33.9631 29.8614 34.3772 28.5967C34.7912 27.3103 35.2053 26.0129 35.6193 24.7156C36.0333 23.4401 36.4582 22.1536 36.8832 20.8672C37.7004 20.8672 37.9183 20.8672 38.572 20.8672C39.1059 19.2318 39.6726 17.542 40.2174 15.8631C38.79 14.8274 37.3953 13.8135 35.968 12.7778C35.5322 13.094 35.1181 13.3883 34.6932 13.6936C34.3445 13.4428 34.0176 13.2139 33.7016 12.985C32.7428 12.2982 31.7949 11.6004 30.836 10.9136C30.6726 10.7937 30.5309 10.6519 30.4438 10.4775C30.3021 10.1831 30.3348 9.91057 30.531 9.65984C30.7162 9.43088 30.9668 9.3328 31.2501 9.38727C31.5551 9.4418 31.8166 9.59445 32.0781 9.77975C32.9389 10.4121 33.8106 11.0335 34.6822 11.6767C35.1072 11.3715 35.5103 11.0771 35.9571 10.761C38.0164 12.2436 40.0648 13.7372 42.1459 15.2417Z" fill="white"/>
<path d="M0 15.35C2.05932 13.8564 4.09684 12.3737 6.16705 10.8693C6.58111 11.1636 6.98423 11.4471 7.42006 11.7524C7.95397 11.3816 8.06295 11.3082 8.66222 10.8911C8.91281 10.7167 9.15254 10.5095 9.44672 10.4223C9.84988 10.2915 10.1985 10.3896 10.3947 10.7167C10.6126 11.0546 10.5472 11.4471 10.2094 11.7414C9.34865 12.4937 8.3789 13.1042 7.46365 13.8019C6.86439 13.3985 6.86438 13.3985 6.14528 12.9189C4.75061 13.9328 3.33414 14.9575 1.90678 15.9932C2.44067 17.6395 2.98547 19.2857 3.53026 20.9755C4.16222 20.9755 4.77238 20.9755 5.39345 20.9755C5.64405 21.7277 5.88378 22.4473 6.12347 23.1341C7.58354 23.5484 7.89948 24.813 7.50723 25.7179C7.12589 26.6118 6.00362 27.1243 4.99029 26.6228C4.41284 26.3393 4.09684 25.8378 3.98788 25.2164C3.87893 24.595 4.16222 24.0935 4.52178 23.6029C4.42371 23.2867 4.31476 22.9815 4.2058 22.6544C3.59563 22.6544 2.99636 22.6544 2.34261 22.6544C1.55811 20.2232 0.795397 17.7921 0 15.35ZM6.60288 24.9547C6.60288 24.5514 6.24331 24.2025 5.84019 24.2025C5.43704 24.2025 5.08837 24.5622 5.08837 24.9656C5.08837 25.369 5.44794 25.7288 5.8511 25.7179C6.25422 25.7179 6.60288 25.369 6.60288 24.9547Z" fill="white"/>
<path d="M15.3746 6.02882C15.2111 5.51643 15.0586 5.01496 14.8842 4.48075C16.9218 2.99807 18.9811 1.50448 21.0622 0C23.1106 1.49358 25.1591 2.97626 27.2402 4.48075C27.0876 4.96044 26.9678 5.33109 26.7935 5.898C27.0222 6.09425 27.0222 6.09425 27.1639 6.21417C27.2184 6.20325 27.2947 6.18147 27.36 6.15965C28.0465 5.898 28.6784 5.98521 29.245 6.44312C29.7571 6.85738 29.9859 7.4352 29.8988 8.07841C29.8007 8.81975 29.3867 9.34305 28.6676 9.59384C27.6324 9.95357 26.3903 9.32127 26.2377 7.98033C26.2269 7.86037 26.2377 7.72955 26.2377 7.58785C25.7801 7.24985 25.2898 6.86829 24.8431 6.53034C25.061 5.93069 25.061 5.93069 25.3007 5.10218C23.9169 4.08828 22.5114 3.07438 21.0731 2.02778C19.6567 3.05258 18.2511 4.07737 16.8237 5.10218C16.9872 5.61456 17.1397 6.11604 17.3141 6.65025C17.1288 6.79199 16.9436 6.93373 16.7475 7.07542C16.1591 7.50063 15.5707 7.9258 14.9823 8.35098C14.808 8.4818 14.6119 8.57993 14.4157 8.66715C14.0889 8.79797 13.8056 8.72167 13.5659 8.4818C13.3261 8.24198 13.3044 7.91489 13.4678 7.57694C13.5659 7.36981 13.7184 7.22807 13.9036 7.09725C14.3831 6.74838 14.8625 6.3886 15.3746 6.02882ZM28.0574 7.08633C27.6542 7.09725 27.3056 7.45703 27.3165 7.86037C27.3273 8.26376 27.6869 8.61263 28.0901 8.60171C28.5041 8.59084 28.8419 8.23106 28.831 7.82768C28.8201 7.42429 28.4605 7.07542 28.0574 7.08633Z" fill="white"/>
<path d="M9.21805 38.3862C10.9941 38.3862 12.7047 38.3862 14.4481 38.3862C14.873 37.1107 14.873 37.1107 15.0909 36.5547C15.1704 36.5547 15.1906 36.5547 15.4069 36.5547C16.5509 36.5547 17.695 36.5547 18.8391 36.5547C19.0679 36.5547 19.3076 36.5547 19.5038 36.6201C19.8524 36.74 20.005 37.0671 19.994 37.405C19.9831 37.7539 19.8197 38.0264 19.5038 38.1464C19.2858 38.2336 19.0352 38.2227 18.7955 38.2227C18.1418 38.2118 17.488 38.2118 16.8343 38.2227C16.6599 38.2227 16.6558 38.2227 16.2692 38.2227C16.0949 38.746 15.8863 39.411 15.6902 39.967C14.764 39.967 8.93474 39.967 7.97594 39.967C7.23502 37.6013 6.45052 35.2137 5.66602 32.7934C6.18902 32.4119 6.6793 32.0521 7.18053 31.6814C6.92994 30.8965 6.69021 30.1442 6.43961 29.392C6.35245 29.1303 6.28705 28.8687 6.27619 28.5962C6.26528 28.2364 6.46138 27.9529 6.77737 27.833C7.07155 27.724 7.38754 27.8112 7.61637 28.062C7.75803 28.2255 7.85606 28.4108 7.92145 28.6289C8.3028 29.839 8.70596 31.0382 9.09821 32.2701C8.49895 32.7498 8.49895 32.7498 7.60546 33.4476C8.15028 35.0938 8.68414 36.74 9.21805 38.3862Z" fill="white"/>
<path d="M20.1135 13.6387C18.8713 12.7884 18.9367 11.4474 19.6668 10.7061C20.4404 9.92112 21.6062 9.96473 22.3362 10.7388C23.0662 11.5237 23.0445 12.8428 21.9113 13.606C21.8241 13.7914 21.8677 13.9876 21.8677 14.1838C21.8677 18.2721 21.8677 22.3495 21.8677 26.4377C21.8677 26.6012 21.8786 26.7648 21.8568 26.9283C21.8023 27.3644 21.4319 27.6806 21.0069 27.6915C20.582 27.6915 20.2006 27.3753 20.1353 26.9501C20.1135 26.7866 20.1244 26.6231 20.1244 26.4596C20.1244 22.3931 20.1244 18.3266 20.1244 14.2601C20.1135 14.053 20.1135 13.8567 20.1135 13.6387ZM21.7479 12.0034C21.7588 11.5782 21.421 11.2402 20.996 11.2294C20.5711 11.2185 20.2333 11.5564 20.2224 11.9816C20.2115 12.4068 20.5493 12.7448 20.9743 12.7556C21.3992 12.7556 21.737 12.4177 21.7479 12.0034Z" fill="white"/>
<path d="M18.5892 20.0381C18.5892 22.1858 18.5892 24.3226 18.5892 26.4704C18.5892 26.6121 18.6001 26.7647 18.5782 26.9064C18.5238 27.3752 18.1533 27.7023 17.6957 27.6914C17.2707 27.6805 16.9112 27.3534 16.8458 26.9173C16.8349 26.7974 16.8349 26.6666 16.8349 26.5357C16.8349 22.2186 16.8349 17.8904 16.8349 13.5732C16.8349 13.4642 16.824 13.3552 16.8349 13.2462C16.8785 12.7773 17.249 12.4394 17.6957 12.4285C18.1533 12.4285 18.5238 12.7556 18.5674 13.2352C18.5782 13.377 18.5674 13.5296 18.5674 13.6713C18.5892 15.7863 18.5892 17.9122 18.5892 20.0381Z" fill="white"/>
<path d="M27.9593 30.6458C27.8286 30.733 27.6978 30.7003 27.578 30.7003C26.6518 30.7003 25.7257 30.7003 24.7995 30.7003C24.5816 30.7003 24.3637 30.6676 24.1567 30.6022C23.7971 30.4822 23.601 30.2097 23.601 29.8826C23.5901 29.5229 23.7971 29.2503 24.1784 29.1195C24.3637 29.0541 24.5598 29.0214 24.7668 29.0214C25.2898 29.0323 25.8238 29.0323 26.3468 29.0214C26.4884 29.0214 26.6409 29.0541 26.8153 28.9342C27.0768 28.1165 27.36 27.2552 27.6434 26.4049C28.1228 24.9222 28.6131 23.4504 29.0816 21.9678C29.1579 21.7388 29.2777 21.5426 29.4194 21.3572C29.6155 21.0847 29.9424 20.9757 30.2366 21.0629C30.5635 21.1501 30.7814 21.4335 30.7922 21.7824C30.7922 21.9241 30.7922 22.0659 30.7487 22.2076C29.8443 24.9767 28.9509 27.7458 28.0465 30.515C28.0247 30.5695 27.9811 30.6131 27.9593 30.6458Z" fill="white"/>
<path d="M14.3612 30.7006C14.1214 29.9483 13.8927 29.2397 13.6529 28.5419C13.1953 27.1355 12.7377 25.7183 12.2692 24.3119C12.182 24.0503 12.1493 23.7886 12.1602 23.5161C12.182 23.1563 12.4108 22.8838 12.7268 22.8074C13.0646 22.7311 13.3261 22.8401 13.544 23.1127C13.6747 23.2762 13.7292 23.4616 13.7837 23.6578C14.3176 25.304 14.8624 26.9612 15.3963 28.6074C15.4399 28.7491 15.4617 28.8908 15.6142 29.0434C16.4423 29.0434 17.303 29.0434 18.1747 29.0434C18.4144 29.0434 18.6433 29.0543 18.8721 29.1307C19.2534 29.2615 19.4605 29.5231 19.4605 29.8829C19.4605 30.2426 19.2534 30.4934 18.8503 30.6242C18.7304 30.6569 18.6105 30.7006 18.4798 30.7006C17.1287 30.7006 15.7776 30.7006 14.3612 30.7006Z" fill="white"/>
<path d="M25.8342 19.7214C25.9759 19.6342 26.0957 19.5361 26.2265 19.4816C26.7168 19.2527 27.2507 19.5688 27.3051 20.1139C27.3379 20.4083 27.2616 20.6917 27.1744 20.9642C26.586 22.774 25.9976 24.5729 25.3984 26.3826C25.3003 26.6879 25.2459 27.0149 25.0388 27.2875C24.7773 27.6472 24.4614 27.789 24.1127 27.6581C23.7422 27.5273 23.5352 27.1675 23.6224 26.7424C23.6768 26.4262 23.764 26.11 23.8621 25.7939C24.5158 23.777 25.1696 21.7601 25.8342 19.7214Z" fill="white"/>
<path d="M23.3828 12.8536C23.7097 12.0032 24.7993 12.0032 25.1262 12.8536C25.1262 14.5434 25.1262 16.2659 25.1262 17.9993C25.1262 18.4027 24.9845 18.708 24.6141 18.8824C24.309 19.0351 24.0148 18.9915 23.7424 18.7952C23.47 18.599 23.3828 18.3155 23.3828 17.9885C23.3937 17.0836 23.3828 16.1678 23.3828 15.2629C23.3828 14.4562 23.3828 13.6603 23.3828 12.8536Z" fill="white"/>
<path d="M15.3186 17.9011C15.3186 18.5225 15.3186 19.1331 15.3186 19.7545C15.3186 19.8853 15.3295 20.0052 15.3078 20.136C15.2533 20.6048 14.8828 20.9319 14.4252 20.9319C13.9784 20.9319 13.6189 20.583 13.5644 20.1142C13.5535 20.027 13.5644 19.9289 13.5644 19.8417C13.5644 18.5335 13.5644 17.2252 13.5644 15.9278C13.5644 15.8188 13.5535 15.7098 13.5753 15.6008C13.6407 15.1647 14.0003 14.8377 14.4252 14.8377C14.8828 14.8267 15.2642 15.1647 15.3078 15.6335C15.3295 15.9387 15.3186 16.2549 15.3186 16.5602C15.3186 16.9962 15.3186 17.4432 15.3186 17.9011Z" fill="white"/>
<path d="M28.1949 14.8779C28.5507 15.1627 28.2471 14.9057 28.603 15.1905C28.6779 15.2504 28.7527 15.2976 28.8153 15.3731C29.0527 15.6266 29.0293 16.0401 28.769 16.3657C28.515 16.6836 28.1107 16.7795 27.8113 16.6035C27.7551 16.5713 27.7051 16.5185 27.6552 16.4786C26.9061 15.8791 26.8101 15.8164 26.5537 15.5971C26.4912 15.5472 26.4226 15.5049 26.3726 15.4395C26.1601 15.1931 26.1773 14.7874 26.419 14.4851C26.673 14.1545 27.0834 14.038 27.3766 14.2218C27.5638 14.3462 27.7387 14.4988 27.9135 14.6387C28.1632 14.8385 27.9327 14.6681 28.1949 14.8779Z" fill="white"/>
<path d="M30.8891 16.353C31.9568 16.4293 32.7196 17.0835 32.7305 18.1846C32.7413 19.2748 31.9896 20.0488 30.8782 20.0379C29.7777 20.027 29.0586 19.2639 29.0695 18.1955C29.0695 17.1053 29.8104 16.4293 30.8891 16.353ZM31.6627 18.1737C31.6518 17.7703 31.2813 17.4215 30.8782 17.4432C30.475 17.4541 30.1264 17.8248 30.1481 18.2282C30.159 18.6316 30.5295 18.9804 30.9326 18.9586C31.3358 18.9477 31.6736 18.5771 31.6627 18.1737Z" fill="white"/>
<path d="M12.8129 9.4851C12.8129 9.96479 12.4206 10.3464 11.9521 10.3464C11.4727 10.3464 11.0805 9.97566 11.0696 9.49597C11.0586 8.9945 11.4618 8.59111 11.963 8.60202C12.4424 8.62381 12.8129 9.00541 12.8129 9.4851Z" fill="white"/>
<path d="M11.1791 18.959C10.7106 18.959 10.3184 18.5665 10.3184 18.0977C10.3184 17.6289 10.6997 17.2256 11.1682 17.2256C11.6585 17.2147 12.0726 17.6289 12.0617 18.1195C12.0399 18.5883 11.6476 18.9699 11.1791 18.959Z" fill="white"/>
<path d="M12.9228 20.7136C12.9228 21.1933 12.5305 21.5749 12.062 21.5749C11.5717 21.5749 11.1685 21.1606 11.1903 20.67C11.2121 20.2012 11.6153 19.8196 12.0838 19.8306C12.5523 19.8523 12.9336 20.2448 12.9228 20.7136Z" fill="white"/>
<path d="M21.5519 28.9885C22.0204 28.9994 22.4127 29.3919 22.4018 29.8607C22.4018 30.3513 21.9768 30.7547 21.4865 30.7329C21.018 30.7111 20.6476 30.2968 20.6584 29.828C20.6802 29.3592 21.0725 28.9885 21.5519 28.9885Z" fill="white"/>
<path d="M22.8379 37.4052C22.827 37.8849 22.4457 38.2665 21.9663 38.2665C21.4759 38.2665 21.0728 37.8412 21.0946 37.3507C21.1164 36.8819 21.5195 36.5003 21.9989 36.5221C22.4675 36.533 22.8488 36.9255 22.8379 37.4052Z" fill="white"/>
<path d="M59.5417 17.9343H58.5578L55.134 11.2085V17.9343H54.3994V10.0525H55.4095L58.8071 16.8439V10.0525H59.5417V17.9343Z" fill="white"/>
<path d="M66.5572 17.9343L65.9669 16.1083H62.3201L61.7167 17.9343H60.9165L63.5532 10.0525H64.7338L67.3705 17.9343H66.5572ZM62.5562 15.3727H65.7308L64.2222 10.8013H64.0517L62.5562 15.3727Z" fill="white"/>
<path d="M72.7004 10.7882H70.4573V17.9343H69.6964V10.7882H67.4532V10.0525H72.7004V10.7882Z" fill="white"/>
<path d="M74.9138 17.9343H74.153V10.0525H74.9138V17.9343Z" fill="white"/>
<path d="M82.4674 16.2397C82.4674 16.4937 82.4106 16.7082 82.2969 16.8834C82.2182 16.9972 82.0782 17.1592 81.8771 17.3694C81.676 17.5796 81.5185 17.7197 81.4048 17.7898C81.1862 17.9299 80.9588 17.9999 80.7227 17.9999H78.6501C78.4227 17.9999 78.1997 17.9299 77.9811 17.7898C77.8674 17.7197 77.7056 17.5796 77.4957 17.3694C77.2945 17.1592 77.1546 16.9972 77.0759 16.8834C76.971 16.717 76.9185 16.5024 76.9185 16.2397V11.7734C76.9185 11.5107 76.971 11.2961 77.0759 11.1297C77.1546 11.0159 77.2945 10.8539 77.4957 10.6437C77.7056 10.4247 77.8674 10.2802 77.9811 10.2102C78.1997 10.0701 78.4227 10 78.6501 10H80.7227C80.9588 10 81.1862 10.0701 81.4048 10.2102C81.5185 10.2802 81.676 10.4204 81.8771 10.6305C82.0782 10.8407 82.2182 11.0071 82.2969 11.1297C82.4106 11.3049 82.4674 11.5194 82.4674 11.7734V16.2397ZM81.7066 16.2265V11.7997C81.7066 11.7208 81.6934 11.6552 81.6672 11.6026C81.5885 11.4537 81.4573 11.2917 81.2737 11.1166C81.0988 10.9414 80.9545 10.8276 80.8408 10.775C80.797 10.7488 80.7402 10.7356 80.6702 10.7356H78.7157C78.6369 10.7356 78.5801 10.7488 78.5451 10.775C78.4402 10.8276 78.2959 10.9414 78.1122 11.1166C77.9373 11.2917 77.8105 11.4537 77.7318 11.6026C77.6968 11.6727 77.6793 11.7384 77.6793 11.7997V16.2265C77.6793 16.2703 77.6968 16.3273 77.7318 16.3973C77.8105 16.5462 77.9373 16.7082 78.1122 16.8834C78.2959 17.0585 78.4402 17.1724 78.5451 17.2249C78.5801 17.2512 78.6369 17.2643 78.7157 17.2643H80.6702C80.7402 17.2643 80.797 17.2512 80.8408 17.2249C80.9545 17.1724 81.0988 17.0585 81.2737 16.8834C81.4573 16.7082 81.5885 16.5462 81.6672 16.3973C81.6934 16.3448 81.7066 16.2879 81.7066 16.2265Z" fill="white"/>
<path d="M89.5824 17.9343H88.5985L85.1747 11.2085V17.9343H84.4401V10.0525H85.4502L88.8478 16.8439V10.0525H89.5824V17.9343Z" fill="white"/>
<path d="M96.5979 17.9343L96.0076 16.1083H92.3608L91.7574 17.9343H90.9572L93.5939 10.0525H94.7745L97.4113 17.9343H96.5979ZM92.597 15.3727H95.7715L94.2629 10.8013H94.0924L92.597 15.3727Z" fill="white"/>
<path d="M103.119 17.9343H98.6851V10.0525H99.446V17.1986H103.119V17.9343Z" fill="white"/>
<path d="M60.0788 28.3756C59.9895 28.5814 59.8958 28.7514 59.7975 28.8856C59.2439 29.6282 58.6768 29.9995 58.0964 29.9995H56.422C56.1273 29.9995 55.8505 29.919 55.5916 29.758C55.4576 29.6774 55.2835 29.5298 55.0692 29.3151C54.8548 29.1003 54.703 28.9303 54.6137 28.8051C54.4709 28.5903 54.3994 28.3353 54.3994 28.0401V23.8125C54.3994 23.5262 54.4709 23.2756 54.6137 23.0609C54.703 22.9267 54.8548 22.7522 55.0692 22.5375C55.2924 22.3138 55.4665 22.1662 55.5916 22.0946C55.8773 21.9335 56.1541 21.853 56.422 21.853H58.0964C58.6679 21.853 59.235 22.2243 59.7975 22.967C59.8511 23.0385 59.9449 23.1951 60.0788 23.4367L58.7126 23.8259C58.4447 23.4948 58.2437 23.2891 58.1098 23.2085C58.1009 23.1996 58.083 23.1951 58.0562 23.1951H56.4756L56.422 23.2085C56.1899 23.3338 55.9889 23.5306 55.8193 23.7991C55.8103 23.817 55.8059 23.8662 55.8059 23.9467V28.0267C55.8059 28.0982 55.8773 28.2056 56.0202 28.3488C56.172 28.483 56.3059 28.5814 56.422 28.644C56.431 28.653 56.4622 28.6574 56.5158 28.6574H58.0428C58.0696 28.6574 58.0919 28.653 58.1098 28.644C58.1902 28.6082 58.2795 28.5367 58.3777 28.4293C58.4848 28.3219 58.5697 28.2235 58.6322 28.134L58.7126 28.0132L60.0788 28.3756Z" fill="white"/>
<path d="M67.6701 21.9067L65.018 26.4296V29.9324H63.6115V26.4296L60.9861 21.9067H62.5399L64.3214 24.9533L66.1029 21.9067H67.6701Z" fill="white"/>
<path d="M74.4283 28.1072C74.4283 28.4203 74.3524 28.6888 74.2005 28.9124C74.138 29.0019 74.0264 29.1316 73.8657 29.3016C73.7049 29.4627 73.5799 29.5745 73.4906 29.6372C73.2138 29.834 72.8923 29.9324 72.5262 29.9324H68.7622V21.9067H72.5262C72.8745 21.9067 73.1959 22.0096 73.4906 22.2154C73.5799 22.278 73.7049 22.3943 73.8657 22.5643C74.0264 22.7254 74.138 22.8506 74.2005 22.9401C74.3524 23.1638 74.4283 23.4412 74.4283 23.7722V24.7654C74.4283 25.1948 74.2541 25.584 73.9059 25.933C74.2541 26.2819 74.4283 26.6667 74.4283 27.0872V28.1072ZM73.0084 24.8325C73.0173 24.8146 73.0218 24.7833 73.0218 24.7385V23.7856L73.0084 23.7185C72.9459 23.6112 72.8611 23.5083 72.7539 23.4098C72.6557 23.3025 72.5753 23.2488 72.5128 23.2488H70.1687V25.2754H72.5262C72.5887 25.2754 72.6735 25.2262 72.7807 25.1277C72.8879 25.0293 72.9638 24.9309 73.0084 24.8325ZM73.0084 28.1474C73.0173 28.1206 73.0218 28.0893 73.0218 28.0535V27.1006L73.0084 27.0335C72.9459 26.9261 72.8611 26.8232 72.7539 26.7248C72.6557 26.6264 72.5753 26.5772 72.5128 26.5772H70.1687V28.5903H72.5262C72.5887 28.5903 72.6735 28.5411 72.7807 28.4427C72.8879 28.3443 72.9638 28.2459 73.0084 28.1474Z" fill="white"/>
<path d="M81.2287 29.9324H76.1922V21.9067H81.2287V23.2488H77.5987V25.2754H80.9742V26.6175H77.5987V28.5903H81.2287V29.9324Z" fill="white"/>
<path d="M88.7783 24.9398C88.7783 25.244 88.698 25.5169 88.5372 25.7585C88.4747 25.848 88.3631 25.9733 88.2023 26.1343C88.0416 26.2864 87.9121 26.3982 87.8139 26.4698C87.6978 26.5593 87.5817 26.6219 87.4656 26.6577L89.0596 29.9324H87.5326L86.0458 26.7651H84.5054V29.9324H83.0989V21.9067H86.8629C87.2201 21.9067 87.5371 22.0051 87.8139 22.202C87.9032 22.2646 88.0282 22.3809 88.1889 22.5509C88.3586 22.7209 88.4747 22.8506 88.5372 22.9401C88.698 23.1817 88.7783 23.4546 88.7783 23.7588V24.9398ZM87.3719 24.9264V23.7722C87.3719 23.7275 87.3674 23.6962 87.3585 23.6783C87.2067 23.4099 87.0638 23.2667 86.9298 23.2488H84.5054V25.423H86.8629C86.9254 25.423 87.0102 25.3738 87.1174 25.2754C87.2245 25.1769 87.3049 25.0785 87.3585 24.9801C87.3674 24.9622 87.3719 24.9443 87.3719 24.9264Z" fill="white"/>
<path d="M99.6878 24.9398C99.6878 25.244 99.6074 25.5169 99.4467 25.7585C99.3842 25.848 99.2726 25.9733 99.1118 26.1343C98.9511 26.2864 98.8216 26.3982 98.7234 26.4698C98.6073 26.5593 98.4912 26.6219 98.3751 26.6577L99.9691 29.9324H98.4421L96.9552 26.7651H95.4148V29.9324H94.0084V21.9067H97.7723C98.1295 21.9067 98.4465 22.0051 98.7234 22.202C98.8127 22.2646 98.9377 22.3809 99.0984 22.5509C99.2681 22.7209 99.3842 22.8506 99.4467 22.9401C99.6074 23.1817 99.6878 23.4546 99.6878 23.7588V24.9398ZM98.2813 24.9264V23.7722C98.2813 23.7275 98.2769 23.6962 98.2679 23.6783C98.1161 23.4099 97.9733 23.2667 97.8393 23.2488H95.4148V25.423H97.7723C97.8348 25.423 97.9197 25.3738 98.0268 25.2754C98.134 25.1769 98.2144 25.0785 98.2679 24.9801C98.2769 24.9622 98.2813 24.9443 98.2813 24.9264Z" fill="white"/>
<path d="M108.074 29.9324H106.574L105.985 28.228H102.944L102.355 29.9324H100.855L103.654 21.9067H105.288L108.074 29.9324ZM105.543 26.8859L104.471 23.7185L103.386 26.8859H105.543Z" fill="white"/>
<path d="M114.783 29.9324H113.296L110.523 24.6043V29.9324H109.117V21.9067H110.63L113.376 27.3019V21.9067H114.783V29.9324Z" fill="white"/>
<path d="M118.123 23.8259V28.0267C118.123 28.0982 118.195 28.2056 118.338 28.3488C118.489 28.483 118.623 28.5814 118.739 28.644H118.753C118.771 28.653 118.789 28.6574 118.806 28.6574H120.628L120.695 28.644C120.802 28.5814 120.932 28.474 121.084 28.3219C121.235 28.1698 121.311 28.058 121.311 27.9864V26.6846H119.583V25.3425H122.718V28.0535C122.78 28.644 122.865 29.2703 122.972 29.9324H121.593L121.526 29.6103C121.159 29.8698 120.883 29.9995 120.695 29.9995H118.739C118.445 29.9995 118.168 29.919 117.909 29.758C117.775 29.6774 117.601 29.5343 117.387 29.3285C117.172 29.1137 117.02 28.9438 116.931 28.8185C116.788 28.6038 116.717 28.3443 116.717 28.0401V23.7991C116.717 23.5038 116.788 23.2488 116.931 23.0341C117.02 22.8999 117.172 22.7254 117.387 22.5106C117.61 22.287 117.784 22.1393 117.909 22.0678C118.15 21.9157 118.427 21.8396 118.739 21.8396H120.695C121.311 21.8396 121.878 22.2109 122.396 22.9535C122.53 23.1414 122.624 23.298 122.678 23.4233L121.325 23.8125C121.128 23.5441 120.918 23.3383 120.695 23.1951C120.686 23.1862 120.664 23.1817 120.628 23.1817H118.806L118.739 23.1951C118.498 23.3293 118.297 23.5217 118.137 23.7722L118.123 23.8259Z" fill="white"/>
<path d="M129.759 29.9324H124.722V21.9067H129.759V23.2488H126.129V25.2754H129.504V26.6175H126.129V28.5903H129.759V29.9324Z" fill="white"/>
</svg>
