<svg width="131" height="36" viewBox="0 0 131 36" fill="none" xmlns="http://www.w3.org/2000/svg">
<path d="M30.4629 25.3357L33.7739 31.1401H36.8602L33.4064 25.0907C35.3482 24.3956 36.6768 23.088 36.6768 20.8809C36.6768 18.4078 34.735 16.8342 31.5878 16.8342H25.4775V31.1401H28.1753V25.3357H30.4643H30.4629ZM28.1739 22.9648V19.2044H31.5871C33.2426 19.2044 33.9783 19.9401 33.9783 21.0846C33.9783 22.2291 33.2426 22.9648 31.5871 22.9648H28.1739ZM48.2226 26.0714C48.2226 22.5154 45.4639 20.7171 42.6842 20.7171C39.9045 20.7171 37.1458 22.5154 37.1458 26.0714C37.1458 29.6274 39.9045 31.4264 42.6842 31.4264C45.4639 31.4264 48.2226 29.6281 48.2226 26.0714ZM42.6842 29.0142C41.1722 29.0142 39.7617 27.9313 39.7617 26.0714C39.7617 24.2115 41.1722 23.1286 42.6842 23.1286C44.1962 23.1286 45.6067 24.2122 45.6067 26.0714C45.6067 27.9306 44.1969 29.0142 42.6842 29.0142ZM51.7051 23.578C51.7051 23.0264 52.3183 22.7198 53.1562 22.7198C54.1376 22.7198 54.8117 23.1489 55.3024 23.8846L56.9782 22.7198C56.2628 21.4731 55.1596 20.7171 53.1156 20.7171C51.0716 20.7171 49.4168 21.7594 49.4168 23.6599C49.4168 25.5604 50.8882 26.4396 52.8706 26.8274C54.3217 27.1137 54.9958 27.5022 54.9958 28.1357C54.9958 28.912 54.2804 29.2599 53.4019 29.2599C52.2168 29.2599 51.5014 28.5655 51.0107 27.7682L48.9464 29.0758C49.6415 30.3428 50.9694 31.4264 53.3606 31.4264C55.8743 31.4264 57.366 29.955 57.366 28.0545C57.366 26.3584 56.3853 25.4183 54.0144 24.9276C52.4205 24.6007 51.7051 24.2325 51.7051 23.5787M58.1367 21.0034V23.088H59.7103V28.1973C59.7103 30.6907 61.202 31.4264 62.9597 31.4264C63.5526 31.4264 64.2267 31.3039 64.6768 31.1401L64.4311 29.0149C64.2267 29.0765 63.9614 29.1374 63.5729 29.1374C62.7966 29.1374 62.2856 28.7489 62.2856 27.7066V23.088H64.4927V21.0034H62.2856V18.265H59.7103V21.0034H58.1367ZM67.894 26.6853H75.7011V25.7858C75.7011 22.8227 73.6571 20.7171 70.7556 20.7171C67.8541 20.7171 65.4216 22.8633 65.4216 26.0714C65.4216 29.2795 67.8128 31.4264 70.6331 31.4264C72.8612 31.4264 74.271 30.5885 75.293 28.8511L73.2497 27.8291C72.6162 28.6264 72.0443 29.2186 70.6744 29.2186C69.1617 29.2186 68.0585 28.2379 67.8947 26.6846M70.6744 22.6785C72.1052 22.6785 73.0656 23.4555 73.3106 24.7225H67.9353C68.3035 23.578 69.3248 22.6785 70.6737 22.6785M77.1564 31.1394H79.7317V16.8335H77.1564V31.1394ZM83.791 26.6671H91.5981V25.7676C91.5981 22.8045 89.5541 20.6989 86.6526 20.6989C83.7511 20.6989 81.3186 22.8451 81.3186 26.0532C81.3186 29.2613 83.7098 31.4075 86.5301 31.4075C88.7582 31.4075 90.168 30.5696 91.19 28.8322L89.146 27.8102C88.5125 28.6075 87.9406 29.1997 86.5707 29.1997C85.058 29.1997 83.9548 28.219 83.791 26.6657M86.5707 22.6596C88.0015 22.6596 88.9619 23.4366 89.2069 24.7036H83.8316C84.1998 23.5591 85.2211 22.6596 86.57 22.6596M102.838 28.6887L100.713 27.5239C100.1 28.3821 99.4458 28.9953 98.1788 28.9953C96.6255 28.9953 95.481 27.8711 95.481 26.0525C95.481 24.2339 96.6661 23.1097 98.1788 23.1097C99.0986 23.1097 99.8959 23.5388 100.529 24.4992L102.737 23.2322C102.001 21.6586 100.407 20.6982 98.1998 20.6982C95.3179 20.6982 92.8658 22.8234 92.8658 26.0525C92.8658 29.2816 95.1954 31.4068 98.1998 31.4068C100.366 31.4068 101.817 30.4261 102.839 28.6887M114.794 26.0525C114.794 22.4965 112.035 20.6982 109.256 20.6982C106.476 20.6982 103.717 22.4965 103.717 26.0525C103.717 29.6085 106.476 31.4068 109.256 31.4068C112.035 31.4068 114.794 29.6085 114.794 26.0525ZM109.256 28.9953C107.744 28.9953 106.333 27.9117 106.333 26.0525C106.333 24.1933 107.744 23.1097 109.256 23.1097C110.768 23.1097 112.178 24.1926 112.178 26.0525C112.178 27.9124 110.768 28.9953 109.256 28.9953ZM130.914 31.1205V24.0288C130.914 22.0261 129.75 20.6975 127.645 20.6975C126.398 20.6975 125.151 21.2491 124.416 22.4349C123.986 21.352 123.087 20.6975 121.595 20.6975C120.533 20.6975 119.408 21.1672 118.652 22.3327V20.9838H116.077V31.1205H118.652V25.4386C118.652 23.8034 119.572 22.9452 120.573 22.9452C121.697 22.9452 122.208 23.6606 122.208 24.887V31.1205H124.784V25.4799C124.784 23.8041 125.601 22.9459 126.746 22.9459C127.89 22.9459 128.34 23.6613 128.34 24.8464V31.1205H130.916H130.914Z" fill="white"/>
<path d="M8.53492 26.1382L21.9791 12.778L9.66822 0.5L2.69832 7.4559C0.61512 9.5321 0.89652 10.8915 0.89652 13.6803V32.7637C0.89652 34.2386 2.12012 35.5 3.66152 35.5H17.9016L17.5005 35.0996L8.53492 26.1382ZM3.66362 35.2655C1.65322 35.2655 1.32912 33.302 2.18522 32.4515L8.36342 26.309L17.3346 35.2655H3.66362Z" fill="white"/>
</svg>
