<svg width="79" height="80" viewBox="0 0 79 80" fill="none" xmlns="http://www.w3.org/2000/svg">
<path fill-rule="evenodd" clip-rule="evenodd" d="M57.9835 43.3061V50.4306L66.4736 43.3061H78.6684V0.000976562H55.2168V43.3061H57.9835ZM63.701 7.84897L63.701 5.30856H62.136L62.136 12.0359H63.701V9.49553H71.4945V7.84897L63.701 7.84897ZM65.6728 13.9664C66.0276 13.9664 66.3458 14.0605 66.6275 14.2486C66.7318 14.3218 66.8779 14.4525 67.0656 14.6407C67.243 14.8288 67.3734 14.9804 67.4569 15.0954C67.5612 15.2313 67.6343 15.3672 67.676 15.5032L71.4945 13.6371V15.4247L67.8012 17.1654V18.9688H71.4945V20.6153H62.136V16.2088C62.136 15.7907 62.2508 15.4195 62.4803 15.0954C62.5533 14.9909 62.689 14.8445 62.8872 14.6564C63.0854 14.4577 63.2367 14.3218 63.341 14.2486C63.6227 14.0605 63.9409 13.9664 64.2957 13.9664H65.6728ZM65.6572 15.6129H64.3113C64.2591 15.6129 64.2226 15.6182 64.2018 15.6286C63.8888 15.8063 63.7218 15.9736 63.701 16.1304V18.9688H66.2362V16.2088C66.2362 16.1356 66.1788 16.0363 66.0641 15.9109C65.9493 15.7854 65.8345 15.6913 65.7198 15.6286C65.6989 15.6182 65.678 15.6129 65.6572 15.6129ZM71.4945 28.7011V22.8049H69.9295V27.0546H67.629L67.629 23.1028H66.0641V27.0546H63.701V22.8049H62.136V28.7011H71.4945ZM70.2738 31.0492C70.1173 30.9342 69.9191 30.8244 69.6791 30.7199L69.2566 32.3194L69.3975 32.4135C69.5018 32.4867 69.6165 32.586 69.7417 32.7115C69.8669 32.8265 69.9504 32.931 69.9921 33.0251C70.0026 33.046 70.0078 33.0721 70.0078 33.1035V34.8912C70.0078 34.9539 70.0026 34.9905 69.9921 35.001C69.9191 35.1369 69.8043 35.2937 69.6478 35.4714C69.4809 35.6387 69.3557 35.7223 69.2723 35.7223H64.5148C64.4209 35.7223 64.3635 35.7171 64.3426 35.7066C64.0296 35.508 63.8001 35.2728 63.654 35.001L63.6384 34.9382V33.0878C63.6384 33.0564 63.6436 33.0355 63.654 33.0251C63.7479 32.8683 63.9879 32.633 64.3739 32.3194L63.9201 30.7199C63.6384 30.8767 63.4558 30.9865 63.3723 31.0492C62.5064 31.7078 62.0734 32.3717 62.0734 33.0408V35.001C62.0734 35.3146 62.1673 35.6387 62.3551 35.9732C62.4386 36.1196 62.6107 36.3234 62.8715 36.5848C63.1219 36.8357 63.3254 37.0134 63.4819 37.118C63.7323 37.2852 64.0244 37.3689 64.3583 37.3689H69.2879C69.6322 37.3689 69.9295 37.2852 70.1799 37.118C70.326 37.0134 70.5242 36.8357 70.7746 36.5848C71.025 36.3339 71.1972 36.13 71.2911 35.9732C71.4789 35.67 71.5728 35.346 71.5728 35.001V33.0408C71.5728 32.3612 71.1398 31.6974 70.2738 31.0492Z" fill="#00FFF0"/>
<path d="M51.5738 80.0011H36.4424V78.0898H51.5738C57.0848 78.0898 58.8155 74.7875 59.2934 72.016C59.3369 71.7654 59.289 71.5076 59.1584 71.2893C59.0279 71.0711 58.8233 70.9069 58.582 70.8267L39.4686 64.222L40.0951 62.4062L59.2084 69.0216C59.8681 69.2602 60.4235 69.722 60.7784 70.3271C61.1333 70.9322 61.2653 71.6424 61.1516 72.3346C60.78 74.6919 59.0492 80.0011 51.5738 80.0011Z" fill="#04CBF5"/>
<path d="M51.5738 80.0011H36.4424V78.0898H51.5738C57.0848 78.0898 58.8155 74.7875 59.2934 72.016C59.3369 71.7654 59.289 71.5076 59.1584 71.2893C59.0279 71.0711 58.8233 70.9069 58.582 70.8267L39.4686 64.222L40.0951 62.4062L59.2084 69.0216C59.8681 69.2602 60.4235 69.722 60.7784 70.3271C61.1333 70.9322 61.2653 71.6424 61.1516 72.3346C60.78 74.6919 59.0492 80.0011 51.5738 80.0011Z" fill="#04CBF5"/>
<path d="M24.645 80.0005H9.59857C2.16561 80.0005 0.392316 74.6382 0.0419053 72.3339C-0.0746844 71.6456 0.0538008 70.9382 0.404972 70.3348C0.756144 69.7314 1.30776 69.2702 1.96385 69.0316L20.4188 62.3101L21.0772 64.1046L2.6222 70.8261C2.38491 70.908 2.18431 71.0714 2.05601 71.2872C1.92772 71.5029 1.88005 71.7572 1.9214 72.0048C2.39924 74.7868 4.13001 78.0892 9.64102 78.0892H24.6662L24.645 80.0005Z" fill="#04CBF5"/>
<path d="M24.645 80.0005H9.59857C2.16561 80.0005 0.392316 74.6382 0.0419053 72.3339C-0.0746844 71.6456 0.0538008 70.9382 0.404972 70.3348C0.756144 69.7314 1.30776 69.2702 1.96385 69.0316L20.4188 62.3101L21.0772 64.1046L2.6222 70.8261C2.38491 70.908 2.18431 71.0714 2.05601 71.2872C1.92772 71.5029 1.88005 71.7572 1.9214 72.0048C2.39924 74.7868 4.13001 78.0892 9.64102 78.0892H24.6662L24.645 80.0005Z" fill="#04CBF5"/>
<path d="M38.9797 52.8271H37.0684V59.7717H38.9797V52.8271Z" fill="#04CBF5"/>
<path d="M24.1359 52.8271H22.2246V59.5381H24.1359V52.8271Z" fill="#04CBF5"/>
<path d="M30.7075 56.1627H30.4845C27.3068 56.1574 24.2442 54.9728 21.8901 52.8384C19.536 50.704 18.0579 47.7718 17.7422 44.6098L17.4237 41.4243C16.7376 41.4226 16.0704 41.1996 15.5213 40.7882C14.9722 40.3769 14.5706 39.7992 14.3762 39.1413L13.4311 35.7221C13.3917 35.3202 13.4322 34.9144 13.5504 34.5282C13.6686 34.142 13.8621 33.7831 14.1198 33.4721C14.3775 33.1612 14.6942 32.9043 15.0517 32.7164C15.4092 32.5285 15.8003 32.4132 16.2025 32.3773H16.4893L16.2557 30.1155C16.0719 28.3289 16.2641 26.5235 16.82 24.8156C17.3759 23.1077 18.2831 21.5351 19.4833 20.1989C20.6835 18.8627 22.1501 17.7924 23.7887 17.0571C25.4274 16.3218 27.2018 15.9376 28.9979 15.9292H32.1835C33.9834 15.9273 35.7637 16.3034 37.4092 17.033C39.0546 17.7626 40.5286 18.8295 41.7356 20.1647C42.9427 21.4999 43.8561 23.0736 44.4166 24.7841C44.9771 26.4946 45.1722 28.3036 44.9894 30.0943L44.7557 32.356H45.0425C45.4442 32.3933 45.8346 32.5095 46.1914 32.6978C46.5482 32.8862 46.8644 33.1431 47.1218 33.4537C47.3792 33.7644 47.5728 34.1228 47.6916 34.5084C47.8103 34.894 47.8519 35.2992 47.8139 35.7009V35.8601L46.9007 39.12C46.7193 39.7744 46.3281 40.3512 45.7871 40.7617C45.2462 41.1723 44.5854 41.3938 43.9063 41.3924L43.5771 44.578C43.2692 47.7685 41.7769 50.7279 39.3945 52.8724C37.0122 55.0169 33.9127 56.1908 30.7075 56.1627ZM17.6573 39.5023C18.0177 39.4982 18.3677 39.6224 18.6449 39.8527C18.8105 39.9804 18.9485 40.1404 19.0507 40.3228C19.1529 40.5053 19.2171 40.7066 19.2395 40.9146L19.6005 44.4081C19.8695 47.106 21.133 49.6073 23.1449 51.4249C25.1568 53.2425 27.7731 54.2463 30.4845 54.2408H30.7075C33.4188 54.2463 36.0351 53.2425 38.047 51.4249C40.0589 49.6073 41.3224 47.106 41.5914 44.4081L41.9524 40.9146C42.0023 40.4959 42.2162 40.114 42.5471 39.8527C42.7097 39.7221 42.8969 39.6257 43.0976 39.5691C43.2983 39.5125 43.5083 39.497 43.7151 39.5235C44.0036 39.5572 44.2945 39.4869 44.5358 39.3254C44.7771 39.1639 44.953 38.9216 45.0318 38.6422L45.9132 35.4566C45.9224 35.1601 45.8173 34.8714 45.6197 34.65C45.4221 34.4287 45.147 34.2917 44.8513 34.2674L42.6427 34.055L43.0781 29.8819C43.2356 28.3565 43.0712 26.815 42.5955 25.3572C42.1198 23.8993 41.3434 22.5575 40.3165 21.4185C39.2896 20.2796 38.0352 19.3688 36.6342 18.7452C35.2332 18.1215 33.717 17.7989 32.1835 17.7981H28.9979C27.4615 17.7971 25.942 18.1192 24.5382 18.7434C23.1343 19.3677 21.8775 20.2802 20.8491 21.4217C19.8208 22.5632 19.044 23.9082 18.5691 25.3693C18.0942 26.8305 17.9319 28.3752 18.0927 29.9032L18.528 34.0869L16.3194 34.2886C16.0141 34.3211 15.7329 34.4693 15.5336 34.7027C15.3527 34.9196 15.2582 35.1956 15.2682 35.4779L16.1495 38.6634C16.2301 38.9389 16.4053 39.1772 16.6441 39.3365C16.8829 39.4957 17.1703 39.5657 17.4556 39.5342L17.6573 39.5023Z" fill="#04CBF5"/>
<path d="M30.7075 56.1627H30.4845C27.3068 56.1574 24.2442 54.9728 21.8901 52.8384C19.536 50.704 18.0579 47.7718 17.7422 44.6098L17.4237 41.4243C16.7376 41.4226 16.0704 41.1996 15.5213 40.7882C14.9722 40.3769 14.5706 39.7992 14.3762 39.1413L13.4311 35.7221C13.3917 35.3202 13.4322 34.9144 13.5504 34.5282C13.6686 34.142 13.8621 33.7831 14.1198 33.4721C14.3775 33.1612 14.6942 32.9043 15.0517 32.7164C15.4092 32.5285 15.8003 32.4132 16.2025 32.3773H16.4893L16.2557 30.1155C16.0719 28.3289 16.2641 26.5235 16.82 24.8156C17.3759 23.1077 18.2831 21.5351 19.4833 20.1989C20.6835 18.8627 22.1501 17.7924 23.7887 17.0571C25.4274 16.3218 27.2018 15.9376 28.9979 15.9292H32.1835C33.9834 15.9273 35.7637 16.3034 37.4092 17.033C39.0546 17.7626 40.5286 18.8295 41.7356 20.1647C42.9427 21.4999 43.8561 23.0736 44.4166 24.7841C44.9771 26.4946 45.1722 28.3036 44.9894 30.0943L44.7557 32.356H45.0425C45.4442 32.3933 45.8346 32.5095 46.1914 32.6978C46.5482 32.8862 46.8644 33.1431 47.1218 33.4537C47.3792 33.7644 47.5728 34.1228 47.6916 34.5084C47.8103 34.894 47.8519 35.2992 47.8139 35.7009V35.8601L46.9007 39.12C46.7193 39.7744 46.3281 40.3512 45.7871 40.7617C45.2462 41.1723 44.5854 41.3938 43.9063 41.3924L43.5771 44.578C43.2692 47.7685 41.7769 50.7279 39.3945 52.8724C37.0122 55.0169 33.9127 56.1908 30.7075 56.1627ZM17.6573 39.5023C18.0177 39.4982 18.3677 39.6224 18.6449 39.8527C18.8105 39.9804 18.9485 40.1404 19.0507 40.3228C19.1529 40.5053 19.2171 40.7066 19.2395 40.9146L19.6005 44.4081C19.8695 47.106 21.133 49.6073 23.1449 51.4249C25.1568 53.2425 27.7731 54.2463 30.4845 54.2408H30.7075C33.4188 54.2463 36.0351 53.2425 38.047 51.4249C40.0589 49.6073 41.3224 47.106 41.5914 44.4081L41.9524 40.9146C42.0023 40.4959 42.2162 40.114 42.5471 39.8527C42.7097 39.7221 42.8969 39.6257 43.0976 39.5691C43.2983 39.5125 43.5083 39.497 43.7151 39.5235C44.0036 39.5572 44.2945 39.4869 44.5358 39.3254C44.7771 39.1639 44.953 38.9216 45.0318 38.6422L45.9132 35.4566C45.9224 35.1601 45.8173 34.8714 45.6197 34.65C45.4221 34.4287 45.147 34.2917 44.8513 34.2674L42.6427 34.055L43.0781 29.8819C43.2356 28.3565 43.0712 26.815 42.5955 25.3572C42.1198 23.8993 41.3434 22.5575 40.3165 21.4185C39.2896 20.2796 38.0352 19.3688 36.6342 18.7452C35.2332 18.1215 33.717 17.7989 32.1835 17.7981H28.9979C27.4615 17.7971 25.942 18.1192 24.5382 18.7434C23.1343 19.3677 21.8775 20.2802 20.8491 21.4217C19.8208 22.5632 19.044 23.9082 18.5691 25.3693C18.0942 26.8305 17.9319 28.3752 18.0927 29.9032L18.528 34.0869L16.3194 34.2886C16.0141 34.3211 15.7329 34.4693 15.5336 34.7027C15.3527 34.9196 15.2582 35.1956 15.2682 35.4779L16.1495 38.6634C16.2301 38.9389 16.4053 39.1772 16.6441 39.3365C16.8829 39.4957 17.1703 39.5657 17.4556 39.5342L17.6573 39.5023Z" fill="#04CBF5"/>
<path d="M24.7519 70.4964H24.4227C24.1037 70.4415 23.8038 70.3066 23.5512 70.1041C23.2986 69.9017 23.1015 69.6384 22.9785 69.339L20.6425 63.6687C20.4327 63.1637 20.3672 62.6104 20.4534 62.0704C20.5397 61.5305 20.7742 61.0251 21.1309 60.6106L23.382 57.9878L31.2504 64.189L26.1747 69.8805C25.9937 70.0769 25.7736 70.2332 25.5285 70.3392C25.2835 70.4453 25.0189 70.4988 24.7519 70.4964ZM23.69 60.6L22.6282 61.8317C22.5061 61.9765 22.425 62.1513 22.3933 62.3381C22.3615 62.5248 22.3803 62.7166 22.4476 62.8936L24.7837 68.5532L28.5108 64.3802L23.69 60.6Z" fill="#04CBF5"/>
<path d="M24.7519 70.4964H24.4227C24.1037 70.4415 23.8038 70.3066 23.5512 70.1041C23.2986 69.9017 23.1015 69.6384 22.9785 69.339L20.6425 63.6687C20.4327 63.1637 20.3672 62.6104 20.4534 62.0704C20.5397 61.5305 20.7742 61.0251 21.1309 60.6106L23.382 57.9878L31.2504 64.189L26.1747 69.8805C25.9937 70.0769 25.7736 70.2332 25.5285 70.3392C25.2835 70.4453 25.0189 70.4988 24.7519 70.4964ZM23.69 60.6L22.6282 61.8317C22.5061 61.9765 22.425 62.1513 22.3933 62.3381C22.3615 62.5248 22.3803 62.7166 22.4476 62.8936L24.7837 68.5532L28.5108 64.3802L23.69 60.6Z" fill="#00FFF0"/>
<path d="M36.4424 70.4976C36.1736 70.4987 35.9076 70.4425 35.6622 70.3326C35.4168 70.2227 35.1977 70.0618 35.0195 69.8605L29.9438 64.169L37.8122 57.9678L40.0633 60.5905C40.4209 61.0067 40.6559 61.5139 40.7421 62.0557C40.8284 62.5976 40.7625 63.1527 40.5518 63.6593L38.2157 69.319C38.0927 69.6184 37.8956 69.8817 37.643 70.0841C37.3905 70.2866 37.0906 70.4215 36.7716 70.4764L36.4424 70.4976ZM32.726 64.4132L36.453 68.5863L38.7785 62.9266C38.8472 62.7505 38.8678 62.5593 38.8379 62.3726C38.808 62.1859 38.7289 62.0106 38.6086 61.8648L37.5467 60.633L32.726 64.4132Z" fill="#04CBF5"/>
<path d="M36.4424 70.4976C36.1736 70.4987 35.9076 70.4425 35.6622 70.3326C35.4168 70.2227 35.1977 70.0618 35.0195 69.8605L29.9438 64.169L37.8122 57.9678L40.0633 60.5905C40.4209 61.0067 40.6559 61.5139 40.7421 62.0557C40.8284 62.5976 40.7625 63.1527 40.5518 63.6593L38.2157 69.319C38.0927 69.6184 37.8956 69.8817 37.643 70.0841C37.3905 70.2866 37.0906 70.4215 36.7716 70.4764L36.4424 70.4976ZM32.726 64.4132L36.453 68.5863L38.7785 62.9266C38.8472 62.7505 38.8678 62.5593 38.8379 62.3726C38.808 62.1859 38.7289 62.0106 38.6086 61.8648L37.5467 60.633L32.726 64.4132Z" fill="#00FFF0"/>
<path d="M31.8336 74.2023H29.3595C29.0163 74.2044 28.6771 74.128 28.3679 73.9789C28.0587 73.8299 27.7877 73.6121 27.5756 73.3422L27.119 72.7475C26.81 72.3537 26.6418 71.8677 26.6412 71.3671V70.6132C26.6372 70.0547 26.846 69.5155 27.2252 69.1054L28.4463 67.7462C28.6593 67.513 28.9184 67.3265 29.2072 67.1986C29.496 67.0706 29.8082 67.004 30.1241 67.0029H31.0691C31.3849 67.004 31.6972 67.0706 31.9859 67.1986C32.2747 67.3265 32.5338 67.513 32.7468 67.7462L33.968 69.1054C34.3472 69.5155 34.556 70.0547 34.552 70.6132V71.3671C34.5514 71.8677 34.3831 72.3537 34.0741 72.7475L33.6175 73.3422C33.4065 73.6133 33.1358 73.8319 32.8263 73.9811C32.5169 74.1303 32.1771 74.206 31.8336 74.2023ZM30.1241 68.893C30.0757 68.8932 30.028 68.9038 29.984 68.9239C29.9401 68.944 29.901 68.9733 29.8692 69.0098L28.6375 70.4433C28.5831 70.5049 28.5529 70.5841 28.5525 70.6663V71.4202C28.5508 71.4571 28.5564 71.494 28.5692 71.5286C28.582 71.5633 28.6016 71.595 28.6268 71.622L29.0834 72.2166C29.1158 72.2592 29.1576 72.2937 29.2055 72.3177C29.2533 72.3416 29.306 72.3542 29.3595 72.3546H31.8336C31.8871 72.3542 31.9398 72.3416 31.9877 72.3177C32.0355 72.2937 32.0773 72.2592 32.1097 72.2166L32.5663 71.622C32.5916 71.595 32.6112 71.5633 32.6239 71.5286C32.6367 71.494 32.6424 71.4571 32.6407 71.4202V70.6663C32.6402 70.5841 32.61 70.5049 32.5557 70.4433L31.324 69.0841C31.2922 69.0477 31.2531 69.0184 31.2091 68.9982C31.1652 68.9781 31.1174 68.9675 31.0691 68.9673L30.1241 68.893Z" fill="#04CBF5"/>
<path d="M31.8336 74.2023H29.3595C29.0163 74.2044 28.6771 74.128 28.3679 73.9789C28.0587 73.8299 27.7877 73.6121 27.5756 73.3422L27.119 72.7475C26.81 72.3537 26.6418 71.8677 26.6412 71.3671V70.6132C26.6372 70.0547 26.846 69.5155 27.2252 69.1054L28.4463 67.7462C28.6593 67.513 28.9184 67.3265 29.2072 67.1986C29.496 67.0706 29.8082 67.004 30.1241 67.0029H31.0691C31.3849 67.004 31.6972 67.0706 31.9859 67.1986C32.2747 67.3265 32.5338 67.513 32.7468 67.7462L33.968 69.1054C34.3472 69.5155 34.556 70.0547 34.552 70.6132V71.3671C34.5514 71.8677 34.3831 72.3537 34.0741 72.7475L33.6175 73.3422C33.4065 73.6133 33.1358 73.8319 32.8263 73.9811C32.5169 74.1303 32.1771 74.206 31.8336 74.2023ZM30.1241 68.893C30.0757 68.8932 30.028 68.9038 29.984 68.9239C29.9401 68.944 29.901 68.9733 29.8692 69.0098L28.6375 70.4433C28.5831 70.5049 28.5529 70.5841 28.5525 70.6663V71.4202C28.5508 71.4571 28.5564 71.494 28.5692 71.5286C28.582 71.5633 28.6016 71.595 28.6268 71.622L29.0834 72.2166C29.1158 72.2592 29.1576 72.2937 29.2055 72.3177C29.2533 72.3416 29.306 72.3542 29.3595 72.3546H31.8336C31.8871 72.3542 31.9398 72.3416 31.9877 72.3177C32.0355 72.2937 32.0773 72.2592 32.1097 72.2166L32.5663 71.622C32.5916 71.595 32.6112 71.5633 32.6239 71.5286C32.6367 71.494 32.6424 71.4571 32.6407 71.4202V70.6663C32.6402 70.5841 32.61 70.5049 32.5557 70.4433L31.324 69.0841C31.2922 69.0477 31.2531 69.0184 31.2091 68.9982C31.1652 68.9781 31.1174 68.9675 31.0691 68.9673L30.1241 68.893Z" fill="#00FFF0"/>
<path d="M34.9877 80.0007H26.1743L28.5954 74.4048H32.641L34.9877 80.0007ZM29.0838 78.0894H32.1101L31.3774 76.3161H29.8483L29.0838 78.0894Z" fill="#00FFF0"/>
</svg>
