<svg width="80" height="80" viewBox="0 0 80 80" fill="none" xmlns="http://www.w3.org/2000/svg">
<g opacity="0.8" clip-path="url(#clip0_43_13476)">
<path d="M52.5738 80.0011H37.4424V78.0898H52.5738C58.0848 78.0898 59.8155 74.7875 60.2934 72.016C60.3369 71.7654 60.289 71.5076 60.1584 71.2893C60.0279 71.0711 59.8233 70.9069 59.582 70.8267L40.4686 64.222L41.0951 62.4062L60.2084 69.0216C60.8681 69.2602 61.4235 69.722 61.7784 70.3271C62.1333 70.9322 62.2653 71.6424 62.1516 72.3346C61.78 74.6919 60.0492 80.0011 52.5738 80.0011Z" fill="#04CBF5"/>
<path d="M52.5738 80.0011H37.4424V78.0898H52.5738C58.0848 78.0898 59.8155 74.7875 60.2934 72.016C60.3369 71.7654 60.289 71.5076 60.1584 71.2893C60.0279 71.0711 59.8233 70.9069 59.582 70.8267L40.4686 64.222L41.0951 62.4062L60.2084 69.0216C60.8681 69.2602 61.4235 69.722 61.7784 70.3271C62.1333 70.9322 62.2653 71.6424 62.1516 72.3346C61.78 74.6919 60.0492 80.0011 52.5738 80.0011Z" fill="#04CBF5"/>
<path d="M25.645 80.0005H10.5986C3.16561 80.0005 1.39232 74.6382 1.04191 72.3339C0.925316 71.6456 1.0538 70.9382 1.40497 70.3348C1.75614 69.7314 2.30776 69.2702 2.96385 69.0316L21.4188 62.3101L22.0772 64.1046L3.6222 70.8261C3.38491 70.908 3.18431 71.0714 3.05601 71.2872C2.92772 71.5029 2.88005 71.7572 2.9214 72.0048C3.39924 74.7868 5.13001 78.0892 10.641 78.0892H25.6662L25.645 80.0005Z" fill="#04CBF5"/>
<path d="M25.645 80.0005H10.5986C3.16561 80.0005 1.39232 74.6382 1.04191 72.3339C0.925316 71.6456 1.0538 70.9382 1.40497 70.3348C1.75614 69.7314 2.30776 69.2702 2.96385 69.0316L21.4188 62.3101L22.0772 64.1046L3.6222 70.8261C3.38491 70.908 3.18431 71.0714 3.05601 71.2872C2.92772 71.5029 2.88005 71.7572 2.9214 72.0048C3.39924 74.7868 5.13001 78.0892 10.641 78.0892H25.6662L25.645 80.0005Z" fill="#04CBF5"/>
<path d="M39.9797 52.8271H38.0684V59.7717H39.9797V52.8271Z" fill="#04CBF5"/>
<path d="M25.1359 52.8271H23.2246V59.5381H25.1359V52.8271Z" fill="#04CBF5"/>
<path d="M31.7075 56.1627H31.4845C28.3068 56.1574 25.2442 54.9728 22.8901 52.8384C20.536 50.704 19.0579 47.7718 18.7422 44.6098L18.4237 41.4243C17.7376 41.4226 17.0704 41.1996 16.5213 40.7882C15.9722 40.3769 15.5706 39.7992 15.3762 39.1413L14.4311 35.7221C14.3917 35.3202 14.4322 34.9144 14.5504 34.5282C14.6686 34.142 14.8621 33.7831 15.1198 33.4721C15.3775 33.1612 15.6942 32.9043 16.0517 32.7164C16.4092 32.5285 16.8003 32.4132 17.2025 32.3773H17.4893L17.2557 30.1155C17.0719 28.3289 17.2641 26.5235 17.82 24.8156C18.3759 23.1077 19.2831 21.5351 20.4833 20.1989C21.6835 18.8627 23.1501 17.7924 24.7887 17.0571C26.4274 16.3218 28.2018 15.9376 29.9979 15.9292H33.1835C34.9834 15.9273 36.7637 16.3034 38.4092 17.033C40.0546 17.7626 41.5286 18.8295 42.7356 20.1647C43.9427 21.4999 44.8561 23.0736 45.4166 24.7841C45.9771 26.4946 46.1722 28.3036 45.9894 30.0943L45.7557 32.356H46.0425C46.4442 32.3933 46.8346 32.5095 47.1914 32.6978C47.5482 32.8862 47.8644 33.1431 48.1218 33.4537C48.3792 33.7644 48.5728 34.1228 48.6916 34.5084C48.8103 34.894 48.8519 35.2992 48.8139 35.7009V35.8601L47.9007 39.12C47.7193 39.7744 47.3281 40.3512 46.7871 40.7617C46.2462 41.1723 45.5854 41.3938 44.9063 41.3924L44.5771 44.578C44.2692 47.7685 42.7769 50.7279 40.3945 52.8724C38.0122 55.0169 34.9127 56.1908 31.7075 56.1627ZM18.6573 39.5023C19.0177 39.4982 19.3677 39.6224 19.6449 39.8527C19.8105 39.9804 19.9485 40.1404 20.0507 40.3228C20.1529 40.5053 20.2171 40.7066 20.2395 40.9146L20.6005 44.4081C20.8695 47.106 22.133 49.6073 24.1449 51.4249C26.1568 53.2425 28.7731 54.2463 31.4845 54.2408H31.7075C34.4188 54.2463 37.0351 53.2425 39.047 51.4249C41.0589 49.6073 42.3224 47.106 42.5914 44.4081L42.9524 40.9146C43.0023 40.4959 43.2162 40.114 43.5471 39.8527C43.7097 39.7221 43.8969 39.6257 44.0976 39.5691C44.2983 39.5125 44.5083 39.497 44.7151 39.5235C45.0036 39.5572 45.2945 39.4869 45.5358 39.3254C45.7771 39.1639 45.953 38.9216 46.0318 38.6422L46.9132 35.4566C46.9224 35.1601 46.8173 34.8714 46.6197 34.65C46.4221 34.4287 46.147 34.2917 45.8513 34.2674L43.6427 34.055L44.0781 29.8819C44.2356 28.3565 44.0712 26.815 43.5955 25.3572C43.1198 23.8993 42.3434 22.5575 41.3165 21.4185C40.2896 20.2796 39.0352 19.3688 37.6342 18.7452C36.2332 18.1215 34.717 17.7989 33.1835 17.7981H29.9979C28.4615 17.7971 26.942 18.1192 25.5382 18.7434C24.1343 19.3677 22.8775 20.2802 21.8491 21.4217C20.8208 22.5632 20.044 23.9082 19.5691 25.3693C19.0942 26.8305 18.9319 28.3752 19.0927 29.9032L19.528 34.0869L17.3194 34.2886C17.0141 34.3211 16.7329 34.4693 16.5336 34.7027C16.3527 34.9196 16.2582 35.1956 16.2682 35.4779L17.1495 38.6634C17.2301 38.9389 17.4053 39.1772 17.6441 39.3365C17.8829 39.4957 18.1703 39.5657 18.4556 39.5342L18.6573 39.5023Z" fill="#04CBF5"/>
<path d="M31.7075 56.1627H31.4845C28.3068 56.1574 25.2442 54.9728 22.8901 52.8384C20.536 50.704 19.0579 47.7718 18.7422 44.6098L18.4237 41.4243C17.7376 41.4226 17.0704 41.1996 16.5213 40.7882C15.9722 40.3769 15.5706 39.7992 15.3762 39.1413L14.4311 35.7221C14.3917 35.3202 14.4322 34.9144 14.5504 34.5282C14.6686 34.142 14.8621 33.7831 15.1198 33.4721C15.3775 33.1612 15.6942 32.9043 16.0517 32.7164C16.4092 32.5285 16.8003 32.4132 17.2025 32.3773H17.4893L17.2557 30.1155C17.0719 28.3289 17.2641 26.5235 17.82 24.8156C18.3759 23.1077 19.2831 21.5351 20.4833 20.1989C21.6835 18.8627 23.1501 17.7924 24.7887 17.0571C26.4274 16.3218 28.2018 15.9376 29.9979 15.9292H33.1835C34.9834 15.9273 36.7637 16.3034 38.4092 17.033C40.0546 17.7626 41.5286 18.8295 42.7356 20.1647C43.9427 21.4999 44.8561 23.0736 45.4166 24.7841C45.9771 26.4946 46.1722 28.3036 45.9894 30.0943L45.7557 32.356H46.0425C46.4442 32.3933 46.8346 32.5095 47.1914 32.6978C47.5482 32.8862 47.8644 33.1431 48.1218 33.4537C48.3792 33.7644 48.5728 34.1228 48.6916 34.5084C48.8103 34.894 48.8519 35.2992 48.8139 35.7009V35.8601L47.9007 39.12C47.7193 39.7744 47.3281 40.3512 46.7871 40.7617C46.2462 41.1723 45.5854 41.3938 44.9063 41.3924L44.5771 44.578C44.2692 47.7685 42.7769 50.7279 40.3945 52.8724C38.0122 55.0169 34.9127 56.1908 31.7075 56.1627ZM18.6573 39.5023C19.0177 39.4982 19.3677 39.6224 19.6449 39.8527C19.8105 39.9804 19.9485 40.1404 20.0507 40.3228C20.1529 40.5053 20.2171 40.7066 20.2395 40.9146L20.6005 44.4081C20.8695 47.106 22.133 49.6073 24.1449 51.4249C26.1568 53.2425 28.7731 54.2463 31.4845 54.2408H31.7075C34.4188 54.2463 37.0351 53.2425 39.047 51.4249C41.0589 49.6073 42.3224 47.106 42.5914 44.4081L42.9524 40.9146C43.0023 40.4959 43.2162 40.114 43.5471 39.8527C43.7097 39.7221 43.8969 39.6257 44.0976 39.5691C44.2983 39.5125 44.5083 39.497 44.7151 39.5235C45.0036 39.5572 45.2945 39.4869 45.5358 39.3254C45.7771 39.1639 45.953 38.9216 46.0318 38.6422L46.9132 35.4566C46.9224 35.1601 46.8173 34.8714 46.6197 34.65C46.4221 34.4287 46.147 34.2917 45.8513 34.2674L43.6427 34.055L44.0781 29.8819C44.2356 28.3565 44.0712 26.815 43.5955 25.3572C43.1198 23.8993 42.3434 22.5575 41.3165 21.4185C40.2896 20.2796 39.0352 19.3688 37.6342 18.7452C36.2332 18.1215 34.717 17.7989 33.1835 17.7981H29.9979C28.4615 17.7971 26.942 18.1192 25.5382 18.7434C24.1343 19.3677 22.8775 20.2802 21.8491 21.4217C20.8208 22.5632 20.044 23.9082 19.5691 25.3693C19.0942 26.8305 18.9319 28.3752 19.0927 29.9032L19.528 34.0869L17.3194 34.2886C17.0141 34.3211 16.7329 34.4693 16.5336 34.7027C16.3527 34.9196 16.2582 35.1956 16.2682 35.4779L17.1495 38.6634C17.2301 38.9389 17.4053 39.1772 17.6441 39.3365C17.8829 39.4957 18.1703 39.5657 18.4556 39.5342L18.6573 39.5023Z" fill="#04CBF5"/>
<path d="M25.7519 70.4964H25.4227C25.1037 70.4415 24.8038 70.3066 24.5512 70.1041C24.2986 69.9017 24.1015 69.6384 23.9785 69.339L21.6425 63.6687C21.4327 63.1637 21.3672 62.6104 21.4534 62.0704C21.5397 61.5305 21.7742 61.0251 22.1309 60.6106L24.382 57.9878L32.2504 64.189L27.1747 69.8805C26.9937 70.0769 26.7736 70.2332 26.5285 70.3392C26.2835 70.4453 26.0189 70.4988 25.7519 70.4964ZM24.69 60.6L23.6282 61.8317C23.5061 61.9765 23.425 62.1513 23.3933 62.3381C23.3615 62.5248 23.3803 62.7166 23.4476 62.8936L25.7837 68.5532L29.5108 64.3802L24.69 60.6Z" fill="#04CBF5"/>
<path d="M25.7519 70.4964H25.4227C25.1037 70.4415 24.8038 70.3066 24.5512 70.1041C24.2986 69.9017 24.1015 69.6384 23.9785 69.339L21.6425 63.6687C21.4327 63.1637 21.3672 62.6104 21.4534 62.0704C21.5397 61.5305 21.7742 61.0251 22.1309 60.6106L24.382 57.9878L32.2504 64.189L27.1747 69.8805C26.9937 70.0769 26.7736 70.2332 26.5285 70.3392C26.2835 70.4453 26.0189 70.4988 25.7519 70.4964ZM24.69 60.6L23.6282 61.8317C23.5061 61.9765 23.425 62.1513 23.3933 62.3381C23.3615 62.5248 23.3803 62.7166 23.4476 62.8936L25.7837 68.5532L29.5108 64.3802L24.69 60.6Z" fill="#00FFF0"/>
<path d="M37.4424 70.4976C37.1736 70.4987 36.9076 70.4425 36.6622 70.3326C36.4168 70.2227 36.1977 70.0618 36.0195 69.8605L30.9438 64.169L38.8122 57.9678L41.0633 60.5905C41.4209 61.0067 41.6559 61.5139 41.7421 62.0557C41.8284 62.5976 41.7625 63.1527 41.5518 63.6593L39.2157 69.319C39.0927 69.6184 38.8956 69.8817 38.643 70.0841C38.3905 70.2866 38.0906 70.4215 37.7716 70.4764L37.4424 70.4976ZM33.726 64.4132L37.453 68.5863L39.7785 62.9266C39.8472 62.7505 39.8678 62.5593 39.8379 62.3726C39.808 62.1859 39.7289 62.0106 39.6086 61.8648L38.5467 60.633L33.726 64.4132Z" fill="#04CBF5"/>
<path d="M37.4424 70.4976C37.1736 70.4987 36.9076 70.4425 36.6622 70.3326C36.4168 70.2227 36.1977 70.0618 36.0195 69.8605L30.9438 64.169L38.8122 57.9678L41.0633 60.5905C41.4209 61.0067 41.6559 61.5139 41.7421 62.0557C41.8284 62.5976 41.7625 63.1527 41.5518 63.6593L39.2157 69.319C39.0927 69.6184 38.8956 69.8817 38.643 70.0841C38.3905 70.2866 38.0906 70.4215 37.7716 70.4764L37.4424 70.4976ZM33.726 64.4132L37.453 68.5863L39.7785 62.9266C39.8472 62.7505 39.8678 62.5593 39.8379 62.3726C39.808 62.1859 39.7289 62.0106 39.6086 61.8648L38.5467 60.633L33.726 64.4132Z" fill="#00FFF0"/>
<path d="M32.8336 74.2023H30.3595C30.0163 74.2044 29.6771 74.128 29.3679 73.9789C29.0587 73.8299 28.7877 73.6121 28.5756 73.3422L28.119 72.7475C27.81 72.3537 27.6418 71.8677 27.6412 71.3671V70.6132C27.6372 70.0547 27.846 69.5155 28.2252 69.1054L29.4463 67.7462C29.6593 67.513 29.9184 67.3265 30.2072 67.1986C30.496 67.0706 30.8082 67.004 31.1241 67.0029H32.0691C32.3849 67.004 32.6972 67.0706 32.9859 67.1986C33.2747 67.3265 33.5338 67.513 33.7468 67.7462L34.968 69.1054C35.3472 69.5155 35.556 70.0547 35.552 70.6132V71.3671C35.5514 71.8677 35.3831 72.3537 35.0741 72.7475L34.6175 73.3422C34.4065 73.6133 34.1358 73.8319 33.8263 73.9811C33.5169 74.1303 33.1771 74.206 32.8336 74.2023ZM31.1241 68.893C31.0757 68.8932 31.028 68.9038 30.984 68.9239C30.9401 68.944 30.901 68.9733 30.8692 69.0098L29.6375 70.4433C29.5831 70.5049 29.5529 70.5841 29.5525 70.6663V71.4202C29.5508 71.4571 29.5564 71.494 29.5692 71.5286C29.582 71.5633 29.6016 71.595 29.6268 71.622L30.0834 72.2166C30.1158 72.2592 30.1576 72.2937 30.2055 72.3177C30.2533 72.3416 30.306 72.3542 30.3595 72.3546H32.8336C32.8871 72.3542 32.9398 72.3416 32.9877 72.3177C33.0355 72.2937 33.0773 72.2592 33.1097 72.2166L33.5663 71.622C33.5916 71.595 33.6112 71.5633 33.6239 71.5286C33.6367 71.494 33.6424 71.4571 33.6407 71.4202V70.6663C33.6402 70.5841 33.61 70.5049 33.5557 70.4433L32.324 69.0841C32.2922 69.0477 32.2531 69.0184 32.2091 68.9982C32.1652 68.9781 32.1174 68.9675 32.0691 68.9673L31.1241 68.893Z" fill="#04CBF5"/>
<path d="M32.8336 74.2023H30.3595C30.0163 74.2044 29.6771 74.128 29.3679 73.9789C29.0587 73.8299 28.7877 73.6121 28.5756 73.3422L28.119 72.7475C27.81 72.3537 27.6418 71.8677 27.6412 71.3671V70.6132C27.6372 70.0547 27.846 69.5155 28.2252 69.1054L29.4463 67.7462C29.6593 67.513 29.9184 67.3265 30.2072 67.1986C30.496 67.0706 30.8082 67.004 31.1241 67.0029H32.0691C32.3849 67.004 32.6972 67.0706 32.9859 67.1986C33.2747 67.3265 33.5338 67.513 33.7468 67.7462L34.968 69.1054C35.3472 69.5155 35.556 70.0547 35.552 70.6132V71.3671C35.5514 71.8677 35.3831 72.3537 35.0741 72.7475L34.6175 73.3422C34.4065 73.6133 34.1358 73.8319 33.8263 73.9811C33.5169 74.1303 33.1771 74.206 32.8336 74.2023ZM31.1241 68.893C31.0757 68.8932 31.028 68.9038 30.984 68.9239C30.9401 68.944 30.901 68.9733 30.8692 69.0098L29.6375 70.4433C29.5831 70.5049 29.5529 70.5841 29.5525 70.6663V71.4202C29.5508 71.4571 29.5564 71.494 29.5692 71.5286C29.582 71.5633 29.6016 71.595 29.6268 71.622L30.0834 72.2166C30.1158 72.2592 30.1576 72.2937 30.2055 72.3177C30.2533 72.3416 30.306 72.3542 30.3595 72.3546H32.8336C32.8871 72.3542 32.9398 72.3416 32.9877 72.3177C33.0355 72.2937 33.0773 72.2592 33.1097 72.2166L33.5663 71.622C33.5916 71.595 33.6112 71.5633 33.6239 71.5286C33.6367 71.494 33.6424 71.4571 33.6407 71.4202V70.6663C33.6402 70.5841 33.61 70.5049 33.5557 70.4433L32.324 69.0841C32.2922 69.0477 32.2531 69.0184 32.2091 68.9982C32.1652 68.9781 32.1174 68.9675 32.0691 68.9673L31.1241 68.893Z" fill="#00FFF0"/>
<path d="M35.9877 80.0007H27.1743L29.5954 74.4048H33.641L35.9877 80.0007ZM30.0838 78.0894H33.1101L32.3774 76.3161H30.8483L30.0838 78.0894Z" fill="#00FFF0"/>
<path fill-rule="evenodd" clip-rule="evenodd" d="M58.9835 43.3061V50.4306L67.4736 43.3061H79.6684V0.000976562H56.2168V43.3061H58.9835ZM64.056 6.15967V3.00082H62.0791L62.0791 11.3659H64.056V8.20708L73.9012 8.20708V6.15967L64.056 6.15967ZM66.547 13.7663C66.9951 13.7663 67.397 13.8833 67.7529 14.1173C67.8847 14.2083 68.0692 14.3708 68.3064 14.6048C68.5305 14.8388 68.6952 15.0272 68.8007 15.1702C68.9325 15.3392 69.0247 15.5082 69.0774 15.6772L73.9012 13.3568V15.5797L69.2356 17.7441V19.9865H73.9012V22.0339H62.0791V16.5547C62.0791 16.0347 62.2241 15.5732 62.514 15.1702C62.6063 15.0402 62.7776 14.8583 63.028 14.6243C63.2784 14.3773 63.4695 14.2083 63.6013 14.1173C63.9572 13.8833 64.3591 13.7663 64.8072 13.7663H66.547ZM66.5272 15.8137H64.827C64.7611 15.8137 64.715 15.8202 64.6886 15.8332C64.2932 16.0542 64.0824 16.2622 64.056 16.4572V19.9865H67.2587L67.2586 16.5547C67.2586 16.4637 67.1862 16.3402 67.0412 16.1842C66.8962 16.0282 66.7512 15.9112 66.6063 15.8332C66.5799 15.8202 66.5535 15.8137 66.5272 15.8137ZM73.9012 26.8897V24.8422H62.0791L62.0791 26.8897H73.9012ZM72.3591 29.8093C72.1614 29.6663 71.911 29.5299 71.6079 29.3999L71.0741 31.3888L71.2521 31.5058C71.3839 31.5968 71.5288 31.7203 71.687 31.8762C71.8451 32.0192 71.9506 32.1492 72.0033 32.2662C72.0165 32.2922 72.0231 32.3247 72.0231 32.3637V34.5866C72.0231 34.6646 72.0165 34.7101 72.0033 34.7231C71.911 34.8921 71.7661 35.0871 71.5684 35.3081C71.3575 35.5161 71.1993 35.6201 71.0939 35.6201H65.084C64.9654 35.6201 64.8929 35.6136 64.8666 35.6006C64.4712 35.3536 64.1812 35.0611 63.9967 34.7231L63.9769 34.6451V32.3442C63.9769 32.3052 63.9835 32.2792 63.9967 32.2662C64.1153 32.0712 64.4185 31.7788 64.9061 31.3888L64.3328 29.3999C63.9769 29.5949 63.7463 29.7313 63.6409 29.8093C62.547 30.6283 62 31.4538 62 32.2857V34.7231C62 35.1131 62.1186 35.5161 62.3558 35.9321C62.4613 36.1141 62.6787 36.3675 63.0082 36.6925C63.3245 37.0045 63.5815 37.2255 63.7792 37.3555C64.0956 37.5635 64.4646 37.6675 64.8863 37.6675H71.1137C71.5486 37.6675 71.9242 37.5635 72.2405 37.3555C72.425 37.2255 72.6755 37.0045 72.9918 36.6925C73.3081 36.3805 73.5255 36.1271 73.6442 35.9321C73.8814 35.5551 74 35.1521 74 34.7231V32.2857C74 31.4408 73.453 30.6153 72.3591 29.8093Z" fill="#00FFF0"/>
</g>
<defs>
<clipPath id="clip0_43_13476">
<rect width="80" height="80" fill="white"/>
</clipPath>
</defs>
</svg>
