<svg width="80" height="79" viewBox="0 0 80 79" fill="none" xmlns="http://www.w3.org/2000/svg">
<path d="M17.462 46.6491C15.4566 46.6518 13.4955 46.0597 11.827 44.9473C10.1585 43.8349 8.8576 42.2525 8.08893 40.4003C7.32026 38.5481 7.11843 36.5096 7.50898 34.5426C7.89954 32.5757 8.86492 30.7687 10.2829 29.3507C11.7009 27.9327 13.5077 26.9674 15.4747 26.5769C17.4416 26.1863 19.4802 26.3881 21.3323 27.1568C23.1845 27.9255 24.767 29.2265 25.8794 30.895C26.9918 32.5635 27.5841 34.5245 27.5814 36.5298C27.5778 39.2126 26.5105 41.7844 24.6135 43.6814C22.7165 45.5784 20.1447 46.6455 17.462 46.6491ZM17.462 28.9057C15.9541 28.9057 14.48 29.3527 13.2262 30.1905C11.9725 31.0282 10.9953 32.2192 10.4182 33.6123C9.84117 35.0054 9.69018 36.5383 9.98436 38.0172C10.2785 39.4962 11.0046 40.8544 12.0709 41.9207C13.1371 42.9869 14.4957 43.713 15.9746 44.0072C17.4535 44.3014 18.9864 44.1507 20.3795 43.5737C21.7727 42.9966 22.9634 42.0193 23.8012 40.7655C24.6389 39.5117 25.086 38.0377 25.086 36.5298C25.0824 34.5089 24.2779 32.5717 22.8489 31.1427C21.4199 29.7137 19.4829 28.9094 17.462 28.9057Z" fill="#04CBF5"/>
<path d="M31.8825 76.7593C31.0476 76.7601 30.2268 76.5433 29.5015 76.1298C28.7761 75.7164 28.1711 75.1206 27.7465 74.4018L24.0792 68.2115C23.982 68.0701 23.9148 67.9104 23.8818 67.742C23.8488 67.5736 23.8507 67.4 23.8874 67.2324C23.9241 67.0647 23.9947 66.9064 24.0951 66.7672C24.1954 66.628 24.3231 66.5108 24.4705 66.4229C24.6179 66.335 24.7818 66.2783 24.952 66.2563C25.1222 66.2342 25.2951 66.2475 25.46 66.295C25.6249 66.3424 25.7783 66.4232 25.9107 66.5323C26.0432 66.6414 26.1518 66.7767 26.23 66.9295L29.911 73.1197C30.1842 73.5787 30.6102 73.9268 31.1143 74.1032C31.6185 74.2797 32.1686 74.2731 32.6684 74.0847L49.4882 67.467C49.8035 67.3496 50.0899 67.1657 50.3278 66.9278C50.5657 66.6899 50.7495 66.4036 50.8669 66.0883C50.9951 65.6885 51.0101 65.2612 50.9103 64.8534C50.8105 64.4455 50.5997 64.0731 50.3014 63.7776C50.0031 63.4822 49.6289 63.275 49.2201 63.1792C48.8114 63.0833 48.3841 63.1024 47.9855 63.2344L34.4055 67.7565C34.2528 67.8209 34.0888 67.8541 33.923 67.8541C33.7572 67.8541 33.5931 67.8209 33.4404 67.7565C33.2909 67.6823 33.1586 67.578 33.0517 67.4498C32.9449 67.3216 32.866 67.1723 32.8201 67.0119L28.9873 54.9485C28.6426 53.8598 27.8855 52.9495 26.878 52.412L21.3633 49.489C21.2076 49.4174 21.0683 49.3149 20.9538 49.1874C20.8394 49.0599 20.7522 48.9103 20.6978 48.7478C20.6433 48.5854 20.6228 48.4133 20.6373 48.2426C20.6519 48.0719 20.7012 47.9061 20.7823 47.7552C20.8634 47.6043 20.9745 47.4717 21.1089 47.3654C21.2433 47.2591 21.398 47.1815 21.5636 47.1372C21.7291 47.093 21.9018 47.0832 22.0713 47.1083C22.2408 47.1334 22.4034 47.193 22.5489 47.2833L28.0636 50.1921C29.6505 51.0402 30.8429 52.4752 31.3862 54.1905L34.8329 65.0405L47.241 60.9045C48.4233 60.5111 49.7125 60.5945 50.8343 61.1371C51.956 61.6796 52.8218 62.6385 53.2474 63.8096C53.6731 64.9807 53.6251 66.2715 53.1136 67.4077C52.602 68.544 51.6674 69.4358 50.5084 69.8935L33.6887 76.5112C33.1083 76.7099 32.4949 76.7941 31.8825 76.7593Z" fill="#04CBF5"/>
<path d="M25.1701 78.8687C24.8373 78.8687 24.5183 78.7364 24.283 78.5011C24.0477 78.2659 23.9155 77.947 23.9155 77.6142V64.0479C23.9155 63.7152 24.0477 63.396 24.283 63.1607C24.5183 62.9254 24.8373 62.7935 25.1701 62.7935C25.5028 62.7935 25.822 62.9254 26.0573 63.1607C26.2925 63.396 26.4247 63.7152 26.4247 64.0479V77.6142C26.4247 77.947 26.2925 78.2659 26.0573 78.5011C25.822 78.7364 25.5028 78.8687 25.1701 78.8687Z" fill="#04CBF5"/>
<path d="M1.24947 77.6141H1.09784C0.935714 77.5953 0.778902 77.5445 0.63637 77.465C0.493838 77.3854 0.368387 77.2786 0.267214 77.1506C0.166041 77.0225 0.0911102 76.8758 0.0467469 76.7187C0.00238358 76.5617 -0.0105942 76.3975 0.00862797 76.2354L2.76598 53.8457C3.06523 51.3416 4.21364 49.0157 6.01972 47.2556L7.81198 45.4908C7.92733 45.3654 8.06702 45.2647 8.22254 45.195C8.37806 45.1253 8.54609 45.0882 8.71649 45.0856C8.88688 45.083 9.05608 45.1152 9.21363 45.1802C9.37118 45.2451 9.51385 45.3413 9.63294 45.4632C9.75202 45.5851 9.845 45.73 9.90625 45.889C9.9675 46.0481 9.99569 46.2179 9.98913 46.3882C9.98258 46.5585 9.94142 46.7258 9.86813 46.8796C9.79484 47.0335 9.69103 47.1708 9.56293 47.2832L7.77058 49.0479C6.37344 50.4115 5.48348 52.211 5.24766 54.149L2.49031 76.5387C2.44456 76.8359 2.29466 77.1071 2.06739 77.3041C1.84011 77.501 1.55021 77.611 1.24947 77.6141Z" fill="#04CBF5"/>
<path d="M56.727 77.6423H56.465L47.0625 75.6705C46.9019 75.6377 46.7494 75.5734 46.6138 75.4814C46.4782 75.3893 46.3622 75.2715 46.2725 75.1343C46.1827 74.9972 46.121 74.8434 46.091 74.6823C46.0609 74.5212 46.0632 74.3559 46.0974 74.1956C46.1639 73.8705 46.3564 73.585 46.6329 73.4016C46.9093 73.2181 47.2472 73.1514 47.5726 73.2164L56.2031 75.0226L65.454 62.6145L34.6682 55.1008C34.3446 55.0222 34.0655 54.8184 33.8922 54.534C33.719 54.2496 33.6659 53.9077 33.7445 53.5841C33.8231 53.2605 34.0271 52.9815 34.3115 52.8083C34.5959 52.635 34.9374 52.5819 35.261 52.6605L67.8943 60.6293C68.0962 60.6742 68.2831 60.7701 68.4376 60.9076C68.592 61.0452 68.7087 61.2199 68.7766 61.4152C68.8482 61.6098 68.8693 61.8192 68.8379 62.0241C68.8066 62.229 68.7238 62.4226 68.5974 62.5869L57.7334 77.1182C57.6186 77.2784 57.4677 77.4095 57.2928 77.5006C57.1179 77.5916 56.9241 77.6402 56.727 77.6423Z" fill="#04CBF5"/>
<path d="M78.7044 54.1766H78.4285L29.7889 43.1472C29.6254 43.1146 29.4701 43.0492 29.3324 42.9553C29.1946 42.8614 29.0773 42.7408 28.9872 42.6005C28.8971 42.4603 28.8362 42.3034 28.8081 42.1391C28.7801 41.9748 28.7854 41.8065 28.8238 41.6443C28.8596 41.4829 28.927 41.3301 29.022 41.1949C29.117 41.0597 29.2378 40.9447 29.3775 40.8563C29.5171 40.7679 29.6729 40.708 29.8357 40.6799C29.9986 40.6519 30.1654 40.6564 30.3266 40.6931L77.4359 51.3778V9.49345L9.88078 2.60007V25.1002C9.88078 25.4329 9.74859 25.7521 9.51331 25.9874C9.27803 26.2227 8.95888 26.3546 8.62614 26.3546C8.2934 26.3546 7.97434 26.2227 7.73906 25.9874C7.50377 25.7521 7.37158 25.4329 7.37158 25.1002V1.2628C7.37153 1.08636 7.40824 0.911933 7.47946 0.750506C7.55068 0.589079 7.65481 0.444296 7.78517 0.325392C7.91406 0.206694 8.06687 0.116874 8.23334 0.0621778C8.39981 0.00748176 8.57608 -0.0107942 8.75026 0.00832328L78.8698 7.14977C79.1806 7.18066 79.4685 7.32637 79.6776 7.55839C79.8867 7.79041 80.0018 8.09193 80.0002 8.40424V52.9907C79.9994 53.1784 79.9569 53.3637 79.8759 53.533C79.7948 53.7023 79.6772 53.8512 79.5315 53.9696C79.2889 54.134 78.9959 54.2075 78.7044 54.1766Z" fill="#04CBF5"/>
<path d="M55.9412 54.1768H55.6517L31.1664 48.5379C30.9389 48.4833 30.7309 48.3667 30.5655 48.2013C30.4 48.0358 30.2835 47.828 30.229 47.6005C30.1743 47.3723 30.1855 47.1332 30.2611 46.9111C30.3367 46.6891 30.4738 46.493 30.6563 46.3456L35.1646 42.5957C35.4205 42.3818 35.751 42.2785 36.0832 42.3082C36.4154 42.338 36.7223 42.4983 36.9362 42.7542C37.1501 43.0102 37.2536 43.3409 37.2238 43.6731C37.1941 44.0054 37.0336 44.3121 36.7777 44.526L34.1996 46.6627L55.6103 51.5985L59.9394 47.9313C60.1938 47.718 60.5223 47.6141 60.8531 47.6425C61.1839 47.671 61.4898 47.8292 61.7041 48.0828C61.8123 48.2071 61.8946 48.3518 61.9463 48.5082C61.998 48.6647 62.018 48.83 62.0052 48.9943C61.9923 49.1586 61.947 49.3186 61.8716 49.4652C61.7962 49.6117 61.6924 49.7416 61.5662 49.8475L56.7409 53.9836C56.5049 54.1391 56.2221 54.2075 55.9412 54.1768Z" fill="#04CBF5"/>
<path d="M32.2136 29.9533C32.0027 29.9516 31.7955 29.8978 31.6103 29.7968C31.4251 29.6958 31.2677 29.5508 31.152 29.3744L26.0233 21.2952C25.8507 21.024 25.7888 20.6969 25.8504 20.3814C25.912 20.0658 26.0923 19.7859 26.3543 19.5995L34.6263 13.8091C34.7587 13.6835 34.9169 13.5882 35.0899 13.5301C35.2629 13.4719 35.4465 13.4524 35.6278 13.4725C35.8092 13.4926 35.9839 13.5519 36.14 13.6465C36.296 13.7411 36.4296 13.8686 36.5313 14.0201C36.6329 14.1717 36.7003 14.3438 36.7287 14.524C36.7572 14.7043 36.746 14.8884 36.6959 15.0639C36.6458 15.2394 36.558 15.4018 36.4387 15.5399C36.3194 15.6779 36.1714 15.7883 36.005 15.8633L28.8221 20.9644L33.3166 28.0233C33.4931 28.3056 33.5515 28.6458 33.4793 28.9708C33.4071 29.2958 33.2099 29.5792 32.9305 29.7601C32.7137 29.8888 32.4658 29.9558 32.2136 29.9533Z" fill="#00FFF0"/>
<path d="M51.791 34.5307C51.5211 34.5305 51.2586 34.4431 51.0422 34.2819C50.8258 34.1208 50.6672 33.8942 50.5898 33.6357C50.5124 33.3772 50.5204 33.101 50.6126 32.8474C50.7048 32.5938 50.8763 32.3765 51.1016 32.2281L59.4427 26.7133L53.2248 18.1932C53.1191 18.0608 53.0412 17.9082 52.996 17.7449C52.9508 17.5816 52.9392 17.411 52.9618 17.243C52.9844 17.0751 53.0408 16.9133 53.1276 16.7678C53.2144 16.6222 53.3298 16.4959 53.4668 16.3962C53.6039 16.2964 53.7597 16.2253 53.9249 16.1875C54.09 16.1496 54.2612 16.1456 54.428 16.1757C54.5948 16.2058 54.7537 16.2693 54.8952 16.3625C55.0368 16.4557 55.1579 16.5766 55.2514 16.7179L62.2413 26.3687C62.4361 26.6449 62.5153 26.9865 62.462 27.3202C62.4322 27.487 62.3692 27.646 62.2769 27.7881C62.1845 27.9302 62.0646 28.0523 61.9243 28.1472L52.4941 34.4065C52.2747 34.5089 52.0322 34.5518 51.791 34.5307Z" fill="#00FFF0"/>
<path d="M37.2729 30.9326C36.9685 30.9273 36.6757 30.8151 36.4457 30.6155C36.1981 30.3955 36.0475 30.0864 36.0269 29.7558C36.0062 29.4252 36.1171 29.0999 36.3354 28.8507L47.6681 15.9327C47.8881 15.6851 48.1972 15.5343 48.5278 15.5137C48.8584 15.493 49.1837 15.604 49.4329 15.8223C49.5571 15.9302 49.6585 16.0619 49.7314 16.2094C49.8043 16.3569 49.8472 16.5174 49.8575 16.6816C49.8677 16.8459 49.8452 17.0106 49.7912 17.166C49.7373 17.3214 49.653 17.4645 49.5432 17.5871L38.2242 30.5051C38.1044 30.639 37.9578 30.7465 37.794 30.8201C37.6301 30.8938 37.4526 30.9319 37.2729 30.9326Z" fill="#00FFF0"/>
</svg>
