<svg width="80" height="80" viewBox="0 0 80 80" fill="none" xmlns="http://www.w3.org/2000/svg">
<g opacity="0.8" clip-path="url(#clip0_43_13346)">
<path fill-rule="evenodd" clip-rule="evenodd" d="M58.9835 43.3061V50.4306L67.4736 43.3061H79.6684V0.000976562H56.2168V43.3061H58.9835ZM72.3591 6.40674C72.1614 6.26573 71.911 6.13112 71.6079 6.00293L71.0741 7.96428L71.2521 8.07965C71.3839 8.16939 71.5288 8.29117 71.687 8.445C71.8451 8.58601 71.9506 8.71421 72.0033 8.82958C72.0165 8.85522 72.0231 8.88727 72.0231 8.92572V11.1178C72.0231 11.1947 72.0165 11.2396 72.0033 11.2524C71.911 11.4191 71.7661 11.6114 71.5684 11.8293C71.3575 12.0344 71.1993 12.137 71.0939 12.137L65.084 12.137C64.9654 12.137 64.8929 12.1305 64.8666 12.1177C64.4712 11.8742 64.1812 11.5857 63.9967 11.2524L63.9769 11.1755V8.90649C63.9769 8.86804 63.9835 8.8424 63.9967 8.82958C64.1153 8.63729 64.4185 8.34886 64.9061 7.96428L64.3328 6.00293C63.9769 6.19522 63.7463 6.32982 63.6409 6.40674C62.547 7.21435 62 8.02838 62 8.84881L62 11.2524C62 11.637 62.1186 12.0344 62.3558 12.4446C62.4613 12.6241 62.6787 12.8741 63.0082 13.1945C63.3245 13.5022 63.5815 13.7201 63.7792 13.8483C64.0956 14.0534 64.4646 14.156 64.8863 14.156H71.1137C71.5486 14.156 71.9242 14.0534 72.2405 13.8483C72.425 13.7201 72.6755 13.5022 72.9918 13.1945C73.3081 12.8869 73.5255 12.6369 73.6442 12.4446C73.8814 12.0729 74 11.6755 74 11.2524V8.84881C74 8.01556 73.453 7.20153 72.3591 6.40674ZM71.0939 16.7301C71.5288 16.7301 71.9044 16.8327 72.2208 17.0378C72.4316 17.1916 72.6952 17.4223 73.0115 17.73C73.3278 18.0249 73.5387 18.262 73.6442 18.4415C73.8814 18.8132 74 19.2106 74 19.6337V22.5565C74 22.9795 73.8814 23.3769 73.6442 23.7487C73.5387 23.9281 73.3278 24.1781 73.0115 24.4986C72.682 24.8062 72.4185 25.0242 72.2208 25.1524C71.9044 25.3575 71.5288 25.46 71.0939 25.46L64.9061 25.46C64.4712 25.46 64.0956 25.3575 63.7792 25.1524C63.5815 25.0242 63.3245 24.8062 63.0082 24.4986C62.6787 24.1781 62.4613 23.9281 62.3558 23.7487C62.1186 23.3769 62 22.9795 62 22.5565L62 19.6337C62 19.2106 62.1186 18.8132 62.3558 18.4415C62.4613 18.262 62.6722 18.0249 62.9885 17.73C63.3048 17.4223 63.5684 17.1916 63.7792 17.0378C64.0956 16.8327 64.4712 16.7301 64.9061 16.7301L71.0939 16.7301ZM64.9654 23.441H71.0741C71.1137 23.441 71.14 23.4346 71.1532 23.4218C71.5486 23.1654 71.832 22.8834 72.0033 22.5757C72.0165 22.5501 72.0231 22.518 72.0231 22.4795V19.7106C72.0231 19.6721 72.0165 19.6401 72.0033 19.6144C71.832 19.3068 71.5486 19.0248 71.1532 18.7684L71.0741 18.7491H64.9654C64.9127 18.7491 64.8797 18.7556 64.8666 18.7684C64.458 19.0376 64.168 19.3196 63.9967 19.6144C63.9835 19.6401 63.9769 19.6721 63.9769 19.7106V22.4795C63.9769 22.5308 63.9835 22.5629 63.9967 22.5757C64.168 22.8705 64.458 23.1526 64.8666 23.4218L64.9654 23.441ZM71.0939 27.9653C71.5552 27.9653 71.9308 28.0679 72.2208 28.273C72.4185 28.4012 72.682 28.6191 73.0115 28.9268C73.3278 29.2345 73.5387 29.4844 73.6442 29.6767C73.8814 30.0869 74 30.4843 74 30.8689V34.2147C74 35.048 73.453 35.862 72.3591 36.6568C72.2537 36.7337 72.0494 36.8491 71.7463 37.0029L71.0939 35.0993C71.4629 34.8429 71.7661 34.5609 72.0033 34.2532C72.0165 34.2276 72.0231 34.1827 72.0231 34.1186L72.0231 30.9651L72.0033 30.8497C71.9242 30.7087 71.7727 30.5292 71.5486 30.3113C71.3245 30.0933 71.173 29.9844 71.0939 29.9844H69.9275C69.7298 29.9844 69.6178 30.0613 69.5914 30.2151L68.1285 35.2146C67.9967 35.689 67.7265 36.0607 67.318 36.3299C66.9094 36.5863 66.4613 36.7145 65.9736 36.7145H64.9061C64.4448 36.7145 64.0692 36.6184 63.7792 36.4261C63.5947 36.2979 63.3443 36.0799 63.028 35.7723C62.6985 35.4518 62.4745 35.1954 62.3558 35.0031C62.1186 34.5929 62 34.1955 62 33.8109L62 30.9651C62 30.1446 62.547 29.3306 63.6409 28.523C63.8254 28.3948 64.056 28.2666 64.3328 28.1384L64.9061 30.0805C64.4712 30.3754 64.168 30.6574 63.9967 30.9266C63.9835 30.9394 63.9769 30.9779 63.9769 31.042V33.7532L63.9967 33.8686C64.0758 34.0224 64.2208 34.2019 64.4316 34.407C64.6425 34.5993 64.7875 34.6955 64.8666 34.6955H65.855C66.0527 34.6955 66.1647 34.625 66.1911 34.4839L67.6936 29.4652C67.8254 29.0037 68.1021 28.6384 68.5239 28.3692C68.9325 28.0999 69.374 27.9653 69.8484 27.9653H71.0939Z" fill="#00FFF0"/>
<path d="M52.5738 80.0011H37.4424V78.0898H52.5738C58.0848 78.0898 59.8155 74.7875 60.2934 72.016C60.3369 71.7654 60.289 71.5076 60.1584 71.2893C60.0279 71.0711 59.8233 70.9069 59.582 70.8267L40.4686 64.222L41.0951 62.4062L60.2084 69.0216C60.8681 69.2602 61.4235 69.722 61.7784 70.3271C62.1333 70.9322 62.2653 71.6424 62.1516 72.3346C61.78 74.6919 60.0492 80.0011 52.5738 80.0011Z" fill="#04CBF5"/>
<path d="M52.5738 80.0011H37.4424V78.0898H52.5738C58.0848 78.0898 59.8155 74.7875 60.2934 72.016C60.3369 71.7654 60.289 71.5076 60.1584 71.2893C60.0279 71.0711 59.8233 70.9069 59.582 70.8267L40.4686 64.222L41.0951 62.4062L60.2084 69.0216C60.8681 69.2602 61.4235 69.722 61.7784 70.3271C62.1333 70.9322 62.2653 71.6424 62.1516 72.3346C61.78 74.6919 60.0492 80.0011 52.5738 80.0011Z" fill="#04CBF5"/>
<path d="M25.645 80.0005H10.5986C3.16561 80.0005 1.39232 74.6382 1.04191 72.3339C0.925316 71.6456 1.0538 70.9382 1.40497 70.3348C1.75614 69.7314 2.30776 69.2702 2.96385 69.0316L21.4188 62.3101L22.0772 64.1046L3.6222 70.8261C3.38491 70.908 3.18431 71.0714 3.05601 71.2872C2.92772 71.5029 2.88005 71.7572 2.9214 72.0048C3.39924 74.7868 5.13001 78.0892 10.641 78.0892H25.6662L25.645 80.0005Z" fill="#04CBF5"/>
<path d="M25.645 80.0005H10.5986C3.16561 80.0005 1.39232 74.6382 1.04191 72.3339C0.925316 71.6456 1.0538 70.9382 1.40497 70.3348C1.75614 69.7314 2.30776 69.2702 2.96385 69.0316L21.4188 62.3101L22.0772 64.1046L3.6222 70.8261C3.38491 70.908 3.18431 71.0714 3.05601 71.2872C2.92772 71.5029 2.88005 71.7572 2.9214 72.0048C3.39924 74.7868 5.13001 78.0892 10.641 78.0892H25.6662L25.645 80.0005Z" fill="#04CBF5"/>
<path d="M39.9797 52.8271H38.0684V59.7717H39.9797V52.8271Z" fill="#04CBF5"/>
<path d="M25.1359 52.8271H23.2246V59.5381H25.1359V52.8271Z" fill="#04CBF5"/>
<path d="M31.7075 56.1627H31.4845C28.3068 56.1574 25.2442 54.9728 22.8901 52.8384C20.536 50.704 19.0579 47.7718 18.7422 44.6098L18.4237 41.4243C17.7376 41.4226 17.0704 41.1996 16.5213 40.7882C15.9722 40.3769 15.5706 39.7992 15.3762 39.1413L14.4311 35.7221C14.3917 35.3202 14.4322 34.9144 14.5504 34.5282C14.6686 34.142 14.8621 33.7831 15.1198 33.4721C15.3775 33.1612 15.6942 32.9043 16.0517 32.7164C16.4092 32.5285 16.8003 32.4132 17.2025 32.3773H17.4893L17.2557 30.1155C17.0719 28.3289 17.2641 26.5235 17.82 24.8156C18.3759 23.1077 19.2831 21.5351 20.4833 20.1989C21.6835 18.8627 23.1501 17.7924 24.7887 17.0571C26.4274 16.3218 28.2018 15.9376 29.9979 15.9292H33.1835C34.9834 15.9273 36.7637 16.3034 38.4092 17.033C40.0546 17.7626 41.5286 18.8295 42.7356 20.1647C43.9427 21.4999 44.8561 23.0736 45.4166 24.7841C45.9771 26.4946 46.1722 28.3036 45.9894 30.0943L45.7557 32.356H46.0425C46.4442 32.3933 46.8346 32.5095 47.1914 32.6978C47.5482 32.8862 47.8644 33.1431 48.1218 33.4537C48.3792 33.7644 48.5728 34.1228 48.6916 34.5084C48.8103 34.894 48.8519 35.2992 48.8139 35.7009V35.8601L47.9007 39.12C47.7193 39.7744 47.3281 40.3512 46.7871 40.7617C46.2462 41.1723 45.5854 41.3938 44.9063 41.3924L44.5771 44.578C44.2692 47.7685 42.7769 50.7279 40.3945 52.8724C38.0122 55.0169 34.9127 56.1908 31.7075 56.1627ZM18.6573 39.5023C19.0177 39.4982 19.3677 39.6224 19.6449 39.8527C19.8105 39.9804 19.9485 40.1404 20.0507 40.3228C20.1529 40.5053 20.2171 40.7066 20.2395 40.9146L20.6005 44.4081C20.8695 47.106 22.133 49.6073 24.1449 51.4249C26.1568 53.2425 28.7731 54.2463 31.4845 54.2408H31.7075C34.4188 54.2463 37.0351 53.2425 39.047 51.4249C41.0589 49.6073 42.3224 47.106 42.5914 44.4081L42.9524 40.9146C43.0023 40.4959 43.2162 40.114 43.5471 39.8527C43.7097 39.7221 43.8969 39.6257 44.0976 39.5691C44.2983 39.5125 44.5083 39.497 44.7151 39.5235C45.0036 39.5572 45.2945 39.4869 45.5358 39.3254C45.7771 39.1639 45.953 38.9216 46.0318 38.6422L46.9132 35.4566C46.9224 35.1601 46.8173 34.8714 46.6197 34.65C46.4221 34.4287 46.147 34.2917 45.8513 34.2674L43.6427 34.055L44.0781 29.8819C44.2356 28.3565 44.0712 26.815 43.5955 25.3572C43.1198 23.8993 42.3434 22.5575 41.3165 21.4185C40.2896 20.2796 39.0352 19.3688 37.6342 18.7452C36.2332 18.1215 34.717 17.7989 33.1835 17.7981H29.9979C28.4615 17.7971 26.942 18.1192 25.5382 18.7434C24.1343 19.3677 22.8775 20.2802 21.8491 21.4217C20.8208 22.5632 20.044 23.9082 19.5691 25.3693C19.0942 26.8305 18.9319 28.3752 19.0927 29.9032L19.528 34.0869L17.3194 34.2886C17.0141 34.3211 16.7329 34.4693 16.5336 34.7027C16.3527 34.9196 16.2582 35.1956 16.2682 35.4779L17.1495 38.6634C17.2301 38.9389 17.4053 39.1772 17.6441 39.3365C17.8829 39.4957 18.1703 39.5657 18.4556 39.5342L18.6573 39.5023Z" fill="#04CBF5"/>
<path d="M31.7075 56.1627H31.4845C28.3068 56.1574 25.2442 54.9728 22.8901 52.8384C20.536 50.704 19.0579 47.7718 18.7422 44.6098L18.4237 41.4243C17.7376 41.4226 17.0704 41.1996 16.5213 40.7882C15.9722 40.3769 15.5706 39.7992 15.3762 39.1413L14.4311 35.7221C14.3917 35.3202 14.4322 34.9144 14.5504 34.5282C14.6686 34.142 14.8621 33.7831 15.1198 33.4721C15.3775 33.1612 15.6942 32.9043 16.0517 32.7164C16.4092 32.5285 16.8003 32.4132 17.2025 32.3773H17.4893L17.2557 30.1155C17.0719 28.3289 17.2641 26.5235 17.82 24.8156C18.3759 23.1077 19.2831 21.5351 20.4833 20.1989C21.6835 18.8627 23.1501 17.7924 24.7887 17.0571C26.4274 16.3218 28.2018 15.9376 29.9979 15.9292H33.1835C34.9834 15.9273 36.7637 16.3034 38.4092 17.033C40.0546 17.7626 41.5286 18.8295 42.7356 20.1647C43.9427 21.4999 44.8561 23.0736 45.4166 24.7841C45.9771 26.4946 46.1722 28.3036 45.9894 30.0943L45.7557 32.356H46.0425C46.4442 32.3933 46.8346 32.5095 47.1914 32.6978C47.5482 32.8862 47.8644 33.1431 48.1218 33.4537C48.3792 33.7644 48.5728 34.1228 48.6916 34.5084C48.8103 34.894 48.8519 35.2992 48.8139 35.7009V35.8601L47.9007 39.12C47.7193 39.7744 47.3281 40.3512 46.7871 40.7617C46.2462 41.1723 45.5854 41.3938 44.9063 41.3924L44.5771 44.578C44.2692 47.7685 42.7769 50.7279 40.3945 52.8724C38.0122 55.0169 34.9127 56.1908 31.7075 56.1627ZM18.6573 39.5023C19.0177 39.4982 19.3677 39.6224 19.6449 39.8527C19.8105 39.9804 19.9485 40.1404 20.0507 40.3228C20.1529 40.5053 20.2171 40.7066 20.2395 40.9146L20.6005 44.4081C20.8695 47.106 22.133 49.6073 24.1449 51.4249C26.1568 53.2425 28.7731 54.2463 31.4845 54.2408H31.7075C34.4188 54.2463 37.0351 53.2425 39.047 51.4249C41.0589 49.6073 42.3224 47.106 42.5914 44.4081L42.9524 40.9146C43.0023 40.4959 43.2162 40.114 43.5471 39.8527C43.7097 39.7221 43.8969 39.6257 44.0976 39.5691C44.2983 39.5125 44.5083 39.497 44.7151 39.5235C45.0036 39.5572 45.2945 39.4869 45.5358 39.3254C45.7771 39.1639 45.953 38.9216 46.0318 38.6422L46.9132 35.4566C46.9224 35.1601 46.8173 34.8714 46.6197 34.65C46.4221 34.4287 46.147 34.2917 45.8513 34.2674L43.6427 34.055L44.0781 29.8819C44.2356 28.3565 44.0712 26.815 43.5955 25.3572C43.1198 23.8993 42.3434 22.5575 41.3165 21.4185C40.2896 20.2796 39.0352 19.3688 37.6342 18.7452C36.2332 18.1215 34.717 17.7989 33.1835 17.7981H29.9979C28.4615 17.7971 26.942 18.1192 25.5382 18.7434C24.1343 19.3677 22.8775 20.2802 21.8491 21.4217C20.8208 22.5632 20.044 23.9082 19.5691 25.3693C19.0942 26.8305 18.9319 28.3752 19.0927 29.9032L19.528 34.0869L17.3194 34.2886C17.0141 34.3211 16.7329 34.4693 16.5336 34.7027C16.3527 34.9196 16.2582 35.1956 16.2682 35.4779L17.1495 38.6634C17.2301 38.9389 17.4053 39.1772 17.6441 39.3365C17.8829 39.4957 18.1703 39.5657 18.4556 39.5342L18.6573 39.5023Z" fill="#04CBF5"/>
<path d="M25.7519 70.4964H25.4227C25.1037 70.4415 24.8038 70.3066 24.5512 70.1041C24.2986 69.9017 24.1015 69.6384 23.9785 69.339L21.6425 63.6687C21.4327 63.1637 21.3672 62.6104 21.4534 62.0704C21.5397 61.5305 21.7742 61.0251 22.1309 60.6106L24.382 57.9878L32.2504 64.189L27.1747 69.8805C26.9937 70.0769 26.7736 70.2332 26.5285 70.3392C26.2835 70.4453 26.0189 70.4988 25.7519 70.4964ZM24.69 60.6L23.6282 61.8317C23.5061 61.9765 23.425 62.1513 23.3933 62.3381C23.3615 62.5248 23.3803 62.7166 23.4476 62.8936L25.7837 68.5532L29.5108 64.3802L24.69 60.6Z" fill="#04CBF5"/>
<path d="M25.7519 70.4964H25.4227C25.1037 70.4415 24.8038 70.3066 24.5512 70.1041C24.2986 69.9017 24.1015 69.6384 23.9785 69.339L21.6425 63.6687C21.4327 63.1637 21.3672 62.6104 21.4534 62.0704C21.5397 61.5305 21.7742 61.0251 22.1309 60.6106L24.382 57.9878L32.2504 64.189L27.1747 69.8805C26.9937 70.0769 26.7736 70.2332 26.5285 70.3392C26.2835 70.4453 26.0189 70.4988 25.7519 70.4964ZM24.69 60.6L23.6282 61.8317C23.5061 61.9765 23.425 62.1513 23.3933 62.3381C23.3615 62.5248 23.3803 62.7166 23.4476 62.8936L25.7837 68.5532L29.5108 64.3802L24.69 60.6Z" fill="#00FFF0"/>
<path d="M37.4424 70.4976C37.1736 70.4987 36.9076 70.4425 36.6622 70.3326C36.4168 70.2227 36.1977 70.0618 36.0195 69.8605L30.9438 64.169L38.8122 57.9678L41.0633 60.5905C41.4209 61.0067 41.6559 61.5139 41.7421 62.0557C41.8284 62.5976 41.7625 63.1527 41.5518 63.6593L39.2157 69.319C39.0927 69.6184 38.8956 69.8817 38.643 70.0841C38.3905 70.2866 38.0906 70.4215 37.7716 70.4764L37.4424 70.4976ZM33.726 64.4132L37.453 68.5863L39.7785 62.9266C39.8472 62.7505 39.8678 62.5593 39.8379 62.3726C39.808 62.1859 39.7289 62.0106 39.6086 61.8648L38.5467 60.633L33.726 64.4132Z" fill="#04CBF5"/>
<path d="M37.4424 70.4976C37.1736 70.4987 36.9076 70.4425 36.6622 70.3326C36.4168 70.2227 36.1977 70.0618 36.0195 69.8605L30.9438 64.169L38.8122 57.9678L41.0633 60.5905C41.4209 61.0067 41.6559 61.5139 41.7421 62.0557C41.8284 62.5976 41.7625 63.1527 41.5518 63.6593L39.2157 69.319C39.0927 69.6184 38.8956 69.8817 38.643 70.0841C38.3905 70.2866 38.0906 70.4215 37.7716 70.4764L37.4424 70.4976ZM33.726 64.4132L37.453 68.5863L39.7785 62.9266C39.8472 62.7505 39.8678 62.5593 39.8379 62.3726C39.808 62.1859 39.7289 62.0106 39.6086 61.8648L38.5467 60.633L33.726 64.4132Z" fill="#00FFF0"/>
<path d="M32.8336 74.2023H30.3595C30.0163 74.2044 29.6771 74.128 29.3679 73.9789C29.0587 73.8299 28.7877 73.6121 28.5756 73.3422L28.119 72.7475C27.81 72.3537 27.6418 71.8677 27.6412 71.3671V70.6132C27.6372 70.0547 27.846 69.5155 28.2252 69.1054L29.4463 67.7462C29.6593 67.513 29.9184 67.3265 30.2072 67.1986C30.496 67.0706 30.8082 67.004 31.1241 67.0029H32.0691C32.3849 67.004 32.6972 67.0706 32.9859 67.1986C33.2747 67.3265 33.5338 67.513 33.7468 67.7462L34.968 69.1054C35.3472 69.5155 35.556 70.0547 35.552 70.6132V71.3671C35.5514 71.8677 35.3831 72.3537 35.0741 72.7475L34.6175 73.3422C34.4065 73.6133 34.1358 73.8319 33.8263 73.9811C33.5169 74.1303 33.1771 74.206 32.8336 74.2023ZM31.1241 68.893C31.0757 68.8932 31.028 68.9038 30.984 68.9239C30.9401 68.944 30.901 68.9733 30.8692 69.0098L29.6375 70.4433C29.5831 70.5049 29.5529 70.5841 29.5525 70.6663V71.4202C29.5508 71.4571 29.5564 71.494 29.5692 71.5286C29.582 71.5633 29.6016 71.595 29.6268 71.622L30.0834 72.2166C30.1158 72.2592 30.1576 72.2937 30.2055 72.3177C30.2533 72.3416 30.306 72.3542 30.3595 72.3546H32.8336C32.8871 72.3542 32.9398 72.3416 32.9877 72.3177C33.0355 72.2937 33.0773 72.2592 33.1097 72.2166L33.5663 71.622C33.5916 71.595 33.6112 71.5633 33.6239 71.5286C33.6367 71.494 33.6424 71.4571 33.6407 71.4202V70.6663C33.6402 70.5841 33.61 70.5049 33.5557 70.4433L32.324 69.0841C32.2922 69.0477 32.2531 69.0184 32.2091 68.9982C32.1652 68.9781 32.1174 68.9675 32.0691 68.9673L31.1241 68.893Z" fill="#04CBF5"/>
<path d="M32.8336 74.2023H30.3595C30.0163 74.2044 29.6771 74.128 29.3679 73.9789C29.0587 73.8299 28.7877 73.6121 28.5756 73.3422L28.119 72.7475C27.81 72.3537 27.6418 71.8677 27.6412 71.3671V70.6132C27.6372 70.0547 27.846 69.5155 28.2252 69.1054L29.4463 67.7462C29.6593 67.513 29.9184 67.3265 30.2072 67.1986C30.496 67.0706 30.8082 67.004 31.1241 67.0029H32.0691C32.3849 67.004 32.6972 67.0706 32.9859 67.1986C33.2747 67.3265 33.5338 67.513 33.7468 67.7462L34.968 69.1054C35.3472 69.5155 35.556 70.0547 35.552 70.6132V71.3671C35.5514 71.8677 35.3831 72.3537 35.0741 72.7475L34.6175 73.3422C34.4065 73.6133 34.1358 73.8319 33.8263 73.9811C33.5169 74.1303 33.1771 74.206 32.8336 74.2023ZM31.1241 68.893C31.0757 68.8932 31.028 68.9038 30.984 68.9239C30.9401 68.944 30.901 68.9733 30.8692 69.0098L29.6375 70.4433C29.5831 70.5049 29.5529 70.5841 29.5525 70.6663V71.4202C29.5508 71.4571 29.5564 71.494 29.5692 71.5286C29.582 71.5633 29.6016 71.595 29.6268 71.622L30.0834 72.2166C30.1158 72.2592 30.1576 72.2937 30.2055 72.3177C30.2533 72.3416 30.306 72.3542 30.3595 72.3546H32.8336C32.8871 72.3542 32.9398 72.3416 32.9877 72.3177C33.0355 72.2937 33.0773 72.2592 33.1097 72.2166L33.5663 71.622C33.5916 71.595 33.6112 71.5633 33.6239 71.5286C33.6367 71.494 33.6424 71.4571 33.6407 71.4202V70.6663C33.6402 70.5841 33.61 70.5049 33.5557 70.4433L32.324 69.0841C32.2922 69.0477 32.2531 69.0184 32.2091 68.9982C32.1652 68.9781 32.1174 68.9675 32.0691 68.9673L31.1241 68.893Z" fill="#00FFF0"/>
<path d="M35.9877 80.0007H27.1743L29.5954 74.4048H33.641L35.9877 80.0007ZM30.0838 78.0894H33.1101L32.3774 76.3161H30.8483L30.0838 78.0894Z" fill="#00FFF0"/>
</g>
<defs>
<clipPath id="clip0_43_13346">
<rect width="80" height="80" fill="white"/>
</clipPath>
</defs>
</svg>
