<svg width="1133" height="398" viewBox="0 0 1133 398" fill="none" xmlns="http://www.w3.org/2000/svg">
<path d="M189.86 397.67H27.6002C15.8702 397.67 8.99023 387.2 8.99023 378.05C8.99023 372.63 11.1802 367.72 14.7302 364.17L85.5502 293.35L189.87 397.67H189.86Z" fill="#FF4F12"/>
<path d="M27.6002 397.67C15.3402 397.67 0.0301759 387.87 0.0301759 368.39V150.25C0.0301759 120.77 -1.46982 100.04 19.5802 78.99L98.5602 0L238.63 140.29L14.7302 364.17C11.1802 367.72 8.98018 372.63 8.98018 378.05C8.98018 387.2 15.8702 397.67 27.6002 397.67Z" fill="#7700FF"/>
<path d="M303.179 252.78V298.64H281.859V185.59H330.149C355.019 185.59 370.369 198.03 370.369 217.57C370.369 235.01 359.869 245.34 344.529 250.84L371.829 298.64H347.439L321.269 252.78H303.179ZM330.149 234.05C343.239 234.05 349.039 228.23 349.039 219.19C349.039 210.15 343.229 204.33 330.149 204.33H303.179V234.05H330.149Z" fill="white"/>
<path d="M420.24 300.9C398.27 300.9 376.47 286.69 376.47 258.59C376.47 230.49 398.27 216.27 420.24 216.27C442.21 216.27 464.01 230.48 464.01 258.59C464.01 286.7 442.21 300.9 420.24 300.9ZM443.33 258.59C443.33 243.89 432.19 235.33 420.24 235.33C408.29 235.33 397.15 243.9 397.15 258.59C397.15 273.28 408.29 281.84 420.24 281.84C432.19 281.84 443.33 273.28 443.33 258.59Z" fill="white"/>
<path d="M514.03 249.54C532.76 253.42 540.52 260.85 540.52 274.25C540.52 289.27 528.729 300.9 508.859 300.9C488.989 300.9 479.469 292.34 473.979 282.33L490.289 271.99C494.159 278.29 499.81 283.78 509.18 283.78C516.12 283.78 521.78 281.03 521.78 274.9C521.78 269.89 516.449 266.82 504.979 264.56C489.309 261.49 477.68 254.06 477.68 239.52C477.68 224.98 491.249 216.27 506.919 216.27C522.589 216.27 531.79 222.25 537.44 232.1L524.2 241.3C520.32 235.48 514.99 232.1 507.24 232.1C500.62 232.1 495.77 234.52 495.77 238.88C495.77 244.05 501.42 246.96 514.02 249.54H514.03Z" fill="white"/>
<path d="M560.03 218.54V196.9H580.38V218.54H597.82V235.01H580.38V271.51C580.38 279.75 584.42 282.81 590.56 282.81C593.62 282.81 595.72 282.33 597.34 281.84L599.28 298.64C595.72 299.94 590.4 300.9 585.71 300.9C571.83 300.9 560.03 295.08 560.03 275.39V235.01H547.59V218.54H560.03Z" fill="white"/>
<path d="M647.539 283.46C658.369 283.46 662.889 278.77 667.889 272.47L684.039 280.55C675.959 294.28 664.819 300.9 647.219 300.9C624.929 300.9 606.039 283.94 606.039 258.59C606.039 233.24 624.929 216.27 648.199 216.27C671.469 216.27 687.279 232.9 687.279 256.33V263.43H625.589C626.879 275.7 635.599 283.46 647.549 283.46H647.539ZM625.899 247.92H668.369C666.429 237.91 658.849 231.78 647.539 231.78C636.879 231.78 628.809 238.88 625.899 247.92Z" fill="white"/>
<path d="M721.799 185.59V298.64H701.449V185.59H721.799Z" fill="white"/>
<path d="M777.82 283.46C788.64 283.46 793.16 278.77 798.17 272.47L814.31 280.55C806.24 294.28 795.09 300.9 777.49 300.9C755.2 300.9 736.31 283.94 736.31 258.59C736.31 233.24 755.2 216.27 778.46 216.27C801.72 216.27 817.54 232.9 817.54 256.33V263.43H755.85C757.15 275.7 765.86 283.46 777.82 283.46ZM756.17 247.92H798.65C796.71 237.91 789.12 231.78 777.82 231.78C767.16 231.78 759.09 238.88 756.17 247.92Z" fill="white"/>
<path d="M869.68 300.9C845.94 300.9 827.52 284.1 827.52 258.59C827.52 233.08 846.91 216.27 869.68 216.27C887.12 216.27 899.71 223.86 905.53 236.3L888.09 246.31C883.08 238.72 876.78 235.32 869.52 235.32C857.57 235.32 848.2 244.37 848.2 258.58C848.2 272.79 857.25 281.83 869.52 281.83C879.53 281.83 884.699 276.99 889.539 270.2L906.34 279.41C898.26 293.13 886.8 300.89 869.69 300.89L869.68 300.9Z" fill="white"/>
<path d="M957.019 300.9C935.049 300.9 913.249 286.69 913.249 258.59C913.249 230.49 935.049 216.27 957.019 216.27C978.989 216.27 1000.79 230.48 1000.79 258.59C1000.79 286.7 978.989 300.9 957.019 300.9ZM980.109 258.59C980.109 243.89 968.969 235.33 957.019 235.33C945.069 235.33 933.929 243.9 933.929 258.59C933.929 273.28 945.069 281.84 957.019 281.84C968.969 281.84 980.109 273.28 980.109 258.59Z" fill="white"/>
<path d="M1112.18 298.64V249.06C1112.18 239.69 1108.46 234.04 1099.58 234.04C1090.7 234.04 1084.08 240.82 1084.08 254.06V298.64H1063.73V249.38C1063.73 239.69 1059.69 234.04 1050.8 234.04C1042.89 234.04 1035.62 240.82 1035.62 253.74V298.64H1015.27V218.53H1035.62V229.19C1041.6 219.99 1050.48 216.27 1058.87 216.27C1070.66 216.27 1077.77 221.44 1081.16 230C1086.98 220.63 1096.83 216.27 1106.68 216.27C1123.31 216.27 1132.52 226.77 1132.52 242.6V298.64H1112.17H1112.18Z" fill="white"/>
<path d="M303.37 360.11C316.73 362.9 323.37 368.58 323.37 378.88C323.37 389.18 314.8 397.66 300.57 397.66C286.34 397.66 277.6 390.58 274.89 381.32L284.93 376.61C287.29 382.55 291.31 387.53 300.48 387.53C307.38 387.53 311.84 384.22 311.84 379.33C311.84 373.65 306.6 371.12 296.73 369.2C285.64 367.01 277.6 361.25 277.6 350.85C277.6 340.45 286.34 334.08 299.09 334.08C310.35 334.08 317.43 338.54 321.62 346.84L312.19 352.08C308.96 347.02 304.85 344.22 298.82 344.22C293.41 344.22 288.6 346.23 288.6 350.6C288.6 355.31 293.14 358.02 303.37 360.12V360.11Z" fill="white"/>
<path d="M354.44 397.67C342.56 397.67 330.77 389.98 330.77 374.79C330.77 359.6 342.56 351.91 354.44 351.91C366.32 351.91 378.11 359.59 378.11 374.79C378.11 389.99 366.32 397.67 354.44 397.67ZM366.93 374.79C366.93 366.84 360.91 362.21 354.44 362.21C347.97 362.21 341.95 366.84 341.95 374.79C341.95 382.74 347.98 387.37 354.44 387.37C360.9 387.37 366.93 382.74 366.93 374.79Z" fill="white"/>
<path d="M396.949 335.3V396.45H385.949V335.3H396.949Z" fill="white"/>
<path d="M434.059 389.54C430.999 394.95 425.769 397.66 419.569 397.66C411.009 397.66 404.979 392.34 404.979 384.12C404.979 375.3 411.619 371.28 420.439 370.05L433.449 368.3V366.12C433.449 361.93 430.839 359.56 425.329 359.56C420.529 359.56 417.739 361.75 417.739 364.45C417.739 364.8 417.739 365.33 417.829 365.67L407.429 366.81C407.259 366.02 407.259 365.14 407.259 364.53C407.259 357.81 413.979 351.87 425.329 351.87C437.479 351.87 444.469 357.02 444.469 367.59V385.67C444.469 390.39 444.899 393.45 445.859 396.42H434.939C434.509 394.67 434.059 392.32 434.059 389.52V389.54ZM433.449 376.7V375.91L422.969 377.4C418.259 378.1 415.719 379.85 415.719 383.51C415.719 387.17 418.509 388.75 421.919 388.75C428.299 388.75 433.449 385.08 433.449 376.7Z" fill="white"/>
<path d="M474.839 362.2C468.289 362.2 464.359 367.7 464.359 375.04V396.44H453.359V353.12H464.359V360.02C466.809 355.04 470.819 351.9 476.409 351.9C477.809 351.9 479.029 352.07 480.169 352.42L478.419 362.81C477.459 362.46 476.239 362.2 474.839 362.2Z" fill="white"/>
</svg>
