<svg width="113" height="32" viewBox="0 0 113 32" fill="none" xmlns="http://www.w3.org/2000/svg">
<path d="M113 16.0254H31.501V17.0908H113V16.0254Z" fill="white"/>
<path d="M77.9811 8.93318H75.1249V14.2854H73.999V7.88037H79.1044V14.2854H77.9785V8.93318H77.9811Z" fill="white"/>
<path d="M80.8375 7.88037H81.9709L84.1571 10.8726L86.2426 7.88037H87.3029V14.2854H86.1872V9.65604L84.1647 12.5022H84.0009L81.9608 9.68375V14.2854H80.835V7.88037H80.8375Z" fill="white"/>
<path d="M89.8614 10.497H92.715C92.4959 9.42651 91.6169 8.83211 90.4079 8.83211C89.8966 8.83211 89.3551 8.98826 88.9068 9.32577L88.4686 8.48453C88.9169 8.09917 89.6952 7.7793 90.6749 7.7793C92.5589 7.7793 93.8963 9.07894 93.8963 11.0737C93.8963 13.0685 92.5967 14.3858 90.5465 14.3858C89.6599 14.3858 88.8438 14.1012 88.3955 13.7183L88.8816 12.7764C89.2846 13.0887 89.8614 13.3355 90.5288 13.3355C91.627 13.3355 92.5513 12.731 92.7428 11.5523H89.8614V10.4995V10.497Z" fill="white"/>
<path d="M97.5384 13.5069C95.7728 13.5069 94.584 12.6103 94.584 10.9907C94.584 9.37123 95.7829 8.50229 97.5384 8.47458V7.80713H98.6643V8.47458C100.412 8.50229 101.619 9.41657 101.619 10.9907C101.619 12.5649 100.41 13.4968 98.6643 13.5069V14.3582H97.5384V13.5069ZM97.5384 12.4717V9.50724C96.3672 9.51731 95.7728 10.1193 95.7728 10.9907C95.7728 11.9504 96.4126 12.4642 97.5384 12.4742V12.4717ZM98.6643 9.50724V12.4717C99.8254 12.4617 100.43 11.968 100.43 10.9882C100.43 10.1268 99.8631 9.52487 98.6643 9.50472V9.50724Z" fill="white"/>
<path d="M102.563 9.76436C102.371 9.56286 102.253 9.21528 102.253 8.91304C102.253 8.06173 102.774 7.56807 103.167 7.33887L103.653 7.78719C103.389 8.00632 103.24 8.34634 103.24 8.68384C103.24 8.90297 103.323 9.12209 103.452 9.25055L102.565 9.76184L102.563 9.76436Z" fill="white"/>
<path d="M31.5218 9.59969C31.5218 8.61237 32.3076 7.75098 33.5896 7.75098C34.4132 7.75098 35.0731 8.02551 35.4736 8.45621L34.6877 9.55435C34.4031 9.28989 34.1941 9.12366 33.718 9.12366C33.3151 9.12366 33.0783 9.30752 33.0783 9.59969C33.0783 10.6601 35.7506 10.4057 35.7506 12.4911C35.7506 13.6069 34.791 14.3751 33.5543 14.3751C32.6955 14.3751 31.6981 14.0099 31.3857 13.3223L32.2194 12.3249C32.5846 12.7909 33.1438 13.0024 33.5921 13.0024C33.9775 13.0024 34.1966 12.811 34.1966 12.5088C34.1966 11.5491 31.5243 11.6675 31.5243 9.59969H31.5218Z" fill="white"/>
<path d="M36.9395 14.267V7.85943C37.2971 7.85943 38.4028 7.8418 38.899 7.8418C40.8484 7.8418 41.4882 8.85683 41.4882 9.96505C41.4882 11.0733 40.6016 12.116 39.1181 12.116C38.9821 12.116 38.632 12.116 38.4053 12.0883V14.267H36.942H36.9395ZM38.4028 9.23463V10.698C38.6144 10.7257 38.8612 10.7433 39.0703 10.7433C39.4556 10.7433 39.9316 10.5796 39.9316 9.95749C39.9316 9.39079 39.5664 9.217 39.0451 9.217C38.8536 9.217 38.7076 9.22707 38.4053 9.23463H38.4028Z" fill="white"/>
<path d="M42.7705 7.85938H44.2339V14.2644H42.7705V7.85938Z" fill="white"/>
<path d="M45.9717 7.85938H49.7699V9.23206H47.4376V10.3579H49.4953V11.7306H47.4376V12.8917H49.863V14.2644H45.9742V7.85938H45.9717Z" fill="white"/>
<path d="M51.2354 7.85938H54.9403V9.23206H52.6987V10.5871H54.6658V11.9598H52.6987V14.2669H51.2354V7.85938Z" fill="white"/>
<path d="M56.2577 9.90968C56.0285 9.67293 55.9102 9.26994 55.9102 8.94755C55.9102 7.97785 56.5423 7.41115 56.9428 7.17188L57.5826 7.74865C57.3257 7.98541 57.1896 8.32543 57.1896 8.6453C57.1896 8.85687 57.2627 9.09363 57.4088 9.23971L56.2552 9.90716L56.2577 9.90968Z" fill="white"/>
<path d="M58.1562 13.2528C59.2116 12.2176 60.6346 10.9784 60.6346 9.83996C60.6346 9.37652 60.413 9.20273 60.0427 9.20273C59.6448 9.20273 59.4685 9.5075 59.33 9.89537L58.1739 9.36897C58.3779 8.45469 59.0705 7.81494 60.209 7.81494C61.4658 7.81494 62.1131 8.64611 62.1131 9.56291C62.1131 11.3839 60.4306 12.6987 59.9496 13.0664H62.3347V14.361H58.1562V13.2503V13.2528Z" fill="white"/>
<path d="M62.7959 13.4012L63.5641 12.3736C63.889 12.7438 64.2945 13.0864 64.8411 13.0864C65.3876 13.0864 65.6546 12.7917 65.6546 12.4567C65.6546 11.9656 65.2768 11.7439 64.5539 11.7439H64.1459V10.3561H64.5162C65.0073 10.3561 65.4053 10.1521 65.4053 9.70884C65.4053 9.43178 65.2491 9.16228 64.8134 9.16228C64.4154 9.16228 64.0552 9.30081 63.6951 9.7441L62.9369 8.74418C63.3349 8.10696 64.0275 7.77197 64.9443 7.77197C66.0828 7.77197 66.8862 8.4092 66.8862 9.42675C66.8862 10.1949 66.5714 10.6483 65.9241 10.943V10.9707C66.72 11.1269 67.1356 11.7288 67.1356 12.5046C67.1356 13.7261 66.1735 14.4641 64.9343 14.4641C63.8512 14.4641 63.141 13.973 62.7984 13.3911L62.7959 13.4012Z" fill="white"/>
<path d="M104.116 13.5347C105.172 12.4996 106.809 10.9984 106.809 9.7416C106.809 9.22275 106.522 8.90036 105.985 8.90036C105.522 8.90036 105.189 9.22527 105.051 9.76931L104.162 9.37136C104.338 8.42685 105.078 7.83496 106.106 7.83496C107.338 7.83496 107.94 8.66864 107.94 9.52752C107.94 11.341 106.005 12.9781 105.496 13.3962H108.189V14.3861H104.116V13.5347Z" fill="white"/>
<path d="M108.827 13.3961L109.429 12.6178C109.754 13.0989 110.252 13.4238 110.816 13.4238C111.512 13.4238 111.862 13.0158 111.862 12.5271C111.862 11.9352 111.408 11.6103 110.658 11.6103H110.194V10.5449H110.61C111.136 10.5449 111.61 10.2125 111.61 9.65584C111.61 9.1924 111.34 8.87001 110.786 8.87001C110.267 8.87001 109.89 9.09166 109.565 9.56517L108.973 8.8146C109.325 8.15723 110 7.80713 110.89 7.80713C112 7.80713 112.748 8.4368 112.748 9.45435C112.748 10.1848 112.416 10.7036 111.758 10.9907V11.0184C112.564 11.157 112.998 11.7967 112.998 12.5649C112.998 13.7588 112.073 14.4892 110.879 14.4892C109.89 14.4892 109.167 14.0535 108.824 13.3961H108.827Z" fill="white"/>
<mask id="mask0_655_12280" style="mask-type:luminance" maskUnits="userSpaceOnUse" x="57" y="20" width="56" height="12">
<path d="M112.97 20.8618H57.665V31.9994H112.97V20.8618Z" fill="white"/>
</mask>
<g mask="url(#mask0_655_12280)">
<mask id="mask1_655_12280" style="mask-type:luminance" maskUnits="userSpaceOnUse" x="57" y="20" width="56" height="12">
<path d="M112.97 20.8618H57.665V31.9994H112.97V20.8618Z" fill="white"/>
</mask>
<g mask="url(#mask1_655_12280)">
<path d="M67.5659 29.7326C67.5659 29.7326 67.5583 29.7678 67.5684 29.7678C67.8152 29.8711 67.9991 30.0474 67.9991 30.3597C67.9991 30.5965 67.8656 30.7652 67.6943 30.8811C67.5231 31.002 67.1957 31.0398 67.0521 31.0398C66.9513 31.0398 66.5559 31.0322 66.3947 31.0297C66.2663 31.0272 66.1781 31.0322 66.1227 31.0322C66.0572 31.0322 66.0068 31.007 66.0068 30.9743C66.0068 30.9415 66.0673 30.9214 66.1076 30.9138C66.3267 30.871 66.3418 30.8181 66.3544 30.6947C66.362 30.6191 66.3872 30.2615 66.3872 29.5487C66.3872 29.2439 66.372 29.0601 66.362 29.0097C66.3443 28.9316 66.3217 28.9014 66.1353 28.8661C66.0874 28.8586 66.0446 28.8384 66.0446 28.7981C66.0446 28.7704 66.095 28.7503 66.1403 28.7503H66.3771C66.4929 28.7503 66.9287 28.7251 67.0773 28.7251C67.2863 28.7251 67.4853 28.7654 67.5936 28.8334C67.7699 28.9417 67.8455 29.0979 67.8455 29.2742C67.8455 29.5462 67.6591 29.6646 67.5609 29.7301M66.9639 28.8535C66.9413 28.8535 66.8783 28.8636 66.838 28.8762C66.8304 28.8787 66.8103 28.9115 66.8053 28.9341C66.7977 28.9921 66.7901 29.0953 66.7901 29.6973C66.7901 29.7124 66.8078 29.7401 66.8304 29.7401C66.9589 29.7401 67.1654 29.7225 67.2511 29.657C67.3619 29.5789 67.4223 29.4555 67.4223 29.317C67.4223 29.0198 67.2208 28.8535 66.9639 28.8535ZM67.2536 29.924C67.1705 29.8761 67.0672 29.856 66.9438 29.856C66.8934 29.856 66.833 29.8711 66.8229 29.8812C66.8128 29.8912 66.7952 29.9089 66.7952 30.0499C66.7927 30.1431 66.8027 30.5738 66.8103 30.6821C66.8128 30.7098 66.833 30.7677 66.8581 30.798C66.9186 30.8635 67.0193 30.9189 67.0848 30.9189C67.314 30.9189 67.5231 30.6897 67.5231 30.3874C67.5231 30.1784 67.4148 30.0071 67.2586 29.924" fill="white"/>
<path d="M69.2584 30.7551C69.2735 30.7451 69.2986 30.6871 69.2986 30.672V29.8686C69.2986 29.8434 69.276 29.8031 69.2382 29.7855C69.1803 29.7678 69.1425 29.7502 69.0946 29.7326C69.0694 29.725 69.0367 29.6973 69.0367 29.6671C69.0367 29.652 69.0695 29.6318 69.0972 29.6318C69.2407 29.6318 69.4674 29.6066 69.5707 29.584C69.6059 29.5764 69.6311 29.5688 69.6563 29.5688C69.6815 29.5688 69.6916 29.6117 69.6916 29.6268C69.684 29.7552 69.6739 30.667 69.6739 30.7829C69.6739 30.7929 69.6815 30.8483 69.7218 30.8483C69.7571 30.8458 69.8376 30.8231 69.883 30.8231C69.8981 30.8231 69.9233 30.9063 69.9258 30.9163C69.9283 30.9239 69.9006 30.9566 69.883 30.9566C69.7873 30.9642 69.5984 31.0095 69.5178 31.0322C69.4573 31.0498 69.3415 31.0775 69.3314 31.0775C69.3163 31.0775 69.2911 31.0524 69.2911 31.0272C69.2911 31.0045 69.2987 30.9415 69.3012 30.8811C69.3012 30.8634 69.2835 30.8483 69.276 30.8534C69.1853 30.9214 69.072 30.9969 69.0241 31.0146C68.9637 31.0423 68.8982 31.0675 68.7949 31.0675C68.6262 31.0675 68.5078 30.9944 68.4322 30.876C68.407 30.8408 68.3894 30.7325 68.3894 30.6871C68.3894 30.4328 68.3869 30.0852 68.3793 29.8938C68.3768 29.7905 68.3189 29.7678 68.2559 29.7426C68.2232 29.7275 68.1904 29.6998 68.1904 29.6671C68.1904 29.6494 68.2156 29.6268 68.2484 29.6268C68.3491 29.6268 68.7294 29.5865 68.7445 29.5865C68.7597 29.5865 68.7722 29.6268 68.7722 29.6394C68.7798 29.9114 68.7697 30.4504 68.7697 30.6166C68.7697 30.6846 68.8025 30.7375 68.8377 30.7703C68.8957 30.8131 68.9712 30.8383 69.0392 30.8383C69.0921 30.8383 69.1803 30.8156 69.2584 30.7526" fill="white"/>
<path d="M70.1379 31.0398C70.0799 31.0398 70.0371 31.0172 70.0371 30.992C70.0371 30.9668 70.0623 30.9492 70.1353 30.9265C70.2185 30.9013 70.2562 30.8585 70.2638 30.8232C70.2789 30.7729 70.2865 30.5185 70.2865 30.2641C70.2865 30.1558 70.2865 29.9845 70.2789 29.9417C70.2764 29.914 70.2336 29.8762 70.158 29.8132C70.1353 29.7906 70.1152 29.7729 70.1152 29.7553C70.1152 29.7276 70.1555 29.6974 70.2109 29.6873C70.357 29.6596 70.5837 29.5714 70.6416 29.5589C70.6592 29.5589 70.6768 29.5866 70.6768 29.5992C70.6693 29.7175 70.6592 30.2011 70.6592 30.4102C70.6592 30.521 70.6617 30.6469 70.6668 30.7729C70.6693 30.8812 70.7146 30.8963 70.8078 30.924C70.8607 30.9416 70.8859 30.9643 70.8859 30.992C70.8859 31.0197 70.8355 31.0398 70.7852 31.0398C70.76 31.0398 70.566 31.0298 70.4879 31.0298C70.3721 31.0298 70.2008 31.0449 70.1404 31.0449M70.6869 29.0375C70.6869 29.1584 70.561 29.2566 70.4703 29.2566C70.4376 29.2566 70.3671 29.239 70.3268 29.1987C70.2915 29.1634 70.2587 29.113 70.2587 29.0375C70.2587 28.9972 70.2764 28.9267 70.3167 28.8838C70.3595 28.8435 70.4275 28.8184 70.4955 28.8184C70.6214 28.8184 70.6844 28.9594 70.6844 29.0375" fill="white"/>
<path d="M71.12 28.6448C71.2737 28.602 71.4475 28.5718 71.586 28.4836C71.5961 28.4761 71.6288 28.5063 71.6288 28.5189C71.6187 28.6448 71.6011 29.3702 71.6011 29.9067C71.6011 30.1862 71.6036 30.6598 71.6162 30.7681C71.6263 30.8512 71.6414 30.894 71.7774 30.9343C71.8278 30.9519 71.853 30.9696 71.853 30.9947C71.853 31.0275 71.795 31.0376 71.7573 31.0376C71.6716 31.0376 71.4676 31.0224 71.4021 31.0224C71.319 31.0224 71.1427 31.0376 71.0671 31.0376C70.9916 31.0376 70.9639 31.0124 70.9639 30.9947C70.9639 30.9544 71.0117 30.9419 71.0495 30.9343C71.1679 30.9016 71.1905 30.8487 71.2006 30.6623C71.2107 30.5011 71.2233 30.0981 71.2233 29.5314C71.2233 29.3425 71.2233 29.005 71.2208 28.8992C71.2183 28.8589 71.1981 28.8388 71.1276 28.7758C71.0772 28.7405 71.0596 28.7229 71.0596 28.7053C71.0596 28.6876 71.0848 28.6574 71.1251 28.6448" fill="white"/>
<path d="M73.0668 29.5791C73.0819 29.5816 73.092 29.5615 73.0945 29.5464C73.1121 29.4381 73.097 28.962 73.0869 28.8714C73.0844 28.8437 73.0844 28.7857 72.9358 28.7203C72.9031 28.7051 72.8854 28.6926 72.8854 28.685C72.8854 28.6674 72.9283 28.6195 72.9509 28.617C73.0441 28.6019 73.3035 28.5515 73.4043 28.5137C73.4295 28.5036 73.4521 28.4961 73.4723 28.4961C73.4874 28.4961 73.5076 28.5314 73.505 28.5691C73.4899 28.7051 73.4723 29.1258 73.4723 29.9317C73.4723 30.3775 73.4798 30.5564 73.4798 30.6244C73.4824 30.8435 73.5126 30.8762 73.5453 30.8762C73.573 30.8762 73.6813 30.8611 73.7242 30.8611C73.7393 30.8611 73.7468 30.8863 73.7468 30.8888C73.7468 30.9115 73.6889 30.9795 73.6713 30.9846C73.5756 30.9997 73.359 31.0324 73.2909 31.0576C73.2053 31.0853 73.1499 31.0979 73.1323 31.0979C73.1172 31.0979 73.0895 31.0702 73.0895 31.0475C73.0895 31.0198 73.0995 30.9644 73.0995 30.9115C73.0995 30.8939 73.0769 30.8838 73.0718 30.8863C72.9459 30.9896 72.762 31.0551 72.6311 31.0551C72.4447 31.0551 72.3087 30.9846 72.2004 30.8838C72.0568 30.7503 72.0039 30.5488 72.0039 30.3775C72.0039 30.0073 72.2155 29.8134 72.3918 29.7101C72.5278 29.627 72.7444 29.5741 72.8728 29.5741C72.9635 29.5741 73.0139 29.5741 73.0693 29.5816M72.5303 29.8108C72.4346 29.9141 72.3968 30.1232 72.3968 30.2491C72.3968 30.5539 72.6008 30.8485 72.8779 30.8485C72.9459 30.8485 73.0038 30.8334 73.0542 30.7956C73.0643 30.7881 73.102 30.6798 73.102 30.6269C73.1046 30.501 73.1096 30.1433 73.0995 30.0048C73.0995 29.9872 73.0668 29.8965 73.034 29.8612C72.9333 29.7428 72.8149 29.7025 72.7444 29.7025C72.6865 29.7025 72.6084 29.7353 72.5328 29.8108" fill="white"/>
<path d="M73.9591 31.0398C73.9012 31.0398 73.8584 31.0172 73.8584 30.992C73.8584 30.9668 73.8836 30.9492 73.9566 30.9265C74.0397 30.9013 74.0775 30.8585 74.0851 30.8232C74.1002 30.7729 74.1078 30.5185 74.1078 30.2641C74.1078 30.1558 74.1077 29.9845 74.1002 29.9417C74.0977 29.914 74.0549 29.8762 73.9793 29.8132C73.9566 29.7906 73.9365 29.7729 73.9365 29.7553C73.9365 29.7276 73.9768 29.6974 74.0322 29.6873C74.1783 29.6596 74.405 29.5714 74.4629 29.5589C74.4805 29.5589 74.4981 29.5866 74.4981 29.5992C74.4906 29.7175 74.4805 30.2011 74.4805 30.4102C74.4805 30.521 74.483 30.6469 74.4881 30.7729C74.4906 30.8812 74.5359 30.8963 74.6291 30.924C74.682 30.9416 74.7072 30.9643 74.7072 30.992C74.7072 31.0197 74.6568 31.0398 74.6064 31.0398C74.5813 31.0398 74.3873 31.0298 74.3092 31.0298C74.1934 31.0298 74.0221 31.0449 73.9617 31.0449M74.5082 29.0375C74.5082 29.1584 74.3823 29.2566 74.2916 29.2566C74.2589 29.2566 74.1883 29.239 74.148 29.1987C74.1128 29.1634 74.08 29.113 74.08 29.0375C74.08 28.9972 74.0977 28.9267 74.138 28.8838C74.1808 28.8435 74.2488 28.8184 74.3168 28.8184C74.4427 28.8184 74.5057 28.9594 74.5057 29.0375" fill="white"/>
<path d="M74.9708 29.69C75.0388 29.6648 75.2 29.6119 75.2579 29.5817C75.3158 29.554 75.3612 29.5288 75.3788 29.5288C75.3939 29.5288 75.4191 29.5691 75.4191 29.5817C75.4191 29.622 75.4166 29.7076 75.4166 29.7404C75.4166 29.763 75.4392 29.758 75.4418 29.758C75.5853 29.6497 75.7364 29.5641 75.8976 29.5641C76.074 29.5641 76.1772 29.6497 76.2276 29.7076C76.3107 29.8008 76.356 29.9595 76.356 30.1408C76.356 30.2164 76.3636 30.7428 76.3661 30.7932C76.3737 30.8461 76.3989 30.8889 76.492 30.9141C76.5601 30.9317 76.5852 30.9493 76.5852 30.9796C76.5852 31.0098 76.5424 31.0299 76.482 31.0299C76.3963 31.0299 76.2553 31.0224 76.1545 31.0224C76.0639 31.0224 75.9203 31.0325 75.8699 31.0325C75.8196 31.0325 75.7742 31.0224 75.7742 30.9821C75.7742 30.9569 75.8145 30.9368 75.8599 30.9216C75.943 30.8889 75.9606 30.8562 75.9682 30.7378C75.9757 30.6194 75.9757 30.1736 75.9757 30.0703C75.9757 29.9973 75.948 29.9016 75.8976 29.8537C75.8573 29.8185 75.7692 29.7782 75.6936 29.7782C75.5677 29.7782 75.5072 29.8134 75.4569 29.8512C75.4418 29.8613 75.4241 29.9091 75.4216 29.9293C75.4191 29.9897 75.4241 30.763 75.4292 30.8058C75.4317 30.8562 75.4443 30.8813 75.5551 30.9166C75.5878 30.9317 75.6156 30.9569 75.6156 30.9771C75.6156 31.0022 75.5753 31.0274 75.5148 31.0274C75.4468 31.0274 75.3133 31.0199 75.2377 31.0199C75.1043 31.0199 74.9657 31.0299 74.9053 31.0299C74.8448 31.0299 74.8096 31.0073 74.8096 30.9771C74.8096 30.9493 74.8448 30.9292 74.8851 30.9191C75.0035 30.8788 75.0211 30.8511 75.0312 30.7176C75.0413 30.6093 75.0488 30.3222 75.0488 29.9595C75.0488 29.9192 75.0237 29.8839 74.9456 29.8134C74.9179 29.7857 74.9053 29.7731 74.9053 29.763C74.9053 29.7404 74.9456 29.695 74.9733 29.685" fill="white"/>
<path d="M77.7416 29.6067C77.7819 29.6142 77.8146 29.6293 77.8398 29.6293C77.9229 29.6319 78.1849 29.647 78.2453 29.6571C78.268 29.6596 78.2806 29.6822 78.2806 29.6974C78.2806 29.7502 78.2151 29.8334 78.2025 29.8334C78.1798 29.8334 78.0791 29.8359 77.9935 29.8308C77.9758 29.8308 77.9683 29.8535 77.9708 29.856C77.9809 29.8988 77.9935 29.9492 77.9935 30.0097C77.9935 30.2036 77.928 30.3497 77.7895 30.458C77.6283 30.5764 77.4368 30.594 77.3562 30.594C77.3336 30.594 77.2479 30.5915 77.2127 30.5864C77.1875 30.5839 77.1724 30.5839 77.1623 30.594C77.1346 30.6116 77.0943 30.6595 77.0943 30.6872C77.0943 30.7552 77.185 30.8156 77.2278 30.8207C77.3865 30.8282 77.7995 30.8383 77.9028 30.8559C77.938 30.8585 78.0212 30.8887 78.0867 30.9416C78.1824 31.0272 78.2403 31.1506 78.2403 31.269C78.2403 31.5587 78.0136 31.7526 77.87 31.8433C77.6862 31.9591 77.4998 32.0019 77.3235 32.0019C77.1472 32.0019 77.0036 31.9667 76.8701 31.881C76.7517 31.7979 76.6787 31.672 76.6787 31.5587C76.6787 31.4302 76.7442 31.3798 76.7895 31.3471C76.8626 31.2992 76.9734 31.2312 77.0187 31.201C77.0288 31.1934 77.0338 31.1834 77.0187 31.1758C76.986 31.1657 76.918 31.1406 76.8726 31.1078C76.7895 31.0499 76.7366 30.9542 76.7366 30.8232C76.7366 30.8131 76.7467 30.7879 76.7593 30.7804C76.7921 30.7552 76.9935 30.6444 77.049 30.5764C77.0565 30.5739 77.0565 30.5512 77.0414 30.5411C76.9381 30.4907 76.7518 30.3472 76.7518 30.0877C76.7518 29.9215 76.8273 29.7905 76.9684 29.6848C77.0767 29.6067 77.2227 29.5513 77.4016 29.5513C77.5477 29.5513 77.6408 29.579 77.7416 29.6092M77.7643 31.7702C77.8852 31.6997 77.9255 31.5813 77.9255 31.4831C77.9255 31.4327 77.9078 31.3572 77.865 31.3118C77.8172 31.2615 77.7617 31.2337 77.6635 31.2186C77.5376 31.201 77.4771 31.201 77.2907 31.201C77.2127 31.201 77.1472 31.2237 77.1195 31.2438C77.0464 31.3093 77.0112 31.3949 77.0112 31.473C77.0112 31.5763 77.0616 31.667 77.1371 31.7274C77.2303 31.803 77.3638 31.8307 77.4847 31.8307C77.5804 31.8307 77.6811 31.813 77.7643 31.7702ZM77.2253 29.7276C77.1724 29.8006 77.1421 29.8988 77.1421 30.0323C77.1421 30.2615 77.258 30.4958 77.4293 30.4958C77.4545 30.4958 77.4998 30.4731 77.5401 30.4429C77.598 30.39 77.6383 30.2338 77.6383 30.0802C77.6383 30.0223 77.6131 29.8686 77.5602 29.7905C77.5074 29.7074 77.4393 29.6545 77.3663 29.6545C77.3134 29.6545 77.2555 29.6873 77.2253 29.7301" fill="white"/>
<path d="M80.9202 28.743C81.0965 28.7329 81.1494 28.7153 81.1972 28.6901C81.2249 28.6724 81.24 28.6573 81.2551 28.6573C81.2728 28.6573 81.3005 28.7001 81.2879 28.7505C81.2602 28.8513 81.2224 29.0301 81.2123 29.1661C81.2123 29.1988 81.1871 29.2593 81.1443 29.2593C81.1191 29.2593 81.0965 29.2366 81.0839 29.1485C81.0486 28.9394 81.0058 28.9117 80.8244 28.9042C80.7388 28.9042 80.4769 28.9067 80.3862 28.9193C80.3635 28.9218 80.3509 28.952 80.3509 28.9671C80.3509 29.1334 80.3484 29.4054 80.3484 29.7127C80.3484 30.1257 80.3509 30.506 80.366 30.6849C80.3761 30.8007 80.4063 30.8713 80.6456 30.9216C80.696 30.9317 80.7363 30.972 80.7363 30.9947C80.7363 31.0274 80.6758 31.0425 80.6355 31.0425C80.6078 31.0425 80.2023 31.0274 80.1041 31.0274C79.9933 31.0274 79.7162 31.0501 79.6558 31.0501C79.5878 31.0501 79.545 31.035 79.545 31.0073C79.545 30.9745 79.5878 30.9418 79.623 30.9317C79.8573 30.8738 79.8749 30.8284 79.885 30.5766C79.9001 30.365 79.9177 29.6497 79.9177 29.3752C79.9177 29.1711 79.9152 29.0528 79.9152 28.9596C79.9152 28.9268 79.8875 28.9092 79.8749 28.9092C79.8094 28.8991 79.5475 28.8941 79.4694 28.8941C79.4115 28.8941 79.3107 28.9294 79.2729 28.9772C79.2377 29.0175 79.1974 29.0805 79.1495 29.1661C79.1067 29.2391 79.084 29.2593 79.0714 29.2593C79.0362 29.2593 79.0186 29.2165 79.0186 29.1812C79.0186 29.1132 79.084 28.8765 79.0866 28.6976C79.0866 28.68 79.1193 28.6221 79.1445 28.6221C79.1697 28.6221 79.1848 28.6548 79.2049 28.68C79.215 28.6976 79.283 28.7304 79.351 28.7379C79.4291 28.7455 79.9026 28.7606 80.1469 28.7606C80.3484 28.7606 80.8068 28.7581 80.9227 28.7505" fill="white"/>
<path d="M81.0993 29.7076C81.2353 29.6648 81.3965 29.6119 81.4619 29.5716C81.5022 29.5464 81.5375 29.5288 81.5476 29.5288C81.5702 29.5288 81.5904 29.5616 81.5904 29.5716C81.5904 29.6371 81.5803 29.7051 81.5803 29.7731C81.5803 29.7832 81.598 29.7983 81.608 29.7882C81.7189 29.6699 81.8775 29.5666 81.9883 29.5666C82.147 29.5666 82.1974 29.6623 82.1974 29.7127C82.1974 29.7227 82.1873 29.753 82.1747 29.7706C82.1344 29.8311 82.0236 29.9797 81.9984 29.9822C81.9833 29.9822 81.9455 29.9797 81.9329 29.9671C81.8926 29.9318 81.7743 29.8663 81.7063 29.8663C81.6735 29.8663 81.6383 29.8663 81.6156 29.889C81.5929 29.9066 81.5828 29.9293 81.5828 29.962C81.5828 30.0351 81.6005 30.6572 81.6055 30.7126C81.6131 30.8234 81.6383 30.8889 81.6886 30.899C81.7239 30.9065 81.7995 30.9317 81.8423 30.9468C81.9002 30.9645 81.9153 30.9896 81.9153 31.0048C81.9153 31.0325 81.8725 31.0476 81.8146 31.0476C81.7063 31.0476 81.5199 31.0299 81.3083 31.0299C81.2328 31.0299 81.1572 31.04 81.0741 31.04C81.0312 31.04 80.9834 31.0299 80.9834 30.9896C80.9834 30.9645 81.0363 30.9468 81.0665 30.9368C81.195 30.8914 81.2025 30.8511 81.2076 30.6345V30.0426C81.2076 29.9771 81.2 29.9242 81.1799 29.9066C81.1219 29.8588 81.0514 29.7958 81.0514 29.7807C81.0514 29.7731 81.059 29.7227 81.0993 29.7127" fill="white"/>
<path d="M83.3707 30.7551C83.3858 30.7451 83.411 30.6871 83.411 30.672V29.8686C83.411 29.8434 83.3883 29.8031 83.3505 29.7855C83.2926 29.7678 83.2548 29.7502 83.2069 29.7326C83.1818 29.725 83.149 29.6973 83.149 29.6671C83.149 29.652 83.1818 29.6318 83.2095 29.6318C83.353 29.6318 83.5797 29.6066 83.683 29.584C83.7182 29.5764 83.7434 29.5688 83.7686 29.5688C83.7938 29.5688 83.8039 29.6117 83.8039 29.6268C83.7963 29.7552 83.7862 30.667 83.7862 30.7829C83.7862 30.7929 83.7938 30.8483 83.8341 30.8483C83.8694 30.8458 83.95 30.8231 83.9953 30.8231C84.0104 30.8231 84.0356 30.9063 84.0381 30.9163C84.0406 30.9239 84.0129 30.9566 83.9953 30.9566C83.8996 30.9642 83.7107 31.0095 83.6301 31.0322C83.5696 31.0498 83.4538 31.0775 83.4437 31.0775C83.4286 31.0775 83.4034 31.0524 83.4034 31.0272C83.4034 31.0045 83.411 30.9415 83.4135 30.8811C83.4135 30.8634 83.3958 30.8483 83.3883 30.8534C83.2976 30.9214 83.1843 30.9969 83.1364 31.0146C83.076 31.0423 83.0105 31.0675 82.9072 31.0675C82.7385 31.0675 82.6201 30.9944 82.5445 30.876C82.5193 30.8408 82.5017 30.7325 82.5017 30.6871C82.5017 30.4328 82.4992 30.0852 82.4916 29.8938C82.4891 29.7905 82.4312 29.7678 82.3682 29.7426C82.3355 29.7275 82.3027 29.6998 82.3027 29.6671C82.3027 29.6494 82.3279 29.6268 82.3607 29.6268C82.4614 29.6268 82.8417 29.5865 82.8568 29.5865C82.872 29.5865 82.8845 29.6268 82.8845 29.6394C82.8921 29.9114 82.882 30.4504 82.882 30.6166C82.882 30.6846 82.9148 30.7375 82.95 30.7703C83.008 30.8131 83.0835 30.8383 83.1515 30.8383C83.2044 30.8383 83.2926 30.8156 83.3707 30.7526" fill="white"/>
<path d="M84.9425 29.5866C84.9903 29.5941 85.0634 29.6218 85.0709 29.6269C85.0861 29.6369 85.0986 29.6596 85.1037 29.6873C85.1112 29.7377 85.1188 29.8913 85.1188 29.9165C85.1188 29.9492 85.0911 29.9921 85.0659 29.9921C85.0407 29.9921 85.008 29.9442 84.9878 29.9064C84.9097 29.7553 84.8191 29.6722 84.6906 29.6722C84.6 29.6722 84.5118 29.7629 84.5118 29.8561C84.5118 29.9845 84.6478 30.0651 84.8266 30.1659C85.1364 30.3321 85.1793 30.4555 85.1793 30.6192C85.1793 30.7829 85.0709 30.9063 84.9526 30.9819C84.877 31.0323 84.6931 31.0726 84.5899 31.0726C84.4791 31.0726 84.2952 31.0474 84.2272 30.9895C84.2121 30.9718 84.1592 30.8207 84.1592 30.6948C84.1592 30.6419 84.1819 30.6117 84.1944 30.6117C84.2297 30.6117 84.2549 30.652 84.2801 30.6948C84.3985 30.8963 84.5395 30.9643 84.6277 30.9643C84.6705 30.9643 84.736 30.9416 84.7712 30.9164C84.8216 30.8761 84.8443 30.8132 84.8443 30.7552C84.8443 30.6948 84.8166 30.6293 84.7007 30.5588C84.605 30.4983 84.5597 30.4681 84.4539 30.4051C84.3204 30.322 84.207 30.186 84.207 30.0021C84.207 29.8686 84.2801 29.7251 84.4287 29.642C84.5068 29.5991 84.6075 29.5664 84.741 29.5664C84.8241 29.5664 84.8997 29.5765 84.945 29.5891" fill="white"/>
<path d="M86.3424 29.6042C86.3575 29.6042 86.3953 29.6193 86.3953 29.6444C86.3953 29.6344 86.4054 29.7477 86.4054 29.7905C86.4054 29.8258 86.3374 29.8333 86.3122 29.8333H85.9722C85.9495 29.8333 85.9369 29.851 85.9369 29.8585C85.9369 30.0374 85.9344 30.3723 85.9344 30.5839C85.9344 30.6746 85.952 30.7174 85.9923 30.7527C86.0326 30.7879 86.1107 30.8131 86.1686 30.8131C86.2039 30.8131 86.2795 30.7879 86.3273 30.7627C86.355 30.7451 86.3752 30.7376 86.3878 30.7376C86.3978 30.7376 86.413 30.7552 86.413 30.7955C86.413 30.8282 86.3777 30.8736 86.355 30.8988C86.2568 30.9995 86.1132 31.0675 85.9445 31.0675C85.8009 31.0675 85.6674 30.9945 85.612 30.9139C85.5692 30.8534 85.5465 30.798 85.5465 30.6595C85.5465 30.526 85.5616 30.0071 85.5616 29.8812C85.5616 29.856 85.5012 29.8308 85.4256 29.8031C85.3979 29.7931 85.3828 29.7628 85.3828 29.7427C85.3828 29.7276 85.3853 29.72 85.4004 29.7099C85.5793 29.5916 85.6976 29.5059 85.7782 29.4228C85.8211 29.3724 85.8462 29.3447 85.8614 29.3447C85.8865 29.3447 85.9319 29.38 85.9319 29.4052V29.584C85.9319 29.584 85.9495 29.6167 85.9646 29.6167C86.0427 29.6167 86.3298 29.6067 86.345 29.6067" fill="white"/>
<path d="M57.665 23.9199C57.665 23.0409 58.3803 22.3256 59.2594 22.3256C60.1384 22.3256 60.8537 23.0409 60.8537 23.9199C60.8537 24.0181 60.8436 24.1164 60.826 24.2121C60.5691 24.1038 60.2895 24.0458 59.9973 24.0458C59.2216 24.0458 58.5441 24.4589 58.1663 25.076C57.859 24.7863 57.6676 24.3758 57.6676 23.9199M60.3424 26.1892C60.3424 25.6754 60.5237 25.2019 60.8285 24.8317C60.5867 24.6831 60.3021 24.5949 59.9973 24.5949C59.1183 24.5949 58.403 25.3102 58.403 26.1892C58.403 27.0683 59.1183 27.7836 59.9973 27.7836C60.3021 27.7836 60.5867 27.6954 60.8285 27.5468C60.5263 27.1766 60.3424 26.7031 60.3424 26.1892ZM63.2263 26.0658C62.4505 26.0658 61.773 25.6502 61.3952 25.0332C61.0879 25.3228 60.894 25.7334 60.894 26.1892C60.894 27.0683 61.6093 27.7836 62.4883 27.7836C63.3673 27.7836 64.0826 27.0683 64.0826 26.1892C64.0826 26.0885 64.0726 25.9928 64.0549 25.8996C63.8005 26.0079 63.521 26.0658 63.2263 26.0658ZM63.3824 22.3357C63.3824 22.376 63.39 22.4163 63.39 22.4566C63.39 23.4615 62.6923 24.3053 61.7579 24.537C61.9997 25.1112 62.5664 25.5142 63.2263 25.5142C64.1053 25.5142 64.8206 24.7989 64.8206 23.9199C64.8206 23.0938 64.1884 22.4137 63.3824 22.3357ZM61.2416 20.8647C60.5817 20.8647 60.015 21.2677 59.7732 21.842C60.7101 22.0737 61.4053 22.9175 61.4053 23.9224C61.4053 23.9627 61.4053 24.003 61.4002 24.0433C62.2037 23.9627 62.8334 23.2827 62.8334 22.4591C62.8334 21.5801 62.1181 20.8647 61.239 20.8647" fill="white"/>
<path d="M68.8378 24.295C68.8101 24.3151 68.6716 24.3881 68.5809 24.4335C68.5482 24.4461 68.5532 24.499 68.5683 24.5267C68.6943 24.7911 69.2358 25.7029 69.5657 26.0857C69.7446 26.2973 69.936 26.3779 70.135 26.4157C70.2004 26.4283 70.2533 26.4812 70.2533 26.5089C70.2533 26.5492 70.1929 26.5945 70.1476 26.6071C70.0418 26.6474 69.7899 26.66 69.7043 26.66C69.1023 26.66 68.8454 26.4232 68.7069 26.2293C68.523 25.9774 68.1855 25.4359 67.9084 24.9599C67.848 24.8617 67.7498 24.7156 67.6969 24.6828C67.6515 24.6425 67.5055 24.5972 67.3795 24.5972C67.3543 24.5972 67.314 24.6299 67.3065 24.6627C67.2939 24.7937 67.3065 25.6727 67.3266 25.9774C67.3468 26.262 67.3921 26.3275 67.6969 26.4081C67.8102 26.4409 67.8556 26.4887 67.8556 26.5341C67.8556 26.6071 67.7296 26.6323 67.6515 26.6323C67.4198 26.6323 67.1302 26.592 66.8053 26.592C66.5735 26.592 66.2436 26.6172 66.1706 26.6172C66.0043 26.6172 65.959 26.5718 65.959 26.5114C65.959 26.4711 66.032 26.4308 66.1177 26.4056C66.4224 26.3124 66.4929 26.2343 66.5131 26.0228C66.5534 25.514 66.5534 24.9574 66.5534 24.3982C66.5534 23.6905 66.5408 23.1288 66.5206 22.95C66.5081 22.7913 66.4476 22.6931 66.1378 22.62C66.0446 22.5948 65.9716 22.547 65.9716 22.4941C65.9716 22.4488 66.0497 22.4009 66.163 22.4009H66.6441C66.8884 22.4009 67.4374 22.3682 67.7951 22.3682C68.0999 22.3682 68.6288 22.3934 68.9461 22.6578C69.1501 22.824 69.3038 23.1414 69.3038 23.4436C69.3038 23.8013 69.1325 24.0582 68.8404 24.2899M68.1981 22.8215C68.047 22.6629 67.8404 22.5898 67.6616 22.5898C67.6364 22.5898 67.4626 22.61 67.4097 22.6351C67.377 22.6553 67.3367 22.7409 67.3317 22.7737C67.3115 22.9978 67.2863 24.1564 67.3115 24.3277C67.3191 24.368 67.3644 24.4083 67.3971 24.4083C67.7347 24.4083 68.0394 24.3101 68.1099 24.2622C68.2888 24.1312 68.4802 23.892 68.4802 23.5217C68.4802 23.3505 68.4197 23.0532 68.1956 22.8215" fill="white"/>
<path d="M74.7871 24.4412C74.7871 25.3076 74.4168 25.8693 73.9559 26.2395C73.5781 26.5292 73.0164 26.7155 72.5077 26.7155C71.8125 26.7155 71.2055 26.4511 70.7899 26.0078C70.4323 25.625 70.2207 25.1036 70.2207 24.4941C70.2207 23.6881 70.5784 23.1718 71.072 22.7763C71.3692 22.5446 71.9233 22.3003 72.48 22.3003C73.9408 22.3003 74.7871 23.3833 74.7871 24.4412ZM71.5758 22.8695C71.3516 23.0886 71.1123 23.5622 71.1123 24.3505C71.1123 25.368 71.7344 26.4712 72.6991 26.4712C73.0618 26.4712 73.2885 26.2848 73.3741 26.1992C73.6512 25.9222 73.8829 25.3529 73.8829 24.6452C73.8829 24.1238 73.6789 23.3304 73.1953 22.8871C72.9711 22.6882 72.6135 22.5295 72.3238 22.5295C72.0342 22.5295 71.7294 22.7159 71.5758 22.867" fill="white"/>
<path d="M77.8796 22.4136C77.9048 22.4211 77.9577 22.5118 77.9652 22.547C77.9652 22.6327 78.0307 23.1415 78.0307 23.1692C78.0307 23.2674 78.0106 23.3354 77.9703 23.3354C77.9174 23.3354 77.8116 23.2749 77.7789 23.1767C77.7134 22.9576 77.5748 22.7737 77.4942 22.7082C77.3356 22.5748 77.1693 22.5244 76.9653 22.5244C76.6555 22.5244 76.2903 22.7813 76.2903 23.212C76.2903 23.6024 76.58 23.8139 77.1769 24.1892C77.9904 24.6854 78.1491 25.1085 78.1491 25.5115C78.1491 25.8541 77.9501 26.252 77.5673 26.4837C77.3431 26.6223 76.9603 26.7205 76.6429 26.7205C76.2525 26.7205 75.9629 26.655 75.6909 26.5492C75.638 26.524 75.5196 26.383 75.5196 26.3578C75.4667 26.1261 75.4062 25.8415 75.4062 25.6501C75.4062 25.6047 75.4793 25.5115 75.512 25.5115C75.5649 25.5115 75.6707 25.6702 75.7689 25.8742C75.9679 26.2772 76.3508 26.4812 76.6883 26.4812C76.993 26.4812 77.3759 26.2445 77.3759 25.8213C77.3759 25.5443 77.2373 25.2798 76.6278 24.8819C75.9553 24.4386 75.5901 24.0759 75.5901 23.4865C75.5901 23.1112 75.7815 22.7914 75.9931 22.6201C76.2097 22.4362 76.522 22.3027 77.0434 22.3027C77.3482 22.3027 77.6982 22.3833 77.8771 22.4161" fill="white"/>
<path d="M82.1868 22.4061C82.3455 22.4464 82.5117 22.4842 82.6628 22.5043C82.7082 22.5043 82.7611 22.5824 82.7611 22.6831C82.7686 22.8695 82.7812 23.0987 82.7938 23.2901C82.8014 23.4287 82.7535 23.542 82.6805 23.542C82.6477 23.542 82.5873 23.4614 82.5545 23.3632C82.4891 23.1592 82.3883 22.9803 82.2775 22.8947C81.9929 22.6579 81.6554 22.5119 81.3002 22.5119C80.2499 22.5119 79.7538 23.3455 79.7538 24.3505C79.7538 24.7938 79.8318 25.1766 79.9779 25.4663C80.3406 26.1942 80.9426 26.4511 81.4589 26.4511C81.5445 26.4511 81.8695 26.4385 82.1012 26.3C82.3455 26.1614 82.5243 25.97 82.6754 25.698C82.756 25.5519 82.8014 25.494 82.8543 25.494C82.9273 25.494 82.9273 25.6653 82.9072 25.7383C82.8744 25.902 82.7686 26.1942 82.7082 26.3126C82.688 26.373 82.5697 26.4788 82.4714 26.5241C82.3782 26.5569 81.9224 26.7155 81.3154 26.7155C80.3381 26.7155 79.6429 26.2798 79.3734 25.9675C79.1216 25.6778 78.8193 25.2144 78.8193 24.4815C78.8193 23.6805 79.2677 23.1189 79.5472 22.8947C80.1089 22.4313 80.7889 22.3003 81.3305 22.3003C81.6352 22.3003 81.9526 22.3456 82.1893 22.4061" fill="white"/>
<path d="M87.9273 24.4412C87.9273 25.3076 87.557 25.8693 87.0936 26.2395C86.7158 26.5292 86.1541 26.7155 85.6454 26.7155C84.9502 26.7155 84.3432 26.4511 83.9276 26.0078C83.57 25.625 83.3584 25.1036 83.3584 24.4941C83.3584 23.6881 83.7161 23.1718 84.2097 22.7763C84.5069 22.5446 85.061 22.3003 85.6177 22.3003C87.0785 22.3003 87.9248 23.3833 87.9248 24.4412M84.7135 22.8695C84.4893 23.0886 84.25 23.5622 84.25 24.3505C84.25 25.368 84.8696 26.4712 85.8368 26.4712C86.1995 26.4712 86.4262 26.2848 86.5118 26.1992C86.7888 25.9222 87.0206 25.3529 87.0206 24.6452C87.0206 24.1238 86.8165 23.3304 86.333 22.8871C86.1088 22.6882 85.7511 22.5295 85.4615 22.5295C85.1719 22.5295 84.8671 22.7159 84.7135 22.867" fill="white"/>
<path d="M88.3859 22.3859C88.5319 22.3859 89.0533 22.4111 89.3908 22.4111C89.4236 22.4111 89.5167 22.4766 89.5369 22.4967C89.6351 22.6151 89.8215 22.8216 90.091 23.139C90.4159 23.5344 91.7105 24.8769 92.0606 25.2471C92.0934 25.2799 92.1211 25.2194 92.1211 25.2068C92.1538 25.0154 92.1337 24.2674 92.1337 23.7132C92.1337 23.4891 92.1135 23.1768 92.0934 23.0055C92.0808 22.872 92.0153 22.7209 91.6828 22.6352C91.5518 22.6025 91.4662 22.5622 91.4662 22.4841C91.4662 22.4388 91.5393 22.406 91.6576 22.406C91.8239 22.406 91.975 22.4136 92.106 22.4136C92.4233 22.4136 92.6953 22.3809 92.8666 22.3809C92.9799 22.3809 93.0253 22.4212 93.0253 22.4665C93.0253 22.5068 92.9799 22.5647 92.859 22.6C92.5165 22.7133 92.4812 22.8317 92.4485 23.0962C92.4283 23.3329 92.383 25.0053 92.383 25.567C92.383 25.844 92.4233 26.4259 92.4233 26.5971C92.4233 26.6576 92.3503 26.7231 92.3175 26.7231C92.179 26.7231 92.0203 26.5518 91.9599 26.4712C91.8339 26.305 91.708 26.1538 91.5292 25.9347C90.9071 25.1741 89.8316 24.0382 89.2422 23.343C89.2095 23.3027 89.1692 23.3556 89.1692 23.3757C89.1566 23.5546 89.144 23.7057 89.1364 24.2296C89.1289 25.1489 89.1163 25.6501 89.149 25.975C89.1767 26.1866 89.2473 26.2999 89.5646 26.3982C89.7031 26.4385 89.751 26.4838 89.751 26.5241C89.751 26.5971 89.6578 26.6223 89.5319 26.6223C89.3404 26.6223 89.1893 26.5946 88.9576 26.5946C88.8115 26.5946 88.4413 26.6148 88.3304 26.6148C88.2373 26.6148 88.1592 26.582 88.1592 26.5291C88.1592 26.4636 88.2373 26.4309 88.3053 26.4107C88.61 26.3176 88.7687 26.2647 88.7889 25.7685C88.8216 25.028 88.9072 23.7586 88.9072 23.2825C88.9072 23.0181 88.8871 22.9375 88.8669 22.9123C88.7486 22.7662 88.7007 22.6755 88.3582 22.5949C88.2851 22.5824 88.1869 22.5295 88.1869 22.4816C88.1869 22.4287 88.265 22.3834 88.3859 22.3834" fill="white"/>
<path d="M96.8888 22.4384C96.9946 22.4636 97.1255 22.4837 97.186 22.4913C97.2137 22.4913 97.259 22.5518 97.2666 22.6424C97.2741 22.8338 97.3648 23.1713 97.3648 23.4358C97.3648 23.5214 97.3245 23.602 97.2515 23.602C97.2187 23.602 97.1658 23.529 97.1255 23.4308C97.0802 23.3048 96.9744 23.0933 96.8737 22.9673C96.7276 22.7961 96.3447 22.519 95.8158 22.519C94.8184 22.519 94.229 23.4106 94.229 24.4433C94.229 24.9067 94.3147 25.3021 94.5061 25.6321C94.7907 26.1409 95.3121 26.491 95.9015 26.491C95.9821 26.491 96.1735 26.4582 96.317 26.3575C96.3951 26.3046 96.4556 26.1207 96.4556 25.894C96.4556 25.6674 96.448 25.3853 96.4279 25.3047C96.3876 25.1535 96.3347 25.0201 95.8989 24.9798C95.8007 24.9722 95.7075 24.9143 95.7075 24.8538C95.7075 24.8085 95.8007 24.7606 95.9317 24.7606C96.176 24.7606 96.5462 24.7858 96.7251 24.7858C96.8837 24.7858 97.2464 24.7455 97.4907 24.7455C97.6167 24.7455 97.6696 24.7909 97.6696 24.8438C97.6696 24.884 97.5965 24.942 97.5184 24.9697C97.2943 25.0301 97.2993 25.1082 97.2867 25.2014C97.2741 25.282 97.254 25.7505 97.254 26.02C97.254 26.1132 97.2817 26.1384 97.3598 26.219C97.4127 26.2592 97.4328 26.2844 97.4328 26.3323C97.4328 26.365 97.3799 26.4179 97.3346 26.4305C97.2212 26.4633 96.9971 26.5237 96.7326 26.5766C96.448 26.6371 95.9191 26.7101 95.7554 26.7101C95.0426 26.7101 94.3802 26.491 93.9847 26.1358C93.68 25.8437 93.3047 25.3626 93.3047 24.4911C93.3047 23.8186 93.5817 23.2948 94.0376 22.8993C94.4532 22.5291 95.1282 22.2974 95.8083 22.2974C96.2566 22.2974 96.6268 22.3704 96.8863 22.4359" fill="white"/>
<path d="M101.047 24.295C101.02 24.3151 100.881 24.3881 100.79 24.4335C100.758 24.4461 100.763 24.499 100.778 24.5267C100.904 24.7911 101.445 25.7029 101.775 26.0857C101.954 26.2973 102.146 26.3779 102.345 26.4157C102.41 26.4283 102.463 26.4812 102.463 26.5089C102.463 26.5492 102.402 26.5945 102.357 26.6071C102.251 26.6474 101.999 26.66 101.914 26.66C101.312 26.66 101.055 26.4232 100.916 26.2293C100.733 25.9774 100.395 25.4359 100.115 24.9599C100.055 24.8617 99.9568 24.7156 99.9039 24.6828C99.8586 24.6425 99.7125 24.5972 99.5865 24.5972C99.5588 24.5972 99.5211 24.6299 99.5135 24.6627C99.5009 24.7937 99.5135 25.6727 99.5337 25.9774C99.5538 26.262 99.5991 26.3275 99.9039 26.4081C100.017 26.4409 100.063 26.4887 100.063 26.5341C100.063 26.6071 99.9366 26.6323 99.8586 26.6323C99.6269 26.6323 99.3372 26.592 99.0123 26.592C98.7806 26.592 98.4506 26.6172 98.3776 26.6172C98.2114 26.6172 98.166 26.5718 98.166 26.5114C98.166 26.4711 98.2391 26.4308 98.3247 26.4056C98.6295 26.3124 98.7025 26.2343 98.7201 26.0228C98.7604 25.514 98.7604 24.9574 98.7604 24.3982C98.7604 23.6905 98.7478 23.1288 98.7277 22.95C98.7151 22.7913 98.6546 22.6931 98.3448 22.62C98.2516 22.5948 98.1786 22.547 98.1786 22.4941C98.1786 22.4488 98.2567 22.4009 98.37 22.4009H98.8536C99.0979 22.4009 99.647 22.3682 100.005 22.3682C100.309 22.3682 100.838 22.3934 101.156 22.6578C101.36 22.824 101.513 23.1414 101.513 23.4436C101.513 23.8013 101.342 24.0582 101.05 24.2899M100.408 22.8215C100.257 22.6629 100.05 22.5898 99.8712 22.5898C99.846 22.5898 99.6722 22.61 99.6193 22.6351C99.5865 22.6553 99.5462 22.7409 99.5387 22.7737C99.5185 22.9978 99.4934 24.1564 99.5185 24.3277C99.5261 24.368 99.5714 24.4083 99.6042 24.4083C99.9417 24.4083 100.246 24.3101 100.317 24.2622C100.496 24.1312 100.687 23.892 100.687 23.5217C100.687 23.3505 100.627 23.0532 100.403 22.8215" fill="white"/>
<path d="M105.324 22.4136C105.543 22.4136 105.812 22.3885 105.905 22.3734C105.931 22.3658 105.979 22.4136 105.984 22.459C105.991 22.5774 105.991 23.0332 105.991 23.1667C105.991 23.2599 105.946 23.3506 105.885 23.3506C105.825 23.3506 105.772 23.2524 105.759 23.1844C105.674 22.8141 105.487 22.7159 105.336 22.6882C105.21 22.668 104.926 22.6428 104.417 22.6479C104.389 22.6479 104.336 22.6756 104.331 22.8318C104.319 22.998 104.299 23.9173 104.304 24.28C104.304 24.3001 104.331 24.3455 104.369 24.3455H104.898C105.366 24.3455 105.354 24.3178 105.48 24.0281C105.52 23.9274 105.565 23.8569 105.626 23.8569C105.679 23.8569 105.699 23.9702 105.691 24.0407C105.679 24.2271 105.664 24.3455 105.664 24.4966C105.664 24.6754 105.676 24.7812 105.691 24.9449C105.699 25.0633 105.659 25.1439 105.606 25.1439C105.553 25.1439 105.5 25.0658 105.48 24.9978C105.394 24.7082 105.309 24.6603 105.049 24.6402C104.838 24.62 104.593 24.62 104.389 24.62C104.364 24.62 104.304 24.6855 104.304 24.6981C104.278 24.8845 104.283 25.3983 104.291 25.6174C104.299 25.7761 104.291 26.0204 104.316 26.1589C104.336 26.2194 104.394 26.305 104.462 26.3176C104.568 26.3378 104.772 26.3579 104.999 26.3579C105.198 26.3579 105.442 26.3579 105.606 26.2975C105.805 26.2244 105.984 26.0657 106.127 25.8088C106.22 25.6376 106.278 25.5771 106.331 25.5771C106.397 25.5771 106.392 25.7156 106.384 25.7685C106.384 25.8214 106.193 26.4284 106.132 26.5342C106.112 26.5795 106.006 26.6198 105.973 26.6198C105.9 26.6198 104.268 26.5871 103.772 26.5871C103.329 26.5871 103.256 26.6198 103.019 26.6198C102.893 26.6198 102.795 26.5997 102.795 26.5342C102.795 26.4738 102.881 26.4284 102.994 26.4007C103.331 26.3201 103.417 26.2546 103.442 25.8995C103.462 25.6224 103.495 25.1212 103.495 24.3001C103.495 23.4791 103.503 23.2171 103.488 23.0232C103.475 22.7864 103.422 22.6529 103.137 22.6C102.999 22.5748 102.926 22.5471 102.926 22.4817C102.926 22.4212 103.039 22.3834 103.13 22.3834C103.44 22.3834 103.984 22.4036 104.326 22.4036H105.319L105.324 22.4136Z" fill="white"/>
<path d="M109.382 22.4136C109.407 22.4211 109.46 22.5118 109.467 22.547C109.467 22.6327 109.533 23.1415 109.533 23.1692C109.533 23.2674 109.513 23.3354 109.472 23.3354C109.419 23.3354 109.314 23.2749 109.281 23.1767C109.215 22.9576 109.077 22.7737 108.996 22.7082C108.838 22.5748 108.674 22.5244 108.467 22.5244C108.157 22.5244 107.792 22.7813 107.792 23.212C107.792 23.6024 108.082 23.8139 108.679 24.1892C109.492 24.6854 109.651 25.1085 109.651 25.5115C109.651 25.8541 109.452 26.252 109.069 26.4837C108.845 26.6223 108.462 26.7205 108.145 26.7205C107.754 26.7205 107.465 26.655 107.193 26.5492C107.14 26.524 107.022 26.383 107.022 26.3578C106.969 26.1261 106.908 25.8415 106.908 25.6501C106.908 25.6047 106.981 25.5115 107.014 25.5115C107.067 25.5115 107.173 25.6702 107.271 25.8742C107.47 26.2772 107.853 26.4812 108.19 26.4812C108.495 26.4812 108.878 26.2445 108.878 25.8213C108.878 25.5443 108.739 25.2798 108.13 24.8819C107.455 24.4386 107.092 24.0759 107.092 23.4865C107.092 23.1112 107.283 22.7914 107.495 22.6201C107.714 22.4362 108.024 22.3027 108.545 22.3027C108.85 22.3027 109.2 22.3833 109.379 22.4161" fill="white"/>
<path d="M112.698 22.4136C112.723 22.4211 112.776 22.5118 112.784 22.547C112.784 22.6327 112.849 23.1415 112.849 23.1692C112.849 23.2674 112.829 23.3354 112.789 23.3354C112.736 23.3354 112.63 23.2749 112.597 23.1767C112.532 22.9576 112.393 22.7737 112.313 22.7082C112.154 22.5748 111.988 22.5244 111.784 22.5244C111.474 22.5244 111.109 22.7813 111.109 23.212C111.109 23.6024 111.401 23.8139 111.995 24.1892C112.809 24.6854 112.967 25.1085 112.967 25.5115C112.967 25.8541 112.768 26.252 112.386 26.4837C112.161 26.6223 111.779 26.7205 111.461 26.7205C111.071 26.7205 110.781 26.655 110.509 26.5492C110.456 26.524 110.338 26.383 110.338 26.3578C110.285 26.1261 110.225 25.8415 110.225 25.6501C110.225 25.6047 110.298 25.5115 110.33 25.5115C110.383 25.5115 110.489 25.6702 110.587 25.8742C110.786 26.2772 111.169 26.4812 111.507 26.4812C111.811 26.4812 112.194 26.2445 112.194 25.8213C112.194 25.5443 112.056 25.2798 111.449 24.8819C110.774 24.4386 110.411 24.0759 110.411 23.4865C110.411 23.1112 110.602 22.7914 110.814 22.6201C111.033 22.4362 111.343 22.3027 111.864 22.3027C112.169 22.3027 112.519 22.3833 112.698 22.4161" fill="white"/>
</g>
</g>
<path fill-rule="evenodd" clip-rule="evenodd" d="M0.147461 11.5003C0.147461 5.14819 5.29565 0 11.6478 0C17.9999 0 23.1481 5.14819 23.1481 11.5003C23.1481 17.8524 17.9999 23.0006 11.6478 23.0006C5.29565 23.0006 0.147461 17.8524 0.147461 11.5003ZM14.1289 6.45812L14.134 6.47575C14.4539 7.42529 14.6302 8.43781 14.6302 9.49817C14.6302 10.5585 14.4539 11.5736 14.134 12.5206L14.1289 12.5382H8.8649L8.88757 12.4677C9.19736 11.5358 9.36611 10.5359 9.36611 9.49817C9.36611 8.46047 9.19485 7.46056 8.88757 6.52864L8.8649 6.45812H14.1289ZM18.7959 8.89597V8.88589H15.6324L15.645 8.92871C15.8314 9.48786 15.9321 10.0873 15.9321 10.7119C15.9321 11.3366 15.8314 11.936 15.645 12.4952L15.6324 12.538H18.7933V12.5279C18.9898 11.9587 19.0956 11.3492 19.0956 10.7145C19.0956 10.0797 18.9898 9.46771 18.7984 8.90101L18.7959 8.89597ZM7.52709 8.88589V8.89597L7.52961 8.90101C7.72103 9.46771 7.82681 10.0797 7.82681 10.7145C7.82681 11.3492 7.72103 11.9587 7.52457 12.5279V12.538H4.36363L4.37622 12.4952C4.5626 11.936 4.66335 11.3366 4.66335 10.7119C4.66335 10.0873 4.5626 9.48786 4.37622 8.92871L4.36363 8.88589H7.52709ZM6.70362 6.67969V6.67465H5.46443L5.46947 6.69228C5.54251 6.91141 5.58281 7.14565 5.58281 7.39248C5.58281 7.63931 5.54251 7.87103 5.46947 8.09267L5.46443 8.1103H6.70362V8.10526C6.77918 7.8811 6.822 7.64435 6.822 7.395C6.822 7.14565 6.7817 6.90637 6.70614 6.68473L6.70362 6.67969ZM17.8539 6.67465V6.67969L17.8564 6.68473C17.932 6.90637 17.9723 7.14565 17.9723 7.395C17.9723 7.64435 17.9295 7.8811 17.8539 8.10526V8.1103H16.6147L16.6198 8.09267C16.6928 7.87103 16.7331 7.63931 16.7331 7.39248C16.7331 7.14565 16.6928 6.91141 16.6198 6.69228L16.6147 6.67465H17.8539ZM12.3479 3.642V3.63696H10.7258L10.7334 3.65963C10.8291 3.94676 10.8795 4.25404 10.8795 4.57391C10.8795 4.89378 10.8266 5.20106 10.7334 5.48819L10.7258 5.51086H12.3453V5.50582C12.4461 5.21366 12.499 4.90134 12.499 4.57643C12.499 4.25152 12.4461 3.9392 12.3453 3.64704L12.3479 3.642ZM18.7178 13.7142L16.917 17.1723V17.1698L11.9653 17.1421V18.4039C12.2599 18.5122 12.474 18.7943 12.474 19.1293C12.474 19.5575 12.129 19.9026 11.7008 19.9026H11.6958C11.6793 19.9026 11.664 19.9004 11.6483 19.8982C11.6399 19.8971 11.6315 19.8959 11.6227 19.895C11.2323 19.8547 10.9276 19.5298 10.9276 19.1293C10.9276 18.7969 11.1391 18.5148 11.4363 18.4065V17.1446H6.43423L4.36136 13.6865L18.7178 13.7142Z" fill="#CAAA77"/>
</svg>
