<svg width="104" height="32" viewBox="0 0 104 32" fill="none" xmlns="http://www.w3.org/2000/svg">
<path d="M33.7164 12.1929C33.0801 14.1465 32.4437 16.074 31.8161 18.0015C31.3367 18.0015 31.0316 18.0015 30.465 18.0015C29.6718 20.4436 28.8612 22.9293 28.0592 25.3888C28.3992 25.7289 28.8176 25.947 29.175 26.2609C28.5474 28.1797 27.9285 30.081 27.3096 31.9998C25.2525 31.9998 23.2215 31.9998 21.1643 31.9998C21.0074 31.5375 20.8505 31.0753 20.6849 30.5869C20.467 30.5869 20.2665 30.5782 20.066 30.5869C19.8568 30.5956 19.7087 30.6043 19.5256 30.5171C19.3077 30.4124 19.1508 30.1682 19.1508 29.9327C19.1421 29.6798 19.2902 29.453 19.5255 29.3397C19.665 29.2699 19.7871 29.2525 19.944 29.2525C20.4931 29.2437 21.0423 29.2525 21.6176 29.2525C21.8616 29.7234 21.9227 30.2467 22.1493 30.709C23.5527 30.709 24.9474 30.709 26.3507 30.709C26.7779 29.392 27.205 28.0837 27.6408 26.7493C27.2835 26.479 26.9173 26.2173 26.5251 25.9208C26.8127 24.9003 27.1701 23.8886 27.5014 22.8769C27.8326 21.8478 28.1638 20.8099 28.4951 19.772C28.8263 18.7516 29.1662 17.7224 29.5062 16.6933C30.1599 16.6933 30.3343 16.6933 30.8573 16.6933C31.2844 15.385 31.7377 14.0331 32.1735 12.69C31.0316 11.8614 29.9159 11.0504 28.774 10.2218C28.4253 10.4747 28.0941 10.7102 27.7541 10.9544C27.4752 10.7538 27.2137 10.5706 26.9609 10.3875C26.1939 9.83805 25.4355 9.27986 24.6684 8.73037C24.5377 8.63444 24.4244 8.52105 24.3546 8.3815C24.2413 8.14602 24.2675 7.92797 24.4244 7.72738C24.5726 7.54422 24.773 7.46575 24.9997 7.50933C25.2437 7.55295 25.4529 7.67507 25.6621 7.82331C26.3507 8.32919 27.0481 8.82633 27.7454 9.3409C28.0854 9.09669 28.4079 8.86122 28.7653 8.60828C30.4128 9.79443 32.0515 10.9893 33.7164 12.1929Z" fill="#00DBAE"/>
<path d="M0 12.2795C1.64746 11.0847 3.27748 9.8985 4.93365 8.69493C5.2649 8.93041 5.58739 9.15719 5.93606 9.40139C6.36319 9.10481 6.45037 9.04606 6.92979 8.71239C7.13026 8.57284 7.32205 8.40711 7.55739 8.33733C7.87992 8.23267 8.15885 8.31118 8.31574 8.57284C8.49007 8.84321 8.43779 9.15719 8.16754 9.39266C7.47893 9.99447 6.70313 10.4829 5.97093 11.0411C5.49152 10.7183 5.49152 10.7183 4.91623 10.3346C3.80049 11.1457 2.66731 11.9656 1.52542 12.7941C1.95254 14.1111 2.38838 15.4281 2.82421 16.7799C3.32978 16.7799 3.81791 16.7799 4.31477 16.7799C4.51524 17.3817 4.70703 17.9573 4.89878 18.5068C6.06684 18.8382 6.3196 19.85 6.0058 20.5738C5.70072 21.289 4.80291 21.6989 3.99224 21.2977C3.53028 21.071 3.27748 20.6698 3.19031 20.1726C3.10315 19.6755 3.32978 19.2743 3.61743 18.8818C3.53897 18.6289 3.45182 18.3847 3.36465 18.123C2.87651 18.123 2.39709 18.123 1.87409 18.123C1.24649 16.1781 0.636319 14.2332 0 12.2795ZM5.28232 19.9633C5.28232 19.6406 4.99466 19.3615 4.67216 19.3615C4.34964 19.3615 4.0707 19.6493 4.0707 19.972C4.0707 20.2947 4.35836 20.5826 4.68089 20.5738C5.00338 20.5738 5.28232 20.2947 5.28232 19.9633Z" fill="#00DBAE"/>
<path d="M12.2993 4.82306C12.1685 4.41315 12.0465 4.01197 11.907 3.5846C13.5371 2.39846 15.1845 1.20359 16.8494 0C18.4881 1.19487 20.1269 2.38101 21.7918 3.5846C21.6697 3.96836 21.5738 4.26488 21.4344 4.7184C21.6174 4.87541 21.6174 4.87541 21.7307 4.97134C21.7743 4.96261 21.8353 4.94518 21.8877 4.92772C22.4368 4.7184 22.9424 4.78818 23.3956 5.15451C23.8053 5.48591 23.9884 5.94817 23.9186 6.46274C23.8402 7.05581 23.509 7.47446 22.9337 7.67508C22.1056 7.96287 21.1119 7.45703 20.9898 6.38427C20.9811 6.28831 20.9898 6.18365 20.9898 6.07029C20.6237 5.79989 20.2315 5.49464 19.8741 5.22428C20.0484 4.74456 20.0484 4.74456 20.2402 4.08175C19.1332 3.27063 18.0087 2.45951 16.8581 1.62223C15.725 2.44207 14.6005 3.2619 13.4586 4.08175C13.5893 4.49166 13.7114 4.89284 13.8509 5.32021C13.7027 5.4336 13.5545 5.54699 13.3976 5.66035C12.9269 6.00052 12.4562 6.34065 11.9855 6.68079C11.846 6.78545 11.6891 6.86396 11.5322 6.93373C11.2707 7.03839 11.0441 6.97735 10.8523 6.78545C10.6605 6.59359 10.6431 6.33192 10.7739 6.06156C10.8523 5.89586 10.9743 5.78247 11.1225 5.67781C11.5061 5.39871 11.8896 5.11089 12.2993 4.82306ZM22.4455 5.66908C22.123 5.67781 21.8441 5.96563 21.8528 6.28831C21.8615 6.61102 22.1491 6.89011 22.4717 6.88138C22.8029 6.87269 23.0731 6.58486 23.0644 6.26215C23.0557 5.93944 22.768 5.66035 22.4455 5.66908Z" fill="#00DBAE"/>
<path d="M7.37484 30.709C8.79565 30.709 10.1642 30.709 11.5589 30.709C11.8988 29.6885 11.8988 29.6885 12.0731 29.2437C12.1367 29.2437 12.1529 29.2437 12.3259 29.2437C13.2412 29.2437 14.1564 29.2437 15.0717 29.2437C15.2548 29.2437 15.4465 29.2437 15.6034 29.2961C15.8823 29.392 16.0044 29.6537 15.9956 29.924C15.9869 30.2031 15.8562 30.4212 15.6034 30.5171C15.4291 30.5869 15.2286 30.5781 15.0368 30.5781C14.5138 30.5694 13.9908 30.5694 13.4678 30.5781C13.3283 30.5781 13.325 30.5781 13.0158 30.5781C12.8763 30.9968 12.7095 31.5288 12.5526 31.9736C11.8116 31.9736 7.14818 31.9736 6.38115 31.9736C5.78841 30.081 5.16081 28.171 4.5332 26.2348C4.95161 25.9295 5.34383 25.6417 5.74482 25.3452C5.54434 24.7172 5.35256 24.1154 5.15208 23.5136C5.08235 23.3043 5.03003 23.095 5.02134 22.8769C5.01261 22.5891 5.1695 22.3623 5.42229 22.2664C5.65763 22.1792 5.91043 22.249 6.09349 22.4496C6.20681 22.5804 6.28524 22.7287 6.33756 22.9031C6.64263 23.8712 6.96516 24.8306 7.27896 25.8161C6.79955 26.1999 6.79955 26.1999 6.08476 26.7581C6.52062 28.075 6.94771 29.392 7.37484 30.709Z" fill="#00DBAE"/>
<path d="M16.0913 10.9109C15.0977 10.2306 15.1499 9.15784 15.734 8.56476C16.3529 7.9368 17.2855 7.97169 17.8696 8.59092C18.4536 9.21888 18.4362 10.2742 17.5296 10.8847C17.4599 11.033 17.4947 11.19 17.4947 11.347C17.4947 14.6176 17.4947 17.8795 17.4947 21.1501C17.4947 21.2809 17.5035 21.4118 17.486 21.5426C17.4425 21.8915 17.1461 22.1444 16.8061 22.1531C16.4662 22.1531 16.1611 21.9002 16.1088 21.56C16.0914 21.4292 16.1001 21.2984 16.1001 21.1676C16.1001 17.9144 16.1001 14.6612 16.1001 11.408C16.0914 11.2423 16.0913 11.0853 16.0913 10.9109ZM17.3989 9.60263C17.4076 9.2625 17.1374 8.9921 16.7974 8.9834C16.4575 8.97467 16.1873 9.24504 16.1785 9.58517C16.1698 9.92531 16.44 10.1957 16.78 10.2044C17.1199 10.2044 17.3901 9.93404 17.3989 9.60263Z" fill="#00DBAE"/>
<path d="M14.8702 16.0301C14.8702 17.7483 14.8702 19.4577 14.8702 21.1759C14.8702 21.2893 14.8789 21.4114 14.8614 21.5248C14.8179 21.8998 14.5215 22.1615 14.1554 22.1527C13.8154 22.144 13.5278 21.8824 13.4755 21.5335C13.4668 21.4375 13.4668 21.3329 13.4668 21.2282C13.4668 17.7745 13.4668 14.312 13.4668 10.8582C13.4668 10.771 13.4581 10.6837 13.4668 10.5965C13.5016 10.2215 13.798 9.95111 14.1554 9.94238C14.5215 9.94238 14.8179 10.2041 14.8527 10.5878C14.8614 10.7012 14.8527 10.8233 14.8527 10.9367C14.8702 12.6287 14.8702 14.3294 14.8702 16.0301Z" fill="#00DBAE"/>
<path d="M22.3669 24.5161C22.2623 24.5858 22.1577 24.5597 22.0618 24.5597C21.3209 24.5597 20.58 24.5597 19.839 24.5597C19.6647 24.5597 19.4904 24.5335 19.3248 24.4812C19.0371 24.3852 18.8802 24.1672 18.8802 23.9055C18.8715 23.6177 19.0371 23.3997 19.3422 23.295C19.4904 23.2427 19.6473 23.2165 19.8129 23.2165C20.2313 23.2253 20.6584 23.2253 21.0768 23.2165C21.1901 23.2165 21.3122 23.2427 21.4516 23.1468C21.6608 22.4926 21.8875 21.8036 22.1141 21.1233C22.4976 19.9372 22.8899 18.7598 23.2647 17.5736C23.3257 17.3905 23.4216 17.2335 23.5349 17.0852C23.6918 16.8672 23.9533 16.78 24.1887 16.8497C24.4502 16.9195 24.6245 17.1462 24.6332 17.4253C24.6332 17.5387 24.6332 17.6521 24.5983 17.7655C23.8749 19.9808 23.1601 22.1961 22.4366 24.4114C22.4192 24.455 22.3843 24.4899 22.3669 24.5161Z" fill="#00DBAE"/>
<path d="M11.4889 24.5601C11.2972 23.9583 11.1141 23.3913 10.9223 22.8332C10.5563 21.7081 10.1901 20.5742 9.81533 19.4491C9.7456 19.2398 9.71946 19.0305 9.72818 18.8125C9.7456 18.5247 9.92866 18.3066 10.1815 18.2456C10.4517 18.1845 10.6609 18.2717 10.8352 18.4898C10.9398 18.6206 10.9834 18.7689 11.0269 18.9258C11.4541 20.2428 11.8899 21.5685 12.317 22.8855C12.3519 22.9989 12.3693 23.1122 12.4914 23.2344C13.1538 23.2344 13.8424 23.2344 14.5398 23.2344C14.7316 23.2344 14.9146 23.2431 15.0976 23.3041C15.4028 23.4088 15.5684 23.6181 15.5684 23.9059C15.5684 24.1937 15.4028 24.3943 15.0802 24.499C14.9844 24.5252 14.8884 24.5601 14.7838 24.5601C13.703 24.5601 12.6221 24.5601 11.4889 24.5601Z" fill="#00DBAE"/>
<path d="M20.6672 15.777C20.7805 15.7073 20.8764 15.6288 20.981 15.5852C21.3732 15.402 21.8004 15.655 21.8439 16.091C21.8701 16.3265 21.8091 16.5533 21.7393 16.7713C21.2686 18.2191 20.7979 19.6582 20.3185 21.106C20.24 21.3502 20.1965 21.6118 20.0308 21.8299C19.8216 22.1177 19.5689 22.2311 19.29 22.1264C18.9936 22.0218 18.828 21.7339 18.8977 21.3938C18.9413 21.1409 19.011 20.8879 19.0895 20.635C19.6124 19.0215 20.1354 17.408 20.6672 15.777Z" fill="#00DBAE"/>
<path d="M18.7061 10.2827C18.9676 9.60238 19.8392 9.60238 20.1007 10.2827C20.1007 11.6345 20.1007 13.0126 20.1007 14.3993C20.1007 14.722 19.9874 14.9662 19.6911 15.1058C19.447 15.2279 19.2116 15.193 18.9937 15.036C18.7758 14.879 18.7061 14.6522 18.7061 14.3906C18.7148 13.6667 18.7061 12.9341 18.7061 12.2102C18.7061 11.5648 18.7061 10.9281 18.7061 10.2827Z" fill="#00DBAE"/>
<path d="M12.2559 14.3206C12.2559 14.8177 12.2559 15.3062 12.2559 15.8033C12.2559 15.908 12.2646 16.0039 12.2472 16.1086C12.2036 16.4836 11.9072 16.7452 11.5411 16.7452C11.1837 16.7452 10.8961 16.4661 10.8525 16.0911C10.8438 16.0213 10.8525 15.9428 10.8525 15.8731C10.8525 14.8265 10.8525 13.7799 10.8525 12.742C10.8525 12.6548 10.8438 12.5676 10.8612 12.4803C10.9135 12.1315 11.2012 11.8698 11.5411 11.8698C11.9072 11.8611 12.2123 12.1315 12.2472 12.5065C12.2646 12.7507 12.2559 13.0036 12.2559 13.2478C12.2559 13.5967 12.2559 13.9543 12.2559 14.3206Z" fill="#00DBAE"/>
<path d="M22.5557 11.9022C22.8404 12.13 22.5975 11.9244 22.8822 12.1522C22.9421 12.2001 23.002 12.2379 23.052 12.2983C23.242 12.5011 23.2233 12.8319 23.015 13.0924C22.8118 13.3467 22.4883 13.4234 22.2488 13.2826C22.2039 13.2568 22.1639 13.2146 22.124 13.1827C21.5247 12.7031 21.4479 12.6529 21.2427 12.4775C21.1928 12.4375 21.1379 12.4038 21.0979 12.3514C20.9279 12.1543 20.9416 11.8297 21.135 11.5879C21.3382 11.3234 21.6665 11.2302 21.9011 11.3772C22.0509 11.4767 22.1907 11.5989 22.3306 11.7108C22.5303 11.8706 22.346 11.7343 22.5557 11.9022Z" fill="#00DBAE"/>
<path d="M24.7116 13.082C25.5659 13.1431 26.1761 13.6664 26.1848 14.5473C26.1935 15.4194 25.592 16.0387 24.7029 16.0299C23.8226 16.0212 23.2472 15.4107 23.256 14.556C23.256 13.6838 23.8487 13.1431 24.7116 13.082ZM25.3305 14.5385C25.3218 14.2158 25.0254 13.9368 24.7029 13.9542C24.3804 13.9629 24.1015 14.2594 24.1189 14.5822C24.1276 14.9049 24.424 15.184 24.7465 15.1665C25.069 15.1578 25.3392 14.8613 25.3305 14.5385Z" fill="#00DBAE"/>
<path d="M10.2513 7.58799C10.2513 7.97174 9.93749 8.27699 9.56268 8.27699C9.17915 8.27699 8.86534 7.98044 8.85662 7.59668C8.84789 7.1955 9.17042 6.87279 9.57137 6.88152C9.95491 6.89895 10.2513 7.20423 10.2513 7.58799Z" fill="#00DBAE"/>
<path d="M8.9435 15.1672C8.56868 15.1672 8.25488 14.8532 8.25488 14.4782C8.25488 14.1032 8.55996 13.7804 8.93477 13.7804C9.32703 13.7717 9.65828 14.1032 9.64956 14.4956C9.63211 14.8707 9.31831 15.1759 8.9435 15.1672Z" fill="#00DBAE"/>
<path d="M10.3378 16.5709C10.3378 16.9546 10.024 17.2599 9.64918 17.2599C9.25696 17.2599 8.93443 16.9285 8.95185 16.536C8.9693 16.161 9.29182 15.8557 9.66663 15.8644C10.0414 15.8819 10.3465 16.1958 10.3378 16.5709Z" fill="#00DBAE"/>
<path d="M17.2413 23.1904C17.6162 23.1992 17.93 23.5131 17.9212 23.8882C17.9212 24.2806 17.5813 24.6034 17.189 24.5859C16.8142 24.5685 16.5179 24.237 16.5266 23.862C16.544 23.487 16.8578 23.1904 17.2413 23.1904Z" fill="#00DBAE"/>
<path d="M18.2704 29.9239C18.2616 30.3077 17.9565 30.613 17.573 30.613C17.1808 30.613 16.8583 30.2728 16.8757 29.8804C16.8931 29.5053 17.2156 29.2 17.5992 29.2175C17.974 29.2262 18.2791 29.5402 18.2704 29.9239Z" fill="#00DBAE"/>
<path d="M47.6333 14.3474H46.8463L44.1072 8.96682V14.3474H43.5195V8.04204H44.3276L47.0457 13.4752V8.04204H47.6333V14.3474Z" fill="#00DBAE"/>
<path d="M53.2458 14.3474L52.7736 12.8867H49.8561L49.3734 14.3474H48.7332L50.8426 8.04204H51.7871L53.8965 14.3474H53.2458ZM50.045 12.2982H52.5847L51.3778 8.64105H51.2414L50.045 12.2982Z" fill="#00DBAE"/>
<path d="M58.1604 8.63054H56.3658V14.3474H55.7572V8.63054H53.9626V8.04204H58.1604V8.63054Z" fill="#00DBAE"/>
<path d="M59.9311 14.3474H59.3224V8.04204H59.9311V14.3474Z" fill="#00DBAE"/>
<path d="M65.974 12.9918C65.974 13.1949 65.9285 13.3666 65.8375 13.5067C65.7746 13.5978 65.6626 13.7274 65.5017 13.8955C65.3408 14.0637 65.2149 14.1758 65.1239 14.2318C64.949 14.3439 64.7671 14.4 64.5782 14.4H62.9201C62.7382 14.4 62.5598 14.3439 62.3849 14.2318C62.2939 14.1758 62.1645 14.0637 61.9966 13.8955C61.8357 13.7274 61.7237 13.5978 61.6608 13.5067C61.5768 13.3736 61.5348 13.2019 61.5348 12.9918V9.41871C61.5348 9.20853 61.5768 9.03688 61.6608 8.90377C61.7237 8.81269 61.8357 8.68308 61.9966 8.51494C62.1645 8.33979 62.2939 8.22419 62.3849 8.16814C62.5598 8.05605 62.7382 8 62.9201 8H64.5782C64.7671 8 64.949 8.05605 65.1239 8.16814C65.2149 8.22419 65.3408 8.33629 65.5017 8.50443C65.6626 8.67257 65.7746 8.80569 65.8375 8.90377C65.9285 9.04389 65.974 9.21554 65.974 9.41871V12.9918ZM65.3653 12.9812V9.43973C65.3653 9.37667 65.3548 9.32413 65.3338 9.28209C65.2708 9.16299 65.1659 9.03338 65.019 8.89326C64.879 8.75314 64.7636 8.66206 64.6727 8.62003C64.6377 8.59901 64.5922 8.5885 64.5362 8.5885H62.9726C62.9096 8.5885 62.8641 8.59901 62.8361 8.62003C62.7522 8.66206 62.6367 8.75314 62.4898 8.89326C62.3499 9.03338 62.2484 9.16299 62.1855 9.28209C62.1575 9.33814 62.1435 9.39069 62.1435 9.43973V12.9812C62.1435 13.0163 62.1575 13.0618 62.1855 13.1179C62.2484 13.237 62.3499 13.3666 62.4898 13.5067C62.6367 13.6468 62.7522 13.7379 62.8361 13.7799C62.8641 13.8009 62.9096 13.8115 62.9726 13.8115H64.5362C64.5922 13.8115 64.6377 13.8009 64.6727 13.7799C64.7636 13.7379 64.879 13.6468 65.019 13.5067C65.1659 13.3666 65.2708 13.237 65.3338 13.1179C65.3548 13.0758 65.3653 13.0303 65.3653 12.9812Z" fill="#00DBAE"/>
<path d="M71.6659 14.3474H70.8789L68.1398 8.96682V14.3474H67.5521V8.04204H68.3602L71.0783 13.4752V8.04204H71.6659V14.3474Z" fill="#00DBAE"/>
<path d="M77.2784 14.3474L76.8062 12.8867H73.8887L73.406 14.3474H72.7658L74.8752 8.04204H75.8197L77.9291 14.3474H77.2784ZM74.0776 12.2982H76.6173L75.4104 8.64105H75.274L74.0776 12.2982Z" fill="#00DBAE"/>
<path d="M82.4953 14.3474H78.9482V8.04204H79.5568V13.7589H82.4953V14.3474Z" fill="#00DBAE"/>
<path d="M48.0631 22.7005C47.9916 22.8651 47.9166 23.0011 47.838 23.1085C47.3951 23.7026 46.9415 23.9996 46.4771 23.9996H45.1376C44.9019 23.9996 44.6804 23.9352 44.4732 23.8064C44.3661 23.742 44.2268 23.6239 44.0553 23.4521C43.8839 23.2803 43.7624 23.1443 43.691 23.0441C43.5767 22.8723 43.5195 22.6683 43.5195 22.4321V19.05C43.5195 18.8209 43.5767 18.6205 43.691 18.4487C43.7624 18.3414 43.8839 18.2018 44.0553 18.03C44.2339 17.851 44.3732 17.7329 44.4732 17.6757C44.7019 17.5468 44.9233 17.4824 45.1376 17.4824H46.4771C46.9343 17.4824 47.388 17.7795 47.838 18.3736C47.8809 18.4308 47.9559 18.5561 48.0631 18.7494L46.97 19.0607C46.7557 18.7959 46.595 18.6313 46.4878 18.5668C46.4807 18.5597 46.4664 18.5561 46.445 18.5561H45.1805L45.1376 18.5668C44.9519 18.667 44.7912 18.8245 44.6554 19.0392C44.6483 19.0536 44.6447 19.0929 44.6447 19.1574V22.4213C44.6447 22.4786 44.7019 22.5645 44.8162 22.679C44.9376 22.7864 45.0448 22.8651 45.1376 22.9152C45.1448 22.9224 45.1698 22.926 45.2126 22.926H46.4343C46.4557 22.926 46.4735 22.9224 46.4878 22.9152C46.5521 22.8866 46.6236 22.8293 46.7022 22.7434C46.7879 22.6575 46.8557 22.5788 46.9058 22.5072L46.97 22.4106L48.0631 22.7005Z" fill="#00DBAE"/>
<path d="M54.1361 17.5254L52.0144 21.1437V23.946H50.8892V21.1437L48.7889 17.5254H50.0319L51.4572 19.9626L52.8824 17.5254H54.1361Z" fill="#00DBAE"/>
<path d="M59.5426 22.4858C59.5426 22.7363 59.4819 22.951 59.3605 23.13C59.3105 23.2015 59.2212 23.3053 59.0926 23.4413C58.964 23.5702 58.864 23.6596 58.7925 23.7097C58.5711 23.8672 58.3139 23.946 58.021 23.946H55.0098V17.5254H58.021C58.2996 17.5254 58.5568 17.6077 58.7925 17.7723C58.864 17.8224 58.964 17.9155 59.0926 18.0515C59.2212 18.1803 59.3105 18.2805 59.3605 18.3521C59.4819 18.531 59.5426 18.7529 59.5426 19.0178V19.8123C59.5426 20.1559 59.4033 20.4672 59.1247 20.7464C59.4033 21.0256 59.5426 21.3333 59.5426 21.6698V22.4858ZM58.4068 19.866C58.4139 19.8517 58.4175 19.8266 58.4175 19.7908V19.0285L58.4068 18.9748C58.3567 18.8889 58.2889 18.8066 58.2031 18.7279C58.1246 18.642 58.0603 18.599 58.0103 18.599H56.135V20.2203H58.021C58.071 20.2203 58.1389 20.1809 58.2246 20.1022C58.3103 20.0235 58.371 19.9447 58.4068 19.866ZM58.4068 22.518C58.4139 22.4965 58.4175 22.4714 58.4175 22.4428V21.6805L58.4068 21.6268C58.3567 21.5409 58.2889 21.4586 58.2031 21.3799C58.1246 21.3011 58.0603 21.2618 58.0103 21.2618H56.135V22.8723H58.021C58.071 22.8723 58.1389 22.8329 58.2246 22.7542C58.3103 22.6754 58.371 22.5967 58.4068 22.518Z" fill="#00DBAE"/>
<path d="M64.983 23.946H60.9538V17.5254H64.983V18.599H62.079V20.2203H64.7794V21.294H62.079V22.8723H64.983V23.946Z" fill="#00DBAE"/>
<path d="M71.0227 19.9519C71.0227 20.1952 70.9584 20.4136 70.8298 20.6068C70.7798 20.6784 70.6905 20.7786 70.5619 20.9074C70.4333 21.0291 70.3297 21.1186 70.2512 21.1759C70.1583 21.2474 70.0654 21.2975 69.9725 21.3262L71.2477 23.946H70.0261L68.8367 21.4121H67.6043V23.946H66.4792V17.5254H69.4903C69.7761 17.5254 70.0297 17.6041 70.2512 17.7616C70.3226 17.8117 70.4226 17.9047 70.5512 18.0407C70.6869 18.1767 70.7798 18.2805 70.8298 18.3521C70.9584 18.5454 71.0227 18.7637 71.0227 19.007V19.9519ZM69.8975 19.9411V19.0178C69.8975 18.982 69.894 18.9569 69.8868 18.9426C69.7654 18.7279 69.6511 18.6134 69.5439 18.599H67.6043V20.3384H69.4903C69.5403 20.3384 69.6082 20.299 69.6939 20.2203C69.7797 20.1416 69.844 20.0628 69.8868 19.9841C69.894 19.9698 69.8975 19.9555 69.8975 19.9411Z" fill="#00DBAE"/>
<path d="M79.7503 19.9519C79.7503 20.1952 79.686 20.4136 79.5574 20.6068C79.5074 20.6784 79.4181 20.7786 79.2895 20.9074C79.1609 21.0291 79.0573 21.1186 78.9788 21.1759C78.8859 21.2474 78.793 21.2975 78.7001 21.3262L79.9753 23.946H78.7537L77.5643 21.4121H76.3319V23.946H75.2068V17.5254H78.2179C78.5037 17.5254 78.7573 17.6041 78.9788 17.7616C79.0502 17.8117 79.1502 17.9047 79.2788 18.0407C79.4145 18.1767 79.5074 18.2805 79.5574 18.3521C79.686 18.5454 79.7503 18.7637 79.7503 19.007V19.9519ZM78.6251 19.9411V19.0178C78.6251 18.982 78.6216 18.9569 78.6144 18.9426C78.493 18.7279 78.3787 18.6134 78.2715 18.599H76.3319V20.3384H78.2179C78.2679 20.3384 78.3358 20.299 78.4215 20.2203C78.5073 20.1416 78.5715 20.0628 78.6144 19.9841C78.6216 19.9698 78.6251 19.9555 78.6251 19.9411Z" fill="#00DBAE"/>
<path d="M86.4595 23.946H85.2594L84.7879 22.5824H82.3553L81.8838 23.946H80.6837L82.9233 17.5254H84.2306L86.4595 23.946ZM84.4342 21.5087L83.577 18.9748L82.709 21.5087H84.4342Z" fill="#00DBAE"/>
<path d="M91.8264 23.946H90.6369L88.4187 19.6835V23.946H87.2935V17.5254H88.5044L90.7012 21.8415V17.5254H91.8264V23.946Z" fill="#00DBAE"/>
<path d="M94.4987 19.0607V22.4213C94.4987 22.4786 94.5559 22.5645 94.6702 22.679C94.7916 22.7864 94.8988 22.8651 94.9916 22.9152H95.0024C95.0166 22.9224 95.0309 22.926 95.0452 22.926H96.5026L96.5562 22.9152C96.6419 22.8651 96.7455 22.7792 96.8669 22.6575C96.9884 22.5359 97.0491 22.4464 97.0491 22.3891V21.3477H95.6667V20.274H98.1743V22.4428C98.2243 22.9152 98.2921 23.4163 98.3779 23.946H97.2741L97.2205 23.6883C96.9276 23.8958 96.7062 23.9996 96.5562 23.9996H94.9916C94.7559 23.9996 94.5344 23.9352 94.3273 23.8064C94.2201 23.742 94.0808 23.6274 93.9093 23.4628C93.7379 23.291 93.6164 23.155 93.545 23.0548C93.4307 22.883 93.3735 22.6754 93.3735 22.4321V19.0392C93.3735 18.803 93.4307 18.599 93.545 18.4273C93.6164 18.3199 93.7379 18.1803 93.9093 18.0085C94.0879 17.8296 94.2272 17.7115 94.3273 17.6542C94.5201 17.5325 94.7416 17.4717 94.9916 17.4717H96.5562C97.0491 17.4717 97.5027 17.7687 97.9171 18.3628C98.0242 18.5131 98.0992 18.6384 98.1421 18.7386L97.0598 19.05C96.9026 18.8352 96.7348 18.6706 96.5562 18.5561C96.549 18.5489 96.5312 18.5454 96.5026 18.5454H95.0452L94.9916 18.5561C94.7988 18.6635 94.638 18.8174 94.5094 19.0178L94.4987 19.0607Z" fill="#00DBAE"/>
<path d="M103.807 23.946H99.778V17.5254H103.807V18.599H100.903V20.2203H103.604V21.294H100.903V22.8723H103.807V23.946Z" fill="#00DBAE"/>
</svg>
