<svg width="161" height="44" viewBox="0 0 161 44" fill="none" xmlns="http://www.w3.org/2000/svg">
<path d="M47.5726 17.0627C46.6738 19.7003 45.775 22.3042 44.893 24.904H42.9862C41.8691 28.2009 40.7225 31.5567 39.5927 34.8788C40.0715 35.3366 40.6637 35.6306 41.1677 36.0548C40.2815 38.6462 39.4079 41.2123 38.5343 43.8037H29.8615C29.6389 43.1779 29.4205 42.5563 29.1853 41.8969C28.8787 41.8969 28.5931 41.8843 28.3117 41.8969C28.0177 41.9095 27.8077 41.9221 27.5473 41.8045C27.2407 41.6617 27.0181 41.3341 27.0181 41.0149C27.0055 40.6747 27.2155 40.3681 27.5473 40.2127C27.7447 40.1203 27.9169 40.0951 28.1395 40.0951C28.9123 40.0825 29.6893 40.0951 30.4999 40.0951C30.8442 40.7293 30.9324 41.4391 31.2516 42.0607H37.1819C37.7825 40.2841 38.3873 38.516 39.0005 36.7142C38.4965 36.3488 37.9799 35.996 37.4255 35.597C37.8329 34.2194 38.3369 32.8545 38.8031 31.4853C39.2693 30.0951 39.7397 28.6923 40.2059 27.2937C40.6721 25.9162 41.1509 24.526 41.6339 23.1358H43.5406C44.1412 21.3677 44.7838 19.5449 45.397 17.7305C43.7842 16.6133 42.2135 15.5172 40.6007 14.3958C40.1093 14.736 39.6431 15.0552 39.1601 15.387C38.7653 15.1182 38.3957 14.8704 38.0429 14.6226C36.9593 13.8792 35.8926 13.1274 34.809 12.384C34.6242 12.2538 34.4646 12.1026 34.368 11.9136C34.2084 11.5944 34.2462 11.3004 34.4646 11.0316C34.6746 10.7838 34.956 10.6788 35.2752 10.7376C35.6196 10.7964 35.9136 10.9602 36.2118 11.1618C37.1819 11.8464 38.1689 12.5142 39.1517 13.2114C39.6305 12.8796 40.0883 12.5646 40.5923 12.2202C42.9148 13.8204 45.229 15.4332 47.5768 17.0585L47.5726 17.0627Z" fill="#00DBAE"/>
<path d="M7.45487 27.5542C7.45487 27.1174 7.04748 26.7436 6.59389 26.7436C6.14029 26.7436 5.7455 27.1342 5.7455 27.5668C5.7455 27.9993 6.15289 28.3899 6.60649 28.3773C7.06008 28.3773 7.45487 27.9993 7.45487 27.5542ZM0 17.1803C2.32256 15.5676 4.62412 13.9674 6.96348 12.342C7.42967 12.6612 7.88746 12.9678 8.37886 13.2954C8.97945 12.8964 9.10544 12.8166 9.78163 12.363C10.063 12.174 10.336 11.9514 10.6678 11.8548C11.1214 11.712 11.5162 11.8212 11.7388 12.174C11.9866 12.5394 11.911 12.9636 11.5288 13.2828C10.5586 14.0934 9.46244 14.757 8.42925 15.5088C7.97846 15.2176 7.48287 14.8998 6.94248 14.5554C5.36751 15.6516 3.76734 16.7561 2.15876 17.8775C2.75935 19.6541 3.37674 21.4349 3.98993 23.2576H6.0941C6.37549 24.0682 6.64849 24.8494 6.91728 25.5886C8.56365 26.038 8.92065 27.403 8.47965 28.3815C8.05126 29.3475 6.78288 29.9019 5.6405 29.3601C4.98951 29.0535 4.63252 28.5117 4.51072 27.8398C4.38892 27.1678 4.70812 26.626 5.11131 26.0968C5.00211 25.7566 4.87612 25.4248 4.75432 25.072H2.64595C1.75977 22.447 0.898785 19.8179 0 17.1803Z" fill="#00DBAE"/>
<path d="M31.672 8.2553C31.2184 8.2679 30.8236 8.65429 30.8362 9.09108C30.8488 9.52787 31.2562 9.90167 31.7098 9.89327C32.176 9.88067 32.5582 9.49428 32.5456 9.05748C32.533 8.62069 32.1256 8.2469 31.672 8.2553ZM17.3545 7.11292C17.1697 6.55853 16.9975 6.01673 16.8001 5.44134C19.1016 3.84117 21.4242 2.2284 23.772 0.603027C26.0861 2.2158 28.3961 3.81597 30.7438 5.44134C30.5716 5.95794 30.4372 6.36113 30.2398 6.97432C30.4106 7.11432 30.5506 7.22771 30.6598 7.31451C30.7228 7.30191 30.8068 7.28091 30.8824 7.25571C31.6552 6.97432 32.3692 7.06672 33.0118 7.56231C33.5914 8.0117 33.8476 8.63329 33.751 9.33048C33.6418 10.1327 33.1714 10.6955 32.3608 10.9684C31.1932 11.359 29.7905 10.6745 29.6183 9.22548C29.6057 9.09528 29.6183 8.95668 29.6183 8.80129C29.1017 8.43589 28.5473 8.0243 28.0433 7.65891C28.2085 7.22771 28.3807 6.71392 28.5599 6.11753C26.9975 5.02135 25.4099 3.92517 23.7888 2.79539C22.1886 3.90417 20.6052 5.00875 18.9924 6.11753C19.1772 6.67192 19.3494 7.21371 19.5468 7.7891C19.3368 7.9403 19.1268 8.0957 18.9084 8.2469C18.2449 8.70469 17.5813 9.16668 16.9177 9.62447C16.7203 9.76727 16.4977 9.87227 16.2793 9.96467C15.9097 10.1075 15.5905 10.0235 15.3217 9.76307C15.0529 9.50268 15.0277 9.14988 15.2125 8.78449C15.3217 8.56189 15.4939 8.40649 15.7039 8.2679C16.2457 7.8899 16.7875 7.50351 17.3629 7.11292H17.3545Z" fill="#00DBAE"/>
<path d="M10.4037 42.0646H16.3088C16.628 41.1462 16.8702 40.4868 17.0354 40.0864H21.2647C21.5251 40.0864 21.7939 40.0864 22.0165 40.1578C22.4113 40.288 22.5835 40.6408 22.5709 41.0062C22.5583 41.3842 22.3735 41.6782 22.0165 41.8084C21.7687 41.9008 21.4873 41.8924 21.2185 41.8924C20.4793 41.8798 19.7443 41.8798 19.0052 41.8924H18.3668C18.1694 42.4594 17.9342 43.1776 17.7116 43.7781H9.00513C8.16934 41.2246 7.28316 38.6416 6.39697 36.0293C6.98916 35.6177 7.53935 35.2271 8.10634 34.8281C7.82495 33.9797 7.55195 33.1691 7.27056 32.3543C7.17396 32.073 7.09836 31.7874 7.08576 31.4934C7.07316 31.1028 7.29576 30.8004 7.65275 30.6702C7.98455 30.5526 8.34154 30.645 8.59773 30.918C8.75733 31.0944 8.86653 31.296 8.94213 31.5312C9.37052 32.8373 9.82831 34.1351 10.2693 35.4665C9.81851 35.8109 9.25712 36.2351 8.58514 36.7391C9.19832 38.5156 9.80311 40.2964 10.4037 42.073V42.0646Z" fill="#00DBAE"/>
<path d="M24.5487 13.564C24.5613 13.1062 24.1791 12.7408 23.7003 12.7282C23.2215 12.7156 22.8393 13.081 22.8267 13.5388C22.8141 13.9966 23.1963 14.362 23.6751 14.3746C24.1539 14.3746 24.5361 14.0092 24.5487 13.564ZM22.7049 15.3322C21.3021 14.4124 21.3777 12.9634 22.2009 12.1654C23.0745 11.317 24.3891 11.3632 25.2123 12.199C26.0354 13.0474 26.0102 14.4712 24.7335 15.2944C24.6369 15.496 24.6831 15.706 24.6831 15.9201V29.1583C24.6831 29.3347 24.6957 29.5111 24.6705 29.6875C24.6075 30.1579 24.1917 30.4981 23.7129 30.5107C23.2341 30.5107 22.8015 30.1705 22.7301 29.7085C22.7049 29.5321 22.7175 29.3557 22.7175 29.1793V15.9999C22.7049 15.7773 22.7049 15.5632 22.7049 15.328V15.3322Z" fill="#00DBAE"/>
<path d="M20.9828 22.2451V29.1918C20.9828 29.343 20.9954 29.511 20.9702 29.6622C20.9072 30.1704 20.4914 30.5232 19.9748 30.5106C19.496 30.498 19.0886 30.1452 19.0172 29.6748C19.0046 29.5446 19.0046 29.406 19.0046 29.2632V15.2607C19.0046 15.1431 18.992 15.0255 19.0046 14.9079C19.055 14.3997 19.4708 14.0385 19.9748 14.0259C20.4914 14.0259 20.9114 14.3787 20.9576 14.8995C20.9702 15.0507 20.9576 15.2187 20.9576 15.3699C20.9828 17.6546 20.9828 19.952 20.9828 22.2493V22.2451Z" fill="#00DBAE"/>
<path d="M31.5626 33.7027C31.4156 33.7951 31.2686 33.7615 31.1342 33.7615H27.9969C27.7491 33.7615 27.5055 33.7279 27.2703 33.6565C26.8629 33.5263 26.6445 33.2323 26.6445 32.8795C26.6319 32.4889 26.8671 32.1949 27.2955 32.0564C27.5055 31.985 27.7281 31.9514 27.9591 31.9514C28.5513 31.964 29.1519 31.964 29.7441 31.9514C29.9037 31.9514 30.0759 31.985 30.2733 31.859C30.5673 30.977 30.8865 30.0446 31.2098 29.1248C31.7516 27.5246 32.306 25.9329 32.8352 24.3327C32.9192 24.0849 33.0578 23.8749 33.2174 23.6733C33.44 23.3793 33.8096 23.2617 34.1414 23.3541C34.511 23.4465 34.7546 23.7531 34.7672 24.1311C34.7672 24.2823 34.7672 24.4377 34.7168 24.5889C33.6962 27.5792 32.6882 30.5696 31.6676 33.5641C31.6424 33.6229 31.592 33.6691 31.571 33.7069L31.5626 33.7027Z" fill="#00DBAE"/>
<path d="M16.212 33.7613C15.9432 32.9507 15.6829 32.1821 15.4141 31.4303C14.8975 29.9099 14.3809 28.3812 13.8517 26.8608C13.7551 26.5794 13.7173 26.2938 13.7299 25.9998C13.7551 25.6092 14.0113 25.3152 14.3683 25.2354C14.7505 25.1514 15.0445 25.269 15.2923 25.5672C15.4393 25.7436 15.5023 25.9452 15.5611 26.1552C16.1616 27.9318 16.779 29.7252 17.3796 31.5017C17.43 31.6529 17.4552 31.8083 17.6274 31.9721H20.517C20.7858 31.9721 21.0462 31.9847 21.3024 32.0645C21.7349 32.2073 21.9659 32.4887 21.9659 32.8751C21.9659 33.2615 21.7307 33.5345 21.2772 33.6773C21.1428 33.7109 21.0084 33.7613 20.8572 33.7613H16.2078H16.212Z" fill="#00DBAE"/>
<path d="M29.1604 21.9008C29.32 21.8084 29.4544 21.6992 29.6014 21.6404C30.1558 21.3926 30.7564 21.7328 30.8194 22.325C30.8572 22.6442 30.769 22.9508 30.6724 23.2448C30.0088 25.1977 29.3452 27.1423 28.669 29.0995C28.5598 29.4313 28.4968 29.784 28.2617 30.078C27.9677 30.4686 27.6107 30.6198 27.2159 30.477C26.7959 30.3342 26.5649 29.9478 26.6615 29.4858C26.7245 29.1457 26.8211 28.8013 26.9303 28.4611C27.6695 26.2813 28.4044 24.1057 29.1562 21.9008H29.1604Z" fill="#00DBAE"/>
<path d="M26.3965 14.4838C26.7661 13.564 27.9967 13.564 28.3663 14.4838V20.0403C28.3663 20.4771 28.2067 20.8047 27.7867 20.9937C27.4423 21.1575 27.1105 21.1113 26.8039 20.9013C26.4973 20.6913 26.3965 20.3847 26.3965 20.0319C26.4091 19.0533 26.3965 18.0663 26.3965 17.0877V14.4838Z" fill="#00DBAE"/>
<path d="M17.2909 19.9351V21.9384C17.2909 22.0812 17.3035 22.2072 17.2783 22.35C17.2153 22.8582 16.7995 23.211 16.2829 23.211C15.7663 23.211 15.3715 22.833 15.3127 22.329C15.3001 22.2366 15.3127 22.1274 15.3127 22.035V17.8057C15.3127 17.6881 15.3001 17.5705 15.3253 17.4529C15.4009 16.9825 15.8041 16.6297 16.2829 16.6297C16.7995 16.6171 17.2279 16.9825 17.2783 17.4907C17.3035 17.8225 17.2909 18.1627 17.2909 18.4903V19.9393V19.9351Z" fill="#00DBAE"/>
<path d="M31.827 16.6675C32.2302 16.9741 31.8858 16.6969 32.289 17.0035C32.373 17.0665 32.457 17.1211 32.5284 17.2009C32.7972 17.4739 32.772 17.9233 32.478 18.2719C32.1924 18.6163 31.7346 18.7171 31.3986 18.5281C31.3356 18.4945 31.2768 18.4357 31.2222 18.3937C30.378 17.7469 30.2688 17.6797 29.979 17.4403C29.9076 17.3857 29.832 17.3395 29.7732 17.2681C29.5338 17.0035 29.5549 16.5625 29.8236 16.2391C30.1092 15.8821 30.5754 15.7561 30.903 15.9535C31.113 16.0879 31.3104 16.2517 31.5078 16.4029C31.7892 16.6171 31.5288 16.4365 31.827 16.6633V16.6675Z" fill="#00DBAE"/>
<path d="M35.7415 20.2292C35.7289 19.7924 35.3131 19.4187 34.8553 19.4397C34.4017 19.4523 34.0069 19.8512 34.0321 20.288C34.0447 20.7248 34.4605 21.0986 34.9183 21.0776C35.3719 21.065 35.7541 20.666 35.7415 20.2292ZM34.8679 18.2637C36.0733 18.3477 36.9342 19.0533 36.9468 20.2418C36.9594 21.4178 36.1111 22.2536 34.8553 22.2452C33.6121 22.2326 32.8015 21.4094 32.8141 20.2544C32.8141 19.0785 33.6499 18.3477 34.8679 18.2637Z" fill="#00DBAE"/>
<path d="M14.4644 10.8423C14.4644 11.3589 14.0234 11.7747 13.4942 11.7747C12.965 11.7747 12.5114 11.3757 12.4988 10.8549C12.4862 10.3131 12.9398 9.87634 13.5068 9.88894C14.0486 9.91414 14.4644 10.3257 14.4644 10.8423Z" fill="#00DBAE"/>
<path d="M12.6211 21.078C12.0919 21.078 11.6509 20.6538 11.6509 20.1456C11.6509 19.6374 12.0793 19.2048 12.6085 19.2048C13.1629 19.1922 13.629 19.6416 13.6164 20.1708C13.5912 20.679 13.1503 21.0906 12.6211 21.078Z" fill="#00DBAE"/>
<path d="M14.5862 22.9761C14.5862 23.4927 14.1452 23.9085 13.6161 23.9085C13.0869 23.9085 12.6081 23.4591 12.6333 22.9299C12.6585 22.4217 13.1121 22.0101 13.6413 22.0227C14.1704 22.0479 14.5988 22.4721 14.5862 22.9761Z" fill="#00DBAE"/>
<path d="M24.3302 31.9134C24.8594 31.926 25.3004 32.3502 25.2878 32.8542C25.2878 33.3834 24.809 33.8201 24.2546 33.7949C23.7254 33.7697 23.3096 33.3246 23.318 32.8164C23.3432 32.3082 23.7842 31.9092 24.326 31.9092L24.3302 31.9134Z" fill="#00DBAE"/>
<path d="M25.7795 41.0023C25.7669 41.5189 25.3385 41.9347 24.7967 41.9347C24.255 41.9347 23.7888 41.4769 23.814 40.9435C23.8392 40.4353 24.2928 40.0238 24.8345 40.049C25.3637 40.0616 25.7921 40.4857 25.7795 41.0023Z" fill="#00DBAE"/>
<path d="M66.3712 11.4597V15.3152H62.1754V11.4597H61.3145V19.9645H62.1754V16.109H66.3712V19.9645H67.228V11.4597H66.3712ZM73.1708 11.4597H71.8353L68.8575 19.9645H69.7605L70.4409 17.9948H74.561L75.2288 19.9645H76.1486L73.1708 11.4597ZM70.7097 17.201L72.3981 12.2661H72.5913L74.2964 17.201H70.7097ZM83.3263 19.1707V11.4597H82.4653V19.1707H78.5216V11.4597H77.6606V19.9645H83.1037L82.9399 21.3295H83.7841L84.0529 19.1707H83.3263ZM91.1129 11.4597L87.0936 18.7172V11.4597H86.2368V19.9645H87.375L91.3943 12.6063V19.9645H92.2553V11.4597H91.1129ZM100.664 12.6189C100.575 12.4887 100.416 12.3081 100.189 12.0813C99.9622 11.8545 99.7858 11.7033 99.6556 11.6277C99.4078 11.4765 99.1516 11.4009 98.887 11.4009H96.5434C96.2872 11.4009 96.0353 11.4765 95.7875 11.6277C95.6615 11.7033 95.4767 11.8587 95.2415 12.0939C95.0063 12.3291 94.8551 12.4971 94.7669 12.6189C94.6451 12.7995 94.5863 13.0305 94.5863 13.316V18.1376C94.5863 18.419 94.6451 18.6542 94.7669 18.8306C94.8551 18.9565 95.0105 19.1287 95.2415 19.3555C95.4767 19.5823 95.6615 19.7335 95.7875 19.8091C96.0353 19.9603 96.2872 20.0359 96.5434 20.0359H98.887C99.1516 20.0359 99.4078 19.9603 99.6556 19.8091C99.7858 19.7335 99.9622 19.5823 100.189 19.3555C100.416 19.1287 100.575 18.9565 100.664 18.8306C100.794 18.6416 100.857 18.4106 100.857 18.1376V13.316C100.857 13.0431 100.794 12.8079 100.664 12.6189ZM99.9958 18.125C99.9958 18.188 99.9832 18.251 99.9538 18.3056C99.8656 18.4694 99.7144 18.6416 99.5086 18.8306C99.3112 19.0195 99.1474 19.1455 99.0214 19.2001C98.971 19.2295 98.9038 19.2421 98.8282 19.2421H96.619C96.5308 19.2421 96.4636 19.2295 96.4258 19.2001C96.3082 19.1455 96.1445 19.0195 95.9345 18.8306C95.7371 18.6416 95.5943 18.4694 95.5061 18.3056C95.4683 18.23 95.4473 18.1712 95.4473 18.125V13.3454C95.4473 13.2782 95.4683 13.2068 95.5061 13.1312C95.5943 12.9717 95.7371 12.7953 95.9345 12.6063C96.1445 12.4173 96.3082 12.2955 96.4258 12.2367C96.4636 12.2115 96.5308 12.1947 96.619 12.1947H98.8282C98.8954 12.1947 98.9584 12.2115 99.0214 12.2367C99.1474 12.2955 99.3112 12.4173 99.5086 12.6063C99.7144 12.7953 99.8656 12.9717 99.9538 13.1312C99.9832 13.1858 99.9958 13.2572 99.9958 13.3454V18.125ZM108.144 11.4597V15.3152H103.948V11.4597H103.087V19.9645H103.948V16.109H108.144V19.9645H109.005V11.4597H108.144ZM114.943 11.4597H113.608L110.63 19.9645H111.533L112.213 17.9948H116.338L117.001 19.9645H117.921L114.943 11.4597ZM112.482 17.201L114.171 12.2661H114.364L116.069 17.201H112.482ZM120.101 11.4597V18.1082C120.101 18.2048 120.084 18.2762 120.042 18.3224C119.954 18.4736 119.811 18.6374 119.614 18.818C119.425 18.9859 119.261 19.1119 119.122 19.1875C119.063 19.2169 118.996 19.2295 118.916 19.2295H118.265V20.0233H118.933C119.198 20.0233 119.454 19.9561 119.702 19.8259C119.84 19.7503 120.025 19.5991 120.252 19.3723C120.487 19.1455 120.651 18.9649 120.739 18.8306C120.878 18.6248 120.949 18.398 120.949 18.1502V12.2535H124.654V19.9645H125.498V11.4597H120.101ZM133.524 16.3358C133.318 16.0628 133.066 15.815 132.768 15.6008C132.52 15.4202 132.226 15.3278 131.877 15.3278H128.753V11.4597H127.892V19.9645H131.877C132.197 19.9645 132.491 19.8763 132.768 19.6957C132.869 19.6201 132.999 19.5025 133.167 19.3429C133.347 19.1707 133.465 19.0447 133.524 18.9607C133.662 18.7424 133.734 18.503 133.734 18.2384V17.075C133.734 16.7978 133.662 16.5542 133.524 16.3358ZM132.873 18.2216C132.873 18.3182 132.856 18.3938 132.827 18.4484C132.68 18.713 132.449 18.9355 132.129 19.1161C132.033 19.1539 131.945 19.1707 131.865 19.1707H128.753V16.109H131.865C131.974 16.109 132.062 16.1216 132.129 16.151C132.436 16.3316 132.671 16.5626 132.827 16.8482C132.856 16.9028 132.873 16.9784 132.873 17.075V18.2216ZM141.042 11.4597V15.3152H136.846V11.4597H135.985V19.9645H136.846V16.109H141.042V19.9645H141.898V11.4597H141.042ZM151.722 11.4597V19.9645H152.554V11.4597H151.722ZM149.929 16.3358C149.723 16.0628 149.471 15.815 149.173 15.6008C148.925 15.4202 148.631 15.3278 148.282 15.3278H145.158V11.4597H144.297V19.9645H148.282C148.602 19.9645 148.896 19.8763 149.173 19.6957C149.274 19.6201 149.408 19.5025 149.576 19.3429C149.752 19.1707 149.87 19.0447 149.929 18.9607C150.067 18.7592 150.139 18.5156 150.139 18.2216V17.075C150.139 16.781 150.067 16.5332 149.929 16.3358ZM149.278 18.2216C149.278 18.3182 149.261 18.3938 149.232 18.4484C149.085 18.713 148.854 18.9355 148.534 19.1161C148.438 19.1539 148.35 19.1707 148.27 19.1707H145.158V16.109H148.27C148.379 16.109 148.467 16.1216 148.534 16.151C148.841 16.3316 149.076 16.5626 149.232 16.8482C149.261 16.9028 149.278 16.9784 149.278 17.075V18.2216ZM159.862 11.4597L155.842 18.7172V11.4597H154.981V19.9645H156.124L160.143 12.6063V19.9645H161V11.4597H159.862ZM66.5224 30.7457C65.716 29.7126 65.128 28.986 64.75 28.5576L68.2905 24.2107H66.3208C65.9764 24.5971 65.485 25.2018 64.8424 26.0166C64.2124 26.8356 63.721 27.4446 63.364 27.8436H63.0154V24.2107H61.411V32.9339H63.0154V29.2842H63.3808L66.3376 32.9339H68.3031C67.9293 32.5055 67.3329 31.7747 66.5224 30.7457ZM74.2544 24.2107L71.1297 30.0738V24.2107H69.5295V32.9339H71.2221L74.3762 27.1422V32.9339H75.9764V24.2107H74.2544ZM84.3679 28.9776C84.3301 28.902 84.2125 28.7718 84.0193 28.587C83.8345 28.4022 83.6833 28.2678 83.5615 28.1922C83.2255 27.978 82.8685 27.8688 82.4947 27.8688H79.7815V25.668H83.7757V24.2107H78.1772V32.9339H82.4947C82.9021 32.9339 83.2549 32.8247 83.5615 32.6105C83.6749 32.5433 83.8219 32.4173 84.0025 32.2325C84.1873 32.0477 84.3091 31.9091 84.3679 31.8251C84.5443 31.5815 84.6283 31.2875 84.6283 30.9473V29.8554C84.6283 29.5152 84.5443 29.2212 84.3679 28.9776ZM83.0281 30.8885C83.0281 30.9305 83.0239 30.9641 83.0113 30.9935C82.9609 31.0985 82.8769 31.2077 82.7551 31.3127C82.6417 31.4219 82.5493 31.4723 82.4779 31.4723H79.7815V29.2842H82.4653C82.5367 29.2842 82.6249 29.3388 82.7383 29.448C82.8517 29.553 82.9399 29.6664 83.0113 29.7798L83.0281 29.8554V30.8885ZM92.3687 25.668V24.2107H86.6358V32.9339H92.3687V31.4723H88.236V29.3304H92.1251V27.8688H88.236V25.668H92.3687ZM100.689 25.332C100.617 25.2354 100.487 25.0926 100.294 24.9078C100.109 24.7231 99.9664 24.5971 99.8656 24.5299C99.5506 24.3157 99.1894 24.2107 98.782 24.2107H94.4981V32.9339H96.0983V29.49H98.782C99.1894 29.49 99.5506 29.3808 99.8656 29.1708C99.979 29.091 100.126 28.9692 100.307 28.8054C100.491 28.629 100.617 28.4946 100.689 28.3938C100.874 28.1334 100.962 27.8352 100.962 27.5076V26.2224C100.962 25.8906 100.874 25.5966 100.689 25.332ZM99.3616 27.4908C99.3616 27.5118 99.3616 27.5286 99.349 27.5496C99.286 27.6588 99.1936 27.7638 99.0718 27.8688C98.95 27.978 98.8534 28.0326 98.782 28.0326H96.0983V25.668H98.8576C99.013 25.689 99.1726 25.8444 99.349 26.1342C99.3574 26.1552 99.3616 26.1888 99.3616 26.235V27.4908ZM102.688 24.2107V32.9339H104.288V25.668H107.413V32.9339H109.017V24.2107H102.688ZM117.9 25.4622C117.778 25.3068 117.593 25.1136 117.35 24.8784C117.115 24.6475 116.926 24.4921 116.787 24.4123C116.489 24.2401 116.174 24.1519 115.838 24.1519H113.524C113.188 24.1519 112.873 24.2401 112.579 24.4123C112.436 24.4921 112.239 24.6516 111.982 24.8952C111.739 25.1304 111.567 25.3194 111.466 25.4622C111.302 25.6974 111.218 25.9746 111.218 26.2938V30.8591C111.218 31.1825 111.302 31.4597 111.466 31.6907C111.567 31.8377 111.739 32.0309 111.982 32.2745C112.239 32.5097 112.436 32.6651 112.579 32.7407C112.873 32.9171 113.188 33.0053 113.524 33.0053H115.838C116.174 33.0053 116.489 32.9171 116.787 32.7407C116.926 32.6651 117.115 32.5097 117.35 32.2745C117.593 32.0435 117.778 31.8461 117.9 31.6907C118.06 31.4597 118.144 31.1825 118.144 30.8591V26.2938C118.144 25.9746 118.06 25.6974 117.9 25.4622ZM116.539 30.8465L116.527 30.9053C116.321 31.1951 116.098 31.4051 115.855 31.5311C115.834 31.5395 115.809 31.5479 115.779 31.5479H113.583C113.553 31.5479 113.528 31.5395 113.507 31.5311C113.263 31.4051 113.041 31.1951 112.835 30.9053C112.827 30.8969 112.822 30.8759 112.822 30.8465V26.34L112.835 26.2644C113.049 25.9662 113.272 25.752 113.507 25.626C113.515 25.6134 113.545 25.6092 113.583 25.6092H115.779C115.809 25.6092 115.834 25.6134 115.855 25.626C116.09 25.752 116.313 25.9662 116.527 26.2644C116.535 26.277 116.539 26.3022 116.539 26.34V30.8465ZM120.945 24.2107V30.8591C120.945 30.9095 120.827 31.0397 120.596 31.2539C120.374 31.4597 120.235 31.5563 120.185 31.5479H119.147V33.0053H120.26C120.575 33.0053 120.89 32.9171 121.205 32.7407C121.348 32.6651 121.537 32.5097 121.768 32.2745C122.003 32.0435 122.176 31.8545 122.289 31.7075C122.461 31.4555 122.545 31.1783 122.545 30.8759V25.6848H125.641V32.9339H127.245V24.2107H120.945ZM134.171 24.2107L131.046 30.0738V24.2107H129.446V32.9339H131.138L134.292 27.1422V32.9339H135.897V24.2107H134.171ZM138.098 24.2107V32.9339H139.698V25.668H143.738V24.2107H138.098ZM152.117 25.4622C151.995 25.3068 151.81 25.1136 151.567 24.8784C151.332 24.6475 151.147 24.4921 151.004 24.4123C150.706 24.2401 150.391 24.1519 150.059 24.1519H147.741C147.405 24.1519 147.09 24.2401 146.796 24.4123C146.653 24.4921 146.455 24.6516 146.199 24.8952C145.956 25.1304 145.783 25.3194 145.683 25.4622C145.519 25.6974 145.439 25.9746 145.439 26.2938V30.8591C145.439 31.1825 145.519 31.4597 145.683 31.6907C145.783 31.8377 145.956 32.0309 146.199 32.2745C146.455 32.5097 146.653 32.6651 146.796 32.7407C147.09 32.9171 147.405 33.0053 147.741 33.0053H150.059C150.391 33.0053 150.706 32.9171 151.004 32.7407C151.147 32.6651 151.332 32.5097 151.567 32.2745C151.81 32.0435 151.995 31.8461 152.117 31.6907C152.276 31.4597 152.36 31.1825 152.36 30.8591V26.2938C152.36 25.9746 152.276 25.6974 152.117 25.4622ZM150.76 30.8465L150.744 30.9053C150.542 31.1951 150.315 31.4051 150.072 31.5311C150.051 31.5395 150.025 31.5479 149.996 31.5479H147.799C147.77 31.5479 147.745 31.5395 147.724 31.5311C147.48 31.4051 147.258 31.1951 147.052 30.9053C147.043 30.8969 147.039 30.8759 147.039 30.8465V26.34L147.052 26.2644C147.266 25.9662 147.489 25.752 147.724 25.626C147.736 25.6134 147.762 25.6092 147.799 25.6092H149.996C150.025 25.6092 150.051 25.6134 150.072 25.626C150.307 25.752 150.529 25.9662 150.744 26.2644C150.752 26.277 150.76 26.3022 150.76 26.34V30.8465Z" fill="#00DBAE"/>
</svg>
