<svg width="120" height="32" viewBox="0 0 120 32" fill="none" xmlns="http://www.w3.org/2000/svg">
<path d="M35.2384 12.1921C34.5727 14.1459 33.9069 16.0747 33.2536 18.0004H31.8412C31.0137 20.4426 30.1644 22.9283 29.3275 25.3891C29.6822 25.7282 30.1208 25.946 30.4941 26.2602C29.8377 28.1797 29.1906 30.0805 28.5435 32H22.1193C21.9544 31.5365 21.7926 31.0761 21.6184 30.5876C21.3913 30.5876 21.1797 30.5783 20.9713 30.5876C20.7535 30.597 20.598 30.6063 20.4051 30.5192C20.178 30.4134 20.0131 30.1707 20.0131 29.9343C20.0038 29.6823 20.1593 29.4552 20.4051 29.3401C20.5513 29.2717 20.6789 29.253 20.8437 29.253C21.4162 29.2437 21.9917 29.253 22.5921 29.253C22.8472 29.7228 22.9126 30.2485 23.149 30.709H27.5418C27.9866 29.393 28.4346 28.0832 28.8888 26.7486C28.5155 26.478 28.1329 26.2166 27.7222 25.9211C28.024 24.9007 28.3973 23.8896 28.7426 22.8754C29.088 21.8456 29.4364 20.8066 29.7817 19.7706C30.127 18.7502 30.4817 17.7204 30.8395 16.6907H32.2519C32.6967 15.3809 33.1727 14.0308 33.6269 12.6868C32.4323 11.8593 31.2688 11.0473 30.0741 10.2166C29.7102 10.4686 29.3648 10.7051 29.0071 10.9508C28.7146 10.7517 28.4409 10.5682 28.1795 10.3846C27.3769 9.83398 26.5867 9.27711 25.784 8.72646C25.6472 8.63001 25.5289 8.51802 25.4574 8.37802C25.3392 8.14158 25.3672 7.92381 25.5289 7.72471C25.6845 7.54116 25.8929 7.46338 26.1294 7.50693C26.3845 7.55049 26.6022 7.67182 26.8231 7.82115C27.5418 8.32825 28.2729 8.8229 29.0008 9.33933C29.3555 9.09356 29.6946 8.86023 30.0679 8.60513C31.7883 9.79043 33.5025 10.9851 35.2416 12.189L35.2384 12.1921Z" fill="#00DBAE"/>
<path d="M5.52207 19.9637C5.52207 19.6401 5.2203 19.3632 4.88431 19.3632C4.54832 19.3632 4.25588 19.6526 4.25588 19.973C4.25588 20.2934 4.55765 20.5828 4.89364 20.5734C5.22963 20.5734 5.52207 20.2934 5.52207 19.9637ZM0 12.2794C1.7204 11.0848 3.42524 9.89949 5.15808 8.69553C5.5034 8.93196 5.8425 9.15907 6.20649 9.40173C6.65137 9.10618 6.7447 9.04707 7.24558 8.71108C7.45401 8.57109 7.65623 8.4062 7.902 8.33465C8.23799 8.22887 8.53043 8.30976 8.69531 8.57109C8.87886 8.84174 8.82287 9.15596 8.53976 9.3924C7.82112 9.99282 7.00914 10.4844 6.24383 11.0412C5.90991 10.8255 5.54281 10.5901 5.14252 10.335C3.97589 11.147 2.79059 11.9652 1.59907 12.7959C2.04394 14.1118 2.50126 15.4309 2.95547 16.7811H4.5141C4.72254 17.3815 4.92475 17.9602 5.12386 18.5077C6.34338 18.8406 6.60782 19.8517 6.28116 20.5765C5.96383 21.2921 5.0243 21.7027 4.17811 21.3014C3.6959 21.0743 3.43146 20.673 3.34124 20.1752C3.25102 19.6774 3.48746 19.2761 3.78612 18.8841C3.70523 18.6321 3.6119 18.3864 3.52168 18.125H1.95995C1.30352 16.1807 0.665759 14.2332 0 12.2794Z" fill="#00DBAE"/>
<path d="M23.4601 5.66829C23.1241 5.67762 22.8317 5.96383 22.841 6.28738C22.8504 6.61093 23.1521 6.88781 23.4881 6.88159C23.8334 6.87225 24.1165 6.58604 24.1072 6.26249C24.0979 5.93895 23.7961 5.66206 23.4601 5.66829ZM12.8546 4.82209C12.7178 4.41143 12.5902 4.01011 12.444 3.5839C14.1488 2.3986 15.8692 1.20397 17.6083 0C19.3225 1.19463 21.0335 2.37993 22.7726 3.5839C22.645 3.96656 22.5455 4.26521 22.3993 4.71942C22.5258 4.82312 22.6295 4.90712 22.7104 4.97142C22.757 4.96208 22.8193 4.94653 22.8752 4.92786C23.4477 4.71942 23.9766 4.78787 24.4525 5.15497C24.8819 5.48785 25.0716 5.94828 25.0001 6.46471C24.9192 7.05891 24.5708 7.47579 23.9703 7.67801C23.1055 7.96733 22.0664 7.46024 21.9388 6.38693C21.9295 6.29049 21.9388 6.18783 21.9388 6.07272C21.5562 5.80206 21.1455 5.49718 20.7722 5.22652C20.8946 4.90712 21.0221 4.52654 21.1549 4.08477C19.9976 3.2728 18.8216 2.46082 17.6207 1.62395C16.4354 2.44527 15.2626 3.26346 14.0679 4.08477C14.2048 4.49543 14.3324 4.89675 14.4786 5.32296C14.323 5.43496 14.1675 5.55007 14.0057 5.66206C13.5142 6.00117 13.0226 6.34338 12.5311 6.68248C12.3849 6.78826 12.22 6.86603 12.0582 6.93447C11.7844 7.04025 11.548 6.97803 11.3489 6.78514C11.1498 6.59226 11.1311 6.33093 11.268 6.06028C11.3489 5.89539 11.4765 5.78028 11.632 5.67762C12.0333 5.39763 12.4347 5.11141 12.8609 4.82209H12.8546Z" fill="#00DBAE"/>
<path d="M7.7062 30.7122H12.0803C12.3167 30.0319 12.4961 29.5434 12.6185 29.2469H15.7513C15.9442 29.2469 16.1433 29.2469 16.3082 29.2997C16.6006 29.3962 16.7282 29.6575 16.7188 29.9282C16.7095 30.2082 16.5726 30.4259 16.3082 30.5224C16.1246 30.5908 15.9162 30.5846 15.7171 30.5846C15.1695 30.5753 14.6251 30.5753 14.0776 30.5846H13.6047C13.4585 31.0046 13.2843 31.5366 13.1194 31.9814H6.67023C6.05113 30.0899 5.39471 28.1767 4.73828 26.2416C5.17694 25.9367 5.58448 25.6474 6.00447 25.3519C5.79603 24.7234 5.59381 24.123 5.38537 23.5195C5.31382 23.311 5.25782 23.0995 5.24849 22.8817C5.23916 22.5924 5.40404 22.3684 5.66848 22.2719C5.91425 22.1848 6.17869 22.2533 6.36846 22.4555C6.48668 22.5862 6.56756 22.7355 6.62356 22.9097C6.94089 23.8772 7.27999 24.8385 7.60665 25.8247C7.27273 26.0798 6.85689 26.3941 6.35913 26.7674C6.81333 28.0833 7.26132 29.4024 7.7062 30.7184V30.7122Z" fill="#00DBAE"/>
<path d="M18.1843 9.6005C18.1937 9.26139 17.9105 8.99074 17.5559 8.9814C17.2012 8.97207 16.9181 9.24273 16.9088 9.58183C16.8995 9.92093 17.1826 10.1916 17.5372 10.2009C17.8919 10.2009 18.175 9.93027 18.1843 9.6005ZM16.8186 10.9102C15.7795 10.2289 15.8355 9.15562 16.4453 8.56453C17.0923 7.9361 18.0661 7.97032 18.6759 8.58941C19.2856 9.21784 19.267 10.2725 18.3212 10.8822C18.2496 11.0316 18.2839 11.1871 18.2839 11.3458V21.1517C18.2839 21.2824 18.2932 21.4131 18.2745 21.5437C18.2279 21.8922 17.9199 22.1441 17.5652 22.1535C17.2106 22.1535 16.8901 21.9015 16.8372 21.5593C16.8186 21.4286 16.8279 21.2979 16.8279 21.1673V11.4049C16.8186 11.24 16.8186 11.0813 16.8186 10.9071V10.9102Z" fill="#00DBAE"/>
<path d="M15.5427 16.0311V21.1768C15.5427 21.2888 15.552 21.4132 15.5333 21.5252C15.4867 21.9016 15.1787 22.163 14.796 22.1536C14.4414 22.1443 14.1396 21.883 14.0867 21.5345C14.0774 21.4381 14.0774 21.3354 14.0774 21.2297V10.8575C14.0774 10.7704 14.0681 10.6833 14.0774 10.5962C14.1147 10.2198 14.4227 9.9522 14.796 9.94287C15.1787 9.94287 15.4898 10.2042 15.524 10.59C15.5334 10.702 15.524 10.8264 15.524 10.9384C15.5427 12.6308 15.5427 14.3325 15.5427 16.0343V16.0311Z" fill="#00DBAE"/>
<path d="M23.3787 24.518C23.2698 24.5865 23.1609 24.5616 23.0614 24.5616H20.7375C20.5539 24.5616 20.3735 24.5367 20.1993 24.4838C19.8975 24.3873 19.7357 24.1696 19.7357 23.9083C19.7264 23.6189 19.9006 23.4012 20.2179 23.2985C20.3735 23.2456 20.5384 23.2207 20.7095 23.2207C21.1481 23.23 21.593 23.23 22.0316 23.2207C22.1499 23.2207 22.2774 23.2456 22.4236 23.1523C22.6414 22.499 22.8778 21.8083 23.1174 21.127C23.5187 19.9417 23.9294 18.7626 24.3214 17.5773C24.3836 17.3938 24.4862 17.2382 24.6045 17.0889C24.7693 16.8711 25.0431 16.784 25.2889 16.8524C25.5627 16.9209 25.7431 17.148 25.7524 17.428C25.7524 17.54 25.7524 17.6551 25.7151 17.7671C24.9591 19.9821 24.2125 22.1972 23.4565 24.4153C23.4378 24.4589 23.4005 24.4931 23.3849 24.5211L23.3787 24.518Z" fill="#00DBAE"/>
<path d="M12.0093 24.5615C11.8102 23.9611 11.6173 23.3918 11.4182 22.8349C11.0355 21.7087 10.6529 20.5763 10.2609 19.4501C10.1893 19.2417 10.1614 19.0301 10.1707 18.8124C10.1893 18.523 10.3791 18.3053 10.6436 18.2461C10.9267 18.1839 11.1444 18.271 11.328 18.4919C11.4369 18.6226 11.4835 18.7719 11.5271 18.9275C11.972 20.2434 12.4293 21.5718 12.8742 22.8878C12.9115 22.9998 12.9302 23.1149 13.0577 23.2362H15.1981C15.3972 23.2362 15.5901 23.2456 15.7799 23.3047C16.1003 23.4104 16.2714 23.6189 16.2714 23.9051C16.2714 24.1913 16.0972 24.3935 15.7612 24.4993C15.6616 24.5242 15.5621 24.5615 15.4501 24.5615H12.0062H12.0093Z" fill="#00DBAE"/>
<path d="M21.6006 15.7759C21.7188 15.7075 21.8184 15.6266 21.9273 15.583C22.3379 15.3995 22.7828 15.6515 22.8295 16.0901C22.8575 16.3266 22.7922 16.5537 22.7206 16.7715C22.2291 18.2181 21.7375 19.6585 21.2366 21.1082C21.1558 21.354 21.1091 21.6153 20.9349 21.8331C20.7171 22.1224 20.4527 22.2344 20.1602 22.1286C19.8491 22.0229 19.678 21.7367 19.7496 21.3944C19.7962 21.1424 19.8678 20.8873 19.9487 20.6353C20.4962 19.0207 21.0406 17.4092 21.5975 15.7759H21.6006Z" fill="#00DBAE"/>
<path d="M19.5527 10.282C19.8265 9.60067 20.738 9.60067 21.0118 10.282V14.3979C21.0118 14.7214 20.8936 14.9641 20.5825 15.1041C20.3274 15.2254 20.0816 15.1912 19.8545 15.0356C19.6274 14.8801 19.5527 14.653 19.5527 14.3916C19.5621 13.6668 19.5527 12.9357 19.5527 12.2108V10.282Z" fill="#00DBAE"/>
<path d="M12.8083 14.3197V15.8037C12.8083 15.9094 12.8176 16.0028 12.799 16.1085C12.7523 16.485 12.4443 16.7463 12.0617 16.7463C11.679 16.7463 11.3866 16.4663 11.343 16.093C11.3337 16.0245 11.343 15.9437 11.343 15.8752V12.7424C11.343 12.6553 11.3337 12.5682 11.3523 12.4811C11.4083 12.1327 11.707 11.8713 12.0617 11.8713C12.4443 11.862 12.7616 12.1327 12.799 12.5091C12.8176 12.7549 12.8083 13.0069 12.8083 13.2495V14.3228V14.3197Z" fill="#00DBAE"/>
<path d="M23.5751 11.8992C23.8738 12.1263 23.6187 11.9209 23.9174 12.148C23.9796 12.1947 24.0418 12.2352 24.0947 12.2943C24.2938 12.4965 24.2751 12.8294 24.0574 13.0876C23.8458 13.3427 23.5067 13.4173 23.2578 13.2773C23.2112 13.2525 23.1676 13.2089 23.1272 13.1778C22.5018 12.6987 22.421 12.6489 22.2063 12.4716C22.1534 12.4312 22.0974 12.3969 22.0539 12.344C21.8765 12.148 21.8921 11.8214 22.0912 11.5818C22.3027 11.3174 22.6481 11.2241 22.8907 11.3703C23.0463 11.4698 23.1925 11.5912 23.3387 11.7032C23.5471 11.8618 23.3543 11.7281 23.5751 11.8961V11.8992Z" fill="#00DBAE"/>
<path d="M26.4751 14.5375C26.4658 14.214 26.1578 13.9371 25.8187 13.9526C25.4827 13.962 25.1903 14.2575 25.2089 14.5811C25.2183 14.9046 25.5263 15.1815 25.8654 15.1659C26.2014 15.1566 26.4845 14.861 26.4751 14.5375ZM25.828 13.0815C26.7209 13.1438 27.3587 13.6664 27.368 14.5468C27.3773 15.4179 26.7489 16.037 25.8187 16.0308C24.8978 16.0215 24.2974 15.4117 24.3067 14.5562C24.3067 13.6851 24.9258 13.1438 25.828 13.0815Z" fill="#00DBAE"/>
<path d="M10.7149 7.58433C10.7149 7.96698 10.3883 8.27498 9.99629 8.27498C9.6043 8.27498 9.26831 7.97943 9.25898 7.59366C9.24965 7.19234 9.58564 6.86879 10.0056 6.87813C10.4069 6.89679 10.7149 7.20167 10.7149 7.58433Z" fill="#00DBAE"/>
<path d="M9.34951 15.1665C8.95752 15.1665 8.63086 14.8523 8.63086 14.4759C8.63086 14.0994 8.94818 13.779 9.34017 13.779C9.75083 13.7697 10.0962 14.1025 10.0868 14.4945C10.0682 14.871 9.74149 15.1758 9.34951 15.1665Z" fill="#00DBAE"/>
<path d="M10.8048 16.5721C10.8048 16.9548 10.4781 17.2628 10.0861 17.2628C9.69412 17.2628 9.33946 16.9299 9.35813 16.5379C9.37679 16.1615 9.71278 15.8566 10.1048 15.8659C10.4968 15.8846 10.8141 16.1988 10.8048 16.5721Z" fill="#00DBAE"/>
<path d="M18.0233 23.1926C18.4153 23.2019 18.7419 23.5161 18.7326 23.8894C18.7326 24.2814 18.3779 24.605 17.9673 24.5863C17.5753 24.5676 17.2673 24.2379 17.2735 23.8614C17.2922 23.485 17.6189 23.1895 18.0202 23.1895L18.0233 23.1926Z" fill="#00DBAE"/>
<path d="M19.0954 29.9253C19.086 30.3079 18.7687 30.6159 18.3674 30.6159C17.9661 30.6159 17.6207 30.2768 17.6394 29.8817C17.6581 29.5053 17.9941 29.2004 18.3954 29.2191C18.7874 29.2284 19.1047 29.5426 19.0954 29.9253Z" fill="#00DBAE"/>
<path d="M49.1627 8.0416V10.8975H46.0547V8.0416H45.417V14.3414H46.0547V11.4855H49.1627V14.3414H49.7973V8.0416H49.1627ZM54.1994 8.0416H53.2101L51.0044 14.3414H51.6733L52.1772 12.8824H55.2292L55.7238 14.3414H56.4051L54.1994 8.0416ZM52.3764 12.2944L53.627 8.63892H53.7701L55.0332 12.2944H52.3764ZM61.7219 13.7534V8.0416H61.0841V13.7534H58.1629V8.0416H57.5251V14.3414H61.557L61.4357 15.3525H62.061L62.2601 13.7534H61.7219ZM67.4897 8.0416L64.5125 13.4175V8.0416H63.8778V14.3414H64.7209L67.6981 8.89091V14.3414H68.3359V8.0416H67.4897ZM74.5642 8.90024C74.4988 8.8038 74.3806 8.67003 74.2126 8.50203C74.0446 8.33404 73.914 8.22204 73.8175 8.16604C73.634 8.05405 73.4442 7.99805 73.2482 7.99805H71.5123C71.3225 7.99805 71.1358 8.05405 70.9523 8.16604C70.8589 8.22204 70.7221 8.33715 70.5478 8.51137C70.3736 8.68558 70.2616 8.81002 70.1963 8.90024C70.1061 9.03402 70.0625 9.20512 70.0625 9.41667V12.9881C70.0625 13.1966 70.1061 13.3708 70.1963 13.5014C70.2616 13.5948 70.3767 13.7223 70.5478 13.8903C70.7221 14.0583 70.8589 14.1703 70.9523 14.2263C71.1358 14.3383 71.3225 14.3943 71.5123 14.3943H73.2482C73.4442 14.3943 73.634 14.3383 73.8175 14.2263C73.914 14.1703 74.0446 14.0583 74.2126 13.8903C74.3806 13.7223 74.4988 13.5948 74.5642 13.5014C74.6606 13.3615 74.7073 13.1903 74.7073 12.9881V9.41667C74.7073 9.21446 74.6606 9.04024 74.5642 8.90024ZM74.0695 12.9788C74.0695 13.0255 74.0602 13.0721 74.0384 13.1126C73.9731 13.2339 73.8611 13.3615 73.7086 13.5014C73.5624 13.6414 73.4411 13.7348 73.3478 13.7752C73.3104 13.797 73.2607 13.8063 73.2047 13.8063H71.5683C71.5029 13.8063 71.4532 13.797 71.4252 13.7752C71.338 13.7348 71.2167 13.6414 71.0612 13.5014C70.9149 13.3615 70.8092 13.2339 70.7438 13.1126C70.7158 13.0566 70.7003 13.013 70.7003 12.9788V9.43845C70.7003 9.38868 70.7158 9.33579 70.7438 9.27979C70.8092 9.16157 70.9149 9.03091 71.0612 8.89091C71.2167 8.75092 71.338 8.6607 71.4252 8.61714C71.4532 8.59847 71.5029 8.58603 71.5683 8.58603H73.2047C73.2544 8.58603 73.3011 8.59847 73.3478 8.61714C73.4411 8.6607 73.5624 8.75092 73.7086 8.89091C73.8611 9.03091 73.9731 9.16157 74.0384 9.27979C74.0602 9.32023 74.0695 9.37312 74.0695 9.43845V12.9788ZM80.1049 8.0416V10.8975H76.997V8.0416H76.3592V14.3414H76.997V11.4855H80.1049V14.3414H80.7427V8.0416H80.1049ZM85.1417 8.0416H84.1524L81.9466 14.3414H82.6155L83.1195 12.8824H86.1745L86.6661 14.3414H87.3474L85.1417 8.0416ZM83.3186 12.2944L84.5692 8.63892H84.7123L85.9754 12.2944H83.3186ZM88.962 8.0416V12.9664C88.962 13.0379 88.9496 13.0908 88.9184 13.125C88.8531 13.237 88.7473 13.3583 88.6011 13.4921C88.4611 13.6166 88.3398 13.7099 88.2371 13.7659C88.1936 13.7877 88.1438 13.797 88.0847 13.797H87.6025V14.385H88.0971C88.2931 14.385 88.4829 14.3352 88.6665 14.2388C88.7691 14.1828 88.906 14.0708 89.074 13.9028C89.2482 13.7348 89.3695 13.601 89.4349 13.5014C89.5375 13.349 89.5904 13.181 89.5904 12.9975V8.62959H92.3343V14.3414H92.9597V8.0416H88.962ZM98.9048 11.6535C98.7524 11.4513 98.5657 11.2677 98.3448 11.1091C98.1613 10.9753 97.9435 10.9069 97.6853 10.9069H95.3707V8.0416H94.7329V14.3414H97.6853C97.9217 14.3414 98.1395 14.2761 98.3448 14.1423C98.4195 14.0863 98.516 13.9992 98.6404 13.881C98.7742 13.7534 98.8613 13.6601 98.9048 13.5979C99.0075 13.4361 99.0604 13.2588 99.0604 13.0628V12.201C99.0604 11.9957 99.0075 11.8153 98.9048 11.6535ZM98.4226 13.0504C98.4226 13.1219 98.4102 13.1779 98.3884 13.2183C98.2795 13.4143 98.1084 13.5792 97.872 13.713C97.8004 13.741 97.7351 13.7534 97.676 13.7534H95.3707V11.4855H97.676C97.7569 11.4855 97.8222 11.4948 97.872 11.5166C98.0991 11.6504 98.2733 11.8215 98.3884 12.033C98.4102 12.0735 98.4226 12.1295 98.4226 12.201V13.0504ZM104.474 8.0416V10.8975H101.366V8.0416H100.728V14.3414H101.366V11.4855H104.474V14.3414H105.108V8.0416H104.474ZM112.385 8.0416V14.3414H113.001V8.0416H112.385ZM111.056 11.6535C110.904 11.4513 110.717 11.2677 110.497 11.1091C110.313 10.9753 110.095 10.9069 109.837 10.9069H107.522V8.0416H106.885V14.3414H109.837C110.073 14.3414 110.291 14.2761 110.497 14.1423C110.571 14.0863 110.671 13.9992 110.795 13.881C110.926 13.7534 111.013 13.6601 111.056 13.5979C111.159 13.4486 111.212 13.2681 111.212 13.0504V12.201C111.212 11.9833 111.159 11.7997 111.056 11.6535ZM110.574 13.0504C110.574 13.1219 110.562 13.1779 110.54 13.2183C110.431 13.4143 110.26 13.5792 110.024 13.713C109.952 13.741 109.887 13.7534 109.828 13.7534H107.522V11.4855H109.828C109.909 11.4855 109.974 11.4948 110.024 11.5166C110.251 11.6504 110.425 11.8215 110.54 12.033C110.562 12.0735 110.574 12.1295 110.574 12.201V13.0504ZM118.414 8.0416L115.437 13.4175V8.0416H114.799V14.3414H115.645L118.622 8.89091V14.3414H119.257V8.0416H118.414ZM49.2747 22.3274C48.6773 21.5621 48.2418 21.0239 47.9618 20.7066L50.5844 17.4867H49.1253C48.8702 17.7729 48.5062 18.2209 48.0303 18.8244C47.5636 19.4311 47.1996 19.8822 46.9352 20.1777H46.677V17.4867H45.4885V23.9483H46.677V21.2448H46.9476L49.1378 23.9483H50.5937C50.3169 23.6309 49.8751 23.0896 49.2747 22.3274ZM55.0021 17.4867L52.6875 21.8297V17.4867H51.5022V23.9483H52.7559L55.0923 19.6582V23.9483H56.2776V17.4867H55.0021ZM62.4934 21.0177C62.4654 20.9617 62.3783 20.8652 62.2352 20.7284C62.0983 20.5915 61.9863 20.4919 61.8961 20.4359C61.6472 20.2773 61.3828 20.1964 61.1059 20.1964H59.0962V18.5662H62.0547V17.4867H57.9078V23.9483H61.1059C61.4077 23.9483 61.669 23.8674 61.8961 23.7087C61.9801 23.6589 62.089 23.5656 62.2227 23.4287C62.3596 23.2918 62.4499 23.1892 62.4934 23.127C62.6241 22.9465 62.6863 22.7287 62.6863 22.4768V21.6679C62.6863 21.4159 62.6241 21.1981 62.4934 21.0177ZM61.501 22.4332C61.501 22.4643 61.4979 22.4892 61.4885 22.511C61.4512 22.5888 61.389 22.6696 61.2988 22.7474C61.2148 22.8283 61.1463 22.8656 61.0934 22.8656H59.0962V21.2448H61.0841C61.137 21.2448 61.2023 21.2852 61.2863 21.3661C61.3703 21.4439 61.4357 21.5279 61.4885 21.6119L61.501 21.6679V22.4332ZM68.4199 18.5662V17.4867H64.1734V23.9483H68.4199V22.8656H65.3587V21.279H68.2395V20.1964H65.3587V18.5662H68.4199ZM74.5828 18.3173C74.53 18.2458 74.4335 18.14 74.2904 18.0031C74.1535 17.8662 74.0477 17.7729 73.9731 17.7231C73.7398 17.5644 73.4722 17.4867 73.1704 17.4867H69.9972V23.9483H71.1825V21.3972H73.1704C73.4722 21.3972 73.7398 21.3163 73.9731 21.1608C74.0571 21.1017 74.166 21.0115 74.2997 20.8901C74.4366 20.7595 74.53 20.6599 74.5828 20.5853C74.7197 20.3924 74.7851 20.1715 74.7851 19.9288V18.9769C74.7851 18.7311 74.7197 18.5133 74.5828 18.3173ZM73.5998 19.9164C73.5998 19.9319 73.5998 19.9444 73.5904 19.9599C73.5438 20.0408 73.4753 20.1186 73.3851 20.1964C73.2949 20.2773 73.2233 20.3177 73.1704 20.3177H71.1825V18.5662H73.2264C73.3415 18.5818 73.4598 18.6969 73.5904 18.9115C73.5966 18.9271 73.5998 18.952 73.5998 18.9862V19.9164ZM76.0637 17.4867V23.9483H77.249V18.5662H79.5636V23.9483H80.752V17.4867H76.0637ZM87.3318 18.4138C87.2416 18.2986 87.1047 18.1555 86.9243 17.9813C86.7501 17.8102 86.6101 17.6951 86.5074 17.636C86.2865 17.5084 86.0532 17.4431 85.8043 17.4431H84.0901C83.8412 17.4431 83.6079 17.5084 83.3901 17.636C83.2844 17.6951 83.1382 17.8133 82.9484 17.9938C82.7679 18.168 82.6404 18.308 82.5657 18.4138C82.4444 18.588 82.3822 18.7933 82.3822 19.0297V22.4114C82.3822 22.651 82.4444 22.8563 82.5657 23.0274C82.6404 23.1363 82.7679 23.2794 82.9484 23.4598C83.1382 23.6341 83.2844 23.7492 83.3901 23.8052C83.6079 23.9358 83.8412 24.0012 84.0901 24.0012H85.8043C86.0532 24.0012 86.2865 23.9358 86.5074 23.8052C86.6101 23.7492 86.7501 23.6341 86.9243 23.4598C87.1047 23.2887 87.2416 23.1425 87.3318 23.0274C87.45 22.8563 87.5123 22.651 87.5123 22.4114V19.0297C87.5123 18.7933 87.45 18.588 87.3318 18.4138ZM86.3239 22.4021L86.3145 22.4456C86.1621 22.6603 85.9972 22.8159 85.8168 22.9092C85.8012 22.9154 85.7825 22.9216 85.7608 22.9216H84.1337C84.1119 22.9216 84.0932 22.9154 84.0777 22.9092C83.8973 22.8159 83.7324 22.6603 83.5799 22.4456C83.5737 22.4394 83.5706 22.4239 83.5706 22.4021V19.064L83.5799 19.008C83.7386 18.7871 83.9035 18.6284 84.0777 18.5351C84.0839 18.5258 84.1057 18.5226 84.1337 18.5226H85.7608C85.7825 18.5226 85.8012 18.5258 85.8168 18.5351C85.991 18.6284 86.1559 18.7871 86.3145 19.008C86.3207 19.0173 86.3239 19.036 86.3239 19.064V22.4021ZM89.5873 17.4867V22.4114C89.5873 22.4488 89.5002 22.5452 89.3291 22.7039C89.1642 22.8563 89.0616 22.9279 89.0242 22.9216H88.2558V24.0012H89.0802C89.3135 24.0012 89.5469 23.9358 89.7802 23.8052C89.886 23.7492 90.026 23.6341 90.1971 23.4598C90.3713 23.2887 90.4988 23.1487 90.5828 23.0399C90.7104 22.8532 90.7726 22.6479 90.7726 22.4239V18.5786H93.0654V23.9483H94.2538V17.4867H89.5873ZM99.3839 17.4867L97.0693 21.8297V17.4867H95.884V23.9483H97.1378L99.4741 19.6582V23.9483H100.663V17.4867H99.3839ZM102.293 17.4867V23.9483H103.478V18.5662H106.471V17.4867H102.293ZM112.677 18.4138C112.587 18.2986 112.45 18.1555 112.27 17.9813C112.096 17.8102 111.959 17.6951 111.853 17.636C111.632 17.5084 111.399 17.4431 111.153 17.4431H109.436C109.187 17.4431 108.953 17.5084 108.736 17.636C108.63 17.6951 108.484 17.8133 108.294 17.9938C108.113 18.168 107.986 18.308 107.911 18.4138C107.79 18.588 107.731 18.7933 107.731 19.0297V22.4114C107.731 22.651 107.79 22.8563 107.911 23.0274C107.986 23.1363 108.113 23.2794 108.294 23.4598C108.484 23.6341 108.63 23.7492 108.736 23.8052C108.953 23.9358 109.187 24.0012 109.436 24.0012H111.153C111.399 24.0012 111.632 23.9358 111.853 23.8052C111.959 23.7492 112.096 23.6341 112.27 23.4598C112.45 23.2887 112.587 23.1425 112.677 23.0274C112.796 22.8563 112.858 22.651 112.858 22.4114V19.0297C112.858 18.7933 112.796 18.588 112.677 18.4138ZM111.672 22.4021L111.66 22.4456C111.511 22.6603 111.343 22.8159 111.162 22.9092C111.147 22.9154 111.128 22.9216 111.106 22.9216H109.479C109.457 22.9216 109.439 22.9154 109.423 22.9092C109.243 22.8159 109.078 22.6603 108.925 22.4456C108.919 22.4394 108.916 22.4239 108.916 22.4021V19.064L108.925 19.008C109.084 18.7871 109.249 18.6284 109.423 18.5351C109.433 18.5258 109.451 18.5226 109.479 18.5226H111.106C111.128 18.5226 111.147 18.5258 111.162 18.5351C111.336 18.6284 111.501 18.7871 111.66 19.008C111.666 19.0173 111.672 19.036 111.672 19.064V22.4021Z" fill="#00DBAE"/>
<path d="M119.205 17.4907V23.9523H118.016V21.2831H115.555V23.9523H114.37V17.4907H115.555V20.2004H118.016V17.4907H119.205Z" fill="#00DBAE"/>
</svg>
