<svg width="120" height="32" viewBox="0 0 120 32" fill="none" xmlns="http://www.w3.org/2000/svg">
<path d="M27.9292 22.707L30.9564 28.0139H33.7781L30.6204 22.483C32.3957 21.8475 33.6105 20.652 33.6105 18.6341C33.6105 16.373 31.8351 14.9342 28.9577 14.9342H23.3711V28.0139H25.8377V22.707H27.9305H27.9292ZM25.8364 20.5394V17.1013H28.957C30.4706 17.1013 31.1433 17.7739 31.1433 18.8203C31.1433 19.8667 30.4706 20.5394 28.957 20.5394H25.8364ZM44.1666 23.3797C44.1666 20.1285 41.6444 18.4843 39.1029 18.4843C36.5615 18.4843 34.0393 20.1285 34.0393 23.3797C34.0393 26.6309 36.5615 28.2757 39.1029 28.2757C41.6444 28.2757 44.1666 26.6315 44.1666 23.3797ZM39.1029 26.0702C37.7205 26.0702 36.4309 25.0802 36.4309 23.3797C36.4309 21.6792 37.7205 20.6891 39.1029 20.6891C40.4853 20.6891 41.7749 21.6798 41.7749 23.3797C41.7749 25.0795 40.486 26.0702 39.1029 26.0702ZM47.3506 21.1C47.3506 20.5957 47.9113 20.3154 48.6773 20.3154C49.5746 20.3154 50.1909 20.7077 50.6396 21.3803L52.1717 20.3154C51.5177 19.1755 50.509 18.4843 48.6402 18.4843C46.7714 18.4843 45.2585 19.4373 45.2585 21.1749C45.2585 22.9125 46.6037 23.7163 48.4162 24.0709C49.7429 24.3326 50.3593 24.6878 50.3593 25.267C50.3593 25.9768 49.7052 26.2949 48.902 26.2949C47.8185 26.2949 47.1644 25.66 46.7157 24.931L44.8284 26.1266C45.4639 27.285 46.678 28.2757 48.8642 28.2757C51.1625 28.2757 52.5263 26.9304 52.5263 25.1928C52.5263 23.6421 51.6297 22.7826 49.462 22.3339C48.0047 22.035 47.3506 21.6984 47.3506 21.1006M53.2309 18.7461V20.652H54.6697V25.3234C54.6697 27.603 56.0335 28.2757 57.6405 28.2757C58.1826 28.2757 58.7989 28.1637 59.2105 28.0139L58.9858 26.0709C58.7989 26.1272 58.5564 26.1829 58.2012 26.1829C57.4914 26.1829 57.0242 25.8277 57.0242 24.8747V20.652H59.0421V18.7461H57.0242V16.2424H54.6697V18.7461H53.2309ZM62.1519 23.941H69.2898V23.1186C69.2898 20.4094 67.421 18.4843 64.7682 18.4843C62.1154 18.4843 59.8914 20.4466 59.8914 23.3797C59.8914 26.3128 62.0777 28.2757 64.6562 28.2757C66.6933 28.2757 67.9823 27.5096 68.9167 25.9211L67.0485 24.9867C66.4693 25.7157 65.9465 26.2571 64.694 26.2571C63.3109 26.2571 62.3023 25.3605 62.1525 23.9403M64.694 20.2776C66.0021 20.2776 66.8802 20.988 67.1042 22.1464H62.1897C62.5263 21.1 63.4601 20.2776 64.6933 20.2776M70.6204 28.0133H72.9749V14.9336H70.6204V28.0133ZM76.6863 23.9243H83.8242V23.1019C83.8242 20.3928 81.9554 18.4677 79.3026 18.4677C76.6498 18.4677 74.4258 20.4299 74.4258 23.363C74.4258 26.2962 76.6121 28.2584 79.1906 28.2584C81.2277 28.2584 82.5167 27.4923 83.4511 25.9038L81.5823 24.9694C81.0031 25.6984 80.4802 26.2398 79.2277 26.2398C77.8447 26.2398 76.8361 25.3432 76.6863 23.923M79.2277 20.2603C80.5359 20.2603 81.414 20.9707 81.638 22.1291H76.7234C77.0601 21.0827 77.9938 20.2603 79.2271 20.2603M94.1007 25.7726L92.1577 24.7077C91.597 25.4923 90.9993 26.053 89.8409 26.053C88.4207 26.053 87.3743 25.0251 87.3743 23.3624C87.3743 21.6997 88.4578 20.6718 89.8409 20.6718C90.6818 20.6718 91.4108 21.0642 91.99 21.9422L94.0079 20.7838C93.3353 19.3451 91.878 18.467 89.8601 18.467C87.2252 18.467 84.9833 20.4101 84.9833 23.3624C84.9833 26.3147 87.1132 28.2578 89.8601 28.2578C91.8409 28.2578 93.1669 27.3611 94.1013 25.7726M105.032 23.3624C105.032 20.1112 102.51 18.467 99.9682 18.467C97.4268 18.467 94.9045 20.1112 94.9045 23.3624C94.9045 26.6136 97.4268 28.2578 99.9682 28.2578C102.51 28.2578 105.032 26.6136 105.032 23.3624ZM99.9682 26.053C98.5858 26.053 97.2962 25.0622 97.2962 23.3624C97.2962 21.6626 98.5858 20.6718 99.9682 20.6718C101.351 20.6718 102.64 21.6619 102.64 23.3624C102.64 25.0629 101.351 26.053 99.9682 26.053ZM119.77 27.996V21.5122C119.77 19.6811 118.706 18.4664 116.781 18.4664C115.641 18.4664 114.501 18.9707 113.829 20.0549C113.436 19.0648 112.614 18.4664 111.25 18.4664C110.279 18.4664 109.251 18.8958 108.56 19.9614V18.7282H106.205V27.996H108.56V22.8011C108.56 21.3061 109.401 20.5214 110.316 20.5214C111.344 20.5214 111.811 21.1755 111.811 22.2968V27.996H114.165V22.8389C114.165 21.3067 114.913 20.5221 115.959 20.5221C117.006 20.5221 117.417 21.1762 117.417 22.2597V27.996H119.772H119.77Z" fill="white"/>
<path d="M7.54903 23.4406L19.8409 11.2256L8.58519 0L2.21271 6.35968C0.30807 8.25792 0.56535 9.5008 0.56535 12.0506V29.4982C0.56535 30.8467 1.68407 32 3.09335 32H16.1129L15.7462 31.6339L7.54903 23.4406ZM3.09527 31.7856C1.25719 31.7856 0.960871 29.9904 1.74359 29.2128L7.39223 23.5968L15.5945 31.7856H3.09527Z" fill="white"/>
</svg>
