<svg width="175" height="64" viewBox="0 0 175 64" fill="none" xmlns="http://www.w3.org/2000/svg">
<path d="M28.9443 61.047H4.19974C2.40394 61.047 1.35986 59.4392 1.35986 58.061C1.35986 57.2257 1.69397 56.4949 2.23688 55.952L13.0326 45.1562L28.9443 61.047Z" fill="#FF4F12"/>
<path d="M4.20076 61.0464C2.34231 61.0464 0.00358897 59.543 0.00358897 56.5778V23.3137C0.00358897 18.8242 -0.226106 15.6502 2.98964 12.4553L15.0173 0.406738L36.3791 21.7893L2.2379 55.9305C1.69499 56.4734 1.36088 57.2251 1.36088 58.0395C1.36088 59.4386 2.40495 61.0464 4.20076 61.0464Z" fill="#7700FF"/>
<path d="M46.1721 61.0267C43.5828 61.0267 41.6826 59.1891 41.6826 56.4745C41.6826 53.7599 43.6664 51.9224 46.2348 51.9224C48.0723 51.9224 49.3879 52.8829 50.0143 54.0731L48.6153 54.9084C48.0723 54.0105 47.3415 53.4467 46.1721 53.4467C44.6269 53.4467 43.3531 54.6161 43.3531 56.4745C43.3531 58.333 44.606 59.5023 46.1721 59.5023C47.2788 59.5023 48.0932 59.0221 48.7197 58.1033L50.1187 58.8968C49.1164 60.3376 48.0932 61.0267 46.1721 61.0267Z" fill="white"/>
<path d="M54.2318 61.026C52.5195 61.026 50.8281 59.9193 50.8281 57.7476C50.8281 55.576 52.5195 54.4692 54.2318 54.4692C55.9441 54.4692 57.6146 55.5551 57.6146 57.7267C57.6146 59.8984 55.9232 61.026 54.2318 61.026ZM56.0067 57.7267C56.0067 56.5783 55.1506 55.9309 54.2109 55.9309C53.2713 55.9309 52.4151 56.5991 52.4151 57.7267C52.4151 58.8543 53.2713 59.5226 54.2109 59.5226C55.1506 59.5226 56.0067 58.8752 56.0067 57.7267Z" fill="white"/>
<path d="M58.1382 60.8379V59.4388C58.1382 59.4388 58.3052 59.5224 58.5767 59.5224C58.9734 59.5224 59.1614 59.2509 59.224 58.1442L59.4328 54.6152H64.3191V60.8379H62.7321V56.0561H60.811L60.7066 58.2068C60.6231 60.0026 60.1219 60.9214 58.7229 60.9214C58.4096 60.9214 58.1382 60.8379 58.1382 60.8379Z" fill="white"/>
<path d="M69.6211 59.8575C69.1826 60.6301 68.4309 61.0269 67.533 61.0269C66.301 61.0269 65.4448 60.2543 65.4448 59.0849C65.4448 57.8111 66.4054 57.2473 67.6583 57.0594L69.5167 56.8088V56.4956C69.5167 55.89 69.1408 55.5559 68.3473 55.5559C67.6583 55.5559 67.2615 55.8692 67.2615 56.2659C67.2615 56.3077 67.2615 56.3912 67.2824 56.433L65.7998 56.6C65.7789 56.4956 65.7789 56.3703 65.7789 56.2659C65.7789 55.3054 66.7395 54.4492 68.3682 54.4492C70.1014 54.4492 71.1037 55.1801 71.1037 56.7044V59.2937C71.1037 59.9619 71.1663 60.4004 71.3125 60.8389H69.7464C69.6838 60.5884 69.6211 60.2543 69.6211 59.8575ZM69.5376 58.0199V57.9155L68.0341 58.1243C67.3659 58.2288 66.99 58.4793 66.99 59.0014C66.99 59.5234 67.3868 59.7531 67.888 59.7531C68.7859 59.7322 69.5376 59.2102 69.5376 58.0199Z" fill="white"/>
<path d="M74.0699 54.6363V55.5342C74.4875 54.9286 75.281 54.4692 76.2207 54.4692C77.7659 54.4692 79.0814 55.6804 79.0814 57.7476C79.0814 59.8149 77.745 61.026 76.0954 61.026C75.2184 61.026 74.5293 60.6501 74.0699 60.0863V63.4065H72.4829V54.6363H74.0699ZM73.9655 57.7267C73.9655 58.7499 74.6963 59.5225 75.7195 59.5225C76.7427 59.5225 77.4736 58.7291 77.4736 57.7267C77.4736 56.7244 76.7427 55.9309 75.7195 55.9309C74.6963 55.9309 73.9655 56.7244 73.9655 57.7267Z" fill="white"/>
<path d="M145.902 34.1729H142.311L138.051 38.4953V34.1729H135.023V46.0753H138.051V41.1473L142.394 46.0753H146.048L140.41 39.6856L145.902 34.1729Z" fill="white"/>
<path d="M49.9933 29.2656H42.3716V46.0752H45.5456V40.2284H50.0142C53.8146 40.2284 56.2995 38.2864 56.2995 34.7574C56.2995 31.2285 53.7937 29.2656 49.9933 29.2656ZM49.9098 37.3885H45.5456V32.1055H49.9098C52.1232 32.1055 53.1255 33.1705 53.1255 34.7366C53.1255 36.3444 52.1023 37.3885 49.9098 37.3885Z" fill="white"/>
<path d="M63.4423 33.8384C60.1847 33.8384 56.9272 35.9474 56.9272 40.1237C56.9272 44.3 60.1639 46.409 63.4423 46.409C66.7206 46.409 69.9573 44.3 69.9573 40.1237C69.9573 35.9474 66.6998 33.8384 63.4423 33.8384ZM63.4423 43.59C61.6673 43.59 60.0177 42.3162 60.0177 40.1237C60.0177 37.9311 61.6673 36.6574 63.4423 36.6574C65.2172 36.6574 66.8668 37.9311 66.8668 40.1237C66.8668 42.3162 65.2172 43.59 63.4423 43.59Z" fill="white"/>
<path d="M77.662 43.5904C75.8453 43.5904 74.488 42.2749 74.488 40.1241C74.488 37.9942 75.8871 36.6577 77.662 36.6577C78.7478 36.6577 79.6875 37.1589 80.4184 38.2865L83.0077 36.8039C82.1515 34.9664 80.2722 33.8179 77.6829 33.8179C74.3001 33.8179 71.4185 36.3236 71.4185 40.1032C71.4185 43.8827 74.1539 46.3885 77.6829 46.3885C80.2304 46.3885 81.9427 45.24 83.1329 43.1936L80.6272 41.8363C79.9381 42.8595 79.1655 43.5904 77.662 43.5904Z" fill="white"/>
<path d="M109.883 40.9176C109.737 42.7342 109.382 43.1519 108.755 43.1519C108.338 43.1519 108.129 43.1101 107.836 43.0266L107.857 46.117C107.857 46.117 108.233 46.2214 108.922 46.2214C111.491 46.2214 112.451 44.5718 112.681 41.0428L112.973 36.8874H116.377V46.0544H119.405V34.1729H110.384L109.883 40.9176Z" fill="white"/>
<path d="M101.299 33.8384C97.8328 33.8384 95.0347 36.365 95.0347 40.1237C95.0347 43.8824 97.8537 46.409 101.153 46.409C103.763 46.409 105.434 45.4276 106.624 43.3812L104.223 42.1701C103.471 43.1097 102.803 43.7988 101.195 43.7988C99.4198 43.7988 98.1251 42.6503 97.9372 40.8128H107.104V39.7478C107.104 36.3024 104.703 33.8384 101.299 33.8384ZM97.9789 38.5367C98.4175 37.2003 99.6077 36.1353 101.195 36.1353C102.865 36.1353 104.014 37.0541 104.285 38.5367H97.9789Z" fill="white"/>
<path d="M127.361 33.8384C123.894 33.8384 121.096 36.365 121.096 40.1237C121.096 43.8824 123.915 46.409 127.214 46.409C129.825 46.409 131.495 45.4276 132.685 43.3812L130.284 42.1701C129.532 43.1097 128.864 43.7988 127.256 43.7988C125.481 43.7988 124.187 42.6503 123.999 40.8128H133.166V39.7478C133.187 36.3024 130.785 33.8384 127.361 33.8384ZM124.061 38.5367C124.5 37.2003 125.69 36.1353 127.277 36.1353C128.948 36.1353 130.096 37.0541 130.368 38.5367H124.061Z" fill="white"/>
<path d="M84.0938 36.8039H87.6436V46.0753H90.6714V36.8039H94.2212V34.1729H84.0938V36.8039Z" fill="white"/>
<path d="M152.042 33.8384C148.785 33.8384 145.527 35.9474 145.527 40.1237C145.527 44.3 148.764 46.409 152.042 46.409C155.321 46.409 158.557 44.3 158.557 40.1237C158.557 35.9474 155.321 33.8384 152.042 33.8384ZM152.042 43.59C150.267 43.59 148.618 42.3162 148.618 40.1237C148.618 37.9311 150.267 36.6574 152.042 36.6574C153.817 36.6574 155.467 37.9311 155.467 40.1237C155.488 42.3162 153.817 43.59 152.042 43.59Z" fill="white"/>
<path d="M170.585 34.1729L167.306 42.5045L164.028 34.1729H160.061V46.0544H162.942V38.5371L166.137 46.0544H168.476L171.671 38.5371V46.0544H174.552V34.1729H170.585Z" fill="white"/>
</svg>
