<svg width="162" height="57" viewBox="0 0 162 57" fill="none" xmlns="http://www.w3.org/2000/svg">
<path d="M134.636 31.3994H131.329L127.383 35.3732V31.3994H124.604V42.3759H127.383V37.8463L131.384 42.3759H134.775L129.578 36.4847L134.636 31.3994Z" fill="white"/>
<path d="M46.157 26.8696H39.1265V42.3756H42.0443V36.9846H46.157C49.6583 36.9846 51.9647 35.1784 51.9647 31.9271C51.9647 28.6759 49.6583 26.8696 46.157 26.8696ZM46.0736 34.3447H42.0443V29.4817H46.0736C48.1021 29.4817 49.047 30.4543 49.047 31.9271C49.047 33.3721 48.1021 34.3447 46.0736 34.3447Z" fill="white"/>
<path d="M58.5511 31.0933C55.55 31.0933 52.5488 33.0385 52.5488 36.9011C52.5488 40.7637 55.55 42.7088 58.5511 42.7088C61.5523 42.7088 64.5535 40.7637 64.5535 36.9011C64.5535 33.0385 61.5801 31.0933 58.5511 31.0933ZM58.5511 40.0689C56.9116 40.0689 55.3833 38.9018 55.3833 36.8733C55.3833 34.8447 56.9116 33.6776 58.5511 33.6776C60.1907 33.6776 61.719 34.8447 61.719 36.8733C61.719 38.9018 60.1907 40.0689 58.5511 40.0689Z" fill="white"/>
<path d="M71.6941 40.0689C69.999 40.0689 68.7763 38.8462 68.7763 36.8732C68.7763 34.928 70.0546 33.6775 71.6941 33.6775C72.6945 33.6775 73.5559 34.15 74.2507 35.1781L76.6405 33.8165C75.8346 32.1214 74.1117 31.0654 71.7219 31.0654C68.6096 31.0654 65.9419 33.3719 65.9419 36.8732C65.9419 40.3746 68.4706 42.681 71.7219 42.681C74.0561 42.681 75.6401 41.6251 76.7516 39.7354L74.4452 38.485C73.7782 39.402 73.0557 40.0689 71.6941 40.0689Z" fill="white"/>
<path d="M101.4 37.624C101.261 39.3191 100.928 39.6803 100.372 39.6803C99.9831 39.6803 99.7886 39.6248 99.5107 39.5692L99.5385 42.4036C99.5385 42.4036 99.872 42.5148 100.539 42.5148C102.901 42.5148 103.79 40.9864 104.012 37.7351L104.29 33.9003H107.43V42.348H110.209V31.3716H101.873L101.4 37.624Z" fill="white"/>
<path d="M93.4807 31.0933C90.285 31.0933 87.7007 33.4275 87.7007 36.9011C87.7007 40.3746 90.285 42.7088 93.3417 42.7088C95.7593 42.7088 97.2877 41.7918 98.3992 39.93L96.1762 38.8185C95.4815 39.6799 94.8701 40.319 93.3973 40.319C91.7578 40.319 90.5629 39.2631 90.3962 37.568H98.8439V36.5954C98.8439 33.3719 96.6208 31.0933 93.4807 31.0933ZM90.424 35.4283C90.813 34.1778 91.9245 33.2052 93.3973 33.2052C94.9535 33.2052 95.9816 34.0388 96.2595 35.4283H90.424Z" fill="white"/>
<path d="M117.546 31.0933C114.35 31.0933 111.766 33.4275 111.766 36.9011C111.766 40.3746 114.35 42.7088 117.407 42.7088C119.825 42.7088 121.353 41.7918 122.465 39.93L120.242 38.8185C119.547 39.6799 118.936 40.319 117.463 40.319C115.823 40.319 114.628 39.2631 114.462 37.568H122.909V36.5954C122.909 33.3719 120.686 31.0933 117.546 31.0933ZM114.489 35.4283C114.878 34.1778 115.99 33.2052 117.463 33.2052C119.019 33.2052 120.047 34.0388 120.325 35.4283H114.489Z" fill="white"/>
<path d="M77.6138 33.817H80.8928V42.3759H83.6717V33.817H86.9507V31.3994H77.6138V33.817Z" fill="white"/>
<path d="M140.304 31.0933C137.303 31.0933 134.302 33.0385 134.302 36.9011C134.302 40.7637 137.303 42.7088 140.304 42.7088C143.305 42.7088 146.306 40.7637 146.306 36.9011C146.306 33.0385 143.305 31.0933 140.304 31.0933ZM140.304 40.0689C138.665 40.0689 137.136 38.9018 137.136 36.8733C137.136 34.8447 138.665 33.6776 140.304 33.6776C141.944 33.6776 143.472 34.8447 143.472 36.8733C143.472 38.9018 141.944 40.0689 140.304 40.0689Z" fill="white"/>
<path d="M157.422 31.3994L154.393 39.069L151.364 31.3994H147.696V42.3481H150.364V35.401L153.31 42.3481H155.477L158.395 35.401V42.3481H161.063V31.3994H157.422Z" fill="white"/>
<path d="M33.708 19.9778L13.9781 0.220215L2.86275 11.3356C-0.110616 14.309 0.000537908 17.2268 0.000537908 21.3672V52.0735C0.000537908 54.8246 2.27919 56.1862 4.00208 56.1862H26.8442L12.1441 41.4861L33.708 19.9778ZM2.0291 53.4352C2.0291 52.6015 2.30698 51.9068 2.89054 51.3232L11.7273 42.153L25.0102 55.4359H4.00208C3.44631 55.4359 3.00169 55.2136 2.64044 54.7968C2.25141 54.38 2.0291 53.852 2.0291 53.4352Z" fill="white"/>
</svg>
