<svg width="143" height="134" viewBox="0 0 143 134" fill="none" xmlns="http://www.w3.org/2000/svg">
<path d="M142.844 55.4448H106.575L95.1362 66.8835H29.5732" stroke="#00FFF0" stroke-opacity="0.25"/>
<g filter="url(#filter0_d_43_13082)">
<path d="M61.3439 76.5818L61.3457 75.203L66.8621 74.5064L66.8594 76.5748L61.3439 76.5818Z" fill="#04CBF5"/>
<path d="M57.2038 79.3449L58.5826 79.3432L59.265 84.8578L57.1966 84.8605L57.2038 79.3449Z" fill="#04CBF5"/>
<path d="M54.0937 85.2092L52.7149 85.2109L52.7325 71.4221L66.5213 71.4044L66.5195 72.7833L54.1097 72.7993L54.0937 85.2092Z" fill="#04CBF5"/>
<path d="M61.3563 66.9297L61.3554 67.6192L55.8399 67.6263L55.8408 66.9368L61.3563 66.9297Z" fill="#04CBF5"/>
<path d="M49.62 79.3546L48.9305 79.3556L48.9375 73.84L49.627 73.8392L49.62 79.3546Z" fill="#04CBF5"/>
<path d="M58.2233 90.7193L57.5339 90.7202L57.5409 85.2047L58.2304 85.2039L58.2233 90.7193Z" fill="#04CBF5"/>
<path d="M67.2152 67.9564L67.217 66.5775L94.7945 66.5421L94.7935 67.2316L83.7626 67.2457L83.7617 67.9351L67.2152 67.9564Z" fill="#04CBF5"/>
<path d="M39.0013 26.6263L40.3801 26.6246L40.366 37.6556L38.9872 37.6573L39.0013 26.6263Z" fill="#04CBF5"/>
<path d="M43.8283 25.9307L43.8353 20.4152L44.5247 20.4143L44.5177 25.9298L43.8283 25.9307Z" fill="#04CBF5"/>
<path d="M43.8132 37.6511L43.4761 31.7913L42.7927 26.9662L44.8611 26.9635L44.854 32.479L44.1646 32.4799L44.1575 37.9954L44.5026 37.6503L44.4956 43.1657L43.1167 43.1676L43.1237 37.652L43.8132 37.6511Z" fill="#04CBF5"/>
<path d="M8.28014 58.7246L8.28194 57.3457L19.3129 57.3316L19.3111 58.7104L8.28014 58.7246Z" fill="#04CBF5"/>
<path d="M7.93055 62.517L2.41506 62.524L2.41594 61.8345L7.93143 61.8275L7.93055 62.517Z" fill="#04CBF5"/>
<path d="M19.651 62.5019L13.7903 62.8541L8.61912 63.2055L8.62177 61.1372L14.1373 61.1301L14.1364 61.8196L19.6519 61.8124L19.6527 61.123L25.1683 61.1159L25.1665 62.4948L19.651 62.5019Z" fill="#04CBF5"/>
<path d="M40.3448 54.2021L38.9659 54.2039L38.9729 48.6884L39.6624 48.6874L39.6695 43.172L40.3589 43.1711L39.6624 48.6874L40.3518 48.6866L40.3448 54.2021Z" fill="#04CBF5"/>
<path d="M43.4539 49.0273L44.8328 49.0256L44.8151 62.8143L31.0263 62.832L31.028 61.4532L43.438 61.4372L43.4539 49.0273Z" fill="#04CBF5"/>
<path d="M30.6865 59.0405L30.6873 58.3511L30.6882 57.6617L36.2037 57.6546L36.202 59.0334L30.6865 59.0405Z" fill="#04CBF5"/>
<path d="M67.2055 75.5402L72.7209 75.5331L72.72 76.2226L67.2046 76.2296L67.2055 75.5402Z" fill="#04CBF5"/>
<path d="M42.0529 66.2651L42.052 66.9545L36.5365 66.9616L36.5375 66.2721L42.0529 66.2651Z" fill="#04CBF5"/>
<path d="M48.3162 20.7542L49.0057 20.7532L48.3092 26.2696L48.3021 31.7852L48.9915 31.7843L48.9703 48.3308L47.5914 48.3326L47.6126 31.7861L48.3021 31.7852L48.3162 20.7542Z" fill="#04CBF5"/>
<path d="M30.3333 65.5906L30.3316 66.9695L2.75401 67.0049L2.75492 66.3155L13.7859 66.3013L13.7868 65.6119L30.3333 65.5906Z" fill="#04CBF5"/>
<path d="M49.5766 113.137L48.8871 113.138L49.5836 107.622L49.5907 102.106L48.9013 102.107L48.9225 85.5604L50.3014 85.5587L50.2801 102.105L49.5907 102.106L49.5836 107.622L49.5766 113.137Z" fill="#04CBF5"/>
<path d="M48.2729 54.5367L48.9624 54.5357L48.9552 60.0512L48.2658 60.0522L48.2729 54.5367Z" fill="#04CBF5"/>
<path d="M54.0796 96.2401L54.4168 102.1L55.4443 107.269L53.376 107.272L53.383 101.757L54.0725 101.756L54.0796 96.2401L53.3902 96.241L53.3972 90.7256L54.7761 90.7237L54.769 96.2393L54.0796 96.2401Z" fill="#04CBF5"/>
<path d="M58.5463 107.61L57.1675 107.612L57.1816 96.5809L58.5604 96.5791L58.5463 107.61Z" fill="#04CBF5"/>
<path d="M53.7203 107.616L53.7133 113.132L53.0237 113.133L53.0308 107.617L53.7203 107.616Z" fill="#04CBF5"/>
<path d="M89.2675 75.5119L89.2657 76.8907L78.2347 76.9049L78.2365 75.526L89.2675 75.5119Z" fill="#04CBF5"/>
<path d="M89.618 71.0301L95.1334 71.023L95.1326 71.7125L89.6171 71.7195L89.618 71.0301Z" fill="#04CBF5"/>
<path d="M78.2417 71.3894L84.1024 71.0371L89.2745 69.9964L89.2719 72.0647L83.7564 72.0717L83.7573 71.3823L78.2417 71.3894L78.2409 72.0788L72.7254 72.0859L72.7272 70.7071L78.2427 70.6999L78.2417 71.3894Z" fill="#04CBF5"/>
</g>
<defs>
<filter id="filter0_d_43_13082" x="-17.585" y="0.414551" width="132.718" height="132.724" filterUnits="userSpaceOnUse" color-interpolation-filters="sRGB">
<feFlood flood-opacity="0" result="BackgroundImageFix"/>
<feColorMatrix in="SourceAlpha" type="matrix" values="0 0 0 0 0 0 0 0 0 0 0 0 0 0 0 0 0 0 127 0" result="hardAlpha"/>
<feOffset/>
<feGaussianBlur stdDeviation="10"/>
<feColorMatrix type="matrix" values="0 0 0 0 0 0 0 0 0 1 0 0 0 0 0.94 0 0 0 0.75 0"/>
<feBlend mode="normal" in2="BackgroundImageFix" result="effect1_dropShadow_43_13082"/>
<feBlend mode="normal" in="SourceGraphic" in2="effect1_dropShadow_43_13082" result="shape"/>
</filter>
</defs>
</svg>
